999
dxfrw 0.6.3
  0
SECTION
  2
HEADER
  9
$ACADVER
  1
AC1021
  9
$DWGCODEPAGE
  3
ANSI_1252
  9
$INSBASE
 10
0
 20
0
 30
0
  9
$EXTMIN
 10
3.480068581293492
 20
4.005053
 30
0
  9
$EXTMAX
 10
486.0790085812935
 20
146.245053
 30
0
  9
$LIMMIN
 10
0
 20
0
  9
$LIMMAX
 10
420
 20
297
  9
$ORTHOMODE
 70
    0
  9
$REGENMODE
 70
    1
  9
$FILLMODE
 70
    1
  9
$QTEXTMODE
 70
    0
  9
$MIRRTEXT
 70
    0
  9
$LTSCALE
 40
1
  9
$ATTMODE
 70
    0
  9
$TEXTSIZE
 40
2.5
  9
$TRACEWID
 40
15.68
  9
$TEXTSTYLE
  7
STANDARD
  9
$CLAYER
  8
superwide big buttons
  9
$CELTYPE
  6
BYLAYER
  9
$CECOLOR
 62
  256
  9
$CELTSCALE
 40
1
  9
$DISPSILH
 70
    0
  9
$DIMSCALE
 40
2.5
  9
$DIMASZ
 40
2.5
  9
$DIMEXO
 40
0.625
  9
$DIMDLI
 40
3.75
  9
$DIMRND
 40
0
  9
$DIMDLE
 40
0
  9
$DIMEXE
 40
1.25
  9
$DIMTP
 40
0
  9
$DIMTM
 40
0
  9
$DIMTXT
 40
2.5
  9
$DIMCEN
 40
2.5
  9
$DIMTSZ
 40
0
  9
$DIMTOL
 70
    0
  9
$DIMLIM
 70
    0
  9
$DIMTIH
 70
    0
  9
$DIMTOH
 70
    0
  9
$DIMSE1
 70
    0
  9
$DIMSE2
 70
    0
  9
$DIMTAD
 70
    1
  9
$DIMZIN
 70
    8
  9
$DIMBLK
  1

  9
$DIMASO
 70
    1
  9
$DIMSHO
 70
    1
  9
$DIMPOST
  1

  9
$DIMAPOST
  1

  9
$DIMALT
 70
    0
  9
$DIMALTD
 70
    3
  9
$DIMALTF
 40
0.03937
  9
$DIMLFAC
 40
1
  9
$DIMTOFL
 70
    1
  9
$DIMTVP
 40
0
  9
$DIMTIX
 70
    0
  9
$DIMSOXD
 70
    0
  9
$DIMSAH
 70
    0
  9
$DIMBLK1
  1

  9
$DIMBLK2
  1

  9
$DIMSTYLE
  2
Standard
  9
$DIMCLRD
 70
    0
  9
$DIMCLRE
 70
    0
  9
$DIMCLRT
 70
    0
  9
$DIMTFAC
 40
1
  9
$DIMGAP
 40
0.625
  9
$DIMJUST
 70
    0
  9
$DIMSD1
 70
    0
  9
$DIMSD2
 70
    0
  9
$DIMTOLJ
 70
    0
  9
$DIMTZIN
 70
    8
  9
$DIMALTZ
 70
    0
  9
$DIMALTTZ
 70
    0
  9
$DIMUPT
 70
    0
  9
$DIMDEC
 70
    2
  9
$DIMTDEC
 70
    2
  9
$DIMALTU
 70
    2
  9
$DIMALTTD
 70
    3
  9
$DIMTXSTY
  7
STANDARD
  9
$DIMAUNIT
 70
    0
  9
$DIMADEC
 70
    0
  9
$DIMALTRND
 40
0
  9
$DIMAZIN
 70
    0
  9
$DIMDSEP
 70
   44
  9
$DIMATFIT
 70
    3
  9
$DIMFRAC
 70
    0
  9
$DIMLDRBLK
  1
STANDARD
  9
$DIMLUNIT
 70
    2
  9
$DIMLWD
 70
   -2
  9
$DIMLWE
 70
   -2
  9
$DIMTMOVE
 70
    0
  9
$DIMFXL
 40
1
  9
$DIMFXLON
 70
    0
  9
$DIMJOGANG
 40
0.7854
  9
$DIMTFILL
 70
    0
  9
$DIMTFILLCLR
 70
    0
  9
$DIMARCSYM
 70
    0
  9
$DIMLTYPE
  6

  9
$DIMLTEX1
  6

  9
$DIMLTEX2
  6

  9
$LUNITS
 70
    2
  9
$LUPREC
 70
    4
  9
$SKETCHINC
 40
1
  9
$FILLETRAD
 40
0
  9
$AUNITS
 70
    0
  9
$AUPREC
 70
    2
  9
$MENU
  1
.
  9
$ELEVATION
 40
0
  9
$PELEVATION
 40
0
  9
$THICKNESS
 40
0
  9
$LIMCHECK
 70
    0
  9
$CHAMFERA
 40
0
  9
$CHAMFERB
 40
0
  9
$CHAMFERC
 40
0
  9
$CHAMFERD
 40
0
  9
$SKPOLY
 70
    0
  9
$USRTIMER
 70
    1
  9
$ANGBASE
 50
0
  9
$ANGDIR
 70
    0
  9
$PDMODE
 70
   34
  9
$PDSIZE
 40
0
  9
$PLINEWID
 40
0
  9
$SPLFRAME
 70
    0
  9
$SPLINETYPE
 70
    2
  9
$SPLINESEGS
 70
    8
  9
$HANDSEED
  5
20000
  9
$SURFTAB1
 70
    6
  9
$SURFTAB2
 70
    6
  9
$SURFTYPE
 70
    6
  9
$SURFU
 70
    6
  9
$SURFV
 70
    6
  9
$UCSBASE
  2

  9
$UCSNAME
  2

  9
$UCSORG
 10
0
 20
0
 30
0
  9
$UCSXDIR
 10
1
 20
0
 30
0
  9
$UCSYDIR
 10
0
 20
1
 30
0
  9
$UCSORTHOREF
  2

  9
$UCSORTHOVIEW
 70
    0
  9
$UCSORGTOP
 10
0
 20
0
 30
0
  9
$UCSORGBOTTOM
 10
0
 20
0
 30
0
  9
$UCSORGLEFT
 10
0
 20
0
 30
0
  9
$UCSORGRIGHT
 10
0
 20
0
 30
0
  9
$UCSORGFRONT
 10
0
 20
0
 30
0
  9
$UCSORGBACK
 10
0
 20
0
 30
0
  9
$PUCSBASE
  2

  9
$PUCSNAME
  2

  9
$PUCSORG
 10
0
 20
0
 30
0
  9
$PUCSXDIR
 10
1
 20
0
 30
0
  9
$PUCSYDIR
 10
0
 20
1
 30
0
  9
$PUCSORTHOREF
  2

  9
$PUCSORTHOVIEW
 70
    0
  9
$PUCSORGTOP
 10
0
 20
0
 30
0
  9
$PUCSORGBOTTOM
 10
0
 20
0
 30
0
  9
$PUCSORGLEFT
 10
0
 20
0
 30
0
  9
$PUCSORGRIGHT
 10
0
 20
0
 30
0
  9
$PUCSORGFRONT
 10
0
 20
0
 30
0
  9
$PUCSORGBACK
 10
0
 20
0
 30
0
  9
$USERI1
 70
    0
  9
$USERI2
 70
    0
  9
$USERI3
 70
    0
  9
$USERI4
 70
    0
  9
$USERI5
 70
    0
  9
$USERR1
 40
0
  9
$USERR2
 40
0
  9
$USERR3
 40
0
  9
$USERR4
 40
0
  9
$USERR5
 40
0
  9
$WORLDVIEW
 70
    1
  9
$SHADEDGE
 70
    3
  9
$SHADEDIF
 70
   70
  9
$TILEMODE
 70
    1
  9
$MAXACTVP
 70
   64
  9
$PINSBASE
 10
0
 20
0
 30
0
  9
$PLIMCHECK
 70
    0
  9
$PEXTMIN
 10
0
 20
0
 30
0
  9
$PEXTMAX
 10
0
 20
0
 30
0
  9
$GRIDMODE
 70
    1
  9
$SNAPSTYLE
 70
    0
  9
$PLIMMIN
 10
0
 20
0
  9
$PLIMMAX
 10
210
 20
297
  9
$UNITMODE
 70
    0
  9
$VISRETAIN
 70
    1
  9
$PLINEGEN
 70
    0
  9
$PSLTSCALE
 70
    1
  9
$TREEDEPTH
 70
 3020
  9
$CMLSTYLE
  2
Standard
  9
$CMLJUST
 70
    0
  9
$CMLSCALE
 40
20
  9
$PROXYGRAPHICS
 70
    1
  9
$MEASUREMENT
 70
    1
  9
$CELWEIGHT
370
   -1
  9
$ENDCAPS
280
    0
  9
$JOINSTYLE
280
    0
  9
$LWDISPLAY
290
    0
  9
$INSUNITS
 70
    4
  9
$HYPERLINKBASE
  1

  9
$STYLESHEET
  1

  9
$XEDIT
290
    1
  9
$CEPSNTYPE
380
    0
  9
$PSTYLEMODE
290
    1
  9
$EXTNAMES
290
    1
  9
$PSVPSCALE
 40
1
  9
$OLESTARTUP
290
    0
  9
$SORTENTS
280
  127
  9
$INDEXCTL
280
    0
  9
$HIDETEXT
280
    1
  9
$XCLIPFRAME
290
    0
  9
$HALOGAP
280
    0
  9
$OBSCOLOR
 70
  257
  9
$OBSLTYPE
280
    0
  9
$INTERSECTIONDISPLAY
280
    0
  9
$INTERSECTIONCOLOR
 70
  257
  9
$DIMASSOC
280
    1
  9
$PROJECTNAME
  1

  9
$CAMERADISPLAY
290
    0
  9
$LENSLENGTH
 40
50
  9
$CAMERAHEIGHT
 40
0
  9
$STEPSPERSEC
 40
2
  9
$STEPSIZE
 40
50
  9
$3DDWFPREC
 40
2
  9
$PSOLWIDTH
 40
5
  9
$PSOLHEIGHT
 40
80
  9
$LOFTANG1
 40
1.570796326794897
  9
$LOFTANG2
 40
1.570796326794897
  9
$LOFTMAG1
 40
0
  9
$LOFTMAG2
 40
0
  9
$LOFTPARAM
 70
    7
  9
$LOFTNORMALS
280
    1
  9
$LATITUDE
 40
1
  9
$LONGITUDE
 40
1
  9
$NORTHDIRECTION
 40
0
  9
$TIMEZONE
 70
-8000
  9
$LIGHTGLYPHDISPLAY
280
    1
  9
$TILEMODELIGHTSYNCH
280
    1
  9
$SOLIDHIST
280
    1
  9
$SHOWHIST
280
    1
  9
$DWFFRAME
280
    2
  9
$DGNFRAME
280
    0
  9
$REALWORLDSCALE
290
    1
  9
$INTERFERECOLOR
 62
    1
  9
$CSHADOW
280
    0
  9
$SHADOWPLANELOCATION
 40
0
  0
ENDSEC
  0
SECTION
  2
CLASSES
  0
ENDSEC
  0
SECTION
  2
TABLES
  0
TABLE
  2
VPORT
  5
8
330
0
100
AcDbSymbolTable
 70
    1
  0
VPORT
  5
31
330
2
100
AcDbSymbolTableRecord
100
AcDbViewportTableRecord
  2
*ACTIVE
 70
    0
 10
0
 20
0
 11
1
 21
1
 12
416.9526448118331
 22
199.2993742425939
 13
0
 23
0
 14
10
 24
10
 15
10
 25
10
 16
0
 26
0
 36
1
 17
0
 27
0
 37
0
 40
467.2263608369919
 41
2.031596925704526
 42
50
 43
0
 44
0
 50
0
 51
0
 71
    0
 72
  100
 73
    1
 74
    3
 75
    0
 76
    1
 77
    0
 78
    0
281
    0
 65
    1
110
0
120
0
130
0
111
1
121
0
131
0
112
0
122
1
132
0
 79
    0
146
0
348
10020
 60
    7
 61
    5
292
1
282
    1
141
0
142
0
 63
  250
421
3358443
  0
ENDTAB
  0
TABLE
  2
LTYPE
  5
5
330
0
100
AcDbSymbolTable
 70
    4
  0
LTYPE
  5
14
330
5
100
AcDbSymbolTableRecord
100
AcDbLinetypeTableRecord
  2
ByBlock
 70
    0
  3

 72
   65
 73
    0
 40
0
  0
LTYPE
  5
15
330
5
100
AcDbSymbolTableRecord
100
AcDbLinetypeTableRecord
  2
ByLayer
 70
    0
  3

 72
   65
 73
    0
 40
0
  0
LTYPE
  5
16
330
5
100
AcDbSymbolTableRecord
100
AcDbLinetypeTableRecord
  2
Continuous
 70
    0
  3
Solid line
 72
   65
 73
    0
 40
0
  0
LTYPE
  5
32
330
5
100
AcDbSymbolTableRecord
100
AcDbLinetypeTableRecord
  2
DOT
 70
    0
  3
Dot . . . . . . . . . . . . . . . . . . . . . .
 72
   65
 73
    2
 40
6.35
 49
0
 74
    0
 49
-6.35
 74
    0
  0
LTYPE
  5
33
330
5
100
AcDbSymbolTableRecord
100
AcDbLinetypeTableRecord
  2
DOTTINY
 70
    0
  3
Dot (.15x) .....................................
 72
   65
 73
    2
 40
0.9525
 49
0
 74
    0
 49
-0.9525
 74
    0
  0
LTYPE
  5
34
330
5
100
AcDbSymbolTableRecord
100
AcDbLinetypeTableRecord
  2
DOT2
 70
    0
  3
Dot (.5x) .....................................
 72
   65
 73
    2
 40
3.175
 49
0
 74
    0
 49
-3.175
 74
    0
  0
LTYPE
  5
35
330
5
100
AcDbSymbolTableRecord
100
AcDbLinetypeTableRecord
  2
DOTX2
 70
    0
  3
Dot (2x) .  .  .  .  .  .  .  .  .  .  .  .  .
 72
   65
 73
    2
 40
12.7
 49
0
 74
    0
 49
-12.7
 74
    0
  0
LTYPE
  5
36
330
5
100
AcDbSymbolTableRecord
100
AcDbLinetypeTableRecord
  2
DASHED
 70
    0
  3
Dashed _ _ _ _ _ _ _ _ _ _ _ _ _ _ _ _ _
 72
   65
 73
    2
 40
19.05
 49
12.7
 74
    0
 49
-6.35
 74
    0
  0
LTYPE
  5
37
330
5
100
AcDbSymbolTableRecord
100
AcDbLinetypeTableRecord
  2
DASHEDTINY
 70
    0
  3
Dashed (.15x) _ _ _ _ _ _ _ _ _ _ _ _ _ _ _ _ _
 72
   65
 73
    2
 40
2.8575
 49
1.905
 74
    0
 49
-0.9525
 74
    0
  0
LTYPE
  5
38
330
5
100
AcDbSymbolTableRecord
100
AcDbLinetypeTableRecord
  2
DASHED2
 70
    0
  3
Dashed (.5x) _ _ _ _ _ _ _ _ _ _ _ _ _ _ _ _ _
 72
   65
 73
    2
 40
9.524999999999999
 49
6.35
 74
    0
 49
-3.175
 74
    0
  0
LTYPE
  5
39
330
5
100
AcDbSymbolTableRecord
100
AcDbLinetypeTableRecord
  2
DASHEDX2
 70
    0
  3
Dashed (2x) ____  ____  ____  ____  ____  ___
 72
   65
 73
    2
 40
38.09999999999999
 49
25.4
 74
    0
 49
-12.7
 74
    0
  0
LTYPE
  5
3A
330
5
100
AcDbSymbolTableRecord
100
AcDbLinetypeTableRecord
  2
DASHDOT
 70
    0
  3
Dash dot __ . __ . __ . __ . __ . __ . __ . __
 72
   65
 73
    4
 40
25.4
 49
12.7
 74
    0
 49
-6.35
 74
    0
 49
0
 74
    0
 49
-6.35
 74
    0
  0
LTYPE
  5
3B
330
5
100
AcDbSymbolTableRecord
100
AcDbLinetypeTableRecord
  2
DASHDOTTINY
 70
    0
  3
Dash dot (.15x) _._._._._._._._._._._._._._._.
 72
   65
 73
    4
 40
3.81
 49
1.905
 74
    0
 49
-0.9525
 74
    0
 49
0
 74
    0
 49
-0.9525
 74
    0
  0
LTYPE
  5
3C
330
5
100
AcDbSymbolTableRecord
100
AcDbLinetypeTableRecord
  2
DASHDOT2
 70
    0
  3
Dash dot (.5x) _._._._._._._._._._._._._._._.
 72
   65
 73
    4
 40
12.7
 49
6.35
 74
    0
 49
-3.175
 74
    0
 49
0
 74
    0
 49
-3.175
 74
    0
  0
LTYPE
  5
3D
330
5
100
AcDbSymbolTableRecord
100
AcDbLinetypeTableRecord
  2
DASHDOTX2
 70
    0
  3
Dash dot (2x) ____  .  ____  .  ____  .  ___
 72
   65
 73
    4
 40
50.8
 49
25.4
 74
    0
 49
-12.7
 74
    0
 49
0
 74
    0
 49
-12.7
 74
    0
  0
LTYPE
  5
3E
330
5
100
AcDbSymbolTableRecord
100
AcDbLinetypeTableRecord
  2
DIVIDE
 70
    0
  3
Divide ____ . . ____ . . ____ . . ____ . . ____
 72
   65
 73
    6
 40
31.75
 49
12.7
 74
    0
 49
-6.35
 74
    0
 49
0
 74
    0
 49
-6.35
 74
    0
 49
0
 74
    0
 49
-6.35
 74
    0
  0
LTYPE
  5
3F
330
5
100
AcDbSymbolTableRecord
100
AcDbLinetypeTableRecord
  2
DIVIDETINY
 70
    0
  3
Divide (.15x) __..__..__..__..__..__..__..__.._
 72
   65
 73
    6
 40
4.7625
 49
1.905
 74
    0
 49
-0.9525
 74
    0
 49
0
 74
    0
 49
-0.9525
 74
    0
 49
0
 74
    0
 49
-0.9525
 74
    0
  0
LTYPE
  5
40
330
5
100
AcDbSymbolTableRecord
100
AcDbLinetypeTableRecord
  2
DIVIDE2
 70
    0
  3
Divide (.5x) __..__..__..__..__..__..__..__.._
 72
   65
 73
    6
 40
15.875
 49
6.35
 74
    0
 49
-3.175
 74
    0
 49
0
 74
    0
 49
-3.175
 74
    0
 49
0
 74
    0
 49
-3.175
 74
    0
  0
LTYPE
  5
41
330
5
100
AcDbSymbolTableRecord
100
AcDbLinetypeTableRecord
  2
DIVIDEX2
 70
    0
  3
Divide (2x) ________  .  .  ________  .  .  _
 72
   65
 73
    6
 40
63.5
 49
25.4
 74
    0
 49
-12.7
 74
    0
 49
0
 74
    0
 49
-12.7
 74
    0
 49
0
 74
    0
 49
-12.7
 74
    0
  0
LTYPE
  5
42
330
5
100
AcDbSymbolTableRecord
100
AcDbLinetypeTableRecord
  2
BORDER
 70
    0
  3
Border __ __ . __ __ . __ __ . __ __ . __ __ .
 72
   65
 73
    6
 40
44.45
 49
12.7
 74
    0
 49
-6.35
 74
    0
 49
12.7
 74
    0
 49
-6.35
 74
    0
 49
0
 74
    0
 49
-6.35
 74
    0
  0
LTYPE
  5
43
330
5
100
AcDbSymbolTableRecord
100
AcDbLinetypeTableRecord
  2
BORDERTINY
 70
    0
  3
Border (.15x) __.__.__.__.__.__.__.__.__.__.__.
 72
   65
 73
    6
 40
6.6675
 49
1.905
 74
    0
 49
-0.9525
 74
    0
 49
1.905
 74
    0
 49
-0.9525
 74
    0
 49
0
 74
    0
 49
-0.9525
 74
    0
  0
LTYPE
  5
44
330
5
100
AcDbSymbolTableRecord
100
AcDbLinetypeTableRecord
  2
BORDER2
 70
    0
  3
Border (.5x) __.__.__.__.__.__.__.__.__.__.__.
 72
   65
 73
    6
 40
22.225
 49
6.35
 74
    0
 49
-3.175
 74
    0
 49
6.35
 74
    0
 49
-3.175
 74
    0
 49
0
 74
    0
 49
-3.175
 74
    0
  0
LTYPE
  5
45
330
5
100
AcDbSymbolTableRecord
100
AcDbLinetypeTableRecord
  2
BORDERX2
 70
    0
  3
Border (2x) ____  ____  .  ____  ____  .  ___
 72
   65
 73
    6
 40
88.89999999999999
 49
25.4
 74
    0
 49
-12.7
 74
    0
 49
25.4
 74
    0
 49
-12.7
 74
    0
 49
0
 74
    0
 49
-12.7
 74
    0
  0
LTYPE
  5
46
330
5
100
AcDbSymbolTableRecord
100
AcDbLinetypeTableRecord
  2
CENTER
 70
    0
  3
Center ____ _ ____ _ ____ _ ____ _ ____ _ ____
 72
   65
 73
    4
 40
50.8
 49
31.75
 74
    0
 49
-6.35
 74
    0
 49
6.35
 74
    0
 49
-6.35
 74
    0
  0
LTYPE
  5
47
330
5
100
AcDbSymbolTableRecord
100
AcDbLinetypeTableRecord
  2
CENTERTINY
 70
    0
  3
Center (.15x) ___ _ ___ _ ___ _ ___ _ ___ _ ___
 72
   65
 73
    4
 40
7.62
 49
4.7625
 74
    0
 49
-0.9525
 74
    0
 49
0.9525
 74
    0
 49
-0.9525
 74
    0
  0
LTYPE
  5
48
330
5
100
AcDbSymbolTableRecord
100
AcDbLinetypeTableRecord
  2
CENTER2
 70
    0
  3
Center (.5x) ___ _ ___ _ ___ _ ___ _ ___ _ ___
 72
   65
 73
    4
 40
28.575
 49
19.05
 74
    0
 49
-3.175
 74
    0
 49
3.175
 74
    0
 49
-3.175
 74
    0
  0
LTYPE
  5
49
330
5
100
AcDbSymbolTableRecord
100
AcDbLinetypeTableRecord
  2
CENTERX2
 70
    0
  3
Center (2x) ________  __  ________  __  _____
 72
   65
 73
    4
 40
101.6
 49
63.5
 74
    0
 49
-12.7
 74
    0
 49
12.7
 74
    0
 49
-12.7
 74
    0
  0
ENDTAB
  0
TABLE
  2
LAYER
  5
2
330
0
100
AcDbSymbolTable
 70
    1
  0
LAYER
  5
10
330
2
100
AcDbSymbolTableRecord
100
AcDbLayerTableRecord
  2
0
 70
    0
 62
    7
  6
CONTINUOUS
370
    0
390
F
  0
LAYER
  5
4A
330
2
100
AcDbSymbolTableRecord
100
AcDbLayerTableRecord
  2
superwide big buttons
 70
    0
 62
    7
  6
CONTINUOUS
370
    0
390
F
  0
ENDTAB
  0
TABLE
  2
STYLE
  5
3
330
0
100
AcDbSymbolTable
 70
    3
  0
STYLE
  5
4B
330
2
100
AcDbSymbolTableRecord
100
AcDbTextStyleTableRecord
  2
Standard
 70
    0
 40
0
 41
1
 50
0
 71
    0
 42
1
  3
txt
  4

  0
ENDTAB
  0
TABLE
  2
VIEW
  5
6
330
0
100
AcDbSymbolTable
 70
    0
  0
ENDTAB
  0
TABLE
  2
UCS
  5
7
330
0
100
AcDbSymbolTable
 70
    0
  0
ENDTAB
  0
TABLE
  2
APPID
  5
9
330
0
100
AcDbSymbolTable
 70
    1
  0
APPID
  5
12
330
9
100
AcDbSymbolTableRecord
100
AcDbRegAppTableRecord
  2
ACAD
 70
    0
  0
APPID
  5
4C
330
9
100
AcDbSymbolTableRecord
100
AcDbRegAppTableRecord
  2
LibreCad
 70
    0
  0
ENDTAB
  0
TABLE
  2
DIMSTYLE
  5
A
330
0
100
AcDbSymbolTable
 70
    1
100
AcDbDimStyleTable
 71
    1
  0
DIMSTYLE
105
4D
330
A
100
AcDbSymbolTableRecord
100
AcDbDimStyleTableRecord
  2
Standard
 70
    0
 40
2.5
 41
2.5
 42
0.625
 43
0.38
 44
1.25
 45
0
 46
0
 47
0
 48
0
 49
1
140
2.5
141
0.09
142
0
143
25.4
144
1
145
0
146
1
147
0.625
148
0
 71
    0
 72
    0
 73
    0
 74
    1
 75
    0
 76
    0
 77
    0
 78
    8
 79
    0
170
    0
171
    2
172
    0
173
    0
174
    0
175
    0
176
    0
177
    0
178
    0
179
    0
271
    2
272
    4
273
    2
274
    2
275
    0
276
    0
277
    2
278
   44
279
    0
280
    0
281
    0
282
    0
283
    1
284
    0
285
    0
286
    0
288
    0
289
    3
340
STANDARD
341

371
   -2
372
   -2
  0
ENDTAB
  0
TABLE
  2
BLOCK_RECORD
  5
1
330
0
100
AcDbSymbolTable
 70
    2
  0
BLOCK_RECORD
  5
1F
330
1
100
AcDbSymbolTableRecord
100
AcDbBlockTableRecord
  2
*Model_Space
 70
    0
280
    1
281
    0
  0
BLOCK_RECORD
  5
1E
330
1
100
AcDbSymbolTableRecord
100
AcDbBlockTableRecord
  2
*Paper_Space
 70
    0
280
    1
281
    0
  0
ENDTAB
  0
ENDSEC
  0
SECTION
  2
BLOCKS
  0
BLOCK
  5
20
330
1F
100
AcDbEntity
  8
0
100
AcDbBlockBegin
  2
*Model_Space
 70
    0
 10
0
 20
0
 30
0
  3
*Model_Space
  1

  0
ENDBLK
  5
21
330
1F
100
AcDbEntity
  8
0
100
AcDbBlockEnd
  0
BLOCK
  5
1C
330
1B
100
AcDbEntity
  8
0
100
AcDbBlockBegin
  2
*Paper_Space
 70
    0
 10
0
 20
0
 30
0
  3
*Paper_Space
  1

  0
ENDBLK
  5
1D
330
1F
100
AcDbEntity
  8
0
100
AcDbBlockEnd
  0
ENDSEC
  0
SECTION
  2
ENTITIES
  0
LINE
  5
4E
100
AcDbEntity
  8
superwide big buttons
  6
ByLayer
 62
  256
370
   -1
100
AcDbLine
 10
483.5390085812935
 20
4.00518
 11
484.0330085812935
 21
4.04046
  0
LINE
  5
4F
100
AcDbEntity
  8
superwide big buttons
  6
ByLayer
 62
  256
370
   -1
100
AcDbLine
 10
484.0330085812935
 20
4.04046
 11
484.5270085812935
 21
4.18157
  0
LINE
  5
50
100
AcDbEntity
  8
superwide big buttons
  6
ByLayer
 62
  256
370
   -1
100
AcDbLine
 10
484.5270085812935
 20
4.18157
 11
484.9500085812935
 21
4.42851
  0
LINE
  5
51
100
AcDbEntity
  8
superwide big buttons
  6
ByLayer
 62
  256
370
   -1
100
AcDbLine
 10
484.9500085812935
 20
4.42851
 11
485.3380085812935
 21
4.74601
  0
LINE
  5
52
100
AcDbEntity
  8
superwide big buttons
  6
ByLayer
 62
  256
370
   -1
100
AcDbLine
 10
485.3380085812935
 20
4.74601
 11
485.6560085812935
 21
5.13407
  0
LINE
  5
53
100
AcDbEntity
  8
superwide big buttons
  6
ByLayer
 62
  256
370
   -1
100
AcDbLine
 10
485.6560085812935
 20
5.13407
 11
485.9030085812935
 21
5.5574
  0
LINE
  5
54
100
AcDbEntity
  8
superwide big buttons
  6
ByLayer
 62
  256
370
   -1
100
AcDbLine
 10
485.9030085812935
 20
5.5574
 11
486.0440085812935
 21
6.05129
  0
LINE
  5
55
100
AcDbEntity
  8
superwide big buttons
  6
ByLayer
 62
  256
370
   -1
100
AcDbLine
 10
486.0440085812935
 20
6.05129
 11
486.0790085812935
 21
6.54517
  0
LINE
  5
56
100
AcDbEntity
  8
superwide big buttons
  6
ByLayer
 62
  256
370
   -1
100
AcDbLine
 10
6.020058581293493
 20
4.00518
 11
483.5390085812935
 21
4.00518
  0
LINE
  5
57
100
AcDbEntity
  8
superwide big buttons
  6
ByLayer
 62
  256
370
   -1
100
AcDbLine
 10
486.0790085812935
 20
143.705
 11
486.0440085812935
 21
144.199
  0
LINE
  5
58
100
AcDbEntity
  8
superwide big buttons
  6
ByLayer
 62
  256
370
   -1
100
AcDbLine
 10
486.0440085812935
 20
144.199
 11
485.9030085812935
 21
144.657
  0
LINE
  5
59
100
AcDbEntity
  8
superwide big buttons
  6
ByLayer
 62
  256
370
   -1
100
AcDbLine
 10
485.9030085812935
 20
144.657
 11
485.6560085812935
 21
145.116
  0
LINE
  5
5A
100
AcDbEntity
  8
superwide big buttons
  6
ByLayer
 62
  256
370
   -1
100
AcDbLine
 10
485.6560085812935
 20
145.116
 11
485.3380085812935
 21
145.504
  0
LINE
  5
5B
100
AcDbEntity
  8
superwide big buttons
  6
ByLayer
 62
  256
370
   -1
100
AcDbLine
 10
485.3380085812935
 20
145.504
 11
484.9500085812935
 21
145.786
  0
LINE
  5
5C
100
AcDbEntity
  8
superwide big buttons
  6
ByLayer
 62
  256
370
   -1
100
AcDbLine
 10
484.9500085812935
 20
145.786
 11
484.5270085812935
 21
146.033
  0
LINE
  5
5D
100
AcDbEntity
  8
superwide big buttons
  6
ByLayer
 62
  256
370
   -1
100
AcDbLine
 10
484.5270085812935
 20
146.033
 11
484.0330085812935
 21
146.174
  0
LINE
  5
5E
100
AcDbEntity
  8
superwide big buttons
  6
ByLayer
 62
  256
370
   -1
100
AcDbLine
 10
484.0330085812935
 20
146.174
 11
483.5390085812935
 21
146.245
  0
LINE
  5
5F
100
AcDbEntity
  8
superwide big buttons
  6
ByLayer
 62
  256
370
   -1
100
AcDbLine
 10
486.0790085812935
 20
6.54517
 11
486.0790085812935
 21
143.705
  0
LINE
  5
60
100
AcDbEntity
  8
superwide big buttons
  6
ByLayer
 62
  256
370
   -1
100
AcDbLine
 10
483.5390085812935
 20
146.245
 11
6.020058581293493
 21
146.245
  0
LINE
  5
61
100
AcDbEntity
  8
superwide big buttons
  6
ByLayer
 62
  256
370
   -1
100
AcDbLine
 10
3.480068581293492
 20
143.70501
 11
3.480068581293492
 21
6.54517
  0
LINE
  5
62
100
AcDbEntity
  8
superwide big buttons
  6
ByLayer
 62
  256
370
   -1
100
AcDbLine
 10
3.480403581293491
 20
6.545048
 11
3.550958581293492
 21
6.05116
  0
LINE
  5
63
100
AcDbEntity
  8
superwide big buttons
  6
ByLayer
 62
  256
370
   -1
100
AcDbLine
 10
3.550958581293492
 20
6.05116
 11
3.692069581293492
 21
5.557272
  0
LINE
  5
64
100
AcDbEntity
  8
superwide big buttons
  6
ByLayer
 62
  256
370
   -1
100
AcDbLine
 10
3.692069581293492
 20
5.557272
 11
3.903735581293493
 21
5.13394
  0
LINE
  5
65
100
AcDbEntity
  8
superwide big buttons
  6
ByLayer
 62
  256
370
   -1
100
AcDbLine
 10
3.903735581293493
 20
5.13394
 11
4.221234581293492
 21
4.745885
  0
LINE
  5
66
100
AcDbEntity
  8
superwide big buttons
  6
ByLayer
 62
  256
370
   -1
100
AcDbLine
 10
4.221234581293492
 20
4.745885
 11
4.609289581293492
 21
4.428386
  0
LINE
  5
67
100
AcDbEntity
  8
superwide big buttons
  6
ByLayer
 62
  256
370
   -1
100
AcDbLine
 10
4.609289581293492
 20
4.428386
 11
5.067899581293492
 21
4.181442
  0
LINE
  5
68
100
AcDbEntity
  8
superwide big buttons
  6
ByLayer
 62
  256
370
   -1
100
AcDbLine
 10
5.067899581293492
 20
4.181442
 11
5.526509581293492
 21
4.040331
  0
LINE
  5
69
100
AcDbEntity
  8
superwide big buttons
  6
ByLayer
 62
  256
370
   -1
100
AcDbLine
 10
5.526509581293492
 20
4.040331
 11
6.020397581293492
 21
4.005053
  0
LINE
  5
6A
100
AcDbEntity
  8
superwide big buttons
  6
ByLayer
 62
  256
370
   -1
100
AcDbLine
 10
6.020397581293492
 20
146.245053
 11
5.526509581293492
 21
146.174498
  0
LINE
  5
6B
100
AcDbEntity
  8
superwide big buttons
  6
ByLayer
 62
  256
370
   -1
100
AcDbLine
 10
5.526509581293492
 20
146.174498
 11
5.067899581293492
 21
146.033387
  0
LINE
  5
6C
100
AcDbEntity
  8
superwide big buttons
  6
ByLayer
 62
  256
370
   -1
100
AcDbLine
 10
5.067899581293492
 20
146.033387
 11
4.609289581293492
 21
145.786443
  0
LINE
  5
6D
100
AcDbEntity
  8
superwide big buttons
  6
ByLayer
 62
  256
370
   -1
100
AcDbLine
 10
4.609289581293492
 20
145.786443
 11
4.221234581293492
 21
145.504221
  0
LINE
  5
6E
100
AcDbEntity
  8
superwide big buttons
  6
ByLayer
 62
  256
370
   -1
100
AcDbLine
 10
4.221234581293492
 20
145.504221
 11
3.903735581293493
 21
145.116166
  0
LINE
  5
6F
100
AcDbEntity
  8
superwide big buttons
  6
ByLayer
 62
  256
370
   -1
100
AcDbLine
 10
3.903735581293493
 20
145.116166
 11
3.692069581293492
 21
144.657556
  0
LINE
  5
70
100
AcDbEntity
  8
superwide big buttons
  6
ByLayer
 62
  256
370
   -1
100
AcDbLine
 10
3.692069581293492
 20
144.657556
 11
3.550958581293492
 21
144.198946
  0
LINE
  5
71
100
AcDbEntity
  8
superwide big buttons
  6
ByLayer
 62
  256
370
   -1
100
AcDbLine
 10
3.550958581293492
 20
144.198946
 11
3.480403581293491
 21
143.705058
  0
CIRCLE
  5
72
100
AcDbEntity
  8
superwide big buttons
  6
ByLayer
 62
  256
370
   -1
100
AcDbCircle
 10
13.6506084600903
 20
13.13473413284358
 40
1.726264042911853
  0
CIRCLE
  5
73
100
AcDbEntity
  8
superwide big buttons
  6
ByLayer
 62
  256
370
   -1
100
AcDbCircle
 10
322.0101456611466
 20
13.11288559915509
 40
1.726264042911853
  0
CIRCLE
  5
74
100
AcDbEntity
  8
superwide big buttons
  6
ByLayer
 62
  256
370
   -1
100
AcDbCircle
 10
13.64704915232051
 20
137.0817435086749
 40
1.726264042911853
  0
CIRCLE
  5
75
100
AcDbEntity
  8
superwide big buttons
  6
ByLayer
 62
  256
370
   -1
100
AcDbCircle
 10
167.5483976389579
 20
137.0947791607151
 40
1.726264042911853
  0
CIRCLE
  5
76
100
AcDbEntity
  8
superwide big buttons
  6
ByLayer
 62
  256
370
   -1
100
AcDbCircle
 10
167.5820156987772
 20
13.12935402523745
 40
1.726264042911853
  0
CIRCLE
  5
77
100
AcDbEntity
  8
superwide big buttons
  6
ByLayer
 62
  256
370
   -1
100
AcDbCircle
 10
475.9434210145239
 20
13.12353679781769
 40
1.726264042911853
  0
CIRCLE
  5
78
100
AcDbEntity
  8
superwide big buttons
  6
ByLayer
 62
  256
370
   -1
100
AcDbCircle
 10
475.9267852911609
 20
137.0904566474389
 40
1.726264042911853
  0
CIRCLE
  5
79
100
AcDbEntity
  8
superwide big buttons
  6
ByLayer
 62
  256
370
   -1
100
AcDbCircle
 10
322.0001549093493
 20
137.0784844996808
 40
1.726264042911853
  0
LINE
  5
7A
100
AcDbEntity
  8
superwide big buttons
  6
ByLayer
 62
  256
370
   -1
100
AcDbLine
 10
432.5497658644505
 20
92.09426284945864
 11
432.6908768644505
 21
94.06981284945864
  0
LINE
  5
7B
100
AcDbEntity
  8
superwide big buttons
  6
ByLayer
 62
  256
370
   -1
100
AcDbLine
 10
432.6908768644505
 20
94.06981284945864
 11
433.0789318644505
 21
96.01008284945864
  0
LINE
  5
7C
100
AcDbEntity
  8
superwide big buttons
  6
ByLayer
 62
  256
370
   -1
100
AcDbLine
 10
433.0789318644505
 20
96.01008284945864
 11
433.7139308644505
 21
97.87980284945861
  0
LINE
  5
7D
100
AcDbEntity
  8
superwide big buttons
  6
ByLayer
 62
  256
370
   -1
100
AcDbLine
 10
433.7139308644505
 20
97.87980284945861
 11
434.5605958644504
 21
99.64368284945861
  0
LINE
  5
7E
100
AcDbEntity
  8
superwide big buttons
  6
ByLayer
 62
  256
370
   -1
100
AcDbLine
 10
434.5605958644504
 20
99.64368284945861
 11
435.6542058644504
 21
101.2664528494586
  0
LINE
  5
7F
100
AcDbEntity
  8
superwide big buttons
  6
ByLayer
 62
  256
370
   -1
100
AcDbLine
 10
435.6542058644504
 20
101.2664528494586
 11
436.9594758644505
 21
102.7481128494586
  0
LINE
  5
80
100
AcDbEntity
  8
superwide big buttons
  6
ByLayer
 62
  256
370
   -1
100
AcDbLine
 10
436.9594758644505
 20
102.7481128494586
 11
438.4411358644504
 21
104.0533828494586
  0
LINE
  5
81
100
AcDbEntity
  8
superwide big buttons
  6
ByLayer
 62
  256
370
   -1
100
AcDbLine
 10
438.4411358644504
 20
104.0533828494586
 11
440.0991858644504
 21
105.1469928494586
  0
LINE
  5
82
100
AcDbEntity
  8
superwide big buttons
  6
ByLayer
 62
  256
370
   -1
100
AcDbLine
 10
440.0991858644504
 20
105.1469928494586
 11
441.8630758644505
 21
106.0289348494586
  0
LINE
  5
83
100
AcDbEntity
  8
superwide big buttons
  6
ByLayer
 62
  256
370
   -1
100
AcDbLine
 10
441.8630758644505
 20
106.0289348494586
 11
443.7327958644506
 21
106.6639338494586
  0
LINE
  5
84
100
AcDbEntity
  8
superwide big buttons
  6
ByLayer
 62
  256
370
   -1
100
AcDbLine
 10
443.7327958644506
 20
106.6639338494586
 11
445.6730658644503
 21
107.0519888494586
  0
LINE
  5
85
100
AcDbEntity
  8
superwide big buttons
  6
ByLayer
 62
  256
370
   -1
100
AcDbLine
 10
445.6730658644503
 20
107.0519888494586
 11
447.6486158644502
 21
107.1930998494586
  0
LINE
  5
86
100
AcDbEntity
  8
superwide big buttons
  6
ByLayer
 62
  256
370
   -1
100
AcDbLine
 10
447.6486158644502
 20
107.1930998494586
 11
449.6241658644503
 21
107.0519888494586
  0
LINE
  5
87
100
AcDbEntity
  8
superwide big buttons
  6
ByLayer
 62
  256
370
   -1
100
AcDbLine
 10
449.6241658644503
 20
107.0519888494586
 11
451.5644358644505
 21
106.6639338494586
  0
LINE
  5
88
100
AcDbEntity
  8
superwide big buttons
  6
ByLayer
 62
  256
370
   -1
100
AcDbLine
 10
451.5644358644505
 20
106.6639338494586
 11
453.4341558644504
 21
106.0289348494586
  0
LINE
  5
89
100
AcDbEntity
  8
superwide big buttons
  6
ByLayer
 62
  256
370
   -1
100
AcDbLine
 10
453.4341558644504
 20
106.0289348494586
 11
455.1980458644504
 21
105.1469928494586
  0
LINE
  5
8A
100
AcDbEntity
  8
superwide big buttons
  6
ByLayer
 62
  256
370
   -1
100
AcDbLine
 10
455.1980458644504
 20
105.1469928494586
 11
456.8560958644505
 21
104.0533828494586
  0
LINE
  5
8B
100
AcDbEntity
  8
superwide big buttons
  6
ByLayer
 62
  256
370
   -1
100
AcDbLine
 10
456.8560958644505
 20
104.0533828494586
 11
458.3377558644505
 21
102.7481128494586
  0
LINE
  5
8C
100
AcDbEntity
  8
superwide big buttons
  6
ByLayer
 62
  256
370
   -1
100
AcDbLine
 10
458.3377558644505
 20
102.7481128494586
 11
459.6430258644506
 21
101.2664528494586
  0
LINE
  5
8D
100
AcDbEntity
  8
superwide big buttons
  6
ByLayer
 62
  256
370
   -1
100
AcDbLine
 10
459.6430258644506
 20
101.2664528494586
 11
460.7366358644505
 21
99.64368284945861
  0
LINE
  5
8E
100
AcDbEntity
  8
superwide big buttons
  6
ByLayer
 62
  256
370
   -1
100
AcDbLine
 10
460.7366358644505
 20
99.64368284945861
 11
461.5833008644505
 21
97.87980284945861
  0
LINE
  5
8F
100
AcDbEntity
  8
superwide big buttons
  6
ByLayer
 62
  256
370
   -1
100
AcDbLine
 10
461.5833008644505
 20
97.87980284945861
 11
462.2182998644504
 21
96.01008284945864
  0
LINE
  5
90
100
AcDbEntity
  8
superwide big buttons
  6
ByLayer
 62
  256
370
   -1
100
AcDbLine
 10
462.2182998644504
 20
96.01008284945864
 11
462.6063548644505
 21
94.06981284945864
  0
LINE
  5
91
100
AcDbEntity
  8
superwide big buttons
  6
ByLayer
 62
  256
370
   -1
100
AcDbLine
 10
462.6063548644505
 20
94.06981284945864
 11
462.7474658644504
 21
92.09426284945864
  0
LINE
  5
92
100
AcDbEntity
  8
superwide big buttons
  6
ByLayer
 62
  256
370
   -1
100
AcDbLine
 10
462.7474658644504
 20
92.09426284945864
 11
462.6063548644505
 21
90.11871284945865
  0
LINE
  5
93
100
AcDbEntity
  8
superwide big buttons
  6
ByLayer
 62
  256
370
   -1
100
AcDbLine
 10
462.6063548644505
 20
90.11871284945865
 11
462.2182998644504
 21
88.17844284945865
  0
LINE
  5
94
100
AcDbEntity
  8
superwide big buttons
  6
ByLayer
 62
  256
370
   -1
100
AcDbLine
 10
462.2182998644504
 20
88.17844284945865
 11
461.5833008644505
 21
86.30872284945865
  0
LINE
  5
95
100
AcDbEntity
  8
superwide big buttons
  6
ByLayer
 62
  256
370
   -1
100
AcDbLine
 10
461.5833008644505
 20
86.30872284945865
 11
460.7366358644505
 21
84.54483284945864
  0
LINE
  5
96
100
AcDbEntity
  8
superwide big buttons
  6
ByLayer
 62
  256
370
   -1
100
AcDbLine
 10
460.7366358644505
 20
84.54483284945864
 11
459.6430258644506
 21
82.88678284945864
  0
LINE
  5
97
100
AcDbEntity
  8
superwide big buttons
  6
ByLayer
 62
  256
370
   -1
100
AcDbLine
 10
459.6430258644506
 20
82.88678284945864
 11
458.3377558644505
 21
81.40512284945861
  0
LINE
  5
98
100
AcDbEntity
  8
superwide big buttons
  6
ByLayer
 62
  256
370
   -1
100
AcDbLine
 10
458.3377558644505
 20
81.40512284945861
 11
456.8560958644505
 21
80.09985284945863
  0
LINE
  5
99
100
AcDbEntity
  8
superwide big buttons
  6
ByLayer
 62
  256
370
   -1
100
AcDbLine
 10
456.8560958644505
 20
80.09985284945863
 11
455.1980458644504
 21
79.00624284945864
  0
LINE
  5
9A
100
AcDbEntity
  8
superwide big buttons
  6
ByLayer
 62
  256
370
   -1
100
AcDbLine
 10
455.1980458644504
 20
79.00624284945864
 11
453.4341558644504
 21
78.12429984945861
  0
LINE
  5
9B
100
AcDbEntity
  8
superwide big buttons
  6
ByLayer
 62
  256
370
   -1
100
AcDbLine
 10
453.4341558644504
 20
78.12429984945861
 11
451.5644358644505
 21
77.48930084945862
  0
LINE
  5
9C
100
AcDbEntity
  8
superwide big buttons
  6
ByLayer
 62
  256
370
   -1
100
AcDbLine
 10
451.5644358644505
 20
77.48930084945862
 11
449.6241658644503
 21
77.10124584945861
  0
LINE
  5
9D
100
AcDbEntity
  8
superwide big buttons
  6
ByLayer
 62
  256
370
   -1
100
AcDbLine
 10
449.6241658644503
 20
77.10124584945861
 11
447.6486158644502
 21
76.99541284945865
  0
LINE
  5
9E
100
AcDbEntity
  8
superwide big buttons
  6
ByLayer
 62
  256
370
   -1
100
AcDbLine
 10
447.6486158644502
 20
76.99541284945865
 11
445.6730658644503
 21
77.10124584945861
  0
LINE
  5
9F
100
AcDbEntity
  8
superwide big buttons
  6
ByLayer
 62
  256
370
   -1
100
AcDbLine
 10
445.6730658644503
 20
77.10124584945861
 11
443.7327958644506
 21
77.48930084945862
  0
LINE
  5
A0
100
AcDbEntity
  8
superwide big buttons
  6
ByLayer
 62
  256
370
   -1
100
AcDbLine
 10
443.7327958644506
 20
77.48930084945862
 11
441.8630758644505
 21
78.12429984945861
  0
LINE
  5
A1
100
AcDbEntity
  8
superwide big buttons
  6
ByLayer
 62
  256
370
   -1
100
AcDbLine
 10
441.8630758644505
 20
78.12429984945861
 11
440.0991858644504
 21
79.00624284945864
  0
LINE
  5
A2
100
AcDbEntity
  8
superwide big buttons
  6
ByLayer
 62
  256
370
   -1
100
AcDbLine
 10
440.0991858644504
 20
79.00624284945864
 11
438.4411358644504
 21
80.09985284945863
  0
LINE
  5
A3
100
AcDbEntity
  8
superwide big buttons
  6
ByLayer
 62
  256
370
   -1
100
AcDbLine
 10
438.4411358644504
 20
80.09985284945863
 11
436.9594758644505
 21
81.40512284945861
  0
LINE
  5
A4
100
AcDbEntity
  8
superwide big buttons
  6
ByLayer
 62
  256
370
   -1
100
AcDbLine
 10
436.9594758644505
 20
81.40512284945861
 11
435.6542058644504
 21
82.88678284945864
  0
LINE
  5
A5
100
AcDbEntity
  8
superwide big buttons
  6
ByLayer
 62
  256
370
   -1
100
AcDbLine
 10
435.6542058644504
 20
82.88678284945864
 11
434.5605958644504
 21
84.54483284945864
  0
LINE
  5
A6
100
AcDbEntity
  8
superwide big buttons
  6
ByLayer
 62
  256
370
   -1
100
AcDbLine
 10
434.5605958644504
 20
84.54483284945864
 11
433.7139308644505
 21
86.30872284945865
  0
LINE
  5
A7
100
AcDbEntity
  8
superwide big buttons
  6
ByLayer
 62
  256
370
   -1
100
AcDbLine
 10
433.7139308644505
 20
86.30872284945865
 11
433.0789318644505
 21
88.17844284945865
  0
LINE
  5
A8
100
AcDbEntity
  8
superwide big buttons
  6
ByLayer
 62
  256
370
   -1
100
AcDbLine
 10
433.0789318644505
 20
88.17844284945865
 11
432.6908768644505
 21
90.11871284945865
  0
LINE
  5
A9
100
AcDbEntity
  8
superwide big buttons
  6
ByLayer
 62
  256
370
   -1
100
AcDbLine
 10
432.6908768644505
 20
90.11871284945865
 11
432.5497658644505
 21
92.09426284945864
  0
LINE
  5
AA
100
AcDbEntity
  8
superwide big buttons
  6
ByLayer
 62
  256
370
   -1
100
AcDbLine
 10
403.1984548644506
 20
81.58199884945863
 11
403.3395658644505
 21
83.34587884945863
  0
LINE
  5
AB
100
AcDbEntity
  8
superwide big buttons
  6
ByLayer
 62
  256
370
   -1
100
AcDbLine
 10
403.3395658644505
 20
83.34587884945863
 11
403.7276208644505
 21
85.07448884945863
  0
LINE
  5
AC
100
AcDbEntity
  8
superwide big buttons
  6
ByLayer
 62
  256
370
   -1
100
AcDbLine
 10
403.7276208644505
 20
85.07448884945863
 11
404.3626198644505
 21
86.73253884945863
  0
LINE
  5
AD
100
AcDbEntity
  8
superwide big buttons
  6
ByLayer
 62
  256
370
   -1
100
AcDbLine
 10
404.3626198644505
 20
86.73253884945863
 11
405.2092848644506
 21
88.24947884945864
  0
LINE
  5
AE
100
AcDbEntity
  8
superwide big buttons
  6
ByLayer
 62
  256
370
   -1
100
AcDbLine
 10
405.2092848644506
 20
88.24947884945864
 11
406.3028948644504
 21
89.66058884945865
  0
LINE
  5
AF
100
AcDbEntity
  8
superwide big buttons
  6
ByLayer
 62
  256
370
   -1
100
AcDbLine
 10
406.3028948644504
 20
89.66058884945865
 11
407.5728948644505
 21
90.89530884945863
  0
LINE
  5
B0
100
AcDbEntity
  8
superwide big buttons
  6
ByLayer
 62
  256
370
   -1
100
AcDbLine
 10
407.5728948644505
 20
90.89530884945863
 11
409.0192848644505
 21
91.91835884945864
  0
LINE
  5
B1
100
AcDbEntity
  8
superwide big buttons
  6
ByLayer
 62
  256
370
   -1
100
AcDbLine
 10
409.0192848644505
 20
91.91835884945864
 11
410.5715048644505
 21
92.72974584945861
  0
LINE
  5
B2
100
AcDbEntity
  8
superwide big buttons
  6
ByLayer
 62
  256
370
   -1
100
AcDbLine
 10
410.5715048644505
 20
92.72974584945861
 11
412.2648348644506
 21
93.29418884945862
  0
LINE
  5
B3
100
AcDbEntity
  8
superwide big buttons
  6
ByLayer
 62
  256
370
   -1
100
AcDbLine
 10
412.2648348644506
 20
93.29418884945862
 11
413.9934448644505
 21
93.61168784945865
  0
LINE
  5
B4
100
AcDbEntity
  8
superwide big buttons
  6
ByLayer
 62
  256
370
   -1
100
AcDbLine
 10
413.9934448644505
 20
93.61168784945865
 11
415.7573348644505
 21
93.68224284945863
  0
LINE
  5
B5
100
AcDbEntity
  8
superwide big buttons
  6
ByLayer
 62
  256
370
   -1
100
AcDbLine
 10
415.7573348644505
 20
93.68224284945863
 11
417.5212148644505
 21
93.47057684945862
  0
LINE
  5
B6
100
AcDbEntity
  8
superwide big buttons
  6
ByLayer
 62
  256
370
   -1
100
AcDbLine
 10
417.5212148644505
 20
93.47057684945862
 11
419.2145448644503
 21
93.04724484945861
  0
LINE
  5
B7
100
AcDbEntity
  8
superwide big buttons
  6
ByLayer
 62
  256
370
   -1
100
AcDbLine
 10
419.2145448644503
 20
93.04724484945861
 11
420.8373148644505
 21
92.34169084945863
  0
LINE
  5
B8
100
AcDbEntity
  8
superwide big buttons
  6
ByLayer
 62
  256
370
   -1
100
AcDbLine
 10
420.8373148644505
 20
92.34169084945863
 11
422.3542548644506
 21
91.42447084945861
  0
LINE
  5
B9
100
AcDbEntity
  8
superwide big buttons
  6
ByLayer
 62
  256
370
   -1
100
AcDbLine
 10
422.3542548644506
 20
91.42447084945861
 11
423.6948048644505
 21
90.29558084945863
  0
LINE
  5
BA
100
AcDbEntity
  8
superwide big buttons
  6
ByLayer
 62
  256
370
   -1
100
AcDbLine
 10
423.6948048644505
 20
90.29558084945863
 11
424.8942448644506
 21
88.99031084945862
  0
LINE
  5
BB
100
AcDbEntity
  8
superwide big buttons
  6
ByLayer
 62
  256
370
   -1
100
AcDbLine
 10
424.8942448644506
 20
88.99031084945862
 11
425.8467428644503
 21
87.50865084945862
  0
LINE
  5
BC
100
AcDbEntity
  8
superwide big buttons
  6
ByLayer
 62
  256
370
   -1
100
AcDbLine
 10
425.8467428644503
 20
87.50865084945862
 11
426.6228518644506
 21
85.92115084945861
  0
LINE
  5
BD
100
AcDbEntity
  8
superwide big buttons
  6
ByLayer
 62
  256
370
   -1
100
AcDbLine
 10
426.6228518644506
 20
85.92115084945861
 11
427.1167398644504
 21
84.22782084945861
  0
LINE
  5
BE
100
AcDbEntity
  8
superwide big buttons
  6
ByLayer
 62
  256
370
   -1
100
AcDbLine
 10
427.1167398644504
 20
84.22782084945861
 11
427.3636838644504
 21
82.46394084945864
  0
LINE
  5
BF
100
AcDbEntity
  8
superwide big buttons
  6
ByLayer
 62
  256
370
   -1
100
AcDbLine
 10
427.3636838644504
 20
82.46394084945864
 11
427.3630538644504
 21
80.70000784945863
  0
LINE
  5
C0
100
AcDbEntity
  8
superwide big buttons
  6
ByLayer
 62
  256
370
   -1
100
AcDbLine
 10
427.3630538644504
 20
80.70000784945863
 11
427.1161098644504
 21
78.97139784945863
  0
LINE
  5
C1
100
AcDbEntity
  8
superwide big buttons
  6
ByLayer
 62
  256
370
   -1
100
AcDbLine
 10
427.1161098644504
 20
78.97139784945863
 11
426.6222218644506
 21
77.27806784945862
  0
LINE
  5
C2
100
AcDbEntity
  8
superwide big buttons
  6
ByLayer
 62
  256
370
   -1
100
AcDbLine
 10
426.6222218644506
 20
77.27806784945862
 11
425.8461128644503
 21
75.65529784945862
  0
LINE
  5
C3
100
AcDbEntity
  8
superwide big buttons
  6
ByLayer
 62
  256
370
   -1
100
AcDbLine
 10
425.8461128644503
 20
75.65529784945862
 11
424.8936148644506
 21
74.20890784945861
  0
LINE
  5
C4
100
AcDbEntity
  8
superwide big buttons
  6
ByLayer
 62
  256
370
   -1
100
AcDbLine
 10
424.8936148644506
 20
74.20890784945861
 11
423.6941748644505
 21
72.86835784945863
  0
LINE
  5
C5
100
AcDbEntity
  8
superwide big buttons
  6
ByLayer
 62
  256
370
   -1
100
AcDbLine
 10
423.6941748644505
 20
72.86835784945863
 11
422.3536248644506
 21
71.73946784945865
  0
LINE
  5
C6
100
AcDbEntity
  8
superwide big buttons
  6
ByLayer
 62
  256
370
   -1
100
AcDbLine
 10
422.3536248644506
 20
71.73946784945865
 11
420.8366848644505
 21
70.82224784945863
  0
LINE
  5
C7
100
AcDbEntity
  8
superwide big buttons
  6
ByLayer
 62
  256
370
   -1
100
AcDbLine
 10
420.8366848644505
 20
70.82224784945863
 11
419.2139148644503
 21
70.15197184945863
  0
LINE
  5
C8
100
AcDbEntity
  8
superwide big buttons
  6
ByLayer
 62
  256
370
   -1
100
AcDbLine
 10
419.2139148644503
 20
70.15197184945863
 11
417.5205848644505
 21
69.69336184945864
  0
LINE
  5
C9
100
AcDbEntity
  8
superwide big buttons
  6
ByLayer
 62
  256
370
   -1
100
AcDbLine
 10
417.5205848644505
 20
69.69336184945864
 11
415.7567048644505
 21
69.48169584945863
  0
LINE
  5
CA
100
AcDbEntity
  8
superwide big buttons
  6
ByLayer
 62
  256
370
   -1
100
AcDbLine
 10
415.7567048644505
 20
69.48169584945863
 11
413.9928148644505
 21
69.55225084945862
  0
LINE
  5
CB
100
AcDbEntity
  8
superwide big buttons
  6
ByLayer
 62
  256
370
   -1
100
AcDbLine
 10
413.9928148644505
 20
69.55225084945862
 11
412.2642048644506
 21
69.86974984945861
  0
LINE
  5
CC
100
AcDbEntity
  8
superwide big buttons
  6
ByLayer
 62
  256
370
   -1
100
AcDbLine
 10
412.2642048644506
 20
69.86974984945861
 11
410.5708748644505
 21
70.43419284945863
  0
LINE
  5
CD
100
AcDbEntity
  8
superwide big buttons
  6
ByLayer
 62
  256
370
   -1
100
AcDbLine
 10
410.5708748644505
 20
70.43419284945863
 11
409.0186548644506
 21
71.24557984945862
  0
LINE
  5
CE
100
AcDbEntity
  8
superwide big buttons
  6
ByLayer
 62
  256
370
   -1
100
AcDbLine
 10
409.0186548644506
 20
71.24557984945862
 11
407.5722648644505
 21
72.30390984945863
  0
LINE
  5
CF
100
AcDbEntity
  8
superwide big buttons
  6
ByLayer
 62
  256
370
   -1
100
AcDbLine
 10
407.5722648644505
 20
72.30390984945863
 11
406.3022648644504
 21
73.50334984945862
  0
LINE
  5
D0
100
AcDbEntity
  8
superwide big buttons
  6
ByLayer
 62
  256
370
   -1
100
AcDbLine
 10
406.3022648644504
 20
73.50334984945862
 11
405.2086548644505
 21
74.91445984945862
  0
LINE
  5
D1
100
AcDbEntity
  8
superwide big buttons
  6
ByLayer
 62
  256
370
   -1
100
AcDbLine
 10
405.2086548644505
 20
74.91445984945862
 11
404.3619898644505
 21
76.46667984945863
  0
LINE
  5
D2
100
AcDbEntity
  8
superwide big buttons
  6
ByLayer
 62
  256
370
   -1
100
AcDbLine
 10
404.3619898644505
 20
76.46667984945863
 11
403.7269908644505
 21
78.08944984945863
  0
LINE
  5
D3
100
AcDbEntity
  8
superwide big buttons
  6
ByLayer
 62
  256
370
   -1
100
AcDbLine
 10
403.7269908644505
 20
78.08944984945863
 11
403.3389358644505
 21
79.81805984945861
  0
LINE
  5
D4
100
AcDbEntity
  8
superwide big buttons
  6
ByLayer
 62
  256
370
   -1
100
AcDbLine
 10
403.3389358644505
 20
79.81805984945861
 11
403.1978248644506
 21
81.58194984945861
  0
LINE
  5
D5
100
AcDbEntity
  8
superwide big buttons
  6
ByLayer
 62
  256
370
   -1
100
AcDbLine
 10
353.3151248644506
 20
101.5844498494586
 11
353.4562358644505
 21
103.3483298494586
  0
LINE
  5
D6
100
AcDbEntity
  8
superwide big buttons
  6
ByLayer
 62
  256
370
   -1
100
AcDbLine
 10
353.4562358644505
 20
103.3483298494586
 11
353.8090128644504
 21
105.0769398494586
  0
LINE
  5
D7
100
AcDbEntity
  8
superwide big buttons
  6
ByLayer
 62
  256
370
   -1
100
AcDbLine
 10
353.8090128644504
 20
105.0769398494586
 11
354.4440118644504
 21
106.7349898494586
  0
LINE
  5
D8
100
AcDbEntity
  8
superwide big buttons
  6
ByLayer
 62
  256
370
   -1
100
AcDbLine
 10
354.4440118644504
 20
106.7349898494586
 11
355.3259548644505
 21
108.2519298494586
  0
LINE
  5
D9
100
AcDbEntity
  8
superwide big buttons
  6
ByLayer
 62
  256
370
   -1
100
AcDbLine
 10
355.3259548644505
 20
108.2519298494586
 11
356.3842848644505
 21
109.6630398494586
  0
LINE
  5
DA
100
AcDbEntity
  8
superwide big buttons
  6
ByLayer
 62
  256
370
   -1
100
AcDbLine
 10
356.3842848644505
 20
109.6630398494586
 11
357.6542848644505
 21
110.8977598494586
  0
LINE
  5
DB
100
AcDbEntity
  8
superwide big buttons
  6
ByLayer
 62
  256
370
   -1
100
AcDbLine
 10
357.6542848644505
 20
110.8977598494586
 11
359.1006748644506
 21
111.9208098494586
  0
LINE
  5
DC
100
AcDbEntity
  8
superwide big buttons
  6
ByLayer
 62
  256
370
   -1
100
AcDbLine
 10
359.1006748644506
 20
111.9208098494586
 11
360.6881748644505
 21
112.7321968494586
  0
LINE
  5
DD
100
AcDbEntity
  8
superwide big buttons
  6
ByLayer
 62
  256
370
   -1
100
AcDbLine
 10
360.6881748644505
 20
112.7321968494586
 11
362.3462248644504
 21
113.2966398494586
  0
LINE
  5
DE
100
AcDbEntity
  8
superwide big buttons
  6
ByLayer
 62
  256
370
   -1
100
AcDbLine
 10
362.3462248644504
 20
113.2966398494586
 11
364.0748348644505
 21
113.6141388494586
  0
LINE
  5
DF
100
AcDbEntity
  8
superwide big buttons
  6
ByLayer
 62
  256
370
   -1
100
AcDbLine
 10
364.0748348644505
 20
113.6141388494586
 11
365.8387148644505
 21
113.6846948494586
  0
LINE
  5
E0
100
AcDbEntity
  8
superwide big buttons
  6
ByLayer
 62
  256
370
   -1
100
AcDbLine
 10
365.8387148644505
 20
113.6846948494586
 11
367.6025948644505
 21
113.4730288494586
  0
LINE
  5
E1
100
AcDbEntity
  8
superwide big buttons
  6
ByLayer
 62
  256
370
   -1
100
AcDbLine
 10
367.6025948644505
 20
113.4730288494586
 11
369.3312048644506
 21
113.0496968494586
  0
LINE
  5
E2
100
AcDbEntity
  8
superwide big buttons
  6
ByLayer
 62
  256
370
   -1
100
AcDbLine
 10
369.3312048644506
 20
113.0496968494586
 11
370.9539748644505
 21
112.3441428494586
  0
LINE
  5
E3
100
AcDbEntity
  8
superwide big buttons
  6
ByLayer
 62
  256
370
   -1
100
AcDbLine
 10
370.9539748644505
 20
112.3441428494586
 11
372.4356348644503
 21
111.4269228494586
  0
LINE
  5
E4
100
AcDbEntity
  8
superwide big buttons
  6
ByLayer
 62
  256
370
   -1
100
AcDbLine
 10
372.4356348644503
 20
111.4269228494586
 11
373.8114648644505
 21
110.2980328494586
  0
LINE
  5
E5
100
AcDbEntity
  8
superwide big buttons
  6
ByLayer
 62
  256
370
   -1
100
AcDbLine
 10
373.8114648644505
 20
110.2980328494586
 11
374.9756248644505
 21
108.9927628494586
  0
LINE
  5
E6
100
AcDbEntity
  8
superwide big buttons
  6
ByLayer
 62
  256
370
   -1
100
AcDbLine
 10
374.9756248644505
 20
108.9927628494586
 11
375.9634008644505
 21
107.5111028494586
  0
LINE
  5
E7
100
AcDbEntity
  8
superwide big buttons
  6
ByLayer
 62
  256
370
   -1
100
AcDbLine
 10
375.9634008644505
 20
107.5111028494586
 11
376.7042328644504
 21
105.9236028494586
  0
LINE
  5
E8
100
AcDbEntity
  8
superwide big buttons
  6
ByLayer
 62
  256
370
   -1
100
AcDbLine
 10
376.7042328644504
 20
105.9236028494586
 11
377.2333988644505
 21
104.2302728494586
  0
LINE
  5
E9
100
AcDbEntity
  8
superwide big buttons
  6
ByLayer
 62
  256
370
   -1
100
AcDbLine
 10
377.2333988644505
 20
104.2302728494586
 11
377.4803428644506
 21
102.4663928494586
  0
LINE
  5
EA
100
AcDbEntity
  8
superwide big buttons
  6
ByLayer
 62
  256
370
   -1
100
AcDbLine
 10
377.4803428644506
 20
102.4663928494586
 11
377.4810538644505
 21
100.7020078494586
  0
LINE
  5
EB
100
AcDbEntity
  8
superwide big buttons
  6
ByLayer
 62
  256
370
   -1
100
AcDbLine
 10
377.4810538644505
 20
100.7020078494586
 11
377.2341098644505
 21
98.97339784945864
  0
LINE
  5
EC
100
AcDbEntity
  8
superwide big buttons
  6
ByLayer
 62
  256
370
   -1
100
AcDbLine
 10
377.2341098644505
 20
98.97339784945864
 11
376.7049438644505
 21
97.28006784945863
  0
LINE
  5
ED
100
AcDbEntity
  8
superwide big buttons
  6
ByLayer
 62
  256
370
   -1
100
AcDbLine
 10
376.7049438644505
 20
97.28006784945863
 11
375.9641118644505
 21
95.65729784945863
  0
LINE
  5
EE
100
AcDbEntity
  8
superwide big buttons
  6
ByLayer
 62
  256
370
   -1
100
AcDbLine
 10
375.9641118644505
 20
95.65729784945863
 11
374.9763358644506
 21
94.17563784945862
  0
LINE
  5
EF
100
AcDbEntity
  8
superwide big buttons
  6
ByLayer
 62
  256
370
   -1
100
AcDbLine
 10
374.9763358644506
 20
94.17563784945862
 11
373.8121758644506
 21
92.87036784945862
  0
LINE
  5
F0
100
AcDbEntity
  8
superwide big buttons
  6
ByLayer
 62
  256
370
   -1
100
AcDbLine
 10
373.8121758644506
 20
92.87036784945862
 11
372.4363458644505
 21
91.74147784945863
  0
LINE
  5
F1
100
AcDbEntity
  8
superwide big buttons
  6
ByLayer
 62
  256
370
   -1
100
AcDbLine
 10
372.4363458644505
 20
91.74147784945863
 11
370.9546858644505
 21
90.82425784945862
  0
LINE
  5
F2
100
AcDbEntity
  8
superwide big buttons
  6
ByLayer
 62
  256
370
   -1
100
AcDbLine
 10
370.9546858644505
 20
90.82425784945862
 11
369.3319158644505
 21
90.11870384945861
  0
LINE
  5
F3
100
AcDbEntity
  8
superwide big buttons
  6
ByLayer
 62
  256
370
   -1
100
AcDbLine
 10
369.3319158644505
 20
90.11870384945861
 11
367.6033058644505
 21
89.69537184945862
  0
LINE
  5
F4
100
AcDbEntity
  8
superwide big buttons
  6
ByLayer
 62
  256
370
   -1
100
AcDbLine
 10
367.6033058644505
 20
89.69537184945862
 11
365.8394258644505
 21
89.48370584945862
  0
LINE
  5
F5
100
AcDbEntity
  8
superwide big buttons
  6
ByLayer
 62
  256
370
   -1
100
AcDbLine
 10
365.8394258644505
 20
89.48370584945862
 11
364.0755458644504
 21
89.55426084945863
  0
LINE
  5
F6
100
AcDbEntity
  8
superwide big buttons
  6
ByLayer
 62
  256
370
   -1
100
AcDbLine
 10
364.0755458644504
 20
89.55426084945863
 11
362.3469358644505
 21
89.87175984945863
  0
LINE
  5
F7
100
AcDbEntity
  8
superwide big buttons
  6
ByLayer
 62
  256
370
   -1
100
AcDbLine
 10
362.3469358644505
 20
89.87175984945863
 11
360.6888858644505
 21
90.43620284945861
  0
LINE
  5
F8
100
AcDbEntity
  8
superwide big buttons
  6
ByLayer
 62
  256
370
   -1
100
AcDbLine
 10
360.6888858644505
 20
90.43620284945861
 11
359.1013858644503
 21
91.24758984945863
  0
LINE
  5
F9
100
AcDbEntity
  8
superwide big buttons
  6
ByLayer
 62
  256
370
   -1
100
AcDbLine
 10
359.1013858644503
 20
91.24758984945863
 11
357.6549958644505
 21
92.27063984945865
  0
LINE
  5
FA
100
AcDbEntity
  8
superwide big buttons
  6
ByLayer
 62
  256
370
   -1
100
AcDbLine
 10
357.6549958644505
 20
92.27063984945865
 11
356.3849958644505
 21
93.50535984945863
  0
LINE
  5
FB
100
AcDbEntity
  8
superwide big buttons
  6
ByLayer
 62
  256
370
   -1
100
AcDbLine
 10
356.3849958644505
 20
93.50535984945863
 11
355.3266658644504
 21
94.91646984945864
  0
LINE
  5
FC
100
AcDbEntity
  8
superwide big buttons
  6
ByLayer
 62
  256
370
   -1
100
AcDbLine
 10
355.3266658644504
 20
94.91646984945864
 11
354.4447228644505
 21
96.46868984945861
  0
LINE
  5
FD
100
AcDbEntity
  8
superwide big buttons
  6
ByLayer
 62
  256
370
   -1
100
AcDbLine
 10
354.4447228644505
 20
96.46868984945861
 11
353.8097238644505
 21
98.09145984945862
  0
LINE
  5
FE
100
AcDbEntity
  8
superwide big buttons
  6
ByLayer
 62
  256
370
   -1
100
AcDbLine
 10
353.8097238644505
 20
98.09145984945862
 11
353.4569468644505
 21
99.82006984945865
  0
LINE
  5
FF
100
AcDbEntity
  8
superwide big buttons
  6
ByLayer
 62
  256
370
   -1
100
AcDbLine
 10
353.4569468644505
 20
99.82006984945865
 11
353.3158358644505
 21
101.5839498494586
  0
LINE
  5
100
100
AcDbEntity
  8
superwide big buttons
  6
ByLayer
 62
  256
370
   -1
100
AcDbLine
 10
379.8094358644504
 20
113.0844498494586
 11
379.9505468644504
 21
114.8483298494586
  0
LINE
  5
101
100
AcDbEntity
  8
superwide big buttons
  6
ByLayer
 62
  256
370
   -1
100
AcDbLine
 10
379.9505468644504
 20
114.8483298494586
 11
380.3386018644505
 21
116.5769398494586
  0
LINE
  5
102
100
AcDbEntity
  8
superwide big buttons
  6
ByLayer
 62
  256
370
   -1
100
AcDbLine
 10
380.3386018644505
 20
116.5769398494586
 11
380.9736008644504
 21
118.2349898494586
  0
LINE
  5
103
100
AcDbEntity
  8
superwide big buttons
  6
ByLayer
 62
  256
370
   -1
100
AcDbLine
 10
380.9736008644504
 20
118.2349898494586
 11
381.8202658644506
 21
119.7519298494586
  0
LINE
  5
104
100
AcDbEntity
  8
superwide big buttons
  6
ByLayer
 62
  256
370
   -1
100
AcDbLine
 10
381.8202658644506
 20
119.7519298494586
 11
382.9138758644505
 21
121.1630398494586
  0
LINE
  5
105
100
AcDbEntity
  8
superwide big buttons
  6
ByLayer
 62
  256
370
   -1
100
AcDbLine
 10
382.9138758644505
 20
121.1630398494586
 11
384.1838758644503
 21
122.3977598494586
  0
LINE
  5
106
100
AcDbEntity
  8
superwide big buttons
  6
ByLayer
 62
  256
370
   -1
100
AcDbLine
 10
384.1838758644503
 20
122.3977598494586
 11
385.5949858644503
 21
123.4208098494586
  0
LINE
  5
107
100
AcDbEntity
  8
superwide big buttons
  6
ByLayer
 62
  256
370
   -1
100
AcDbLine
 10
385.5949858644503
 20
123.4208098494586
 11
387.1824858644504
 21
124.2321968494586
  0
LINE
  5
108
100
AcDbEntity
  8
superwide big buttons
  6
ByLayer
 62
  256
370
   -1
100
AcDbLine
 10
387.1824858644504
 20
124.2321968494586
 11
388.8405358644504
 21
124.7966398494586
  0
LINE
  5
109
100
AcDbEntity
  8
superwide big buttons
  6
ByLayer
 62
  256
370
   -1
100
AcDbLine
 10
388.8405358644504
 20
124.7966398494586
 11
390.6044158644505
 21
125.1141388494586
  0
LINE
  5
10A
100
AcDbEntity
  8
superwide big buttons
  6
ByLayer
 62
  256
370
   -1
100
AcDbLine
 10
390.6044158644505
 20
125.1141388494586
 11
392.3682958644505
 21
125.1846948494586
  0
LINE
  5
10B
100
AcDbEntity
  8
superwide big buttons
  6
ByLayer
 62
  256
370
   -1
100
AcDbLine
 10
392.3682958644505
 20
125.1846948494586
 11
394.0969058644505
 21
124.9730288494586
  0
LINE
  5
10C
100
AcDbEntity
  8
superwide big buttons
  6
ByLayer
 62
  256
370
   -1
100
AcDbLine
 10
394.0969058644505
 20
124.9730288494586
 11
395.8255158644505
 21
124.5496968494586
  0
LINE
  5
10D
100
AcDbEntity
  8
superwide big buttons
  6
ByLayer
 62
  256
370
   -1
100
AcDbLine
 10
395.8255158644505
 20
124.5496968494586
 11
397.4482858644503
 21
123.8441428494586
  0
LINE
  5
10E
100
AcDbEntity
  8
superwide big buttons
  6
ByLayer
 62
  256
370
   -1
100
AcDbLine
 10
397.4482858644503
 20
123.8441428494586
 11
398.9652258644504
 21
122.9269228494586
  0
LINE
  5
10F
100
AcDbEntity
  8
superwide big buttons
  6
ByLayer
 62
  256
370
   -1
100
AcDbLine
 10
398.9652258644504
 20
122.9269228494586
 11
400.3057758644505
 21
121.7980328494586
  0
LINE
  5
110
100
AcDbEntity
  8
superwide big buttons
  6
ByLayer
 62
  256
370
   -1
100
AcDbLine
 10
400.3057758644505
 20
121.7980328494586
 11
401.5052158644505
 21
120.4927628494586
  0
LINE
  5
111
100
AcDbEntity
  8
superwide big buttons
  6
ByLayer
 62
  256
370
   -1
100
AcDbLine
 10
401.5052158644505
 20
120.4927628494586
 11
402.4577138644505
 21
119.0111028494586
  0
LINE
  5
112
100
AcDbEntity
  8
superwide big buttons
  6
ByLayer
 62
  256
370
   -1
100
AcDbLine
 10
402.4577138644505
 20
119.0111028494586
 11
403.1985458644505
 21
117.4236028494586
  0
LINE
  5
113
100
AcDbEntity
  8
superwide big buttons
  6
ByLayer
 62
  256
370
   -1
100
AcDbLine
 10
403.1985458644505
 20
117.4236028494586
 11
403.7277118644505
 21
115.7302728494586
  0
LINE
  5
114
100
AcDbEntity
  8
superwide big buttons
  6
ByLayer
 62
  256
370
   -1
100
AcDbLine
 10
403.7277118644505
 20
115.7302728494586
 11
403.9746558644505
 21
113.9663928494586
  0
LINE
  5
115
100
AcDbEntity
  8
superwide big buttons
  6
ByLayer
 62
  256
370
   -1
100
AcDbLine
 10
403.9746558644505
 20
113.9663928494586
 11
403.9740538644506
 21
112.2030078494586
  0
LINE
  5
116
100
AcDbEntity
  8
superwide big buttons
  6
ByLayer
 62
  256
370
   -1
100
AcDbLine
 10
403.9740538644506
 20
112.2030078494586
 11
403.7271098644504
 21
110.4391178494586
  0
LINE
  5
117
100
AcDbEntity
  8
superwide big buttons
  6
ByLayer
 62
  256
370
   -1
100
AcDbLine
 10
403.7271098644504
 20
110.4391178494586
 11
403.1979438644505
 21
108.7810678494586
  0
LINE
  5
118
100
AcDbEntity
  8
superwide big buttons
  6
ByLayer
 62
  256
370
   -1
100
AcDbLine
 10
403.1979438644505
 20
108.7810678494586
 11
402.4571118644503
 21
107.1582978494586
  0
LINE
  5
119
100
AcDbEntity
  8
superwide big buttons
  6
ByLayer
 62
  256
370
   -1
100
AcDbLine
 10
402.4571118644503
 20
107.1582978494586
 11
401.5046138644506
 21
105.6766378494586
  0
LINE
  5
11A
100
AcDbEntity
  8
superwide big buttons
  6
ByLayer
 62
  256
370
   -1
100
AcDbLine
 10
401.5046138644506
 20
105.6766378494586
 11
400.3051738644506
 21
104.3713678494586
  0
LINE
  5
11B
100
AcDbEntity
  8
superwide big buttons
  6
ByLayer
 62
  256
370
   -1
100
AcDbLine
 10
400.3051738644506
 20
104.3713678494586
 11
398.9646238644505
 21
103.2424778494586
  0
LINE
  5
11C
100
AcDbEntity
  8
superwide big buttons
  6
ByLayer
 62
  256
370
   -1
100
AcDbLine
 10
398.9646238644505
 20
103.2424778494586
 11
397.4476838644505
 21
102.3252578494586
  0
LINE
  5
11D
100
AcDbEntity
  8
superwide big buttons
  6
ByLayer
 62
  256
370
   -1
100
AcDbLine
 10
397.4476838644505
 20
102.3252578494586
 11
395.8249138644504
 21
101.6197038494586
  0
LINE
  5
11E
100
AcDbEntity
  8
superwide big buttons
  6
ByLayer
 62
  256
370
   -1
100
AcDbLine
 10
395.8249138644504
 20
101.6197038494586
 11
394.0963038644504
 21
101.1963718494586
  0
LINE
  5
11F
100
AcDbEntity
  8
superwide big buttons
  6
ByLayer
 62
  256
370
   -1
100
AcDbLine
 10
394.0963038644504
 20
101.1963718494586
 11
392.3676938644504
 21
100.9847058494586
  0
LINE
  5
120
100
AcDbEntity
  8
superwide big buttons
  6
ByLayer
 62
  256
370
   -1
100
AcDbLine
 10
392.3676938644504
 20
100.9847058494586
 11
390.6038138644503
 21
101.0552608494586
  0
LINE
  5
121
100
AcDbEntity
  8
superwide big buttons
  6
ByLayer
 62
  256
370
   -1
100
AcDbLine
 10
390.6038138644503
 20
101.0552608494586
 11
388.8399338644505
 21
101.3727598494586
  0
LINE
  5
122
100
AcDbEntity
  8
superwide big buttons
  6
ByLayer
 62
  256
370
   -1
100
AcDbLine
 10
388.8399338644505
 20
101.3727598494586
 11
387.1818838644505
 21
101.9372028494586
  0
LINE
  5
123
100
AcDbEntity
  8
superwide big buttons
  6
ByLayer
 62
  256
370
   -1
100
AcDbLine
 10
387.1818838644505
 20
101.9372028494586
 11
385.5943838644505
 21
102.7485898494586
  0
LINE
  5
124
100
AcDbEntity
  8
superwide big buttons
  6
ByLayer
 62
  256
370
   -1
100
AcDbLine
 10
385.5943838644505
 20
102.7485898494586
 11
384.1832738644505
 21
103.7716398494586
  0
LINE
  5
125
100
AcDbEntity
  8
superwide big buttons
  6
ByLayer
 62
  256
370
   -1
100
AcDbLine
 10
384.1832738644505
 20
103.7716398494586
 11
382.9132738644505
 21
105.0063598494586
  0
LINE
  5
126
100
AcDbEntity
  8
superwide big buttons
  6
ByLayer
 62
  256
370
   -1
100
AcDbLine
 10
382.9132738644505
 20
105.0063598494586
 11
381.8196638644505
 21
106.4174698494586
  0
LINE
  5
127
100
AcDbEntity
  8
superwide big buttons
  6
ByLayer
 62
  256
370
   -1
100
AcDbLine
 10
381.8196638644505
 20
106.4174698494586
 11
380.9729988644505
 21
107.9344098494586
  0
LINE
  5
128
100
AcDbEntity
  8
superwide big buttons
  6
ByLayer
 62
  256
370
   -1
100
AcDbLine
 10
380.9729988644505
 20
107.9344098494586
 11
380.3379998644506
 21
109.5924598494586
  0
LINE
  5
129
100
AcDbEntity
  8
superwide big buttons
  6
ByLayer
 62
  256
370
   -1
100
AcDbLine
 10
380.3379998644506
 20
109.5924598494586
 11
379.9499448644505
 21
111.3210698494586
  0
LINE
  5
12A
100
AcDbEntity
  8
superwide big buttons
  6
ByLayer
 62
  256
370
   -1
100
AcDbLine
 10
379.9499448644505
 20
111.3210698494586
 11
379.8088338644504
 21
113.0849598494586
  0
LINE
  5
12B
100
AcDbEntity
  8
superwide big buttons
  6
ByLayer
 62
  256
370
   -1
100
AcDbLine
 10
408.8071338644505
 20
113.0849598494586
 11
408.9482448644504
 21
114.8488398494586
  0
LINE
  5
12C
100
AcDbEntity
  8
superwide big buttons
  6
ByLayer
 62
  256
370
   -1
100
AcDbLine
 10
408.9482448644504
 20
114.8488398494586
 11
409.3362998644506
 21
116.5774498494586
  0
LINE
  5
12D
100
AcDbEntity
  8
superwide big buttons
  6
ByLayer
 62
  256
370
   -1
100
AcDbLine
 10
409.3362998644506
 20
116.5774498494586
 11
409.9712988644503
 21
118.2354998494586
  0
LINE
  5
12E
100
AcDbEntity
  8
superwide big buttons
  6
ByLayer
 62
  256
370
   -1
100
AcDbLine
 10
409.9712988644503
 20
118.2354998494586
 11
410.8179638644505
 21
119.7524398494586
  0
LINE
  5
12F
100
AcDbEntity
  8
superwide big buttons
  6
ByLayer
 62
  256
370
   -1
100
AcDbLine
 10
410.8179638644505
 20
119.7524398494586
 11
411.9115738644505
 21
121.1635498494586
  0
LINE
  5
130
100
AcDbEntity
  8
superwide big buttons
  6
ByLayer
 62
  256
370
   -1
100
AcDbLine
 10
411.9115738644505
 20
121.1635498494586
 11
413.1815738644506
 21
122.3982698494586
  0
LINE
  5
131
100
AcDbEntity
  8
superwide big buttons
  6
ByLayer
 62
  256
370
   -1
100
AcDbLine
 10
413.1815738644506
 20
122.3982698494586
 11
414.5926838644506
 21
123.4213198494586
  0
LINE
  5
132
100
AcDbEntity
  8
superwide big buttons
  6
ByLayer
 62
  256
370
   -1
100
AcDbLine
 10
414.5926838644506
 20
123.4213198494586
 11
416.1801838644503
 21
124.2327068494586
  0
LINE
  5
133
100
AcDbEntity
  8
superwide big buttons
  6
ByLayer
 62
  256
370
   -1
100
AcDbLine
 10
416.1801838644503
 20
124.2327068494586
 11
417.8382338644503
 21
124.7971498494586
  0
LINE
  5
134
100
AcDbEntity
  8
superwide big buttons
  6
ByLayer
 62
  256
370
   -1
100
AcDbLine
 10
417.8382338644503
 20
124.7971498494586
 11
419.6021238644505
 21
125.1146488494586
  0
LINE
  5
135
100
AcDbEntity
  8
superwide big buttons
  6
ByLayer
 62
  256
370
   -1
100
AcDbLine
 10
419.6021238644505
 20
125.1146488494586
 11
421.3660038644505
 21
125.1852048494586
  0
LINE
  5
136
100
AcDbEntity
  8
superwide big buttons
  6
ByLayer
 62
  256
370
   -1
100
AcDbLine
 10
421.3660038644505
 20
125.1852048494586
 11
423.0946138644505
 21
124.9735388494586
  0
LINE
  5
137
100
AcDbEntity
  8
superwide big buttons
  6
ByLayer
 62
  256
370
   -1
100
AcDbLine
 10
423.0946138644505
 20
124.9735388494586
 11
424.8232238644505
 21
124.5502068494586
  0
LINE
  5
138
100
AcDbEntity
  8
superwide big buttons
  6
ByLayer
 62
  256
370
   -1
100
AcDbLine
 10
424.8232238644505
 20
124.5502068494586
 11
426.4459938644504
 21
123.8446528494586
  0
LINE
  5
139
100
AcDbEntity
  8
superwide big buttons
  6
ByLayer
 62
  256
370
   -1
100
AcDbLine
 10
426.4459938644504
 20
123.8446528494586
 11
427.9629338644505
 21
122.9274328494586
  0
LINE
  5
13A
100
AcDbEntity
  8
superwide big buttons
  6
ByLayer
 62
  256
370
   -1
100
AcDbLine
 10
427.9629338644505
 20
122.9274328494586
 11
429.3034838644505
 21
121.7985428494586
  0
LINE
  5
13B
100
AcDbEntity
  8
superwide big buttons
  6
ByLayer
 62
  256
370
   -1
100
AcDbLine
 10
429.3034838644505
 20
121.7985428494586
 11
430.5029238644505
 21
120.4932728494586
  0
LINE
  5
13C
100
AcDbEntity
  8
superwide big buttons
  6
ByLayer
 62
  256
370
   -1
100
AcDbLine
 10
430.5029238644505
 20
120.4932728494586
 11
431.4554218644505
 21
119.0116128494586
  0
LINE
  5
13D
100
AcDbEntity
  8
superwide big buttons
  6
ByLayer
 62
  256
370
   -1
100
AcDbLine
 10
431.4554218644505
 20
119.0116128494586
 11
432.1962538644507
 21
117.4241128494586
  0
LINE
  5
13E
100
AcDbEntity
  8
superwide big buttons
  6
ByLayer
 62
  256
370
   -1
100
AcDbLine
 10
432.1962538644507
 20
117.4241128494586
 11
432.7254198644505
 21
115.7307828494586
  0
LINE
  5
13F
100
AcDbEntity
  8
superwide big buttons
  6
ByLayer
 62
  256
370
   -1
100
AcDbLine
 10
432.7254198644505
 20
115.7307828494586
 11
432.9723638644506
 21
113.9669028494586
  0
LINE
  5
140
100
AcDbEntity
  8
superwide big buttons
  6
ByLayer
 62
  256
370
   -1
100
AcDbLine
 10
432.9723638644506
 20
113.9669028494586
 11
432.9730538644503
 21
112.2030078494586
  0
LINE
  5
141
100
AcDbEntity
  8
superwide big buttons
  6
ByLayer
 62
  256
370
   -1
100
AcDbLine
 10
432.9730538644503
 20
112.2030078494586
 11
432.7261098644503
 21
110.4391278494586
  0
LINE
  5
142
100
AcDbEntity
  8
superwide big buttons
  6
ByLayer
 62
  256
370
   -1
100
AcDbLine
 10
432.7261098644503
 20
110.4391278494586
 11
432.1969438644504
 21
108.7810778494586
  0
LINE
  5
143
100
AcDbEntity
  8
superwide big buttons
  6
ByLayer
 62
  256
370
   -1
100
AcDbLine
 10
432.1969438644504
 20
108.7810778494586
 11
431.4561118644505
 21
107.1583078494586
  0
LINE
  5
144
100
AcDbEntity
  8
superwide big buttons
  6
ByLayer
 62
  256
370
   -1
100
AcDbLine
 10
431.4561118644505
 20
107.1583078494586
 11
430.5036138644506
 21
105.6766478494586
  0
LINE
  5
145
100
AcDbEntity
  8
superwide big buttons
  6
ByLayer
 62
  256
370
   -1
100
AcDbLine
 10
430.5036138644506
 20
105.6766478494586
 11
429.3041738644505
 21
104.3713778494586
  0
LINE
  5
146
100
AcDbEntity
  8
superwide big buttons
  6
ByLayer
 62
  256
370
   -1
100
AcDbLine
 10
429.3041738644505
 20
104.3713778494586
 11
427.9636238644505
 21
103.2424878494586
  0
LINE
  5
147
100
AcDbEntity
  8
superwide big buttons
  6
ByLayer
 62
  256
370
   -1
100
AcDbLine
 10
427.9636238644505
 20
103.2424878494586
 11
426.4466838644504
 21
102.3252678494586
  0
LINE
  5
148
100
AcDbEntity
  8
superwide big buttons
  6
ByLayer
 62
  256
370
   -1
100
AcDbLine
 10
426.4466838644504
 20
102.3252678494586
 11
424.8239138644503
 21
101.6197138494586
  0
LINE
  5
149
100
AcDbEntity
  8
superwide big buttons
  6
ByLayer
 62
  256
370
   -1
100
AcDbLine
 10
424.8239138644503
 20
101.6197138494586
 11
423.0953038644506
 21
101.1963818494586
  0
LINE
  5
14A
100
AcDbEntity
  8
superwide big buttons
  6
ByLayer
 62
  256
370
   -1
100
AcDbLine
 10
423.0953038644506
 20
101.1963818494586
 11
421.3666938644503
 21
100.9847158494586
  0
LINE
  5
14B
100
AcDbEntity
  8
superwide big buttons
  6
ByLayer
 62
  256
370
   -1
100
AcDbLine
 10
421.3666938644503
 20
100.9847158494586
 11
419.6028138644506
 21
101.0552708494586
  0
LINE
  5
14C
100
AcDbEntity
  8
superwide big buttons
  6
ByLayer
 62
  256
370
   -1
100
AcDbLine
 10
419.6028138644506
 20
101.0552708494586
 11
417.8389238644505
 21
101.3727698494586
  0
LINE
  5
14D
100
AcDbEntity
  8
superwide big buttons
  6
ByLayer
 62
  256
370
   -1
100
AcDbLine
 10
417.8389238644505
 20
101.3727698494586
 11
416.1808738644505
 21
101.9372128494586
  0
LINE
  5
14E
100
AcDbEntity
  8
superwide big buttons
  6
ByLayer
 62
  256
370
   -1
100
AcDbLine
 10
416.1808738644505
 20
101.9372128494586
 11
414.5933738644504
 21
102.7485998494586
  0
LINE
  5
14F
100
AcDbEntity
  8
superwide big buttons
  6
ByLayer
 62
  256
370
   -1
100
AcDbLine
 10
414.5933738644504
 20
102.7485998494586
 11
413.1822638644504
 21
103.7716498494586
  0
LINE
  5
150
100
AcDbEntity
  8
superwide big buttons
  6
ByLayer
 62
  256
370
   -1
100
AcDbLine
 10
413.1822638644504
 20
103.7716498494586
 11
411.9122638644504
 21
105.0063698494586
  0
LINE
  5
151
100
AcDbEntity
  8
superwide big buttons
  6
ByLayer
 62
  256
370
   -1
100
AcDbLine
 10
411.9122638644504
 20
105.0063698494586
 11
410.8186538644505
 21
106.4174798494586
  0
LINE
  5
152
100
AcDbEntity
  8
superwide big buttons
  6
ByLayer
 62
  256
370
   -1
100
AcDbLine
 10
410.8186538644505
 20
106.4174798494586
 11
409.9719888644505
 21
107.9344198494586
  0
LINE
  5
153
100
AcDbEntity
  8
superwide big buttons
  6
ByLayer
 62
  256
370
   -1
100
AcDbLine
 10
409.9719888644505
 20
107.9344198494586
 11
409.3369898644505
 21
109.5924698494586
  0
LINE
  5
154
100
AcDbEntity
  8
superwide big buttons
  6
ByLayer
 62
  256
370
   -1
100
AcDbLine
 10
409.3369898644505
 20
109.5924698494586
 11
408.9489348644505
 21
111.3210798494586
  0
LINE
  5
155
100
AcDbEntity
  8
superwide big buttons
  6
ByLayer
 62
  256
370
   -1
100
AcDbLine
 10
408.9489348644505
 20
111.3210798494586
 11
408.8078238644505
 21
113.0849598494586
  0
LINE
  5
156
100
AcDbEntity
  8
superwide big buttons
  6
ByLayer
 62
  256
370
   -1
100
AcDbLine
 10
332.7132458644505
 20
37.09675984945862
 11
332.8543568644505
 21
39.07230984945862
  0
LINE
  5
157
100
AcDbEntity
  8
superwide big buttons
  6
ByLayer
 62
  256
370
   -1
100
AcDbLine
 10
332.8543568644505
 20
39.07230984945862
 11
333.2424118644504
 21
41.01257984945862
  0
LINE
  5
158
100
AcDbEntity
  8
superwide big buttons
  6
ByLayer
 62
  256
370
   -1
100
AcDbLine
 10
333.2424118644504
 20
41.01257984945862
 11
333.8774108644506
 21
42.88229984945862
  0
LINE
  5
159
100
AcDbEntity
  8
superwide big buttons
  6
ByLayer
 62
  256
370
   -1
100
AcDbLine
 10
333.8774108644506
 20
42.88229984945862
 11
334.7240758644506
 21
44.64618984945862
  0
LINE
  5
15A
100
AcDbEntity
  8
superwide big buttons
  6
ByLayer
 62
  256
370
   -1
100
AcDbLine
 10
334.7240758644506
 20
44.64618984945862
 11
335.8176858644506
 21
46.26895984945862
  0
LINE
  5
15B
100
AcDbEntity
  8
superwide big buttons
  6
ByLayer
 62
  256
370
   -1
100
AcDbLine
 10
335.8176858644506
 20
46.26895984945862
 11
337.1229558644504
 21
47.75061984945863
  0
LINE
  5
15C
100
AcDbEntity
  8
superwide big buttons
  6
ByLayer
 62
  256
370
   -1
100
AcDbLine
 10
337.1229558644504
 20
47.75061984945863
 11
338.6046158644505
 21
49.05588984945864
  0
LINE
  5
15D
100
AcDbEntity
  8
superwide big buttons
  6
ByLayer
 62
  256
370
   -1
100
AcDbLine
 10
338.6046158644505
 20
49.05588984945864
 11
340.2626658644506
 21
50.14949984945862
  0
LINE
  5
15E
100
AcDbEntity
  8
superwide big buttons
  6
ByLayer
 62
  256
370
   -1
100
AcDbLine
 10
340.2626658644506
 20
50.14949984945862
 11
342.0265458644503
 21
51.03144284945863
  0
LINE
  5
15F
100
AcDbEntity
  8
superwide big buttons
  6
ByLayer
 62
  256
370
   -1
100
AcDbLine
 10
342.0265458644503
 20
51.03144284945863
 11
343.8962658644505
 21
51.66644184945862
  0
LINE
  5
160
100
AcDbEntity
  8
superwide big buttons
  6
ByLayer
 62
  256
370
   -1
100
AcDbLine
 10
343.8962658644505
 20
51.66644184945862
 11
345.8365358644506
 21
52.05449684945863
  0
LINE
  5
161
100
AcDbEntity
  8
superwide big buttons
  6
ByLayer
 62
  256
370
   -1
100
AcDbLine
 10
345.8365358644506
 20
52.05449684945863
 11
347.8120858644506
 21
52.19560784945863
  0
LINE
  5
162
100
AcDbEntity
  8
superwide big buttons
  6
ByLayer
 62
  256
370
   -1
100
AcDbLine
 10
347.8120858644506
 20
52.19560784945863
 11
349.7876358644505
 21
52.05449684945863
  0
LINE
  5
163
100
AcDbEntity
  8
superwide big buttons
  6
ByLayer
 62
  256
370
   -1
100
AcDbLine
 10
349.7876358644505
 20
52.05449684945863
 11
351.7279058644505
 21
51.66644184945862
  0
LINE
  5
164
100
AcDbEntity
  8
superwide big buttons
  6
ByLayer
 62
  256
370
   -1
100
AcDbLine
 10
351.7279058644505
 20
51.66644184945862
 11
353.5976258644505
 21
51.03144284945863
  0
LINE
  5
165
100
AcDbEntity
  8
superwide big buttons
  6
ByLayer
 62
  256
370
   -1
100
AcDbLine
 10
353.5976258644505
 20
51.03144284945863
 11
355.3615058644505
 21
50.14949984945862
  0
LINE
  5
166
100
AcDbEntity
  8
superwide big buttons
  6
ByLayer
 62
  256
370
   -1
100
AcDbLine
 10
355.3615058644505
 20
50.14949984945862
 11
357.0195558644506
 21
49.05588984945864
  0
LINE
  5
167
100
AcDbEntity
  8
superwide big buttons
  6
ByLayer
 62
  256
370
   -1
100
AcDbLine
 10
357.0195558644506
 20
49.05588984945864
 11
358.5012158644505
 21
47.75061984945863
  0
LINE
  5
168
100
AcDbEntity
  8
superwide big buttons
  6
ByLayer
 62
  256
370
   -1
100
AcDbLine
 10
358.5012158644505
 20
47.75061984945863
 11
359.8064858644506
 21
46.26895984945862
  0
LINE
  5
169
100
AcDbEntity
  8
superwide big buttons
  6
ByLayer
 62
  256
370
   -1
100
AcDbLine
 10
359.8064858644506
 20
46.26895984945862
 11
360.9000958644505
 21
44.64618984945862
  0
LINE
  5
16A
100
AcDbEntity
  8
superwide big buttons
  6
ByLayer
 62
  256
370
   -1
100
AcDbLine
 10
360.9000958644505
 20
44.64618984945862
 11
361.7467608644505
 21
42.88229984945862
  0
LINE
  5
16B
100
AcDbEntity
  8
superwide big buttons
  6
ByLayer
 62
  256
370
   -1
100
AcDbLine
 10
361.7467608644505
 20
42.88229984945862
 11
362.3817598644505
 21
41.01257984945862
  0
LINE
  5
16C
100
AcDbEntity
  8
superwide big buttons
  6
ByLayer
 62
  256
370
   -1
100
AcDbLine
 10
362.3817598644505
 20
41.01257984945862
 11
362.7698148644505
 21
39.07230984945862
  0
LINE
  5
16D
100
AcDbEntity
  8
superwide big buttons
  6
ByLayer
 62
  256
370
   -1
100
AcDbLine
 10
362.7698148644505
 20
39.07230984945862
 11
362.9109258644505
 21
37.09675984945862
  0
LINE
  5
16E
100
AcDbEntity
  8
superwide big buttons
  6
ByLayer
 62
  256
370
   -1
100
AcDbLine
 10
362.9109258644505
 20
37.09675984945862
 11
362.7698148644505
 21
35.12120984945862
  0
LINE
  5
16F
100
AcDbEntity
  8
superwide big buttons
  6
ByLayer
 62
  256
370
   -1
100
AcDbLine
 10
362.7698148644505
 20
35.12120984945862
 11
362.3817598644505
 21
33.18093984945862
  0
LINE
  5
170
100
AcDbEntity
  8
superwide big buttons
  6
ByLayer
 62
  256
370
   -1
100
AcDbLine
 10
362.3817598644505
 20
33.18093984945862
 11
361.7467608644505
 21
31.3112198494586
  0
LINE
  5
171
100
AcDbEntity
  8
superwide big buttons
  6
ByLayer
 62
  256
370
   -1
100
AcDbLine
 10
361.7467608644505
 20
31.3112198494586
 11
360.9000958644505
 21
29.54732984945862
  0
LINE
  5
172
100
AcDbEntity
  8
superwide big buttons
  6
ByLayer
 62
  256
370
   -1
100
AcDbLine
 10
360.9000958644505
 20
29.54732984945862
 11
359.8064858644506
 21
27.88927984945862
  0
LINE
  5
173
100
AcDbEntity
  8
superwide big buttons
  6
ByLayer
 62
  256
370
   -1
100
AcDbLine
 10
359.8064858644506
 20
27.88927984945862
 11
358.5012158644505
 21
26.40761984945861
  0
LINE
  5
174
100
AcDbEntity
  8
superwide big buttons
  6
ByLayer
 62
  256
370
   -1
100
AcDbLine
 10
358.5012158644505
 20
26.40761984945861
 11
357.0195558644506
 21
25.10234984945861
  0
LINE
  5
175
100
AcDbEntity
  8
superwide big buttons
  6
ByLayer
 62
  256
370
   -1
100
AcDbLine
 10
357.0195558644506
 20
25.10234984945861
 11
355.3615058644505
 21
24.00873984945862
  0
LINE
  5
176
100
AcDbEntity
  8
superwide big buttons
  6
ByLayer
 62
  256
370
   -1
100
AcDbLine
 10
355.3615058644505
 20
24.00873984945862
 11
353.5976258644505
 21
23.12679684945861
  0
LINE
  5
177
100
AcDbEntity
  8
superwide big buttons
  6
ByLayer
 62
  256
370
   -1
100
AcDbLine
 10
353.5976258644505
 20
23.12679684945861
 11
351.7279058644505
 21
22.49179784945862
  0
LINE
  5
178
100
AcDbEntity
  8
superwide big buttons
  6
ByLayer
 62
  256
370
   -1
100
AcDbLine
 10
351.7279058644505
 20
22.49179784945862
 11
349.7876358644505
 21
22.10374284945861
  0
LINE
  5
179
100
AcDbEntity
  8
superwide big buttons
  6
ByLayer
 62
  256
370
   -1
100
AcDbLine
 10
349.7876358644505
 20
22.10374284945861
 11
347.8120858644506
 21
21.99790984945862
  0
LINE
  5
17A
100
AcDbEntity
  8
superwide big buttons
  6
ByLayer
 62
  256
370
   -1
100
AcDbLine
 10
347.8120858644506
 20
21.99790984945862
 11
345.8365358644506
 21
22.10374284945861
  0
LINE
  5
17B
100
AcDbEntity
  8
superwide big buttons
  6
ByLayer
 62
  256
370
   -1
100
AcDbLine
 10
345.8365358644506
 20
22.10374284945861
 11
343.8962658644505
 21
22.49179784945862
  0
LINE
  5
17C
100
AcDbEntity
  8
superwide big buttons
  6
ByLayer
 62
  256
370
   -1
100
AcDbLine
 10
343.8962658644505
 20
22.49179784945862
 11
342.0265458644503
 21
23.12679684945861
  0
LINE
  5
17D
100
AcDbEntity
  8
superwide big buttons
  6
ByLayer
 62
  256
370
   -1
100
AcDbLine
 10
342.0265458644503
 20
23.12679684945861
 11
340.2626658644506
 21
24.00873984945862
  0
LINE
  5
17E
100
AcDbEntity
  8
superwide big buttons
  6
ByLayer
 62
  256
370
   -1
100
AcDbLine
 10
340.2626658644506
 20
24.00873984945862
 11
338.6046158644505
 21
25.10234984945861
  0
LINE
  5
17F
100
AcDbEntity
  8
superwide big buttons
  6
ByLayer
 62
  256
370
   -1
100
AcDbLine
 10
338.6046158644505
 20
25.10234984945861
 11
337.1229558644504
 21
26.40761984945861
  0
LINE
  5
180
100
AcDbEntity
  8
superwide big buttons
  6
ByLayer
 62
  256
370
   -1
100
AcDbLine
 10
337.1229558644504
 20
26.40761984945861
 11
335.8176858644506
 21
27.88927984945862
  0
LINE
  5
181
100
AcDbEntity
  8
superwide big buttons
  6
ByLayer
 62
  256
370
   -1
100
AcDbLine
 10
335.8176858644506
 20
27.88927984945862
 11
334.7240758644506
 21
29.54732984945862
  0
LINE
  5
182
100
AcDbEntity
  8
superwide big buttons
  6
ByLayer
 62
  256
370
   -1
100
AcDbLine
 10
334.7240758644506
 20
29.54732984945862
 11
333.8774108644506
 21
31.3112198494586
  0
LINE
  5
183
100
AcDbEntity
  8
superwide big buttons
  6
ByLayer
 62
  256
370
   -1
100
AcDbLine
 10
333.8774108644506
 20
31.3112198494586
 11
333.2424118644504
 21
33.18093984945862
  0
LINE
  5
184
100
AcDbEntity
  8
superwide big buttons
  6
ByLayer
 62
  256
370
   -1
100
AcDbLine
 10
333.2424118644504
 20
33.18093984945862
 11
332.8543568644505
 21
35.12120984945862
  0
LINE
  5
185
100
AcDbEntity
  8
superwide big buttons
  6
ByLayer
 62
  256
370
   -1
100
AcDbLine
 10
332.8543568644505
 20
35.12120984945862
 11
332.7132458644505
 21
37.09675984945862
  0
LINE
  5
186
100
AcDbEntity
  8
superwide big buttons
  6
ByLayer
 62
  256
370
   -1
100
AcDbLine
 10
347.7062458644505
 20
70.57525984945862
 11
347.8473568644505
 21
72.33913984945865
  0
LINE
  5
187
100
AcDbEntity
  8
superwide big buttons
  6
ByLayer
 62
  256
370
   -1
100
AcDbLine
 10
347.8473568644505
 20
72.33913984945865
 11
348.2354118644505
 21
74.06774984945862
  0
LINE
  5
188
100
AcDbEntity
  8
superwide big buttons
  6
ByLayer
 62
  256
370
   -1
100
AcDbLine
 10
348.2354118644505
 20
74.06774984945862
 11
348.8704108644505
 21
75.72579984945862
  0
LINE
  5
189
100
AcDbEntity
  8
superwide big buttons
  6
ByLayer
 62
  256
370
   -1
100
AcDbLine
 10
348.8704108644505
 20
75.72579984945862
 11
349.7170758644505
 21
77.27801984945863
  0
LINE
  5
18A
100
AcDbEntity
  8
superwide big buttons
  6
ByLayer
 62
  256
370
   -1
100
AcDbLine
 10
349.7170758644505
 20
77.27801984945863
 11
350.8106858644504
 21
78.65384984945864
  0
LINE
  5
18B
100
AcDbEntity
  8
superwide big buttons
  6
ByLayer
 62
  256
370
   -1
100
AcDbLine
 10
350.8106858644504
 20
78.65384984945864
 11
352.0806858644505
 21
79.88856984945862
  0
LINE
  5
18C
100
AcDbEntity
  8
superwide big buttons
  6
ByLayer
 62
  256
370
   -1
100
AcDbLine
 10
352.0806858644505
 20
79.88856984945862
 11
353.4917958644506
 21
80.91161984945863
  0
LINE
  5
18D
100
AcDbEntity
  8
superwide big buttons
  6
ByLayer
 62
  256
370
   -1
100
AcDbLine
 10
353.4917958644506
 20
80.91161984945863
 11
355.0792958644505
 21
81.72300684945863
  0
LINE
  5
18E
100
AcDbEntity
  8
superwide big buttons
  6
ByLayer
 62
  256
370
   -1
100
AcDbLine
 10
355.0792958644505
 20
81.72300684945863
 11
356.7373458644505
 21
82.28744984945864
  0
LINE
  5
18F
100
AcDbEntity
  8
superwide big buttons
  6
ByLayer
 62
  256
370
   -1
100
AcDbLine
 10
356.7373458644505
 20
82.28744984945864
 11
358.5012358644503
 21
82.60494884945864
  0
LINE
  5
190
100
AcDbEntity
  8
superwide big buttons
  6
ByLayer
 62
  256
370
   -1
100
AcDbLine
 10
358.5012358644503
 20
82.60494884945864
 11
360.2651158644504
 21
82.67550484945865
  0
LINE
  5
191
100
AcDbEntity
  8
superwide big buttons
  6
ByLayer
 62
  256
370
   -1
100
AcDbLine
 10
360.2651158644504
 20
82.67550484945865
 11
361.9937258644505
 21
82.49911584945862
  0
LINE
  5
192
100
AcDbEntity
  8
superwide big buttons
  6
ByLayer
 62
  256
370
   -1
100
AcDbLine
 10
361.9937258644505
 20
82.49911584945862
 11
363.7223358644504
 21
82.04050584945863
  0
LINE
  5
193
100
AcDbEntity
  8
superwide big buttons
  6
ByLayer
 62
  256
370
   -1
100
AcDbLine
 10
363.7223358644504
 20
82.04050584945863
 11
365.3451058644505
 21
81.33495184945865
  0
LINE
  5
194
100
AcDbEntity
  8
superwide big buttons
  6
ByLayer
 62
  256
370
   -1
100
AcDbLine
 10
365.3451058644505
 20
81.33495184945865
 11
366.8620458644505
 21
80.41773184945863
  0
LINE
  5
195
100
AcDbEntity
  8
superwide big buttons
  6
ByLayer
 62
  256
370
   -1
100
AcDbLine
 10
366.8620458644505
 20
80.41773184945863
 11
368.2025958644505
 21
79.28884184945862
  0
LINE
  5
196
100
AcDbEntity
  8
superwide big buttons
  6
ByLayer
 62
  256
370
   -1
100
AcDbLine
 10
368.2025958644505
 20
79.28884184945862
 11
369.4020358644507
 21
77.98357184945864
  0
LINE
  5
197
100
AcDbEntity
  8
superwide big buttons
  6
ByLayer
 62
  256
370
   -1
100
AcDbLine
 10
369.4020358644507
 20
77.98357184945864
 11
370.3545338644503
 21
76.50191184945861
  0
LINE
  5
198
100
AcDbEntity
  8
superwide big buttons
  6
ByLayer
 62
  256
370
   -1
100
AcDbLine
 10
370.3545338644503
 20
76.50191184945861
 11
371.1306428644505
 21
74.91441184945863
  0
LINE
  5
199
100
AcDbEntity
  8
superwide big buttons
  6
ByLayer
 62
  256
370
   -1
100
AcDbLine
 10
371.1306428644505
 20
74.91441184945863
 11
371.6245308644504
 21
73.22108184945863
  0
LINE
  5
19A
100
AcDbEntity
  8
superwide big buttons
  6
ByLayer
 62
  256
370
   -1
100
AcDbLine
 10
371.6245308644504
 20
73.22108184945863
 11
371.8714748644504
 21
71.45719184945862
  0
LINE
  5
19B
100
AcDbEntity
  8
superwide big buttons
  6
ByLayer
 62
  256
370
   -1
100
AcDbLine
 10
371.8714748644504
 20
71.45719184945862
 11
371.8720538644504
 21
69.69300784945862
  0
LINE
  5
19C
100
AcDbEntity
  8
superwide big buttons
  6
ByLayer
 62
  256
370
   -1
100
AcDbLine
 10
371.8720538644504
 20
69.69300784945862
 11
371.6251098644506
 21
67.96439784945862
  0
LINE
  5
19D
100
AcDbEntity
  8
superwide big buttons
  6
ByLayer
 62
  256
370
   -1
100
AcDbLine
 10
371.6251098644506
 20
67.96439784945862
 11
371.1312218644505
 21
66.27106784945862
  0
LINE
  5
19E
100
AcDbEntity
  8
superwide big buttons
  6
ByLayer
 62
  256
370
   -1
100
AcDbLine
 10
371.1312218644505
 20
66.27106784945862
 11
370.3551128644505
 21
64.64829784945861
  0
LINE
  5
19F
100
AcDbEntity
  8
superwide big buttons
  6
ByLayer
 62
  256
370
   -1
100
AcDbLine
 10
370.3551128644505
 20
64.64829784945861
 11
369.4026148644505
 21
63.20190784945861
  0
LINE
  5
1A0
100
AcDbEntity
  8
superwide big buttons
  6
ByLayer
 62
  256
370
   -1
100
AcDbLine
 10
369.4026148644505
 20
63.20190784945861
 11
368.2031748644505
 21
61.86135784945863
  0
LINE
  5
1A1
100
AcDbEntity
  8
superwide big buttons
  6
ByLayer
 62
  256
370
   -1
100
AcDbLine
 10
368.2031748644505
 20
61.86135784945863
 11
366.8626248644505
 21
60.73246784945862
  0
LINE
  5
1A2
100
AcDbEntity
  8
superwide big buttons
  6
ByLayer
 62
  256
370
   -1
100
AcDbLine
 10
366.8626248644505
 20
60.73246784945862
 11
365.3456848644505
 21
59.8152478494586
  0
LINE
  5
1A3
100
AcDbEntity
  8
superwide big buttons
  6
ByLayer
 62
  256
370
   -1
100
AcDbLine
 10
365.3456848644505
 20
59.8152478494586
 11
363.7229148644503
 21
59.14497184945863
  0
LINE
  5
1A4
100
AcDbEntity
  8
superwide big buttons
  6
ByLayer
 62
  256
370
   -1
100
AcDbLine
 10
363.7229148644503
 20
59.14497184945863
 11
361.9943048644506
 21
58.68636184945863
  0
LINE
  5
1A5
100
AcDbEntity
  8
superwide big buttons
  6
ByLayer
 62
  256
370
   -1
100
AcDbLine
 10
361.9943048644506
 20
58.68636184945863
 11
360.2656948644504
 21
58.50997284945861
  0
LINE
  5
1A6
100
AcDbEntity
  8
superwide big buttons
  6
ByLayer
 62
  256
370
   -1
100
AcDbLine
 10
360.2656948644504
 20
58.50997284945861
 11
358.5018148644505
 21
58.54525084945861
  0
LINE
  5
1A7
100
AcDbEntity
  8
superwide big buttons
  6
ByLayer
 62
  256
370
   -1
100
AcDbLine
 10
358.5018148644505
 20
58.54525084945861
 11
356.7379248644505
 21
58.89802784945861
  0
LINE
  5
1A8
100
AcDbEntity
  8
superwide big buttons
  6
ByLayer
 62
  256
370
   -1
100
AcDbLine
 10
356.7379248644505
 20
58.89802784945861
 11
355.0798748644505
 21
59.4624708494586
  0
LINE
  5
1A9
100
AcDbEntity
  8
superwide big buttons
  6
ByLayer
 62
  256
370
   -1
100
AcDbLine
 10
355.0798748644505
 20
59.4624708494586
 11
353.4923748644504
 21
60.27385784945862
  0
LINE
  5
1AA
100
AcDbEntity
  8
superwide big buttons
  6
ByLayer
 62
  256
370
   -1
100
AcDbLine
 10
353.4923748644504
 20
60.27385784945862
 11
352.0812648644504
 21
61.29690784945863
  0
LINE
  5
1AB
100
AcDbEntity
  8
superwide big buttons
  6
ByLayer
 62
  256
370
   -1
100
AcDbLine
 10
352.0812648644504
 20
61.29690784945863
 11
350.8112648644503
 21
62.49634784945862
  0
LINE
  5
1AC
100
AcDbEntity
  8
superwide big buttons
  6
ByLayer
 62
  256
370
   -1
100
AcDbLine
 10
350.8112648644503
 20
62.49634784945862
 11
349.7176548644505
 21
63.90745784945862
  0
LINE
  5
1AD
100
AcDbEntity
  8
superwide big buttons
  6
ByLayer
 62
  256
370
   -1
100
AcDbLine
 10
349.7176548644505
 20
63.90745784945862
 11
348.8709898644505
 21
65.4596778494586
  0
LINE
  5
1AE
100
AcDbEntity
  8
superwide big buttons
  6
ByLayer
 62
  256
370
   -1
100
AcDbLine
 10
348.8709898644505
 20
65.4596778494586
 11
348.2359908644505
 21
67.1177278494586
  0
LINE
  5
1AF
100
AcDbEntity
  8
superwide big buttons
  6
ByLayer
 62
  256
370
   -1
100
AcDbLine
 10
348.2359908644505
 20
67.1177278494586
 11
347.8479358644504
 21
68.81105784945861
  0
LINE
  5
1B0
100
AcDbEntity
  8
superwide big buttons
  6
ByLayer
 62
  256
370
   -1
100
AcDbLine
 10
347.8479358644504
 20
68.81105784945861
 11
347.7068248644505
 21
70.57494784945861
  0
LINE
  5
1B1
100
AcDbEntity
  8
superwide big buttons
  6
ByLayer
 62
  256
370
   -1
100
AcDbLine
 10
374.2004248644505
 20
81.58154784945863
 11
374.3415358644505
 21
83.34543784945863
  0
LINE
  5
1B2
100
AcDbEntity
  8
superwide big buttons
  6
ByLayer
 62
  256
370
   -1
100
AcDbLine
 10
374.3415358644505
 20
83.34543784945863
 11
374.7295908644505
 21
85.07404784945861
  0
LINE
  5
1B3
100
AcDbEntity
  8
superwide big buttons
  6
ByLayer
 62
  256
370
   -1
100
AcDbLine
 10
374.7295908644505
 20
85.07404784945861
 11
375.3645898644505
 21
86.73209784945861
  0
LINE
  5
1B4
100
AcDbEntity
  8
superwide big buttons
  6
ByLayer
 62
  256
370
   -1
100
AcDbLine
 10
375.3645898644505
 20
86.73209784945861
 11
376.2112548644506
 21
88.24903784945862
  0
LINE
  5
1B5
100
AcDbEntity
  8
superwide big buttons
  6
ByLayer
 62
  256
370
   -1
100
AcDbLine
 10
376.2112548644506
 20
88.24903784945862
 11
377.3048648644503
 21
89.66014784945862
  0
LINE
  5
1B6
100
AcDbEntity
  8
superwide big buttons
  6
ByLayer
 62
  256
370
   -1
100
AcDbLine
 10
377.3048648644503
 20
89.66014784945862
 11
378.5748648644503
 21
90.89486784945861
  0
LINE
  5
1B7
100
AcDbEntity
  8
superwide big buttons
  6
ByLayer
 62
  256
370
   -1
100
AcDbLine
 10
378.5748648644503
 20
90.89486784945861
 11
380.0212548644505
 21
91.91791784945862
  0
LINE
  5
1B8
100
AcDbEntity
  8
superwide big buttons
  6
ByLayer
 62
  256
370
   -1
100
AcDbLine
 10
380.0212548644505
 20
91.91791784945862
 11
381.5734748644504
 21
92.72930484945864
  0
LINE
  5
1B9
100
AcDbEntity
  8
superwide big buttons
  6
ByLayer
 62
  256
370
   -1
100
AcDbLine
 10
381.5734748644504
 20
92.72930484945864
 11
383.2668048644505
 21
93.29374784945863
  0
LINE
  5
1BA
100
AcDbEntity
  8
superwide big buttons
  6
ByLayer
 62
  256
370
   -1
100
AcDbLine
 10
383.2668048644505
 20
93.29374784945863
 11
384.9954148644505
 21
93.61124684945862
  0
LINE
  5
1BB
100
AcDbEntity
  8
superwide big buttons
  6
ByLayer
 62
  256
370
   -1
100
AcDbLine
 10
384.9954148644505
 20
93.61124684945862
 11
386.7593048644504
 21
93.68180184945864
  0
LINE
  5
1BC
100
AcDbEntity
  8
superwide big buttons
  6
ByLayer
 62
  256
370
   -1
100
AcDbLine
 10
386.7593048644504
 20
93.68180184945864
 11
388.5231848644505
 21
93.47013584945863
  0
LINE
  5
1BD
100
AcDbEntity
  8
superwide big buttons
  6
ByLayer
 62
  256
370
   -1
100
AcDbLine
 10
388.5231848644505
 20
93.47013584945863
 11
390.2165148644505
 21
93.04680384945864
  0
LINE
  5
1BE
100
AcDbEntity
  8
superwide big buttons
  6
ByLayer
 62
  256
370
   -1
100
AcDbLine
 10
390.2165148644505
 20
93.04680384945864
 11
391.8392848644505
 21
92.34124984945863
  0
LINE
  5
1BF
100
AcDbEntity
  8
superwide big buttons
  6
ByLayer
 62
  256
370
   -1
100
AcDbLine
 10
391.8392848644505
 20
92.34124984945863
 11
393.3562248644505
 21
91.42402984945865
  0
LINE
  5
1C0
100
AcDbEntity
  8
superwide big buttons
  6
ByLayer
 62
  256
370
   -1
100
AcDbLine
 10
393.3562248644505
 20
91.42402984945865
 11
394.6967748644505
 21
90.29513984945864
  0
LINE
  5
1C1
100
AcDbEntity
  8
superwide big buttons
  6
ByLayer
 62
  256
370
   -1
100
AcDbLine
 10
394.6967748644505
 20
90.29513984945864
 11
395.8962148644505
 21
88.98986984945863
  0
LINE
  5
1C2
100
AcDbEntity
  8
superwide big buttons
  6
ByLayer
 62
  256
370
   -1
100
AcDbLine
 10
395.8962148644505
 20
88.98986984945863
 11
396.8487128644505
 21
87.50820984945862
  0
LINE
  5
1C3
100
AcDbEntity
  8
superwide big buttons
  6
ByLayer
 62
  256
370
   -1
100
AcDbLine
 10
396.8487128644505
 20
87.50820984945862
 11
397.6248218644505
 21
85.92070984945865
  0
LINE
  5
1C4
100
AcDbEntity
  8
superwide big buttons
  6
ByLayer
 62
  256
370
   -1
100
AcDbLine
 10
397.6248218644505
 20
85.92070984945865
 11
398.1187098644505
 21
84.22737984945864
  0
LINE
  5
1C5
100
AcDbEntity
  8
superwide big buttons
  6
ByLayer
 62
  256
370
   -1
100
AcDbLine
 10
398.1187098644505
 20
84.22737984945864
 11
398.3656538644506
 21
82.46348984945864
  0
LINE
  5
1C6
100
AcDbEntity
  8
superwide big buttons
  6
ByLayer
 62
  256
370
   -1
100
AcDbLine
 10
398.3656538644506
 20
82.46348984945864
 11
398.3650538644505
 21
80.70000784945863
  0
LINE
  5
1C7
100
AcDbEntity
  8
superwide big buttons
  6
ByLayer
 62
  256
370
   -1
100
AcDbLine
 10
398.3650538644505
 20
80.70000784945863
 11
398.1181098644505
 21
78.97139784945863
  0
LINE
  5
1C8
100
AcDbEntity
  8
superwide big buttons
  6
ByLayer
 62
  256
370
   -1
100
AcDbLine
 10
398.1181098644505
 20
78.97139784945863
 11
397.6242218644504
 21
77.27806784945862
  0
LINE
  5
1C9
100
AcDbEntity
  8
superwide big buttons
  6
ByLayer
 62
  256
370
   -1
100
AcDbLine
 10
397.6242218644504
 20
77.27806784945862
 11
396.8481128644505
 21
75.65529784945862
  0
LINE
  5
1CA
100
AcDbEntity
  8
superwide big buttons
  6
ByLayer
 62
  256
370
   -1
100
AcDbLine
 10
396.8481128644505
 20
75.65529784945862
 11
395.8956148644505
 21
74.20890784945861
  0
LINE
  5
1CB
100
AcDbEntity
  8
superwide big buttons
  6
ByLayer
 62
  256
370
   -1
100
AcDbLine
 10
395.8956148644505
 20
74.20890784945861
 11
394.6961748644504
 21
72.86835784945863
  0
LINE
  5
1CC
100
AcDbEntity
  8
superwide big buttons
  6
ByLayer
 62
  256
370
   -1
100
AcDbLine
 10
394.6961748644504
 20
72.86835784945863
 11
393.3556248644504
 21
71.73946784945865
  0
LINE
  5
1CD
100
AcDbEntity
  8
superwide big buttons
  6
ByLayer
 62
  256
370
   -1
100
AcDbLine
 10
393.3556248644504
 20
71.73946784945865
 11
391.8386848644506
 21
70.82224784945863
  0
LINE
  5
1CE
100
AcDbEntity
  8
superwide big buttons
  6
ByLayer
 62
  256
370
   -1
100
AcDbLine
 10
391.8386848644506
 20
70.82224784945863
 11
390.2159148644505
 21
70.15197184945863
  0
LINE
  5
1CF
100
AcDbEntity
  8
superwide big buttons
  6
ByLayer
 62
  256
370
   -1
100
AcDbLine
 10
390.2159148644505
 20
70.15197184945863
 11
388.5225848644504
 21
69.69336184945864
  0
LINE
  5
1D0
100
AcDbEntity
  8
superwide big buttons
  6
ByLayer
 62
  256
370
   -1
100
AcDbLine
 10
388.5225848644504
 20
69.69336184945864
 11
386.7587048644505
 21
69.48169584945863
  0
LINE
  5
1D1
100
AcDbEntity
  8
superwide big buttons
  6
ByLayer
 62
  256
370
   -1
100
AcDbLine
 10
386.7587048644505
 20
69.48169584945863
 11
384.9948148644505
 21
69.55225084945862
  0
LINE
  5
1D2
100
AcDbEntity
  8
superwide big buttons
  6
ByLayer
 62
  256
370
   -1
100
AcDbLine
 10
384.9948148644505
 20
69.55225084945862
 11
383.2662048644505
 21
69.86974984945861
  0
LINE
  5
1D3
100
AcDbEntity
  8
superwide big buttons
  6
ByLayer
 62
  256
370
   -1
100
AcDbLine
 10
383.2662048644505
 20
69.86974984945861
 11
381.5728748644505
 21
70.43419284945863
  0
LINE
  5
1D4
100
AcDbEntity
  8
superwide big buttons
  6
ByLayer
 62
  256
370
   -1
100
AcDbLine
 10
381.5728748644505
 20
70.43419284945863
 11
380.0206548644504
 21
71.24557984945862
  0
LINE
  5
1D5
100
AcDbEntity
  8
superwide big buttons
  6
ByLayer
 62
  256
370
   -1
100
AcDbLine
 10
380.0206548644504
 20
71.24557984945862
 11
378.5742648644505
 21
72.30390984945863
  0
LINE
  5
1D6
100
AcDbEntity
  8
superwide big buttons
  6
ByLayer
 62
  256
370
   -1
100
AcDbLine
 10
378.5742648644505
 20
72.30390984945863
 11
377.3042648644505
 21
73.50334984945862
  0
LINE
  5
1D7
100
AcDbEntity
  8
superwide big buttons
  6
ByLayer
 62
  256
370
   -1
100
AcDbLine
 10
377.3042648644505
 20
73.50334984945862
 11
376.2106548644505
 21
74.91445984945862
  0
LINE
  5
1D8
100
AcDbEntity
  8
superwide big buttons
  6
ByLayer
 62
  256
370
   -1
100
AcDbLine
 10
376.2106548644505
 20
74.91445984945862
 11
375.3639898644503
 21
76.46667984945863
  0
LINE
  5
1D9
100
AcDbEntity
  8
superwide big buttons
  6
ByLayer
 62
  256
370
   -1
100
AcDbLine
 10
375.3639898644503
 20
76.46667984945863
 11
374.7289908644506
 21
78.08944984945863
  0
LINE
  5
1DA
100
AcDbEntity
  8
superwide big buttons
  6
ByLayer
 62
  256
370
   -1
100
AcDbLine
 10
374.7289908644506
 20
78.08944984945863
 11
374.3409358644503
 21
79.81805984945861
  0
LINE
  5
1DB
100
AcDbEntity
  8
superwide big buttons
  6
ByLayer
 62
  256
370
   -1
100
AcDbLine
 10
374.3409358644503
 20
79.81805984945861
 11
374.1998248644504
 21
81.58194984945861
  0
LINE
  5
1DC
100
AcDbEntity
  8
superwide big buttons
  6
ByLayer
 62
  256
370
   -1
100
AcDbLine
 10
317.7564638294016
 20
92.45333755448559
 11
317.8975748294015
 21
94.42888755448558
  0
LINE
  5
1DD
100
AcDbEntity
  8
superwide big buttons
  6
ByLayer
 62
  256
370
   -1
100
AcDbLine
 10
317.8975748294015
 20
94.42888755448558
 11
318.2856298294017
 21
96.36915755448558
  0
LINE
  5
1DE
100
AcDbEntity
  8
superwide big buttons
  6
ByLayer
 62
  256
370
   -1
100
AcDbLine
 10
318.2856298294017
 20
96.36915755448558
 11
318.9206288294015
 21
98.23887755448558
  0
LINE
  5
1DF
100
AcDbEntity
  8
superwide big buttons
  6
ByLayer
 62
  256
370
   -1
100
AcDbLine
 10
318.9206288294015
 20
98.23887755448558
 11
319.7672938294016
 21
100.0027675544856
  0
LINE
  5
1E0
100
AcDbEntity
  8
superwide big buttons
  6
ByLayer
 62
  256
370
   -1
100
AcDbLine
 10
319.7672938294016
 20
100.0027675544856
 11
320.8609038294016
 21
101.6255375544856
  0
LINE
  5
1E1
100
AcDbEntity
  8
superwide big buttons
  6
ByLayer
 62
  256
370
   -1
100
AcDbLine
 10
320.8609038294016
 20
101.6255375544856
 11
322.1661738294015
 21
103.1071975544856
  0
LINE
  5
1E2
100
AcDbEntity
  8
superwide big buttons
  6
ByLayer
 62
  256
370
   -1
100
AcDbLine
 10
322.1661738294015
 20
103.1071975544856
 11
323.6478338294016
 21
104.4124675544856
  0
LINE
  5
1E3
100
AcDbEntity
  8
superwide big buttons
  6
ByLayer
 62
  256
370
   -1
100
AcDbLine
 10
323.6478338294016
 20
104.4124675544856
 11
325.3058838294016
 21
105.5060775544856
  0
LINE
  5
1E4
100
AcDbEntity
  8
superwide big buttons
  6
ByLayer
 62
  256
370
   -1
100
AcDbLine
 10
325.3058838294016
 20
105.5060775544856
 11
327.0697638294017
 21
106.3880205544856
  0
LINE
  5
1E5
100
AcDbEntity
  8
superwide big buttons
  6
ByLayer
 62
  256
370
   -1
100
AcDbLine
 10
327.0697638294017
 20
106.3880205544856
 11
328.9394838294016
 21
107.0230195544856
  0
LINE
  5
1E6
100
AcDbEntity
  8
superwide big buttons
  6
ByLayer
 62
  256
370
   -1
100
AcDbLine
 10
328.9394838294016
 20
107.0230195544856
 11
330.8797538294016
 21
107.4110745544856
  0
LINE
  5
1E7
100
AcDbEntity
  8
superwide big buttons
  6
ByLayer
 62
  256
370
   -1
100
AcDbLine
 10
330.8797538294016
 20
107.4110745544856
 11
332.8553038294016
 21
107.5521855544856
  0
LINE
  5
1E8
100
AcDbEntity
  8
superwide big buttons
  6
ByLayer
 62
  256
370
   -1
100
AcDbLine
 10
332.8553038294016
 20
107.5521855544856
 11
334.8308538294016
 21
107.4110745544856
  0
LINE
  5
1E9
100
AcDbEntity
  8
superwide big buttons
  6
ByLayer
 62
  256
370
   -1
100
AcDbLine
 10
334.8308538294016
 20
107.4110745544856
 11
336.7711238294016
 21
107.0230195544856
  0
LINE
  5
1EA
100
AcDbEntity
  8
superwide big buttons
  6
ByLayer
 62
  256
370
   -1
100
AcDbLine
 10
336.7711238294016
 20
107.0230195544856
 11
338.6408438294016
 21
106.3880205544856
  0
LINE
  5
1EB
100
AcDbEntity
  8
superwide big buttons
  6
ByLayer
 62
  256
370
   -1
100
AcDbLine
 10
338.6408438294016
 20
106.3880205544856
 11
340.4047238294016
 21
105.5060775544856
  0
LINE
  5
1EC
100
AcDbEntity
  8
superwide big buttons
  6
ByLayer
 62
  256
370
   -1
100
AcDbLine
 10
340.4047238294016
 20
105.5060775544856
 11
342.0627738294016
 21
104.4124675544856
  0
LINE
  5
1ED
100
AcDbEntity
  8
superwide big buttons
  6
ByLayer
 62
  256
370
   -1
100
AcDbLine
 10
342.0627738294016
 20
104.4124675544856
 11
343.5444338294016
 21
103.1071975544856
  0
LINE
  5
1EE
100
AcDbEntity
  8
superwide big buttons
  6
ByLayer
 62
  256
370
   -1
100
AcDbLine
 10
343.5444338294016
 20
103.1071975544856
 11
344.8497038294016
 21
101.6255375544856
  0
LINE
  5
1EF
100
AcDbEntity
  8
superwide big buttons
  6
ByLayer
 62
  256
370
   -1
100
AcDbLine
 10
344.8497038294016
 20
101.6255375544856
 11
345.9433138294016
 21
100.0027675544856
  0
LINE
  5
1F0
100
AcDbEntity
  8
superwide big buttons
  6
ByLayer
 62
  256
370
   -1
100
AcDbLine
 10
345.9433138294016
 20
100.0027675544856
 11
346.7899788294016
 21
98.23887755448558
  0
LINE
  5
1F1
100
AcDbEntity
  8
superwide big buttons
  6
ByLayer
 62
  256
370
   -1
100
AcDbLine
 10
346.7899788294016
 20
98.23887755448558
 11
347.4249778294016
 21
96.36915755448558
  0
LINE
  5
1F2
100
AcDbEntity
  8
superwide big buttons
  6
ByLayer
 62
  256
370
   -1
100
AcDbLine
 10
347.4249778294016
 20
96.36915755448558
 11
347.8130328294015
 21
94.42888755448558
  0
LINE
  5
1F3
100
AcDbEntity
  8
superwide big buttons
  6
ByLayer
 62
  256
370
   -1
100
AcDbLine
 10
347.8130328294015
 20
94.42888755448558
 11
347.9541438294016
 21
92.45333755448559
  0
LINE
  5
1F4
100
AcDbEntity
  8
superwide big buttons
  6
ByLayer
 62
  256
370
   -1
100
AcDbLine
 10
347.9541438294016
 20
92.45333755448559
 11
347.8130328294015
 21
90.47778755448559
  0
LINE
  5
1F5
100
AcDbEntity
  8
superwide big buttons
  6
ByLayer
 62
  256
370
   -1
100
AcDbLine
 10
347.8130328294015
 20
90.47778755448559
 11
347.4249778294016
 21
88.53751755448559
  0
LINE
  5
1F6
100
AcDbEntity
  8
superwide big buttons
  6
ByLayer
 62
  256
370
   -1
100
AcDbLine
 10
347.4249778294016
 20
88.53751755448559
 11
346.7899788294016
 21
86.66779755448556
  0
LINE
  5
1F7
100
AcDbEntity
  8
superwide big buttons
  6
ByLayer
 62
  256
370
   -1
100
AcDbLine
 10
346.7899788294016
 20
86.66779755448556
 11
345.9433138294016
 21
84.90390755448558
  0
LINE
  5
1F8
100
AcDbEntity
  8
superwide big buttons
  6
ByLayer
 62
  256
370
   -1
100
AcDbLine
 10
345.9433138294016
 20
84.90390755448558
 11
344.8497038294016
 21
83.24585755448558
  0
LINE
  5
1F9
100
AcDbEntity
  8
superwide big buttons
  6
ByLayer
 62
  256
370
   -1
100
AcDbLine
 10
344.8497038294016
 20
83.24585755448558
 11
343.5444338294016
 21
81.76419755448558
  0
LINE
  5
1FA
100
AcDbEntity
  8
superwide big buttons
  6
ByLayer
 62
  256
370
   -1
100
AcDbLine
 10
343.5444338294016
 20
81.76419755448558
 11
342.0627738294016
 21
80.45892755448557
  0
LINE
  5
1FB
100
AcDbEntity
  8
superwide big buttons
  6
ByLayer
 62
  256
370
   -1
100
AcDbLine
 10
342.0627738294016
 20
80.45892755448557
 11
340.4047238294016
 21
79.36531755448559
  0
LINE
  5
1FC
100
AcDbEntity
  8
superwide big buttons
  6
ByLayer
 62
  256
370
   -1
100
AcDbLine
 10
340.4047238294016
 20
79.36531755448559
 11
338.6408438294016
 21
78.48337455448558
  0
LINE
  5
1FD
100
AcDbEntity
  8
superwide big buttons
  6
ByLayer
 62
  256
370
   -1
100
AcDbLine
 10
338.6408438294016
 20
78.48337455448558
 11
336.7711238294016
 21
77.84837555448559
  0
LINE
  5
1FE
100
AcDbEntity
  8
superwide big buttons
  6
ByLayer
 62
  256
370
   -1
100
AcDbLine
 10
336.7711238294016
 20
77.84837555448559
 11
334.8308538294016
 21
77.46032055448558
  0
LINE
  5
1FF
100
AcDbEntity
  8
superwide big buttons
  6
ByLayer
 62
  256
370
   -1
100
AcDbLine
 10
334.8308538294016
 20
77.46032055448558
 11
332.8553038294016
 21
77.35448755448559
  0
LINE
  5
200
100
AcDbEntity
  8
superwide big buttons
  6
ByLayer
 62
  256
370
   -1
100
AcDbLine
 10
332.8553038294016
 20
77.35448755448559
 11
330.8797538294016
 21
77.46032055448558
  0
LINE
  5
201
100
AcDbEntity
  8
superwide big buttons
  6
ByLayer
 62
  256
370
   -1
100
AcDbLine
 10
330.8797538294016
 20
77.46032055448558
 11
328.9394838294016
 21
77.84837555448559
  0
LINE
  5
202
100
AcDbEntity
  8
superwide big buttons
  6
ByLayer
 62
  256
370
   -1
100
AcDbLine
 10
328.9394838294016
 20
77.84837555448559
 11
327.0697638294017
 21
78.48337455448558
  0
LINE
  5
203
100
AcDbEntity
  8
superwide big buttons
  6
ByLayer
 62
  256
370
   -1
100
AcDbLine
 10
327.0697638294017
 20
78.48337455448558
 11
325.3058838294016
 21
79.36531755448559
  0
LINE
  5
204
100
AcDbEntity
  8
superwide big buttons
  6
ByLayer
 62
  256
370
   -1
100
AcDbLine
 10
325.3058838294016
 20
79.36531755448559
 11
323.6478338294016
 21
80.45892755448557
  0
LINE
  5
205
100
AcDbEntity
  8
superwide big buttons
  6
ByLayer
 62
  256
370
   -1
100
AcDbLine
 10
323.6478338294016
 20
80.45892755448557
 11
322.1661738294015
 21
81.76419755448558
  0
LINE
  5
206
100
AcDbEntity
  8
superwide big buttons
  6
ByLayer
 62
  256
370
   -1
100
AcDbLine
 10
322.1661738294015
 20
81.76419755448558
 11
320.8609038294016
 21
83.24585755448558
  0
LINE
  5
207
100
AcDbEntity
  8
superwide big buttons
  6
ByLayer
 62
  256
370
   -1
100
AcDbLine
 10
320.8609038294016
 20
83.24585755448558
 11
319.7672938294016
 21
84.90390755448558
  0
LINE
  5
208
100
AcDbEntity
  8
superwide big buttons
  6
ByLayer
 62
  256
370
   -1
100
AcDbLine
 10
319.7672938294016
 20
84.90390755448558
 11
318.9206288294015
 21
86.66779755448556
  0
LINE
  5
209
100
AcDbEntity
  8
superwide big buttons
  6
ByLayer
 62
  256
370
   -1
100
AcDbLine
 10
318.9206288294015
 20
86.66779755448556
 11
318.2856298294017
 21
88.53751755448559
  0
LINE
  5
20A
100
AcDbEntity
  8
superwide big buttons
  6
ByLayer
 62
  256
370
   -1
100
AcDbLine
 10
318.2856298294017
 20
88.53751755448559
 11
317.8975748294015
 21
90.47778755448559
  0
LINE
  5
20B
100
AcDbEntity
  8
superwide big buttons
  6
ByLayer
 62
  256
370
   -1
100
AcDbLine
 10
317.8975748294015
 20
90.47778755448559
 11
317.7564638294016
 21
92.45333755448559
  0
LINE
  5
20C
100
AcDbEntity
  8
superwide big buttons
  6
ByLayer
 62
  256
370
   -1
100
AcDbLine
 10
370.4721674374954
 20
42.62245568941657
 11
370.6132784374954
 21
44.59800568941657
  0
LINE
  5
20D
100
AcDbEntity
  8
superwide big buttons
  6
ByLayer
 62
  256
370
   -1
100
AcDbLine
 10
370.6132784374954
 20
44.59800568941657
 11
371.0013334374953
 21
46.53827568941657
  0
LINE
  5
20E
100
AcDbEntity
  8
superwide big buttons
  6
ByLayer
 62
  256
370
   -1
100
AcDbLine
 10
371.0013334374953
 20
46.53827568941657
 11
371.6363324374954
 21
48.40799568941657
  0
LINE
  5
20F
100
AcDbEntity
  8
superwide big buttons
  6
ByLayer
 62
  256
370
   -1
100
AcDbLine
 10
371.6363324374954
 20
48.40799568941657
 11
372.4829974374955
 21
50.17188568941657
  0
LINE
  5
210
100
AcDbEntity
  8
superwide big buttons
  6
ByLayer
 62
  256
370
   -1
100
AcDbLine
 10
372.4829974374955
 20
50.17188568941657
 11
373.5766074374955
 21
51.79465568941657
  0
LINE
  5
211
100
AcDbEntity
  8
superwide big buttons
  6
ByLayer
 62
  256
370
   -1
100
AcDbLine
 10
373.5766074374955
 20
51.79465568941657
 11
374.8818774374953
 21
53.27631568941658
  0
LINE
  5
212
100
AcDbEntity
  8
superwide big buttons
  6
ByLayer
 62
  256
370
   -1
100
AcDbLine
 10
374.8818774374953
 20
53.27631568941658
 11
376.3635374374953
 21
54.58158568941658
  0
LINE
  5
213
100
AcDbEntity
  8
superwide big buttons
  6
ByLayer
 62
  256
370
   -1
100
AcDbLine
 10
376.3635374374953
 20
54.58158568941658
 11
378.0215874374955
 21
55.67519568941657
  0
LINE
  5
214
100
AcDbEntity
  8
superwide big buttons
  6
ByLayer
 62
  256
370
   -1
100
AcDbLine
 10
378.0215874374955
 20
55.67519568941657
 11
379.7854674374952
 21
56.55713868941658
  0
LINE
  5
215
100
AcDbEntity
  8
superwide big buttons
  6
ByLayer
 62
  256
370
   -1
100
AcDbLine
 10
379.7854674374952
 20
56.55713868941658
 11
381.6551874374954
 21
57.19213768941657
  0
LINE
  5
216
100
AcDbEntity
  8
superwide big buttons
  6
ByLayer
 62
  256
370
   -1
100
AcDbLine
 10
381.6551874374954
 20
57.19213768941657
 11
383.5954574374955
 21
57.58019268941658
  0
LINE
  5
217
100
AcDbEntity
  8
superwide big buttons
  6
ByLayer
 62
  256
370
   -1
100
AcDbLine
 10
383.5954574374955
 20
57.58019268941658
 11
385.5710074374955
 21
57.72130368941659
  0
LINE
  5
218
100
AcDbEntity
  8
superwide big buttons
  6
ByLayer
 62
  256
370
   -1
100
AcDbLine
 10
385.5710074374955
 20
57.72130368941659
 11
387.5465574374953
 21
57.58019268941658
  0
LINE
  5
219
100
AcDbEntity
  8
superwide big buttons
  6
ByLayer
 62
  256
370
   -1
100
AcDbLine
 10
387.5465574374953
 20
57.58019268941658
 11
389.4868274374953
 21
57.19213768941657
  0
LINE
  5
21A
100
AcDbEntity
  8
superwide big buttons
  6
ByLayer
 62
  256
370
   -1
100
AcDbLine
 10
389.4868274374953
 20
57.19213768941657
 11
391.3565474374954
 21
56.55713868941658
  0
LINE
  5
21B
100
AcDbEntity
  8
superwide big buttons
  6
ByLayer
 62
  256
370
   -1
100
AcDbLine
 10
391.3565474374954
 20
56.55713868941658
 11
393.1204274374953
 21
55.67519568941657
  0
LINE
  5
21C
100
AcDbEntity
  8
superwide big buttons
  6
ByLayer
 62
  256
370
   -1
100
AcDbLine
 10
393.1204274374953
 20
55.67519568941657
 11
394.7784774374955
 21
54.58158568941658
  0
LINE
  5
21D
100
AcDbEntity
  8
superwide big buttons
  6
ByLayer
 62
  256
370
   -1
100
AcDbLine
 10
394.7784774374955
 20
54.58158568941658
 11
396.2601374374954
 21
53.27631568941658
  0
LINE
  5
21E
100
AcDbEntity
  8
superwide big buttons
  6
ByLayer
 62
  256
370
   -1
100
AcDbLine
 10
396.2601374374954
 20
53.27631568941658
 11
397.5654074374954
 21
51.79465568941657
  0
LINE
  5
21F
100
AcDbEntity
  8
superwide big buttons
  6
ByLayer
 62
  256
370
   -1
100
AcDbLine
 10
397.5654074374954
 20
51.79465568941657
 11
398.6590174374953
 21
50.17188568941657
  0
LINE
  5
220
100
AcDbEntity
  8
superwide big buttons
  6
ByLayer
 62
  256
370
   -1
100
AcDbLine
 10
398.6590174374953
 20
50.17188568941657
 11
399.5056824374954
 21
48.40799568941657
  0
LINE
  5
221
100
AcDbEntity
  8
superwide big buttons
  6
ByLayer
 62
  256
370
   -1
100
AcDbLine
 10
399.5056824374954
 20
48.40799568941657
 11
400.1406814374954
 21
46.53827568941657
  0
LINE
  5
222
100
AcDbEntity
  8
superwide big buttons
  6
ByLayer
 62
  256
370
   -1
100
AcDbLine
 10
400.1406814374954
 20
46.53827568941657
 11
400.5287364374954
 21
44.59800568941657
  0
LINE
  5
223
100
AcDbEntity
  8
superwide big buttons
  6
ByLayer
 62
  256
370
   -1
100
AcDbLine
 10
400.5287364374954
 20
44.59800568941657
 11
400.6698474374953
 21
42.62245568941657
  0
LINE
  5
224
100
AcDbEntity
  8
superwide big buttons
  6
ByLayer
 62
  256
370
   -1
100
AcDbLine
 10
400.6698474374953
 20
42.62245568941657
 11
400.5287364374954
 21
40.64690568941657
  0
LINE
  5
225
100
AcDbEntity
  8
superwide big buttons
  6
ByLayer
 62
  256
370
   -1
100
AcDbLine
 10
400.5287364374954
 20
40.64690568941657
 11
400.1406814374954
 21
38.70663568941657
  0
LINE
  5
226
100
AcDbEntity
  8
superwide big buttons
  6
ByLayer
 62
  256
370
   -1
100
AcDbLine
 10
400.1406814374954
 20
38.70663568941657
 11
399.5056824374954
 21
36.83691568941655
  0
LINE
  5
227
100
AcDbEntity
  8
superwide big buttons
  6
ByLayer
 62
  256
370
   -1
100
AcDbLine
 10
399.5056824374954
 20
36.83691568941655
 11
398.6590174374953
 21
35.07302568941657
  0
LINE
  5
228
100
AcDbEntity
  8
superwide big buttons
  6
ByLayer
 62
  256
370
   -1
100
AcDbLine
 10
398.6590174374953
 20
35.07302568941657
 11
397.5654074374954
 21
33.41497568941657
  0
LINE
  5
229
100
AcDbEntity
  8
superwide big buttons
  6
ByLayer
 62
  256
370
   -1
100
AcDbLine
 10
397.5654074374954
 20
33.41497568941657
 11
396.2601374374954
 21
31.93331568941656
  0
LINE
  5
22A
100
AcDbEntity
  8
superwide big buttons
  6
ByLayer
 62
  256
370
   -1
100
AcDbLine
 10
396.2601374374954
 20
31.93331568941656
 11
394.7784774374955
 21
30.62804568941656
  0
LINE
  5
22B
100
AcDbEntity
  8
superwide big buttons
  6
ByLayer
 62
  256
370
   -1
100
AcDbLine
 10
394.7784774374955
 20
30.62804568941656
 11
393.1204274374953
 21
29.53443568941657
  0
LINE
  5
22C
100
AcDbEntity
  8
superwide big buttons
  6
ByLayer
 62
  256
370
   -1
100
AcDbLine
 10
393.1204274374953
 20
29.53443568941657
 11
391.3565474374954
 21
28.65249268941656
  0
LINE
  5
22D
100
AcDbEntity
  8
superwide big buttons
  6
ByLayer
 62
  256
370
   -1
100
AcDbLine
 10
391.3565474374954
 20
28.65249268941656
 11
389.4868274374953
 21
28.01749368941657
  0
LINE
  5
22E
100
AcDbEntity
  8
superwide big buttons
  6
ByLayer
 62
  256
370
   -1
100
AcDbLine
 10
389.4868274374953
 20
28.01749368941657
 11
387.5465574374953
 21
27.62943868941656
  0
LINE
  5
22F
100
AcDbEntity
  8
superwide big buttons
  6
ByLayer
 62
  256
370
   -1
100
AcDbLine
 10
387.5465574374953
 20
27.62943868941656
 11
385.5710074374955
 21
27.52360568941657
  0
LINE
  5
230
100
AcDbEntity
  8
superwide big buttons
  6
ByLayer
 62
  256
370
   -1
100
AcDbLine
 10
385.5710074374955
 20
27.52360568941657
 11
383.5954574374955
 21
27.62943868941656
  0
LINE
  5
231
100
AcDbEntity
  8
superwide big buttons
  6
ByLayer
 62
  256
370
   -1
100
AcDbLine
 10
383.5954574374955
 20
27.62943868941656
 11
381.6551874374954
 21
28.01749368941657
  0
LINE
  5
232
100
AcDbEntity
  8
superwide big buttons
  6
ByLayer
 62
  256
370
   -1
100
AcDbLine
 10
381.6551874374954
 20
28.01749368941657
 11
379.7854674374952
 21
28.65249268941656
  0
LINE
  5
233
100
AcDbEntity
  8
superwide big buttons
  6
ByLayer
 62
  256
370
   -1
100
AcDbLine
 10
379.7854674374952
 20
28.65249268941656
 11
378.0215874374955
 21
29.53443568941657
  0
LINE
  5
234
100
AcDbEntity
  8
superwide big buttons
  6
ByLayer
 62
  256
370
   -1
100
AcDbLine
 10
378.0215874374955
 20
29.53443568941657
 11
376.3635374374953
 21
30.62804568941656
  0
LINE
  5
235
100
AcDbEntity
  8
superwide big buttons
  6
ByLayer
 62
  256
370
   -1
100
AcDbLine
 10
376.3635374374953
 20
30.62804568941656
 11
374.8818774374953
 21
31.93331568941656
  0
LINE
  5
236
100
AcDbEntity
  8
superwide big buttons
  6
ByLayer
 62
  256
370
   -1
100
AcDbLine
 10
374.8818774374953
 20
31.93331568941656
 11
373.5766074374955
 21
33.41497568941657
  0
LINE
  5
237
100
AcDbEntity
  8
superwide big buttons
  6
ByLayer
 62
  256
370
   -1
100
AcDbLine
 10
373.5766074374955
 20
33.41497568941657
 11
372.4829974374955
 21
35.07302568941657
  0
LINE
  5
238
100
AcDbEntity
  8
superwide big buttons
  6
ByLayer
 62
  256
370
   -1
100
AcDbLine
 10
372.4829974374955
 20
35.07302568941657
 11
371.6363324374954
 21
36.83691568941655
  0
LINE
  5
239
100
AcDbEntity
  8
superwide big buttons
  6
ByLayer
 62
  256
370
   -1
100
AcDbLine
 10
371.6363324374954
 20
36.83691568941655
 11
371.0013334374953
 21
38.70663568941657
  0
LINE
  5
23A
100
AcDbEntity
  8
superwide big buttons
  6
ByLayer
 62
  256
370
   -1
100
AcDbLine
 10
371.0013334374953
 20
38.70663568941657
 11
370.6132784374954
 21
40.64690568941657
  0
LINE
  5
23B
100
AcDbEntity
  8
superwide big buttons
  6
ByLayer
 62
  256
370
   -1
100
AcDbLine
 10
370.6132784374954
 20
40.64690568941657
 11
370.4721674374954
 21
42.62245568941657
  0
LINE
  5
23C
100
AcDbEntity
  8
superwide big buttons
  6
ByLayer
 62
  256
370
   -1
100
AcDbLine
 10
105.215496554843
 20
37.09675984945862
 11
105.3566075548429
 21
39.07230984945862
  0
LINE
  5
23D
100
AcDbEntity
  8
superwide big buttons
  6
ByLayer
 62
  256
370
   -1
100
AcDbLine
 10
105.3566075548429
 20
39.07230984945862
 11
105.744662554843
 21
41.01257984945862
  0
LINE
  5
23E
100
AcDbEntity
  8
superwide big buttons
  6
ByLayer
 62
  256
370
   -1
100
AcDbLine
 10
105.744662554843
 20
41.01257984945862
 11
106.3796615548429
 21
42.88229984945862
  0
LINE
  5
23F
100
AcDbEntity
  8
superwide big buttons
  6
ByLayer
 62
  256
370
   -1
100
AcDbLine
 10
106.3796615548429
 20
42.88229984945862
 11
107.226326554843
 21
44.64618984945862
  0
LINE
  5
240
100
AcDbEntity
  8
superwide big buttons
  6
ByLayer
 62
  256
370
   -1
100
AcDbLine
 10
107.226326554843
 20
44.64618984945862
 11
108.319936554843
 21
46.26895984945862
  0
LINE
  5
241
100
AcDbEntity
  8
superwide big buttons
  6
ByLayer
 62
  256
370
   -1
100
AcDbLine
 10
108.319936554843
 20
46.26895984945862
 11
109.6252065548429
 21
47.75061984945863
  0
LINE
  5
242
100
AcDbEntity
  8
superwide big buttons
  6
ByLayer
 62
  256
370
   -1
100
AcDbLine
 10
109.6252065548429
 20
47.75061984945863
 11
111.106866554843
 21
49.05588984945864
  0
LINE
  5
243
100
AcDbEntity
  8
superwide big buttons
  6
ByLayer
 62
  256
370
   -1
100
AcDbLine
 10
111.106866554843
 20
49.05588984945864
 11
112.764916554843
 21
50.14949984945862
  0
LINE
  5
244
100
AcDbEntity
  8
superwide big buttons
  6
ByLayer
 62
  256
370
   -1
100
AcDbLine
 10
112.764916554843
 20
50.14949984945862
 11
114.5287965548431
 21
51.03144284945863
  0
LINE
  5
245
100
AcDbEntity
  8
superwide big buttons
  6
ByLayer
 62
  256
370
   -1
100
AcDbLine
 10
114.5287965548431
 20
51.03144284945863
 11
116.398516554843
 21
51.66644184945862
  0
LINE
  5
246
100
AcDbEntity
  8
superwide big buttons
  6
ByLayer
 62
  256
370
   -1
100
AcDbLine
 10
116.398516554843
 20
51.66644184945862
 11
118.338786554843
 21
52.05449684945863
  0
LINE
  5
247
100
AcDbEntity
  8
superwide big buttons
  6
ByLayer
 62
  256
370
   -1
100
AcDbLine
 10
118.338786554843
 20
52.05449684945863
 11
120.314336554843
 21
52.19560784945863
  0
LINE
  5
248
100
AcDbEntity
  8
superwide big buttons
  6
ByLayer
 62
  256
370
   -1
100
AcDbLine
 10
120.314336554843
 20
52.19560784945863
 11
122.289886554843
 21
52.05449684945863
  0
LINE
  5
249
100
AcDbEntity
  8
superwide big buttons
  6
ByLayer
 62
  256
370
   -1
100
AcDbLine
 10
122.289886554843
 20
52.05449684945863
 11
124.2301565548429
 21
51.66644184945862
  0
LINE
  5
24A
100
AcDbEntity
  8
superwide big buttons
  6
ByLayer
 62
  256
370
   -1
100
AcDbLine
 10
124.2301565548429
 20
51.66644184945862
 11
126.099876554843
 21
51.03144284945863
  0
LINE
  5
24B
100
AcDbEntity
  8
superwide big buttons
  6
ByLayer
 62
  256
370
   -1
100
AcDbLine
 10
126.099876554843
 20
51.03144284945863
 11
127.863756554843
 21
50.14949984945862
  0
LINE
  5
24C
100
AcDbEntity
  8
superwide big buttons
  6
ByLayer
 62
  256
370
   -1
100
AcDbLine
 10
127.863756554843
 20
50.14949984945862
 11
129.521806554843
 21
49.05588984945864
  0
LINE
  5
24D
100
AcDbEntity
  8
superwide big buttons
  6
ByLayer
 62
  256
370
   -1
100
AcDbLine
 10
129.521806554843
 20
49.05588984945864
 11
131.003466554843
 21
47.75061984945863
  0
LINE
  5
24E
100
AcDbEntity
  8
superwide big buttons
  6
ByLayer
 62
  256
370
   -1
100
AcDbLine
 10
131.003466554843
 20
47.75061984945863
 11
132.308736554843
 21
46.26895984945862
  0
LINE
  5
24F
100
AcDbEntity
  8
superwide big buttons
  6
ByLayer
 62
  256
370
   -1
100
AcDbLine
 10
132.308736554843
 20
46.26895984945862
 11
133.4023465548429
 21
44.64618984945862
  0
LINE
  5
250
100
AcDbEntity
  8
superwide big buttons
  6
ByLayer
 62
  256
370
   -1
100
AcDbLine
 10
133.4023465548429
 20
44.64618984945862
 11
134.249011554843
 21
42.88229984945862
  0
LINE
  5
251
100
AcDbEntity
  8
superwide big buttons
  6
ByLayer
 62
  256
370
   -1
100
AcDbLine
 10
134.249011554843
 20
42.88229984945862
 11
134.8840105548429
 21
41.01257984945862
  0
LINE
  5
252
100
AcDbEntity
  8
superwide big buttons
  6
ByLayer
 62
  256
370
   -1
100
AcDbLine
 10
134.8840105548429
 20
41.01257984945862
 11
135.272065554843
 21
39.07230984945862
  0
LINE
  5
253
100
AcDbEntity
  8
superwide big buttons
  6
ByLayer
 62
  256
370
   -1
100
AcDbLine
 10
135.272065554843
 20
39.07230984945862
 11
135.4131765548429
 21
37.09675984945862
  0
LINE
  5
254
100
AcDbEntity
  8
superwide big buttons
  6
ByLayer
 62
  256
370
   -1
100
AcDbLine
 10
135.4131765548429
 20
37.09675984945862
 11
135.272065554843
 21
35.12120984945862
  0
LINE
  5
255
100
AcDbEntity
  8
superwide big buttons
  6
ByLayer
 62
  256
370
   -1
100
AcDbLine
 10
135.272065554843
 20
35.12120984945862
 11
134.8840105548429
 21
33.18093984945862
  0
LINE
  5
256
100
AcDbEntity
  8
superwide big buttons
  6
ByLayer
 62
  256
370
   -1
100
AcDbLine
 10
134.8840105548429
 20
33.18093984945862
 11
134.249011554843
 21
31.3112198494586
  0
LINE
  5
257
100
AcDbEntity
  8
superwide big buttons
  6
ByLayer
 62
  256
370
   -1
100
AcDbLine
 10
134.249011554843
 20
31.3112198494586
 11
133.4023465548429
 21
29.54732984945862
  0
LINE
  5
258
100
AcDbEntity
  8
superwide big buttons
  6
ByLayer
 62
  256
370
   -1
100
AcDbLine
 10
133.4023465548429
 20
29.54732984945862
 11
132.308736554843
 21
27.88927984945862
  0
LINE
  5
259
100
AcDbEntity
  8
superwide big buttons
  6
ByLayer
 62
  256
370
   -1
100
AcDbLine
 10
132.308736554843
 20
27.88927984945862
 11
131.003466554843
 21
26.40761984945861
  0
LINE
  5
25A
100
AcDbEntity
  8
superwide big buttons
  6
ByLayer
 62
  256
370
   -1
100
AcDbLine
 10
131.003466554843
 20
26.40761984945861
 11
129.521806554843
 21
25.10234984945861
  0
LINE
  5
25B
100
AcDbEntity
  8
superwide big buttons
  6
ByLayer
 62
  256
370
   -1
100
AcDbLine
 10
129.521806554843
 20
25.10234984945861
 11
127.863756554843
 21
24.00873984945862
  0
LINE
  5
25C
100
AcDbEntity
  8
superwide big buttons
  6
ByLayer
 62
  256
370
   -1
100
AcDbLine
 10
127.863756554843
 20
24.00873984945862
 11
126.099876554843
 21
23.12679684945861
  0
LINE
  5
25D
100
AcDbEntity
  8
superwide big buttons
  6
ByLayer
 62
  256
370
   -1
100
AcDbLine
 10
126.099876554843
 20
23.12679684945861
 11
124.2301565548429
 21
22.49179784945862
  0
LINE
  5
25E
100
AcDbEntity
  8
superwide big buttons
  6
ByLayer
 62
  256
370
   -1
100
AcDbLine
 10
124.2301565548429
 20
22.49179784945862
 11
122.289886554843
 21
22.10374284945861
  0
LINE
  5
25F
100
AcDbEntity
  8
superwide big buttons
  6
ByLayer
 62
  256
370
   -1
100
AcDbLine
 10
122.289886554843
 20
22.10374284945861
 11
120.314336554843
 21
21.99790984945862
  0
LINE
  5
260
100
AcDbEntity
  8
superwide big buttons
  6
ByLayer
 62
  256
370
   -1
100
AcDbLine
 10
120.314336554843
 20
21.99790984945862
 11
118.338786554843
 21
22.10374284945861
  0
LINE
  5
261
100
AcDbEntity
  8
superwide big buttons
  6
ByLayer
 62
  256
370
   -1
100
AcDbLine
 10
118.338786554843
 20
22.10374284945861
 11
116.398516554843
 21
22.49179784945862
  0
LINE
  5
262
100
AcDbEntity
  8
superwide big buttons
  6
ByLayer
 62
  256
370
   -1
100
AcDbLine
 10
116.398516554843
 20
22.49179784945862
 11
114.5287965548431
 21
23.12679684945861
  0
LINE
  5
263
100
AcDbEntity
  8
superwide big buttons
  6
ByLayer
 62
  256
370
   -1
100
AcDbLine
 10
114.5287965548431
 20
23.12679684945861
 11
112.764916554843
 21
24.00873984945862
  0
LINE
  5
264
100
AcDbEntity
  8
superwide big buttons
  6
ByLayer
 62
  256
370
   -1
100
AcDbLine
 10
112.764916554843
 20
24.00873984945862
 11
111.106866554843
 21
25.10234984945861
  0
LINE
  5
265
100
AcDbEntity
  8
superwide big buttons
  6
ByLayer
 62
  256
370
   -1
100
AcDbLine
 10
111.106866554843
 20
25.10234984945861
 11
109.6252065548429
 21
26.40761984945861
  0
LINE
  5
266
100
AcDbEntity
  8
superwide big buttons
  6
ByLayer
 62
  256
370
   -1
100
AcDbLine
 10
109.6252065548429
 20
26.40761984945861
 11
108.319936554843
 21
27.88927984945862
  0
LINE
  5
267
100
AcDbEntity
  8
superwide big buttons
  6
ByLayer
 62
  256
370
   -1
100
AcDbLine
 10
108.319936554843
 20
27.88927984945862
 11
107.226326554843
 21
29.54732984945862
  0
LINE
  5
268
100
AcDbEntity
  8
superwide big buttons
  6
ByLayer
 62
  256
370
   -1
100
AcDbLine
 10
107.226326554843
 20
29.54732984945862
 11
106.3796615548429
 21
31.3112198494586
  0
LINE
  5
269
100
AcDbEntity
  8
superwide big buttons
  6
ByLayer
 62
  256
370
   -1
100
AcDbLine
 10
106.3796615548429
 20
31.3112198494586
 11
105.744662554843
 21
33.18093984945862
  0
LINE
  5
26A
100
AcDbEntity
  8
superwide big buttons
  6
ByLayer
 62
  256
370
   -1
100
AcDbLine
 10
105.744662554843
 20
33.18093984945862
 11
105.3566075548429
 21
35.12120984945862
  0
LINE
  5
26B
100
AcDbEntity
  8
superwide big buttons
  6
ByLayer
 62
  256
370
   -1
100
AcDbLine
 10
105.3566075548429
 20
35.12120984945862
 11
105.215496554843
 21
37.09675984945862
  0
LINE
  5
26C
100
AcDbEntity
  8
superwide big buttons
  6
ByLayer
 62
  256
370
   -1
100
AcDbLine
 10
62.54400955484299
 20
111.4223048494586
 11
62.649842554843
 21
113.1861848494586
  0
LINE
  5
26D
100
AcDbEntity
  8
superwide big buttons
  6
ByLayer
 62
  256
370
   -1
100
AcDbLine
 10
62.649842554843
 20
113.1861848494586
 11
63.03789755484298
 21
114.9147948494586
  0
LINE
  5
26E
100
AcDbEntity
  8
superwide big buttons
  6
ByLayer
 62
  256
370
   -1
100
AcDbLine
 10
63.03789755484298
 20
114.9147948494586
 11
63.67289655484301
 21
116.5728448494586
  0
LINE
  5
26F
100
AcDbEntity
  8
superwide big buttons
  6
ByLayer
 62
  256
370
   -1
100
AcDbLine
 10
63.67289655484301
 20
116.5728448494586
 11
64.55483955484299
 21
118.0897848494586
  0
LINE
  5
270
100
AcDbEntity
  8
superwide big buttons
  6
ByLayer
 62
  256
370
   -1
100
AcDbLine
 10
64.55483955484299
 20
118.0897848494586
 11
65.613169554843
 21
119.5008948494586
  0
LINE
  5
271
100
AcDbEntity
  8
superwide big buttons
  6
ByLayer
 62
  256
370
   -1
100
AcDbLine
 10
65.613169554843
 20
119.5008948494586
 11
66.88316955484296
 21
120.7356148494586
  0
LINE
  5
272
100
AcDbEntity
  8
superwide big buttons
  6
ByLayer
 62
  256
370
   -1
100
AcDbLine
 10
66.88316955484296
 20
120.7356148494586
 11
68.32955955484296
 21
121.7586648494586
  0
LINE
  5
273
100
AcDbEntity
  8
superwide big buttons
  6
ByLayer
 62
  256
370
   -1
100
AcDbLine
 10
68.32955955484296
 20
121.7586648494586
 11
69.91705955484295
 21
122.5700518494586
  0
LINE
  5
274
100
AcDbEntity
  8
superwide big buttons
  6
ByLayer
 62
  256
370
   -1
100
AcDbLine
 10
69.91705955484295
 20
122.5700518494586
 11
71.57510955484295
 21
123.1344948494586
  0
LINE
  5
275
100
AcDbEntity
  8
superwide big buttons
  6
ByLayer
 62
  256
370
   -1
100
AcDbLine
 10
71.57510955484295
 20
123.1344948494586
 11
73.30371955484296
 21
123.4519938494586
  0
LINE
  5
276
100
AcDbEntity
  8
superwide big buttons
  6
ByLayer
 62
  256
370
   -1
100
AcDbLine
 10
73.30371955484296
 20
123.4519938494586
 11
75.06760955484286
 21
123.5225498494586
  0
LINE
  5
277
100
AcDbEntity
  8
superwide big buttons
  6
ByLayer
 62
  256
370
   -1
100
AcDbLine
 10
75.06760955484286
 20
123.5225498494586
 11
76.83148955484296
 21
123.3108838494586
  0
LINE
  5
278
100
AcDbEntity
  8
superwide big buttons
  6
ByLayer
 62
  256
370
   -1
100
AcDbLine
 10
76.83148955484296
 20
123.3108838494586
 11
78.52481955484296
 21
122.8875518494586
  0
LINE
  5
279
100
AcDbEntity
  8
superwide big buttons
  6
ByLayer
 62
  256
370
   -1
100
AcDbLine
 10
78.52481955484296
 20
122.8875518494586
 11
80.18286955484295
 21
122.1819978494586
  0
LINE
  5
27A
100
AcDbEntity
  8
superwide big buttons
  6
ByLayer
 62
  256
370
   -1
100
AcDbLine
 10
80.18286955484295
 20
122.1819978494586
 11
81.66452955484296
 21
121.2647778494586
  0
LINE
  5
27B
100
AcDbEntity
  8
superwide big buttons
  6
ByLayer
 62
  256
370
   -1
100
AcDbLine
 10
81.66452955484296
 20
121.2647778494586
 11
83.04035955484295
 21
120.1358878494586
  0
LINE
  5
27C
100
AcDbEntity
  8
superwide big buttons
  6
ByLayer
 62
  256
370
   -1
100
AcDbLine
 10
83.04035955484295
 20
120.1358878494586
 11
84.20451955484296
 21
118.8306178494586
  0
LINE
  5
27D
100
AcDbEntity
  8
superwide big buttons
  6
ByLayer
 62
  256
370
   -1
100
AcDbLine
 10
84.20451955484296
 20
118.8306178494586
 11
85.19229555484306
 21
117.3489578494586
  0
LINE
  5
27E
100
AcDbEntity
  8
superwide big buttons
  6
ByLayer
 62
  256
370
   -1
100
AcDbLine
 10
85.19229555484306
 20
117.3489578494586
 11
85.93312755484295
 21
115.7614578494586
  0
LINE
  5
27F
100
AcDbEntity
  8
superwide big buttons
  6
ByLayer
 62
  256
370
   -1
100
AcDbLine
 10
85.93312755484295
 20
115.7614578494586
 11
86.46229355484296
 21
114.0681278494586
  0
LINE
  5
280
100
AcDbEntity
  8
superwide big buttons
  6
ByLayer
 62
  256
370
   -1
100
AcDbLine
 10
86.46229355484296
 20
114.0681278494586
 11
86.70923755484296
 21
112.3042478494586
  0
LINE
  5
281
100
AcDbEntity
  8
superwide big buttons
  6
ByLayer
 62
  256
370
   -1
100
AcDbLine
 10
86.70923755484296
 20
112.3042478494586
 11
86.70929755484296
 21
110.5403498494586
  0
LINE
  5
282
100
AcDbEntity
  8
superwide big buttons
  6
ByLayer
 62
  256
370
   -1
100
AcDbLine
 10
86.70929755484296
 20
110.5403498494586
 11
86.46235355484296
 21
108.8117398494586
  0
LINE
  5
283
100
AcDbEntity
  8
superwide big buttons
  6
ByLayer
 62
  256
370
   -1
100
AcDbLine
 10
86.46235355484296
 20
108.8117398494586
 11
85.93318755484296
 21
107.1184098494586
  0
LINE
  5
284
100
AcDbEntity
  8
superwide big buttons
  6
ByLayer
 62
  256
370
   -1
100
AcDbLine
 10
85.93318755484296
 20
107.1184098494586
 11
85.19235555484296
 21
105.4956398494586
  0
LINE
  5
285
100
AcDbEntity
  8
superwide big buttons
  6
ByLayer
 62
  256
370
   -1
100
AcDbLine
 10
85.19235555484296
 20
105.4956398494586
 11
84.20457955484295
 21
104.0139798494586
  0
LINE
  5
286
100
AcDbEntity
  8
superwide big buttons
  6
ByLayer
 62
  256
370
   -1
100
AcDbLine
 10
84.20457955484295
 20
104.0139798494586
 11
83.04041955484296
 21
102.7087098494586
  0
LINE
  5
287
100
AcDbEntity
  8
superwide big buttons
  6
ByLayer
 62
  256
370
   -1
100
AcDbLine
 10
83.04041955484296
 20
102.7087098494586
 11
81.66458955484296
 21
101.5798198494586
  0
LINE
  5
288
100
AcDbEntity
  8
superwide big buttons
  6
ByLayer
 62
  256
370
   -1
100
AcDbLine
 10
81.66458955484296
 20
101.5798198494586
 11
80.18292955484306
 21
100.6625998494586
  0
LINE
  5
289
100
AcDbEntity
  8
superwide big buttons
  6
ByLayer
 62
  256
370
   -1
100
AcDbLine
 10
80.18292955484306
 20
100.6625998494586
 11
78.52487955484305
 21
99.95704584945862
  0
LINE
  5
28A
100
AcDbEntity
  8
superwide big buttons
  6
ByLayer
 62
  256
370
   -1
100
AcDbLine
 10
78.52487955484305
 20
99.95704584945862
 11
76.83154955484295
 21
99.53371384945864
  0
LINE
  5
28B
100
AcDbEntity
  8
superwide big buttons
  6
ByLayer
 62
  256
370
   -1
100
AcDbLine
 10
76.83154955484295
 20
99.53371384945864
 11
75.06766955484295
 21
99.32204784945863
  0
LINE
  5
28C
100
AcDbEntity
  8
superwide big buttons
  6
ByLayer
 62
  256
370
   -1
100
AcDbLine
 10
75.06766955484295
 20
99.32204784945863
 11
73.30377955484296
 21
99.39260284945861
  0
LINE
  5
28D
100
AcDbEntity
  8
superwide big buttons
  6
ByLayer
 62
  256
370
   -1
100
AcDbLine
 10
73.30377955484296
 20
99.39260284945861
 11
71.57516955484296
 21
99.71010184945861
  0
LINE
  5
28E
100
AcDbEntity
  8
superwide big buttons
  6
ByLayer
 62
  256
370
   -1
100
AcDbLine
 10
71.57516955484296
 20
99.71010184945861
 11
69.91711955484296
 21
100.2745448494586
  0
LINE
  5
28F
100
AcDbEntity
  8
superwide big buttons
  6
ByLayer
 62
  256
370
   -1
100
AcDbLine
 10
69.91711955484296
 20
100.2745448494586
 11
68.32961955484295
 21
101.0859318494586
  0
LINE
  5
290
100
AcDbEntity
  8
superwide big buttons
  6
ByLayer
 62
  256
370
   -1
100
AcDbLine
 10
68.32961955484295
 20
101.0859318494586
 11
66.88322955484297
 21
102.1089818494586
  0
LINE
  5
291
100
AcDbEntity
  8
superwide big buttons
  6
ByLayer
 62
  256
370
   -1
100
AcDbLine
 10
66.88322955484297
 20
102.1089818494586
 11
65.61322955484299
 21
103.3437018494586
  0
LINE
  5
292
100
AcDbEntity
  8
superwide big buttons
  6
ByLayer
 62
  256
370
   -1
100
AcDbLine
 10
65.61322955484299
 20
103.3437018494586
 11
64.554899554843
 21
104.7548118494586
  0
LINE
  5
293
100
AcDbEntity
  8
superwide big buttons
  6
ByLayer
 62
  256
370
   -1
100
AcDbLine
 10
64.554899554843
 20
104.7548118494586
 11
63.672956554843
 21
106.3070318494586
  0
LINE
  5
294
100
AcDbEntity
  8
superwide big buttons
  6
ByLayer
 62
  256
370
   -1
100
AcDbLine
 10
63.672956554843
 20
106.3070318494586
 11
63.037957554843
 21
107.9298018494586
  0
LINE
  5
295
100
AcDbEntity
  8
superwide big buttons
  6
ByLayer
 62
  256
370
   -1
100
AcDbLine
 10
63.037957554843
 20
107.9298018494586
 11
62.649902554843
 21
109.6584118494586
  0
LINE
  5
296
100
AcDbEntity
  8
superwide big buttons
  6
ByLayer
 62
  256
370
   -1
100
AcDbLine
 10
62.649902554843
 20
109.6584118494586
 11
62.54406955484301
 21
111.4222918494586
  0
LINE
  5
297
100
AcDbEntity
  8
superwide big buttons
  6
ByLayer
 62
  256
370
   -1
100
AcDbLine
 10
33.54576955484309
 20
111.4222918494586
 11
33.651602554843
 21
113.1861818494586
  0
LINE
  5
298
100
AcDbEntity
  8
superwide big buttons
  6
ByLayer
 62
  256
370
   -1
100
AcDbLine
 10
33.651602554843
 20
113.1861818494586
 11
34.039657554843
 21
114.9147918494586
  0
LINE
  5
299
100
AcDbEntity
  8
superwide big buttons
  6
ByLayer
 62
  256
370
   -1
100
AcDbLine
 10
34.039657554843
 20
114.9147918494586
 11
34.674656554843
 21
116.5728418494586
  0
LINE
  5
29A
100
AcDbEntity
  8
superwide big buttons
  6
ByLayer
 62
  256
370
   -1
100
AcDbLine
 10
34.674656554843
 20
116.5728418494586
 11
35.55659855484301
 21
118.0897818494586
  0
LINE
  5
29B
100
AcDbEntity
  8
superwide big buttons
  6
ByLayer
 62
  256
370
   -1
100
AcDbLine
 10
35.55659855484301
 20
118.0897818494586
 11
36.61492855484299
 21
119.5008918494586
  0
LINE
  5
29C
100
AcDbEntity
  8
superwide big buttons
  6
ByLayer
 62
  256
370
   -1
100
AcDbLine
 10
36.61492855484299
 20
119.5008918494586
 11
37.88492855484289
 21
120.7356118494586
  0
LINE
  5
29D
100
AcDbEntity
  8
superwide big buttons
  6
ByLayer
 62
  256
370
   -1
100
AcDbLine
 10
37.88492855484289
 20
120.7356118494586
 11
39.33131855484301
 21
121.7586618494586
  0
LINE
  5
29E
100
AcDbEntity
  8
superwide big buttons
  6
ByLayer
 62
  256
370
   -1
100
AcDbLine
 10
39.33131855484301
 20
121.7586618494586
 11
40.91881855484299
 21
122.5700488494586
  0
LINE
  5
29F
100
AcDbEntity
  8
superwide big buttons
  6
ByLayer
 62
  256
370
   -1
100
AcDbLine
 10
40.91881855484299
 20
122.5700488494586
 11
42.57686855484299
 21
123.1344918494586
  0
LINE
  5
2A0
100
AcDbEntity
  8
superwide big buttons
  6
ByLayer
 62
  256
370
   -1
100
AcDbLine
 10
42.57686855484299
 20
123.1344918494586
 11
44.30547855484299
 21
123.4519908494586
  0
LINE
  5
2A1
100
AcDbEntity
  8
superwide big buttons
  6
ByLayer
 62
  256
370
   -1
100
AcDbLine
 10
44.30547855484299
 20
123.4519908494586
 11
46.06936855484288
 21
123.5225468494586
  0
LINE
  5
2A2
100
AcDbEntity
  8
superwide big buttons
  6
ByLayer
 62
  256
370
   -1
100
AcDbLine
 10
46.06936855484288
 20
123.5225468494586
 11
47.833258554843
 21
123.3108808494586
  0
LINE
  5
2A3
100
AcDbEntity
  8
superwide big buttons
  6
ByLayer
 62
  256
370
   -1
100
AcDbLine
 10
47.833258554843
 20
123.3108808494586
 11
49.52658855484289
 21
122.8875488494586
  0
LINE
  5
2A4
100
AcDbEntity
  8
superwide big buttons
  6
ByLayer
 62
  256
370
   -1
100
AcDbLine
 10
49.52658855484289
 20
122.8875488494586
 11
51.18463855484289
 21
122.1819948494586
  0
LINE
  5
2A5
100
AcDbEntity
  8
superwide big buttons
  6
ByLayer
 62
  256
370
   -1
100
AcDbLine
 10
51.18463855484289
 20
122.1819948494586
 11
52.66629855484298
 21
121.2647748494586
  0
LINE
  5
2A6
100
AcDbEntity
  8
superwide big buttons
  6
ByLayer
 62
  256
370
   -1
100
AcDbLine
 10
52.66629855484298
 20
121.2647748494586
 11
54.04212855484299
 21
120.1358848494586
  0
LINE
  5
2A7
100
AcDbEntity
  8
superwide big buttons
  6
ByLayer
 62
  256
370
   -1
100
AcDbLine
 10
54.04212855484299
 20
120.1358848494586
 11
55.206288554843
 21
118.8306148494586
  0
LINE
  5
2A8
100
AcDbEntity
  8
superwide big buttons
  6
ByLayer
 62
  256
370
   -1
100
AcDbLine
 10
55.206288554843
 20
118.8306148494586
 11
56.194064554843
 21
117.3489548494586
  0
LINE
  5
2A9
100
AcDbEntity
  8
superwide big buttons
  6
ByLayer
 62
  256
370
   -1
100
AcDbLine
 10
56.194064554843
 20
117.3489548494586
 11
56.93489655484301
 21
115.7614548494586
  0
LINE
  5
2AA
100
AcDbEntity
  8
superwide big buttons
  6
ByLayer
 62
  256
370
   -1
100
AcDbLine
 10
56.93489655484301
 20
115.7614548494586
 11
57.42878455484289
 21
114.0681248494586
  0
LINE
  5
2AB
100
AcDbEntity
  8
superwide big buttons
  6
ByLayer
 62
  256
370
   -1
100
AcDbLine
 10
57.42878455484289
 20
114.0681248494586
 11
57.711006554843
 21
112.3042348494586
  0
LINE
  5
2AC
100
AcDbEntity
  8
superwide big buttons
  6
ByLayer
 62
  256
370
   -1
100
AcDbLine
 10
57.711006554843
 20
112.3042348494586
 11
57.71129755484309
 21
110.5403498494586
  0
LINE
  5
2AD
100
AcDbEntity
  8
superwide big buttons
  6
ByLayer
 62
  256
370
   -1
100
AcDbLine
 10
57.71129755484309
 20
110.5403498494586
 11
57.42907555484298
 21
108.8117398494586
  0
LINE
  5
2AE
100
AcDbEntity
  8
superwide big buttons
  6
ByLayer
 62
  256
370
   -1
100
AcDbLine
 10
57.42907555484298
 20
108.8117398494586
 11
56.93518755484298
 21
107.1184098494586
  0
LINE
  5
2AF
100
AcDbEntity
  8
superwide big buttons
  6
ByLayer
 62
  256
370
   -1
100
AcDbLine
 10
56.93518755484298
 20
107.1184098494586
 11
56.194355554843
 21
105.4956398494586
  0
LINE
  5
2B0
100
AcDbEntity
  8
superwide big buttons
  6
ByLayer
 62
  256
370
   -1
100
AcDbLine
 10
56.194355554843
 20
105.4956398494586
 11
55.206579554843
 21
104.0139798494586
  0
LINE
  5
2B1
100
AcDbEntity
  8
superwide big buttons
  6
ByLayer
 62
  256
370
   -1
100
AcDbLine
 10
55.206579554843
 20
104.0139798494586
 11
54.04241955484299
 21
102.7087098494586
  0
LINE
  5
2B2
100
AcDbEntity
  8
superwide big buttons
  6
ByLayer
 62
  256
370
   -1
100
AcDbLine
 10
54.04241955484299
 20
102.7087098494586
 11
52.66658955484299
 21
101.5798198494586
  0
LINE
  5
2B3
100
AcDbEntity
  8
superwide big buttons
  6
ByLayer
 62
  256
370
   -1
100
AcDbLine
 10
52.66658955484299
 20
101.5798198494586
 11
51.18492955484301
 21
100.6625998494586
  0
LINE
  5
2B4
100
AcDbEntity
  8
superwide big buttons
  6
ByLayer
 62
  256
370
   -1
100
AcDbLine
 10
51.18492955484301
 20
100.6625998494586
 11
49.52687955484301
 21
99.95704584945862
  0
LINE
  5
2B5
100
AcDbEntity
  8
superwide big buttons
  6
ByLayer
 62
  256
370
   -1
100
AcDbLine
 10
49.52687955484301
 20
99.95704584945862
 11
47.83354955484289
 21
99.53371384945864
  0
LINE
  5
2B6
100
AcDbEntity
  8
superwide big buttons
  6
ByLayer
 62
  256
370
   -1
100
AcDbLine
 10
47.83354955484289
 20
99.53371384945864
 11
46.069659554843
 21
99.32204784945863
  0
LINE
  5
2B7
100
AcDbEntity
  8
superwide big buttons
  6
ByLayer
 62
  256
370
   -1
100
AcDbLine
 10
46.069659554843
 20
99.32204784945863
 11
44.30576955484308
 21
99.39260284945861
  0
LINE
  5
2B8
100
AcDbEntity
  8
superwide big buttons
  6
ByLayer
 62
  256
370
   -1
100
AcDbLine
 10
44.30576955484308
 20
99.39260284945861
 11
42.57715955484311
 21
99.71010184945861
  0
LINE
  5
2B9
100
AcDbEntity
  8
superwide big buttons
  6
ByLayer
 62
  256
370
   -1
100
AcDbLine
 10
42.57715955484311
 20
99.71010184945861
 11
40.91910955484299
 21
100.2745448494586
  0
LINE
  5
2BA
100
AcDbEntity
  8
superwide big buttons
  6
ByLayer
 62
  256
370
   -1
100
AcDbLine
 10
40.91910955484299
 20
100.2745448494586
 11
39.33160955484298
 21
101.0859318494586
  0
LINE
  5
2BB
100
AcDbEntity
  8
superwide big buttons
  6
ByLayer
 62
  256
370
   -1
100
AcDbLine
 10
39.33160955484298
 20
101.0859318494586
 11
37.885219554843
 21
102.1089818494586
  0
LINE
  5
2BC
100
AcDbEntity
  8
superwide big buttons
  6
ByLayer
 62
  256
370
   -1
100
AcDbLine
 10
37.885219554843
 20
102.1089818494586
 11
36.61521955484299
 21
103.3437018494586
  0
LINE
  5
2BD
100
AcDbEntity
  8
superwide big buttons
  6
ByLayer
 62
  256
370
   -1
100
AcDbLine
 10
36.61521955484299
 20
103.3437018494586
 11
35.55688955484298
 21
104.7548118494586
  0
LINE
  5
2BE
100
AcDbEntity
  8
superwide big buttons
  6
ByLayer
 62
  256
370
   -1
100
AcDbLine
 10
35.55688955484298
 20
104.7548118494586
 11
34.674947554843
 21
106.3070318494586
  0
LINE
  5
2BF
100
AcDbEntity
  8
superwide big buttons
  6
ByLayer
 62
  256
370
   -1
100
AcDbLine
 10
34.674947554843
 20
106.3070318494586
 11
34.03994855484301
 21
107.9298018494586
  0
LINE
  5
2C0
100
AcDbEntity
  8
superwide big buttons
  6
ByLayer
 62
  256
370
   -1
100
AcDbLine
 10
34.03994855484301
 20
107.9298018494586
 11
33.651893554843
 21
109.6584118494586
  0
LINE
  5
2C1
100
AcDbEntity
  8
superwide big buttons
  6
ByLayer
 62
  256
370
   -1
100
AcDbLine
 10
33.651893554843
 20
109.6584118494586
 11
33.54606055484301
 21
111.4223018494586
  0
LINE
  5
2C2
100
AcDbEntity
  8
superwide big buttons
  6
ByLayer
 62
  256
370
   -1
100
AcDbLine
 10
89.03756755484295
 20
99.92229184945863
 11
89.17867855484296
 21
101.6861818494586
  0
LINE
  5
2C3
100
AcDbEntity
  8
superwide big buttons
  6
ByLayer
 62
  256
370
   -1
100
AcDbLine
 10
89.17867855484296
 20
101.6861818494586
 11
89.53145555484295
 21
103.4147918494586
  0
LINE
  5
2C4
100
AcDbEntity
  8
superwide big buttons
  6
ByLayer
 62
  256
370
   -1
100
AcDbLine
 10
89.53145555484295
 20
103.4147918494586
 11
90.16645455484296
 21
105.0728418494586
  0
LINE
  5
2C5
100
AcDbEntity
  8
superwide big buttons
  6
ByLayer
 62
  256
370
   -1
100
AcDbLine
 10
90.16645455484296
 20
105.0728418494586
 11
91.04839755484295
 21
106.5897818494586
  0
LINE
  5
2C6
100
AcDbEntity
  8
superwide big buttons
  6
ByLayer
 62
  256
370
   -1
100
AcDbLine
 10
91.04839755484295
 20
106.5897818494586
 11
92.10672755484296
 21
108.0008918494586
  0
LINE
  5
2C7
100
AcDbEntity
  8
superwide big buttons
  6
ByLayer
 62
  256
370
   -1
100
AcDbLine
 10
92.10672755484296
 20
108.0008918494586
 11
93.41199755484296
 21
109.2356118494586
  0
LINE
  5
2C8
100
AcDbEntity
  8
superwide big buttons
  6
ByLayer
 62
  256
370
   -1
100
AcDbLine
 10
93.41199755484296
 20
109.2356118494586
 11
94.82310755484286
 21
110.2586618494586
  0
LINE
  5
2C9
100
AcDbEntity
  8
superwide big buttons
  6
ByLayer
 62
  256
370
   -1
100
AcDbLine
 10
94.82310755484286
 20
110.2586618494586
 11
96.41060755484295
 21
111.0700488494586
  0
LINE
  5
2CA
100
AcDbEntity
  8
superwide big buttons
  6
ByLayer
 62
  256
370
   -1
100
AcDbLine
 10
96.41060755484295
 20
111.0700488494586
 11
98.06865755484296
 21
111.6344918494586
  0
LINE
  5
2CB
100
AcDbEntity
  8
superwide big buttons
  6
ByLayer
 62
  256
370
   -1
100
AcDbLine
 10
98.06865755484296
 20
111.6344918494586
 11
99.79726755484296
 21
111.9519908494586
  0
LINE
  5
2CC
100
AcDbEntity
  8
superwide big buttons
  6
ByLayer
 62
  256
370
   -1
100
AcDbLine
 10
99.79726755484296
 20
111.9519908494586
 11
101.561147554843
 21
112.0225468494586
  0
LINE
  5
2CD
100
AcDbEntity
  8
superwide big buttons
  6
ByLayer
 62
  256
370
   -1
100
AcDbLine
 10
101.561147554843
 20
112.0225468494586
 11
103.325037554843
 21
111.8108808494586
  0
LINE
  5
2CE
100
AcDbEntity
  8
superwide big buttons
  6
ByLayer
 62
  256
370
   -1
100
AcDbLine
 10
103.325037554843
 20
111.8108808494586
 11
105.053647554843
 21
111.3875488494586
  0
LINE
  5
2CF
100
AcDbEntity
  8
superwide big buttons
  6
ByLayer
 62
  256
370
   -1
100
AcDbLine
 10
105.053647554843
 20
111.3875488494586
 11
106.676417554843
 21
110.6819948494586
  0
LINE
  5
2D0
100
AcDbEntity
  8
superwide big buttons
  6
ByLayer
 62
  256
370
   -1
100
AcDbLine
 10
106.676417554843
 20
110.6819948494586
 11
108.1933575548429
 21
109.7647748494586
  0
LINE
  5
2D1
100
AcDbEntity
  8
superwide big buttons
  6
ByLayer
 62
  256
370
   -1
100
AcDbLine
 10
108.1933575548429
 20
109.7647748494586
 11
109.533907554843
 21
108.6358848494586
  0
LINE
  5
2D2
100
AcDbEntity
  8
superwide big buttons
  6
ByLayer
 62
  256
370
   -1
100
AcDbLine
 10
109.533907554843
 20
108.6358848494586
 11
110.698067554843
 21
107.3306148494586
  0
LINE
  5
2D3
100
AcDbEntity
  8
superwide big buttons
  6
ByLayer
 62
  256
370
   -1
100
AcDbLine
 10
110.698067554843
 20
107.3306148494586
 11
111.685843554843
 21
105.8489548494586
  0
LINE
  5
2D4
100
AcDbEntity
  8
superwide big buttons
  6
ByLayer
 62
  256
370
   -1
100
AcDbLine
 10
111.685843554843
 20
105.8489548494586
 11
112.4266755548429
 21
104.2614548494586
  0
LINE
  5
2D5
100
AcDbEntity
  8
superwide big buttons
  6
ByLayer
 62
  256
370
   -1
100
AcDbLine
 10
112.4266755548429
 20
104.2614548494586
 11
112.9558415548429
 21
102.5681248494586
  0
LINE
  5
2D6
100
AcDbEntity
  8
superwide big buttons
  6
ByLayer
 62
  256
370
   -1
100
AcDbLine
 10
112.9558415548429
 20
102.5681248494586
 11
113.2027855548428
 21
100.8042348494586
  0
LINE
  5
2D7
100
AcDbEntity
  8
superwide big buttons
  6
ByLayer
 62
  256
370
   -1
100
AcDbLine
 10
113.2027855548428
 20
100.8042348494586
 11
113.2022975548429
 21
99.04034984945862
  0
LINE
  5
2D8
100
AcDbEntity
  8
superwide big buttons
  6
ByLayer
 62
  256
370
   -1
100
AcDbLine
 10
113.2022975548429
 20
99.04034984945862
 11
112.955353554843
 21
97.31173984945862
  0
LINE
  5
2D9
100
AcDbEntity
  8
superwide big buttons
  6
ByLayer
 62
  256
370
   -1
100
AcDbLine
 10
112.955353554843
 20
97.31173984945862
 11
112.426187554843
 21
95.61840984945862
  0
LINE
  5
2DA
100
AcDbEntity
  8
superwide big buttons
  6
ByLayer
 62
  256
370
   -1
100
AcDbLine
 10
112.426187554843
 20
95.61840984945862
 11
111.6853555548431
 21
93.99563984945861
  0
LINE
  5
2DB
100
AcDbEntity
  8
superwide big buttons
  6
ByLayer
 62
  256
370
   -1
100
AcDbLine
 10
111.6853555548431
 20
93.99563984945861
 11
110.6975795548429
 21
92.51397984945864
  0
LINE
  5
2DC
100
AcDbEntity
  8
superwide big buttons
  6
ByLayer
 62
  256
370
   -1
100
AcDbLine
 10
110.6975795548429
 20
92.51397984945864
 11
109.533419554843
 21
91.20870984945863
  0
LINE
  5
2DD
100
AcDbEntity
  8
superwide big buttons
  6
ByLayer
 62
  256
370
   -1
100
AcDbLine
 10
109.533419554843
 20
91.20870984945863
 11
108.192869554843
 21
90.07981984945862
  0
LINE
  5
2DE
100
AcDbEntity
  8
superwide big buttons
  6
ByLayer
 62
  256
370
   -1
100
AcDbLine
 10
108.192869554843
 20
90.07981984945862
 11
106.675929554843
 21
89.16259984945863
  0
LINE
  5
2DF
100
AcDbEntity
  8
superwide big buttons
  6
ByLayer
 62
  256
370
   -1
100
AcDbLine
 10
106.675929554843
 20
89.16259984945863
 11
105.0531595548429
 21
88.45704584945862
  0
LINE
  5
2E0
100
AcDbEntity
  8
superwide big buttons
  6
ByLayer
 62
  256
370
   -1
100
AcDbLine
 10
105.0531595548429
 20
88.45704584945862
 11
103.3245495548429
 21
88.03371384945861
  0
LINE
  5
2E1
100
AcDbEntity
  8
superwide big buttons
  6
ByLayer
 62
  256
370
   -1
100
AcDbLine
 10
103.3245495548429
 20
88.03371384945861
 11
101.5606595548429
 21
87.82204784945863
  0
LINE
  5
2E2
100
AcDbEntity
  8
superwide big buttons
  6
ByLayer
 62
  256
370
   -1
100
AcDbLine
 10
101.5606595548429
 20
87.82204784945863
 11
99.79677955484297
 21
87.89260284945864
  0
LINE
  5
2E3
100
AcDbEntity
  8
superwide big buttons
  6
ByLayer
 62
  256
370
   -1
100
AcDbLine
 10
99.79677955484297
 20
87.89260284945864
 11
98.06816955484297
 21
88.21010184945864
  0
LINE
  5
2E4
100
AcDbEntity
  8
superwide big buttons
  6
ByLayer
 62
  256
370
   -1
100
AcDbLine
 10
98.06816955484297
 20
88.21010184945864
 11
96.41011955484296
 21
88.77454484945862
  0
LINE
  5
2E5
100
AcDbEntity
  8
superwide big buttons
  6
ByLayer
 62
  256
370
   -1
100
AcDbLine
 10
96.41011955484296
 20
88.77454484945862
 11
94.82261955484296
 21
89.58593184945865
  0
LINE
  5
2E6
100
AcDbEntity
  8
superwide big buttons
  6
ByLayer
 62
  256
370
   -1
100
AcDbLine
 10
94.82261955484296
 20
89.58593184945865
 11
93.41150955484295
 21
90.60898184945863
  0
LINE
  5
2E7
100
AcDbEntity
  8
superwide big buttons
  6
ByLayer
 62
  256
370
   -1
100
AcDbLine
 10
93.41150955484295
 20
90.60898184945863
 11
92.10623955484296
 21
91.84370184945864
  0
LINE
  5
2E8
100
AcDbEntity
  8
superwide big buttons
  6
ByLayer
 62
  256
370
   -1
100
AcDbLine
 10
92.10623955484296
 20
91.84370184945864
 11
91.04790955484296
 21
93.25481184945865
  0
LINE
  5
2E9
100
AcDbEntity
  8
superwide big buttons
  6
ByLayer
 62
  256
370
   -1
100
AcDbLine
 10
91.04790955484296
 20
93.25481184945865
 11
90.16596655484295
 21
94.80703184945862
  0
LINE
  5
2EA
100
AcDbEntity
  8
superwide big buttons
  6
ByLayer
 62
  256
370
   -1
100
AcDbLine
 10
90.16596655484295
 20
94.80703184945862
 11
89.53096755484296
 21
96.42980184945863
  0
LINE
  5
2EB
100
AcDbEntity
  8
superwide big buttons
  6
ByLayer
 62
  256
370
   -1
100
AcDbLine
 10
89.53096755484296
 20
96.42980184945863
 11
89.17819055484296
 21
98.15841184945863
  0
LINE
  5
2EC
100
AcDbEntity
  8
superwide big buttons
  6
ByLayer
 62
  256
370
   -1
100
AcDbLine
 10
89.17819055484296
 20
98.15841184945863
 11
89.03707955484286
 21
99.92230184945863
  0
LINE
  5
2ED
100
AcDbEntity
  8
superwide big buttons
  6
ByLayer
 62
  256
370
   -1
100
AcDbLine
 10
67.71539951239285
 20
42.62245568941657
 11
67.85651051239286
 21
44.59800568941657
  0
LINE
  5
2EE
100
AcDbEntity
  8
superwide big buttons
  6
ByLayer
 62
  256
370
   -1
100
AcDbLine
 10
67.85651051239286
 20
44.59800568941657
 11
68.24456551239275
 21
46.53827568941657
  0
LINE
  5
2EF
100
AcDbEntity
  8
superwide big buttons
  6
ByLayer
 62
  256
370
   -1
100
AcDbLine
 10
68.24456551239275
 20
46.53827568941657
 11
68.87956451239296
 21
48.40799568941657
  0
LINE
  5
2F0
100
AcDbEntity
  8
superwide big buttons
  6
ByLayer
 62
  256
370
   -1
100
AcDbLine
 10
68.87956451239296
 20
48.40799568941657
 11
69.72622951239296
 21
50.17188568941657
  0
LINE
  5
2F1
100
AcDbEntity
  8
superwide big buttons
  6
ByLayer
 62
  256
370
   -1
100
AcDbLine
 10
69.72622951239296
 20
50.17188568941657
 11
70.81983951239296
 21
51.79465568941657
  0
LINE
  5
2F2
100
AcDbEntity
  8
superwide big buttons
  6
ByLayer
 62
  256
370
   -1
100
AcDbLine
 10
70.81983951239296
 20
51.79465568941657
 11
72.12510951239275
 21
53.27631568941658
  0
LINE
  5
2F3
100
AcDbEntity
  8
superwide big buttons
  6
ByLayer
 62
  256
370
   -1
100
AcDbLine
 10
72.12510951239275
 20
53.27631568941658
 11
73.60676951239286
 21
54.58158568941658
  0
LINE
  5
2F4
100
AcDbEntity
  8
superwide big buttons
  6
ByLayer
 62
  256
370
   -1
100
AcDbLine
 10
73.60676951239286
 20
54.58158568941658
 11
75.26481951239296
 21
55.67519568941657
  0
LINE
  5
2F5
100
AcDbEntity
  8
superwide big buttons
  6
ByLayer
 62
  256
370
   -1
100
AcDbLine
 10
75.26481951239296
 20
55.67519568941657
 11
77.02869951239266
 21
56.55713868941658
  0
LINE
  5
2F6
100
AcDbEntity
  8
superwide big buttons
  6
ByLayer
 62
  256
370
   -1
100
AcDbLine
 10
77.02869951239266
 20
56.55713868941658
 11
78.89841951239286
 21
57.19213768941657
  0
LINE
  5
2F7
100
AcDbEntity
  8
superwide big buttons
  6
ByLayer
 62
  256
370
   -1
100
AcDbLine
 10
78.89841951239286
 20
57.19213768941657
 11
80.83868951239296
 21
57.58019268941658
  0
LINE
  5
2F8
100
AcDbEntity
  8
superwide big buttons
  6
ByLayer
 62
  256
370
   -1
100
AcDbLine
 10
80.83868951239296
 20
57.58019268941658
 11
82.81423951239296
 21
57.72130368941659
  0
LINE
  5
2F9
100
AcDbEntity
  8
superwide big buttons
  6
ByLayer
 62
  256
370
   -1
100
AcDbLine
 10
82.81423951239296
 20
57.72130368941659
 11
84.78978951239286
 21
57.58019268941658
  0
LINE
  5
2FA
100
AcDbEntity
  8
superwide big buttons
  6
ByLayer
 62
  256
370
   -1
100
AcDbLine
 10
84.78978951239286
 20
57.58019268941658
 11
86.73005951239286
 21
57.19213768941657
  0
LINE
  5
2FB
100
AcDbEntity
  8
superwide big buttons
  6
ByLayer
 62
  256
370
   -1
100
AcDbLine
 10
86.73005951239286
 20
57.19213768941657
 11
88.59977951239286
 21
56.55713868941658
  0
LINE
  5
2FC
100
AcDbEntity
  8
superwide big buttons
  6
ByLayer
 62
  256
370
   -1
100
AcDbLine
 10
88.59977951239286
 20
56.55713868941658
 11
90.36365951239286
 21
55.67519568941657
  0
LINE
  5
2FD
100
AcDbEntity
  8
superwide big buttons
  6
ByLayer
 62
  256
370
   -1
100
AcDbLine
 10
90.36365951239286
 20
55.67519568941657
 11
92.02170951239296
 21
54.58158568941658
  0
LINE
  5
2FE
100
AcDbEntity
  8
superwide big buttons
  6
ByLayer
 62
  256
370
   -1
100
AcDbLine
 10
92.02170951239296
 20
54.58158568941658
 11
93.50336951239295
 21
53.27631568941658
  0
LINE
  5
2FF
100
AcDbEntity
  8
superwide big buttons
  6
ByLayer
 62
  256
370
   -1
100
AcDbLine
 10
93.50336951239295
 20
53.27631568941658
 11
94.80863951239296
 21
51.79465568941657
  0
LINE
  5
300
100
AcDbEntity
  8
superwide big buttons
  6
ByLayer
 62
  256
370
   -1
100
AcDbLine
 10
94.80863951239296
 20
51.79465568941657
 11
95.90224951239287
 21
50.17188568941657
  0
LINE
  5
301
100
AcDbEntity
  8
superwide big buttons
  6
ByLayer
 62
  256
370
   -1
100
AcDbLine
 10
95.90224951239287
 20
50.17188568941657
 11
96.74891451239284
 21
48.40799568941657
  0
LINE
  5
302
100
AcDbEntity
  8
superwide big buttons
  6
ByLayer
 62
  256
370
   -1
100
AcDbLine
 10
96.74891451239284
 20
48.40799568941657
 11
97.38391351239287
 21
46.53827568941657
  0
LINE
  5
303
100
AcDbEntity
  8
superwide big buttons
  6
ByLayer
 62
  256
370
   -1
100
AcDbLine
 10
97.38391351239287
 20
46.53827568941657
 11
97.77196851239285
 21
44.59800568941657
  0
LINE
  5
304
100
AcDbEntity
  8
superwide big buttons
  6
ByLayer
 62
  256
370
   -1
100
AcDbLine
 10
97.77196851239285
 20
44.59800568941657
 11
97.91307951239287
 21
42.62245568941657
  0
LINE
  5
305
100
AcDbEntity
  8
superwide big buttons
  6
ByLayer
 62
  256
370
   -1
100
AcDbLine
 10
97.91307951239287
 20
42.62245568941657
 11
97.77196851239285
 21
40.64690568941657
  0
LINE
  5
306
100
AcDbEntity
  8
superwide big buttons
  6
ByLayer
 62
  256
370
   -1
100
AcDbLine
 10
97.77196851239285
 20
40.64690568941657
 11
97.38391351239287
 21
38.70663568941657
  0
LINE
  5
307
100
AcDbEntity
  8
superwide big buttons
  6
ByLayer
 62
  256
370
   -1
100
AcDbLine
 10
97.38391351239287
 20
38.70663568941657
 11
96.74891451239284
 21
36.83691568941655
  0
LINE
  5
308
100
AcDbEntity
  8
superwide big buttons
  6
ByLayer
 62
  256
370
   -1
100
AcDbLine
 10
96.74891451239284
 20
36.83691568941655
 11
95.90224951239287
 21
35.07302568941657
  0
LINE
  5
309
100
AcDbEntity
  8
superwide big buttons
  6
ByLayer
 62
  256
370
   -1
100
AcDbLine
 10
95.90224951239287
 20
35.07302568941657
 11
94.80863951239296
 21
33.41497568941657
  0
LINE
  5
30A
100
AcDbEntity
  8
superwide big buttons
  6
ByLayer
 62
  256
370
   -1
100
AcDbLine
 10
94.80863951239296
 20
33.41497568941657
 11
93.50336951239295
 21
31.93331568941656
  0
LINE
  5
30B
100
AcDbEntity
  8
superwide big buttons
  6
ByLayer
 62
  256
370
   -1
100
AcDbLine
 10
93.50336951239295
 20
31.93331568941656
 11
92.02170951239296
 21
30.62804568941656
  0
LINE
  5
30C
100
AcDbEntity
  8
superwide big buttons
  6
ByLayer
 62
  256
370
   -1
100
AcDbLine
 10
92.02170951239296
 20
30.62804568941656
 11
90.36365951239286
 21
29.53443568941657
  0
LINE
  5
30D
100
AcDbEntity
  8
superwide big buttons
  6
ByLayer
 62
  256
370
   -1
100
AcDbLine
 10
90.36365951239286
 20
29.53443568941657
 11
88.59977951239286
 21
28.65249268941656
  0
LINE
  5
30E
100
AcDbEntity
  8
superwide big buttons
  6
ByLayer
 62
  256
370
   -1
100
AcDbLine
 10
88.59977951239286
 20
28.65249268941656
 11
86.73005951239286
 21
28.01749368941657
  0
LINE
  5
30F
100
AcDbEntity
  8
superwide big buttons
  6
ByLayer
 62
  256
370
   -1
100
AcDbLine
 10
86.73005951239286
 20
28.01749368941657
 11
84.78978951239286
 21
27.62943868941656
  0
LINE
  5
310
100
AcDbEntity
  8
superwide big buttons
  6
ByLayer
 62
  256
370
   -1
100
AcDbLine
 10
84.78978951239286
 20
27.62943868941656
 11
82.81423951239296
 21
27.52360568941657
  0
LINE
  5
311
100
AcDbEntity
  8
superwide big buttons
  6
ByLayer
 62
  256
370
   -1
100
AcDbLine
 10
82.81423951239296
 20
27.52360568941657
 11
80.83868951239296
 21
27.62943868941656
  0
LINE
  5
312
100
AcDbEntity
  8
superwide big buttons
  6
ByLayer
 62
  256
370
   -1
100
AcDbLine
 10
80.83868951239296
 20
27.62943868941656
 11
78.89841951239286
 21
28.01749368941657
  0
LINE
  5
313
100
AcDbEntity
  8
superwide big buttons
  6
ByLayer
 62
  256
370
   -1
100
AcDbLine
 10
78.89841951239286
 20
28.01749368941657
 11
77.02869951239266
 21
28.65249268941656
  0
LINE
  5
314
100
AcDbEntity
  8
superwide big buttons
  6
ByLayer
 62
  256
370
   -1
100
AcDbLine
 10
77.02869951239266
 20
28.65249268941656
 11
75.26481951239296
 21
29.53443568941657
  0
LINE
  5
315
100
AcDbEntity
  8
superwide big buttons
  6
ByLayer
 62
  256
370
   -1
100
AcDbLine
 10
75.26481951239296
 20
29.53443568941657
 11
73.60676951239286
 21
30.62804568941656
  0
LINE
  5
316
100
AcDbEntity
  8
superwide big buttons
  6
ByLayer
 62
  256
370
   -1
100
AcDbLine
 10
73.60676951239286
 20
30.62804568941656
 11
72.12510951239275
 21
31.93331568941656
  0
LINE
  5
317
100
AcDbEntity
  8
superwide big buttons
  6
ByLayer
 62
  256
370
   -1
100
AcDbLine
 10
72.12510951239275
 20
31.93331568941656
 11
70.81983951239296
 21
33.41497568941657
  0
LINE
  5
318
100
AcDbEntity
  8
superwide big buttons
  6
ByLayer
 62
  256
370
   -1
100
AcDbLine
 10
70.81983951239296
 20
33.41497568941657
 11
69.72622951239296
 21
35.07302568941657
  0
LINE
  5
319
100
AcDbEntity
  8
superwide big buttons
  6
ByLayer
 62
  256
370
   -1
100
AcDbLine
 10
69.72622951239296
 20
35.07302568941657
 11
68.87956451239296
 21
36.83691568941655
  0
LINE
  5
31A
100
AcDbEntity
  8
superwide big buttons
  6
ByLayer
 62
  256
370
   -1
100
AcDbLine
 10
68.87956451239296
 20
36.83691568941655
 11
68.24456551239275
 21
38.70663568941657
  0
LINE
  5
31B
100
AcDbEntity
  8
superwide big buttons
  6
ByLayer
 62
  256
370
   -1
100
AcDbLine
 10
68.24456551239275
 20
38.70663568941657
 11
67.85651051239286
 21
40.64690568941657
  0
LINE
  5
31C
100
AcDbEntity
  8
superwide big buttons
  6
ByLayer
 62
  256
370
   -1
100
AcDbLine
 10
67.85651051239286
 20
40.64690568941657
 11
67.71539951239285
 21
42.62245568941657
  0
LINE
  5
31D
100
AcDbEntity
  8
superwide big buttons
  6
ByLayer
 62
  256
370
   -1
100
AcDbLine
 10
259.3270437739793
 20
111.4223048494586
 11
259.4328767739793
 21
113.1861848494586
  0
LINE
  5
31E
100
AcDbEntity
  8
superwide big buttons
  6
ByLayer
 62
  256
370
   -1
100
AcDbLine
 10
259.4328767739793
 20
113.1861848494586
 11
259.8209317739793
 21
114.9147948494586
  0
LINE
  5
31F
100
AcDbEntity
  8
superwide big buttons
  6
ByLayer
 62
  256
370
   -1
100
AcDbLine
 10
259.8209317739793
 20
114.9147948494586
 11
260.4559307739793
 21
116.5728448494586
  0
LINE
  5
320
100
AcDbEntity
  8
superwide big buttons
  6
ByLayer
 62
  256
370
   -1
100
AcDbLine
 10
260.4559307739793
 20
116.5728448494586
 11
261.3378737739793
 21
118.0897848494586
  0
LINE
  5
321
100
AcDbEntity
  8
superwide big buttons
  6
ByLayer
 62
  256
370
   -1
100
AcDbLine
 10
261.3378737739793
 20
118.0897848494586
 11
262.3962037739792
 21
119.5008948494586
  0
LINE
  5
322
100
AcDbEntity
  8
superwide big buttons
  6
ByLayer
 62
  256
370
   -1
100
AcDbLine
 10
262.3962037739792
 20
119.5008948494586
 11
263.6662037739793
 21
120.7356148494586
  0
LINE
  5
323
100
AcDbEntity
  8
superwide big buttons
  6
ByLayer
 62
  256
370
   -1
100
AcDbLine
 10
263.6662037739793
 20
120.7356148494586
 11
265.1125937739793
 21
121.7586648494586
  0
LINE
  5
324
100
AcDbEntity
  8
superwide big buttons
  6
ByLayer
 62
  256
370
   -1
100
AcDbLine
 10
265.1125937739793
 20
121.7586648494586
 11
266.7000937739793
 21
122.5700518494586
  0
LINE
  5
325
100
AcDbEntity
  8
superwide big buttons
  6
ByLayer
 62
  256
370
   -1
100
AcDbLine
 10
266.7000937739793
 20
122.5700518494586
 11
268.3581437739794
 21
123.1344948494586
  0
LINE
  5
326
100
AcDbEntity
  8
superwide big buttons
  6
ByLayer
 62
  256
370
   -1
100
AcDbLine
 10
268.3581437739794
 20
123.1344948494586
 11
270.0867537739794
 21
123.4519938494586
  0
LINE
  5
327
100
AcDbEntity
  8
superwide big buttons
  6
ByLayer
 62
  256
370
   -1
100
AcDbLine
 10
270.0867537739794
 20
123.4519938494586
 11
271.8506437739792
 21
123.5225498494586
  0
LINE
  5
328
100
AcDbEntity
  8
superwide big buttons
  6
ByLayer
 62
  256
370
   -1
100
AcDbLine
 10
271.8506437739792
 20
123.5225498494586
 11
273.6145237739793
 21
123.3108838494586
  0
LINE
  5
329
100
AcDbEntity
  8
superwide big buttons
  6
ByLayer
 62
  256
370
   -1
100
AcDbLine
 10
273.6145237739793
 20
123.3108838494586
 11
275.3078537739792
 21
122.8875518494586
  0
LINE
  5
32A
100
AcDbEntity
  8
superwide big buttons
  6
ByLayer
 62
  256
370
   -1
100
AcDbLine
 10
275.3078537739792
 20
122.8875518494586
 11
276.9659037739792
 21
122.1819978494586
  0
LINE
  5
32B
100
AcDbEntity
  8
superwide big buttons
  6
ByLayer
 62
  256
370
   -1
100
AcDbLine
 10
276.9659037739792
 20
122.1819978494586
 11
278.4475637739793
 21
121.2647778494586
  0
LINE
  5
32C
100
AcDbEntity
  8
superwide big buttons
  6
ByLayer
 62
  256
370
   -1
100
AcDbLine
 10
278.4475637739793
 20
121.2647778494586
 11
279.8233937739792
 21
120.1358878494586
  0
LINE
  5
32D
100
AcDbEntity
  8
superwide big buttons
  6
ByLayer
 62
  256
370
   -1
100
AcDbLine
 10
279.8233937739792
 20
120.1358878494586
 11
280.9875537739794
 21
118.8306178494586
  0
LINE
  5
32E
100
AcDbEntity
  8
superwide big buttons
  6
ByLayer
 62
  256
370
   -1
100
AcDbLine
 10
280.9875537739794
 20
118.8306178494586
 11
281.9753297739794
 21
117.3489578494586
  0
LINE
  5
32F
100
AcDbEntity
  8
superwide big buttons
  6
ByLayer
 62
  256
370
   -1
100
AcDbLine
 10
281.9753297739794
 20
117.3489578494586
 11
282.7161617739794
 21
115.7614578494586
  0
LINE
  5
330
100
AcDbEntity
  8
superwide big buttons
  6
ByLayer
 62
  256
370
   -1
100
AcDbLine
 10
282.7161617739794
 20
115.7614578494586
 11
283.2453277739793
 21
114.0681278494586
  0
LINE
  5
331
100
AcDbEntity
  8
superwide big buttons
  6
ByLayer
 62
  256
370
   -1
100
AcDbLine
 10
283.2453277739793
 20
114.0681278494586
 11
283.4922717739793
 21
112.3042478494586
  0
LINE
  5
332
100
AcDbEntity
  8
superwide big buttons
  6
ByLayer
 62
  256
370
   -1
100
AcDbLine
 10
283.4922717739793
 20
112.3042478494586
 11
283.4923317739793
 21
110.5403498494586
  0
LINE
  5
333
100
AcDbEntity
  8
superwide big buttons
  6
ByLayer
 62
  256
370
   -1
100
AcDbLine
 10
283.4923317739793
 20
110.5403498494586
 11
283.2453877739794
 21
108.8117398494586
  0
LINE
  5
334
100
AcDbEntity
  8
superwide big buttons
  6
ByLayer
 62
  256
370
   -1
100
AcDbLine
 10
283.2453877739794
 20
108.8117398494586
 11
282.7162217739792
 21
107.1184098494586
  0
LINE
  5
335
100
AcDbEntity
  8
superwide big buttons
  6
ByLayer
 62
  256
370
   -1
100
AcDbLine
 10
282.7162217739792
 20
107.1184098494586
 11
281.9753897739793
 21
105.4956398494586
  0
LINE
  5
336
100
AcDbEntity
  8
superwide big buttons
  6
ByLayer
 62
  256
370
   -1
100
AcDbLine
 10
281.9753897739793
 20
105.4956398494586
 11
280.9876137739792
 21
104.0139798494586
  0
LINE
  5
337
100
AcDbEntity
  8
superwide big buttons
  6
ByLayer
 62
  256
370
   -1
100
AcDbLine
 10
280.9876137739792
 20
104.0139798494586
 11
279.8234537739793
 21
102.7087098494586
  0
LINE
  5
338
100
AcDbEntity
  8
superwide big buttons
  6
ByLayer
 62
  256
370
   -1
100
AcDbLine
 10
279.8234537739793
 20
102.7087098494586
 11
278.4476237739792
 21
101.5798198494586
  0
LINE
  5
339
100
AcDbEntity
  8
superwide big buttons
  6
ByLayer
 62
  256
370
   -1
100
AcDbLine
 10
278.4476237739792
 20
101.5798198494586
 11
276.9659637739794
 21
100.6625998494586
  0
LINE
  5
33A
100
AcDbEntity
  8
superwide big buttons
  6
ByLayer
 62
  256
370
   -1
100
AcDbLine
 10
276.9659637739794
 20
100.6625998494586
 11
275.3079137739794
 21
99.95704584945862
  0
LINE
  5
33B
100
AcDbEntity
  8
superwide big buttons
  6
ByLayer
 62
  256
370
   -1
100
AcDbLine
 10
275.3079137739794
 20
99.95704584945862
 11
273.6145837739793
 21
99.53371384945864
  0
LINE
  5
33C
100
AcDbEntity
  8
superwide big buttons
  6
ByLayer
 62
  256
370
   -1
100
AcDbLine
 10
273.6145837739793
 20
99.53371384945864
 11
271.8507037739793
 21
99.32204784945863
  0
LINE
  5
33D
100
AcDbEntity
  8
superwide big buttons
  6
ByLayer
 62
  256
370
   -1
100
AcDbLine
 10
271.8507037739793
 20
99.32204784945863
 11
270.0868137739792
 21
99.39260284945861
  0
LINE
  5
33E
100
AcDbEntity
  8
superwide big buttons
  6
ByLayer
 62
  256
370
   -1
100
AcDbLine
 10
270.0868137739792
 20
99.39260284945861
 11
268.3582037739793
 21
99.71010184945861
  0
LINE
  5
33F
100
AcDbEntity
  8
superwide big buttons
  6
ByLayer
 62
  256
370
   -1
100
AcDbLine
 10
268.3582037739793
 20
99.71010184945861
 11
266.7001537739793
 21
100.2745448494586
  0
LINE
  5
340
100
AcDbEntity
  8
superwide big buttons
  6
ByLayer
 62
  256
370
   -1
100
AcDbLine
 10
266.7001537739793
 20
100.2745448494586
 11
265.1126537739792
 21
101.0859318494586
  0
LINE
  5
341
100
AcDbEntity
  8
superwide big buttons
  6
ByLayer
 62
  256
370
   -1
100
AcDbLine
 10
265.1126537739792
 20
101.0859318494586
 11
263.6662637739793
 21
102.1089818494586
  0
LINE
  5
342
100
AcDbEntity
  8
superwide big buttons
  6
ByLayer
 62
  256
370
   -1
100
AcDbLine
 10
263.6662637739793
 20
102.1089818494586
 11
262.3962637739793
 21
103.3437018494586
  0
LINE
  5
343
100
AcDbEntity
  8
superwide big buttons
  6
ByLayer
 62
  256
370
   -1
100
AcDbLine
 10
262.3962637739793
 20
103.3437018494586
 11
261.3379337739792
 21
104.7548118494586
  0
LINE
  5
344
100
AcDbEntity
  8
superwide big buttons
  6
ByLayer
 62
  256
370
   -1
100
AcDbLine
 10
261.3379337739792
 20
104.7548118494586
 11
260.4559907739794
 21
106.3070318494586
  0
LINE
  5
345
100
AcDbEntity
  8
superwide big buttons
  6
ByLayer
 62
  256
370
   -1
100
AcDbLine
 10
260.4559907739794
 20
106.3070318494586
 11
259.8209917739792
 21
107.9298018494586
  0
LINE
  5
346
100
AcDbEntity
  8
superwide big buttons
  6
ByLayer
 62
  256
370
   -1
100
AcDbLine
 10
259.8209917739792
 20
107.9298018494586
 11
259.4329367739792
 21
109.6584118494586
  0
LINE
  5
347
100
AcDbEntity
  8
superwide big buttons
  6
ByLayer
 62
  256
370
   -1
100
AcDbLine
 10
259.4329367739792
 20
109.6584118494586
 11
259.3271037739793
 21
111.4222918494586
  0
LINE
  5
348
100
AcDbEntity
  8
superwide big buttons
  6
ByLayer
 62
  256
370
   -1
100
AcDbLine
 10
230.2618276597404
 20
111.4223048494586
 11
230.3676606597404
 21
113.1861848494586
  0
LINE
  5
349
100
AcDbEntity
  8
superwide big buttons
  6
ByLayer
 62
  256
370
   -1
100
AcDbLine
 10
230.3676606597404
 20
113.1861848494586
 11
230.7557156597404
 21
114.9147948494586
  0
LINE
  5
34A
100
AcDbEntity
  8
superwide big buttons
  6
ByLayer
 62
  256
370
   -1
100
AcDbLine
 10
230.7557156597404
 20
114.9147948494586
 11
231.3907146597404
 21
116.5728448494586
  0
LINE
  5
34B
100
AcDbEntity
  8
superwide big buttons
  6
ByLayer
 62
  256
370
   -1
100
AcDbLine
 10
231.3907146597404
 20
116.5728448494586
 11
232.2726576597404
 21
118.0897848494586
  0
LINE
  5
34C
100
AcDbEntity
  8
superwide big buttons
  6
ByLayer
 62
  256
370
   -1
100
AcDbLine
 10
232.2726576597404
 20
118.0897848494586
 11
233.3309876597403
 21
119.5008948494586
  0
LINE
  5
34D
100
AcDbEntity
  8
superwide big buttons
  6
ByLayer
 62
  256
370
   -1
100
AcDbLine
 10
233.3309876597403
 20
119.5008948494586
 11
234.6009876597404
 21
120.7356148494586
  0
LINE
  5
34E
100
AcDbEntity
  8
superwide big buttons
  6
ByLayer
 62
  256
370
   -1
100
AcDbLine
 10
234.6009876597404
 20
120.7356148494586
 11
236.0473776597404
 21
121.7586648494586
  0
LINE
  5
34F
100
AcDbEntity
  8
superwide big buttons
  6
ByLayer
 62
  256
370
   -1
100
AcDbLine
 10
236.0473776597404
 20
121.7586648494586
 11
237.6348776597404
 21
122.5700518494586
  0
LINE
  5
350
100
AcDbEntity
  8
superwide big buttons
  6
ByLayer
 62
  256
370
   -1
100
AcDbLine
 10
237.6348776597404
 20
122.5700518494586
 11
239.2929276597403
 21
123.1344948494586
  0
LINE
  5
351
100
AcDbEntity
  8
superwide big buttons
  6
ByLayer
 62
  256
370
   -1
100
AcDbLine
 10
239.2929276597403
 20
123.1344948494586
 11
241.0215376597403
 21
123.4519938494586
  0
LINE
  5
352
100
AcDbEntity
  8
superwide big buttons
  6
ByLayer
 62
  256
370
   -1
100
AcDbLine
 10
241.0215376597403
 20
123.4519938494586
 11
242.7854276597403
 21
123.5225498494586
  0
LINE
  5
353
100
AcDbEntity
  8
superwide big buttons
  6
ByLayer
 62
  256
370
   -1
100
AcDbLine
 10
242.7854276597403
 20
123.5225498494586
 11
244.5493076597404
 21
123.3108838494586
  0
LINE
  5
354
100
AcDbEntity
  8
superwide big buttons
  6
ByLayer
 62
  256
370
   -1
100
AcDbLine
 10
244.5493076597404
 20
123.3108838494586
 11
246.2426376597404
 21
122.8875518494586
  0
LINE
  5
355
100
AcDbEntity
  8
superwide big buttons
  6
ByLayer
 62
  256
370
   -1
100
AcDbLine
 10
246.2426376597404
 20
122.8875518494586
 11
247.9006876597404
 21
122.1819978494586
  0
LINE
  5
356
100
AcDbEntity
  8
superwide big buttons
  6
ByLayer
 62
  256
370
   -1
100
AcDbLine
 10
247.9006876597404
 20
122.1819978494586
 11
249.3823476597404
 21
121.2647778494586
  0
LINE
  5
357
100
AcDbEntity
  8
superwide big buttons
  6
ByLayer
 62
  256
370
   -1
100
AcDbLine
 10
249.3823476597404
 20
121.2647778494586
 11
250.7581776597404
 21
120.1358878494586
  0
LINE
  5
358
100
AcDbEntity
  8
superwide big buttons
  6
ByLayer
 62
  256
370
   -1
100
AcDbLine
 10
250.7581776597404
 20
120.1358878494586
 11
251.9223376597405
 21
118.8306178494586
  0
LINE
  5
359
100
AcDbEntity
  8
superwide big buttons
  6
ByLayer
 62
  256
370
   -1
100
AcDbLine
 10
251.9223376597405
 20
118.8306178494586
 11
252.9101136597405
 21
117.3489578494586
  0
LINE
  5
35A
100
AcDbEntity
  8
superwide big buttons
  6
ByLayer
 62
  256
370
   -1
100
AcDbLine
 10
252.9101136597405
 20
117.3489578494586
 11
253.6509456597404
 21
115.7614578494586
  0
LINE
  5
35B
100
AcDbEntity
  8
superwide big buttons
  6
ByLayer
 62
  256
370
   -1
100
AcDbLine
 10
253.6509456597404
 20
115.7614578494586
 11
254.1801116597404
 21
114.0681278494586
  0
LINE
  5
35C
100
AcDbEntity
  8
superwide big buttons
  6
ByLayer
 62
  256
370
   -1
100
AcDbLine
 10
254.1801116597404
 20
114.0681278494586
 11
254.4270556597403
 21
112.3042478494586
  0
LINE
  5
35D
100
AcDbEntity
  8
superwide big buttons
  6
ByLayer
 62
  256
370
   -1
100
AcDbLine
 10
254.4270556597403
 20
112.3042478494586
 11
254.4271156597404
 21
110.5403498494586
  0
LINE
  5
35E
100
AcDbEntity
  8
superwide big buttons
  6
ByLayer
 62
  256
370
   -1
100
AcDbLine
 10
254.4271156597404
 20
110.5403498494586
 11
254.1801716597405
 21
108.8117398494586
  0
LINE
  5
35F
100
AcDbEntity
  8
superwide big buttons
  6
ByLayer
 62
  256
370
   -1
100
AcDbLine
 10
254.1801716597405
 20
108.8117398494586
 11
253.6510056597403
 21
107.1184098494586
  0
LINE
  5
360
100
AcDbEntity
  8
superwide big buttons
  6
ByLayer
 62
  256
370
   -1
100
AcDbLine
 10
253.6510056597403
 20
107.1184098494586
 11
252.9101736597404
 21
105.4956398494586
  0
LINE
  5
361
100
AcDbEntity
  8
superwide big buttons
  6
ByLayer
 62
  256
370
   -1
100
AcDbLine
 10
252.9101736597404
 20
105.4956398494586
 11
251.9223976597404
 21
104.0139798494586
  0
LINE
  5
362
100
AcDbEntity
  8
superwide big buttons
  6
ByLayer
 62
  256
370
   -1
100
AcDbLine
 10
251.9223976597404
 20
104.0139798494586
 11
250.7582376597404
 21
102.7087098494586
  0
LINE
  5
363
100
AcDbEntity
  8
superwide big buttons
  6
ByLayer
 62
  256
370
   -1
100
AcDbLine
 10
250.7582376597404
 20
102.7087098494586
 11
249.3824076597404
 21
101.5798198494586
  0
LINE
  5
364
100
AcDbEntity
  8
superwide big buttons
  6
ByLayer
 62
  256
370
   -1
100
AcDbLine
 10
249.3824076597404
 20
101.5798198494586
 11
247.9007476597405
 21
100.6625998494586
  0
LINE
  5
365
100
AcDbEntity
  8
superwide big buttons
  6
ByLayer
 62
  256
370
   -1
100
AcDbLine
 10
247.9007476597405
 20
100.6625998494586
 11
246.2426976597405
 21
99.95704584945862
  0
LINE
  5
366
100
AcDbEntity
  8
superwide big buttons
  6
ByLayer
 62
  256
370
   -1
100
AcDbLine
 10
246.2426976597405
 20
99.95704584945862
 11
244.5493676597404
 21
99.53371384945864
  0
LINE
  5
367
100
AcDbEntity
  8
superwide big buttons
  6
ByLayer
 62
  256
370
   -1
100
AcDbLine
 10
244.5493676597404
 20
99.53371384945864
 11
242.7854876597404
 21
99.32204784945863
  0
LINE
  5
368
100
AcDbEntity
  8
superwide big buttons
  6
ByLayer
 62
  256
370
   -1
100
AcDbLine
 10
242.7854876597404
 20
99.32204784945863
 11
241.0215976597404
 21
99.39260284945861
  0
LINE
  5
369
100
AcDbEntity
  8
superwide big buttons
  6
ByLayer
 62
  256
370
   -1
100
AcDbLine
 10
241.0215976597404
 20
99.39260284945861
 11
239.2929876597404
 21
99.71010184945861
  0
LINE
  5
36A
100
AcDbEntity
  8
superwide big buttons
  6
ByLayer
 62
  256
370
   -1
100
AcDbLine
 10
239.2929876597404
 20
99.71010184945861
 11
237.6349376597404
 21
100.2745448494586
  0
LINE
  5
36B
100
AcDbEntity
  8
superwide big buttons
  6
ByLayer
 62
  256
370
   -1
100
AcDbLine
 10
237.6349376597404
 20
100.2745448494586
 11
236.0474376597404
 21
101.0859318494586
  0
LINE
  5
36C
100
AcDbEntity
  8
superwide big buttons
  6
ByLayer
 62
  256
370
   -1
100
AcDbLine
 10
236.0474376597404
 20
101.0859318494586
 11
234.6010476597403
 21
102.1089818494586
  0
LINE
  5
36D
100
AcDbEntity
  8
superwide big buttons
  6
ByLayer
 62
  256
370
   -1
100
AcDbLine
 10
234.6010476597403
 20
102.1089818494586
 11
233.3310476597404
 21
103.3437018494586
  0
LINE
  5
36E
100
AcDbEntity
  8
superwide big buttons
  6
ByLayer
 62
  256
370
   -1
100
AcDbLine
 10
233.3310476597404
 20
103.3437018494586
 11
232.2727176597404
 21
104.7548118494586
  0
LINE
  5
36F
100
AcDbEntity
  8
superwide big buttons
  6
ByLayer
 62
  256
370
   -1
100
AcDbLine
 10
232.2727176597404
 20
104.7548118494586
 11
231.3907746597403
 21
106.3070318494586
  0
LINE
  5
370
100
AcDbEntity
  8
superwide big buttons
  6
ByLayer
 62
  256
370
   -1
100
AcDbLine
 10
231.3907746597403
 20
106.3070318494586
 11
230.7557756597404
 21
107.9298018494586
  0
LINE
  5
371
100
AcDbEntity
  8
superwide big buttons
  6
ByLayer
 62
  256
370
   -1
100
AcDbLine
 10
230.7557756597404
 20
107.9298018494586
 11
230.3677206597403
 21
109.6584118494586
  0
LINE
  5
372
100
AcDbEntity
  8
superwide big buttons
  6
ByLayer
 62
  256
370
   -1
100
AcDbLine
 10
230.3677206597403
 20
109.6584118494586
 11
230.2618876597404
 21
111.4222918494586
  0
LINE
  5
373
100
AcDbEntity
  8
superwide big buttons
  6
ByLayer
 62
  256
370
   -1
100
AcDbLine
 10
200.5965447622364
 20
111.4223048494586
 11
200.7023777622364
 21
113.1861848494586
  0
LINE
  5
374
100
AcDbEntity
  8
superwide big buttons
  6
ByLayer
 62
  256
370
   -1
100
AcDbLine
 10
200.7023777622364
 20
113.1861848494586
 11
201.0904327622364
 21
114.9147948494586
  0
LINE
  5
375
100
AcDbEntity
  8
superwide big buttons
  6
ByLayer
 62
  256
370
   -1
100
AcDbLine
 10
201.0904327622364
 20
114.9147948494586
 11
201.7254317622364
 21
116.5728448494586
  0
LINE
  5
376
100
AcDbEntity
  8
superwide big buttons
  6
ByLayer
 62
  256
370
   -1
100
AcDbLine
 10
201.7254317622364
 20
116.5728448494586
 11
202.6073747622364
 21
118.0897848494586
  0
LINE
  5
377
100
AcDbEntity
  8
superwide big buttons
  6
ByLayer
 62
  256
370
   -1
100
AcDbLine
 10
202.6073747622364
 20
118.0897848494586
 11
203.6657047622363
 21
119.5008948494586
  0
LINE
  5
378
100
AcDbEntity
  8
superwide big buttons
  6
ByLayer
 62
  256
370
   -1
100
AcDbLine
 10
203.6657047622363
 20
119.5008948494586
 11
204.9357047622364
 21
120.7356148494586
  0
LINE
  5
379
100
AcDbEntity
  8
superwide big buttons
  6
ByLayer
 62
  256
370
   -1
100
AcDbLine
 10
204.9357047622364
 20
120.7356148494586
 11
206.3820947622364
 21
121.7586648494586
  0
LINE
  5
37A
100
AcDbEntity
  8
superwide big buttons
  6
ByLayer
 62
  256
370
   -1
100
AcDbLine
 10
206.3820947622364
 20
121.7586648494586
 11
207.9695947622365
 21
122.5700518494586
  0
LINE
  5
37B
100
AcDbEntity
  8
superwide big buttons
  6
ByLayer
 62
  256
370
   -1
100
AcDbLine
 10
207.9695947622365
 20
122.5700518494586
 11
209.6276447622365
 21
123.1344948494586
  0
LINE
  5
37C
100
AcDbEntity
  8
superwide big buttons
  6
ByLayer
 62
  256
370
   -1
100
AcDbLine
 10
209.6276447622365
 20
123.1344948494586
 11
211.3562547622365
 21
123.4519938494586
  0
LINE
  5
37D
100
AcDbEntity
  8
superwide big buttons
  6
ByLayer
 62
  256
370
   -1
100
AcDbLine
 10
211.3562547622365
 20
123.4519938494586
 11
213.1201447622363
 21
123.5225498494586
  0
LINE
  5
37E
100
AcDbEntity
  8
superwide big buttons
  6
ByLayer
 62
  256
370
   -1
100
AcDbLine
 10
213.1201447622363
 20
123.5225498494586
 11
214.8840247622364
 21
123.3108838494586
  0
LINE
  5
37F
100
AcDbEntity
  8
superwide big buttons
  6
ByLayer
 62
  256
370
   -1
100
AcDbLine
 10
214.8840247622364
 20
123.3108838494586
 11
216.5773547622364
 21
122.8875518494586
  0
LINE
  5
380
100
AcDbEntity
  8
superwide big buttons
  6
ByLayer
 62
  256
370
   -1
100
AcDbLine
 10
216.5773547622364
 20
122.8875518494586
 11
218.2354047622364
 21
122.1819978494586
  0
LINE
  5
381
100
AcDbEntity
  8
superwide big buttons
  6
ByLayer
 62
  256
370
   -1
100
AcDbLine
 10
218.2354047622364
 20
122.1819978494586
 11
219.7170647622364
 21
121.2647778494586
  0
LINE
  5
382
100
AcDbEntity
  8
superwide big buttons
  6
ByLayer
 62
  256
370
   -1
100
AcDbLine
 10
219.7170647622364
 20
121.2647778494586
 11
221.0928947622363
 21
120.1358878494586
  0
LINE
  5
383
100
AcDbEntity
  8
superwide big buttons
  6
ByLayer
 62
  256
370
   -1
100
AcDbLine
 10
221.0928947622363
 20
120.1358878494586
 11
222.2570547622364
 21
118.8306178494586
  0
LINE
  5
384
100
AcDbEntity
  8
superwide big buttons
  6
ByLayer
 62
  256
370
   -1
100
AcDbLine
 10
222.2570547622364
 20
118.8306178494586
 11
223.2448307622365
 21
117.3489578494586
  0
LINE
  5
385
100
AcDbEntity
  8
superwide big buttons
  6
ByLayer
 62
  256
370
   -1
100
AcDbLine
 10
223.2448307622365
 20
117.3489578494586
 11
223.9856627622364
 21
115.7614578494586
  0
LINE
  5
386
100
AcDbEntity
  8
superwide big buttons
  6
ByLayer
 62
  256
370
   -1
100
AcDbLine
 10
223.9856627622364
 20
115.7614578494586
 11
224.5148287622364
 21
114.0681278494586
  0
LINE
  5
387
100
AcDbEntity
  8
superwide big buttons
  6
ByLayer
 62
  256
370
   -1
100
AcDbLine
 10
224.5148287622364
 20
114.0681278494586
 11
224.7617727622363
 21
112.3042478494586
  0
LINE
  5
388
100
AcDbEntity
  8
superwide big buttons
  6
ByLayer
 62
  256
370
   -1
100
AcDbLine
 10
224.7617727622363
 20
112.3042478494586
 11
224.7618327622365
 21
110.5403498494586
  0
LINE
  5
389
100
AcDbEntity
  8
superwide big buttons
  6
ByLayer
 62
  256
370
   -1
100
AcDbLine
 10
224.7618327622365
 20
110.5403498494586
 11
224.5148887622364
 21
108.8117398494586
  0
LINE
  5
38A
100
AcDbEntity
  8
superwide big buttons
  6
ByLayer
 62
  256
370
   -1
100
AcDbLine
 10
224.5148887622364
 20
108.8117398494586
 11
223.9857227622363
 21
107.1184098494586
  0
LINE
  5
38B
100
AcDbEntity
  8
superwide big buttons
  6
ByLayer
 62
  256
370
   -1
100
AcDbLine
 10
223.9857227622363
 20
107.1184098494586
 11
223.2448907622363
 21
105.4956398494586
  0
LINE
  5
38C
100
AcDbEntity
  8
superwide big buttons
  6
ByLayer
 62
  256
370
   -1
100
AcDbLine
 10
223.2448907622363
 20
105.4956398494586
 11
222.2571147622363
 21
104.0139798494586
  0
LINE
  5
38D
100
AcDbEntity
  8
superwide big buttons
  6
ByLayer
 62
  256
370
   -1
100
AcDbLine
 10
222.2571147622363
 20
104.0139798494586
 11
221.0929547622364
 21
102.7087098494586
  0
LINE
  5
38E
100
AcDbEntity
  8
superwide big buttons
  6
ByLayer
 62
  256
370
   -1
100
AcDbLine
 10
221.0929547622364
 20
102.7087098494586
 11
219.7171247622364
 21
101.5798198494586
  0
LINE
  5
38F
100
AcDbEntity
  8
superwide big buttons
  6
ByLayer
 62
  256
370
   -1
100
AcDbLine
 10
219.7171247622364
 20
101.5798198494586
 11
218.2354647622365
 21
100.6625998494586
  0
LINE
  5
390
100
AcDbEntity
  8
superwide big buttons
  6
ByLayer
 62
  256
370
   -1
100
AcDbLine
 10
218.2354647622365
 20
100.6625998494586
 11
216.5774147622365
 21
99.95704584945862
  0
LINE
  5
391
100
AcDbEntity
  8
superwide big buttons
  6
ByLayer
 62
  256
370
   -1
100
AcDbLine
 10
216.5774147622365
 20
99.95704584945862
 11
214.8840847622365
 21
99.53371384945864
  0
LINE
  5
392
100
AcDbEntity
  8
superwide big buttons
  6
ByLayer
 62
  256
370
   -1
100
AcDbLine
 10
214.8840847622365
 20
99.53371384945864
 11
213.1202047622363
 21
99.32204784945863
  0
LINE
  5
393
100
AcDbEntity
  8
superwide big buttons
  6
ByLayer
 62
  256
370
   -1
100
AcDbLine
 10
213.1202047622363
 20
99.32204784945863
 11
211.3563147622363
 21
99.39260284945861
  0
LINE
  5
394
100
AcDbEntity
  8
superwide big buttons
  6
ByLayer
 62
  256
370
   -1
100
AcDbLine
 10
211.3563147622363
 20
99.39260284945861
 11
209.6277047622364
 21
99.71010184945861
  0
LINE
  5
395
100
AcDbEntity
  8
superwide big buttons
  6
ByLayer
 62
  256
370
   -1
100
AcDbLine
 10
209.6277047622364
 20
99.71010184945861
 11
207.9696547622364
 21
100.2745448494586
  0
LINE
  5
396
100
AcDbEntity
  8
superwide big buttons
  6
ByLayer
 62
  256
370
   -1
100
AcDbLine
 10
207.9696547622364
 20
100.2745448494586
 11
206.3821547622364
 21
101.0859318494586
  0
LINE
  5
397
100
AcDbEntity
  8
superwide big buttons
  6
ByLayer
 62
  256
370
   -1
100
AcDbLine
 10
206.3821547622364
 20
101.0859318494586
 11
204.9357647622363
 21
102.1089818494586
  0
LINE
  5
398
100
AcDbEntity
  8
superwide big buttons
  6
ByLayer
 62
  256
370
   -1
100
AcDbLine
 10
204.9357647622363
 20
102.1089818494586
 11
203.6657647622364
 21
103.3437018494586
  0
LINE
  5
399
100
AcDbEntity
  8
superwide big buttons
  6
ByLayer
 62
  256
370
   -1
100
AcDbLine
 10
203.6657647622364
 20
103.3437018494586
 11
202.6074347622364
 21
104.7548118494586
  0
LINE
  5
39A
100
AcDbEntity
  8
superwide big buttons
  6
ByLayer
 62
  256
370
   -1
100
AcDbLine
 10
202.6074347622364
 20
104.7548118494586
 11
201.7254917622365
 21
106.3070318494586
  0
LINE
  5
39B
100
AcDbEntity
  8
superwide big buttons
  6
ByLayer
 62
  256
370
   -1
100
AcDbLine
 10
201.7254917622365
 20
106.3070318494586
 11
201.0904927622364
 21
107.9298018494586
  0
LINE
  5
39C
100
AcDbEntity
  8
superwide big buttons
  6
ByLayer
 62
  256
370
   -1
100
AcDbLine
 10
201.0904927622364
 20
107.9298018494586
 11
200.7024377622364
 21
109.6584118494586
  0
LINE
  5
39D
100
AcDbEntity
  8
superwide big buttons
  6
ByLayer
 62
  256
370
   -1
100
AcDbLine
 10
200.7024377622364
 20
109.6584118494586
 11
200.5966047622364
 21
111.4222918494586
  0
LINE
  5
39E
100
AcDbEntity
  8
superwide big buttons
  6
ByLayer
 62
  256
370
   -1
100
AcDbLine
 10
171.5313286479975
 20
111.4223048494586
 11
171.6371616479975
 21
113.1861848494586
  0
LINE
  5
39F
100
AcDbEntity
  8
superwide big buttons
  6
ByLayer
 62
  256
370
   -1
100
AcDbLine
 10
171.6371616479975
 20
113.1861848494586
 11
172.0252166479975
 21
114.9147948494586
  0
LINE
  5
3A0
100
AcDbEntity
  8
superwide big buttons
  6
ByLayer
 62
  256
370
   -1
100
AcDbLine
 10
172.0252166479975
 20
114.9147948494586
 11
172.6602156479975
 21
116.5728448494586
  0
LINE
  5
3A1
100
AcDbEntity
  8
superwide big buttons
  6
ByLayer
 62
  256
370
   -1
100
AcDbLine
 10
172.6602156479975
 20
116.5728448494586
 11
173.5421586479975
 21
118.0897848494586
  0
LINE
  5
3A2
100
AcDbEntity
  8
superwide big buttons
  6
ByLayer
 62
  256
370
   -1
100
AcDbLine
 10
173.5421586479975
 20
118.0897848494586
 11
174.6004886479975
 21
119.5008948494586
  0
LINE
  5
3A3
100
AcDbEntity
  8
superwide big buttons
  6
ByLayer
 62
  256
370
   -1
100
AcDbLine
 10
174.6004886479975
 20
119.5008948494586
 11
175.8704886479975
 21
120.7356148494586
  0
LINE
  5
3A4
100
AcDbEntity
  8
superwide big buttons
  6
ByLayer
 62
  256
370
   -1
100
AcDbLine
 10
175.8704886479975
 20
120.7356148494586
 11
177.3168786479975
 21
121.7586648494586
  0
LINE
  5
3A5
100
AcDbEntity
  8
superwide big buttons
  6
ByLayer
 62
  256
370
   -1
100
AcDbLine
 10
177.3168786479975
 20
121.7586648494586
 11
178.9043786479975
 21
122.5700518494586
  0
LINE
  5
3A6
100
AcDbEntity
  8
superwide big buttons
  6
ByLayer
 62
  256
370
   -1
100
AcDbLine
 10
178.9043786479975
 20
122.5700518494586
 11
180.5624286479975
 21
123.1344948494586
  0
LINE
  5
3A7
100
AcDbEntity
  8
superwide big buttons
  6
ByLayer
 62
  256
370
   -1
100
AcDbLine
 10
180.5624286479975
 20
123.1344948494586
 11
182.2910386479975
 21
123.4519938494586
  0
LINE
  5
3A8
100
AcDbEntity
  8
superwide big buttons
  6
ByLayer
 62
  256
370
   -1
100
AcDbLine
 10
182.2910386479975
 20
123.4519938494586
 11
184.0549286479974
 21
123.5225498494586
  0
LINE
  5
3A9
100
AcDbEntity
  8
superwide big buttons
  6
ByLayer
 62
  256
370
   -1
100
AcDbLine
 10
184.0549286479974
 20
123.5225498494586
 11
185.8188086479975
 21
123.3108838494586
  0
LINE
  5
3AA
100
AcDbEntity
  8
superwide big buttons
  6
ByLayer
 62
  256
370
   -1
100
AcDbLine
 10
185.8188086479975
 20
123.3108838494586
 11
187.5121386479975
 21
122.8875518494586
  0
LINE
  5
3AB
100
AcDbEntity
  8
superwide big buttons
  6
ByLayer
 62
  256
370
   -1
100
AcDbLine
 10
187.5121386479975
 20
122.8875518494586
 11
189.1701886479975
 21
122.1819978494586
  0
LINE
  5
3AC
100
AcDbEntity
  8
superwide big buttons
  6
ByLayer
 62
  256
370
   -1
100
AcDbLine
 10
189.1701886479975
 20
122.1819978494586
 11
190.6518486479975
 21
121.2647778494586
  0
LINE
  5
3AD
100
AcDbEntity
  8
superwide big buttons
  6
ByLayer
 62
  256
370
   -1
100
AcDbLine
 10
190.6518486479975
 20
121.2647778494586
 11
192.0276786479975
 21
120.1358878494586
  0
LINE
  5
3AE
100
AcDbEntity
  8
superwide big buttons
  6
ByLayer
 62
  256
370
   -1
100
AcDbLine
 10
192.0276786479975
 20
120.1358878494586
 11
193.1918386479976
 21
118.8306178494586
  0
LINE
  5
3AF
100
AcDbEntity
  8
superwide big buttons
  6
ByLayer
 62
  256
370
   -1
100
AcDbLine
 10
193.1918386479976
 20
118.8306178494586
 11
194.1796146479976
 21
117.3489578494586
  0
LINE
  5
3B0
100
AcDbEntity
  8
superwide big buttons
  6
ByLayer
 62
  256
370
   -1
100
AcDbLine
 10
194.1796146479976
 20
117.3489578494586
 11
194.9204466479976
 21
115.7614578494586
  0
LINE
  5
3B1
100
AcDbEntity
  8
superwide big buttons
  6
ByLayer
 62
  256
370
   -1
100
AcDbLine
 10
194.9204466479976
 20
115.7614578494586
 11
195.4496126479975
 21
114.0681278494586
  0
LINE
  5
3B2
100
AcDbEntity
  8
superwide big buttons
  6
ByLayer
 62
  256
370
   -1
100
AcDbLine
 10
195.4496126479975
 20
114.0681278494586
 11
195.6965566479975
 21
112.3042478494586
  0
LINE
  5
3B3
100
AcDbEntity
  8
superwide big buttons
  6
ByLayer
 62
  256
370
   -1
100
AcDbLine
 10
195.6965566479975
 20
112.3042478494586
 11
195.6966166479975
 21
110.5403498494586
  0
LINE
  5
3B4
100
AcDbEntity
  8
superwide big buttons
  6
ByLayer
 62
  256
370
   -1
100
AcDbLine
 10
195.6966166479975
 20
110.5403498494586
 11
195.4496726479976
 21
108.8117398494586
  0
LINE
  5
3B5
100
AcDbEntity
  8
superwide big buttons
  6
ByLayer
 62
  256
370
   -1
100
AcDbLine
 10
195.4496726479976
 20
108.8117398494586
 11
194.9205066479975
 21
107.1184098494586
  0
LINE
  5
3B6
100
AcDbEntity
  8
superwide big buttons
  6
ByLayer
 62
  256
370
   -1
100
AcDbLine
 10
194.9205066479975
 20
107.1184098494586
 11
194.1796746479975
 21
105.4956398494586
  0
LINE
  5
3B7
100
AcDbEntity
  8
superwide big buttons
  6
ByLayer
 62
  256
370
   -1
100
AcDbLine
 10
194.1796746479975
 20
105.4956398494586
 11
193.1918986479975
 21
104.0139798494586
  0
LINE
  5
3B8
100
AcDbEntity
  8
superwide big buttons
  6
ByLayer
 62
  256
370
   -1
100
AcDbLine
 10
193.1918986479975
 20
104.0139798494586
 11
192.0277386479975
 21
102.7087098494586
  0
LINE
  5
3B9
100
AcDbEntity
  8
superwide big buttons
  6
ByLayer
 62
  256
370
   -1
100
AcDbLine
 10
192.0277386479975
 20
102.7087098494586
 11
190.6519086479975
 21
101.5798198494586
  0
LINE
  5
3BA
100
AcDbEntity
  8
superwide big buttons
  6
ByLayer
 62
  256
370
   -1
100
AcDbLine
 10
190.6519086479975
 20
101.5798198494586
 11
189.1702486479976
 21
100.6625998494586
  0
LINE
  5
3BB
100
AcDbEntity
  8
superwide big buttons
  6
ByLayer
 62
  256
370
   -1
100
AcDbLine
 10
189.1702486479976
 20
100.6625998494586
 11
187.5121986479976
 21
99.95704584945862
  0
LINE
  5
3BC
100
AcDbEntity
  8
superwide big buttons
  6
ByLayer
 62
  256
370
   -1
100
AcDbLine
 10
187.5121986479976
 20
99.95704584945862
 11
185.8188686479975
 21
99.53371384945864
  0
LINE
  5
3BD
100
AcDbEntity
  8
superwide big buttons
  6
ByLayer
 62
  256
370
   -1
100
AcDbLine
 10
185.8188686479975
 20
99.53371384945864
 11
184.0549886479975
 21
99.32204784945863
  0
LINE
  5
3BE
100
AcDbEntity
  8
superwide big buttons
  6
ByLayer
 62
  256
370
   -1
100
AcDbLine
 10
184.0549886479975
 20
99.32204784945863
 11
182.2910986479975
 21
99.39260284945861
  0
LINE
  5
3BF
100
AcDbEntity
  8
superwide big buttons
  6
ByLayer
 62
  256
370
   -1
100
AcDbLine
 10
182.2910986479975
 20
99.39260284945861
 11
180.5624886479975
 21
99.71010184945861
  0
LINE
  5
3C0
100
AcDbEntity
  8
superwide big buttons
  6
ByLayer
 62
  256
370
   -1
100
AcDbLine
 10
180.5624886479975
 20
99.71010184945861
 11
178.9044386479975
 21
100.2745448494586
  0
LINE
  5
3C1
100
AcDbEntity
  8
superwide big buttons
  6
ByLayer
 62
  256
370
   -1
100
AcDbLine
 10
178.9044386479975
 20
100.2745448494586
 11
177.3169386479975
 21
101.0859318494586
  0
LINE
  5
3C2
100
AcDbEntity
  8
superwide big buttons
  6
ByLayer
 62
  256
370
   -1
100
AcDbLine
 10
177.3169386479975
 20
101.0859318494586
 11
175.8705486479975
 21
102.1089818494586
  0
LINE
  5
3C3
100
AcDbEntity
  8
superwide big buttons
  6
ByLayer
 62
  256
370
   -1
100
AcDbLine
 10
175.8705486479975
 20
102.1089818494586
 11
174.6005486479975
 21
103.3437018494586
  0
LINE
  5
3C4
100
AcDbEntity
  8
superwide big buttons
  6
ByLayer
 62
  256
370
   -1
100
AcDbLine
 10
174.6005486479975
 20
103.3437018494586
 11
173.5422186479975
 21
104.7548118494586
  0
LINE
  5
3C5
100
AcDbEntity
  8
superwide big buttons
  6
ByLayer
 62
  256
370
   -1
100
AcDbLine
 10
173.5422186479975
 20
104.7548118494586
 11
172.6602756479975
 21
106.3070318494586
  0
LINE
  5
3C6
100
AcDbEntity
  8
superwide big buttons
  6
ByLayer
 62
  256
370
   -1
100
AcDbLine
 10
172.6602756479975
 20
106.3070318494586
 11
172.0252766479975
 21
107.9298018494586
  0
LINE
  5
3C7
100
AcDbEntity
  8
superwide big buttons
  6
ByLayer
 62
  256
370
   -1
100
AcDbLine
 10
172.0252766479975
 20
107.9298018494586
 11
171.6372216479974
 21
109.6584118494586
  0
LINE
  5
3C8
100
AcDbEntity
  8
superwide big buttons
  6
ByLayer
 62
  256
370
   -1
100
AcDbLine
 10
171.6372216479974
 20
109.6584118494586
 11
171.5313886479975
 21
111.4222918494586
  0
ENDSEC
  0
SECTION
  2
OBJECTS
  0
DICTIONARY
  5
C
330
0
100
AcDbDictionary
281
    1
  3
ACAD_GROUP
350
D
  0
DICTIONARY
  5
D
330
C
100
AcDbDictionary
281
    1
  0
PLOTSETTINGS
  5
3C9
100
AcDbPlotSettings
  6
1x1
 40
0
 41
0
 42
0
 43
0
  0
ENDSEC
  0
EOF
