999
dxfrw 0.6.3
  0
SECTION
  2
HEADER
  9
$ACADVER
  1
AC1021
  9
$DWGCODEPAGE
  3
ANSI_1252
  9
$INSBASE
 10
0
 20
0
 30
0
  9
$EXTMIN
 10
-822.8866807226086
 20
220.8061446199398
 30
0
  9
$EXTMAX
 10
-473.6764210243004
 20
440.5215539622631
 30
0
  9
$LIMMIN
 10
0
 20
0
  9
$LIMMAX
 10
420
 20
297
  9
$ORTHOMODE
 70
    0
  9
$REGENMODE
 70
    1
  9
$FILLMODE
 70
    1
  9
$QTEXTMODE
 70
    0
  9
$MIRRTEXT
 70
    0
  9
$LTSCALE
 40
1
  9
$ATTMODE
 70
    0
  9
$TEXTSIZE
 40
2.5
  9
$TRACEWID
 40
15.68
  9
$TEXTSTYLE
  7
STANDARD
  9
$CLAYER
  8
0
  9
$CELTYPE
  6
BYLAYER
  9
$CECOLOR
 62
  256
  9
$CELTSCALE
 40
1
  9
$DISPSILH
 70
    0
  9
$DIMSCALE
 40
2.5
  9
$DIMASZ
 40
2.5
  9
$DIMEXO
 40
0.625
  9
$DIMDLI
 40
3.75
  9
$DIMRND
 40
0
  9
$DIMDLE
 40
0
  9
$DIMEXE
 40
1.25
  9
$DIMTP
 40
0
  9
$DIMTM
 40
0
  9
$DIMTXT
 40
2.5
  9
$DIMCEN
 40
2.5
  9
$DIMTSZ
 40
0
  9
$DIMTOL
 70
    0
  9
$DIMLIM
 70
    0
  9
$DIMTIH
 70
    0
  9
$DIMTOH
 70
    0
  9
$DIMSE1
 70
    0
  9
$DIMSE2
 70
    0
  9
$DIMTAD
 70
    1
  9
$DIMZIN
 70
    8
  9
$DIMBLK
  1

  9
$DIMASO
 70
    1
  9
$DIMSHO
 70
    1
  9
$DIMPOST
  1

  9
$DIMAPOST
  1

  9
$DIMALT
 70
    0
  9
$DIMALTD
 70
    3
  9
$DIMALTF
 40
0.03937
  9
$DIMLFAC
 40
1
  9
$DIMTOFL
 70
    1
  9
$DIMTVP
 40
0
  9
$DIMTIX
 70
    0
  9
$DIMSOXD
 70
    0
  9
$DIMSAH
 70
    0
  9
$DIMBLK1
  1

  9
$DIMBLK2
  1

  9
$DIMSTYLE
  2
STANDARD
  9
$DIMCLRD
 70
    0
  9
$DIMCLRE
 70
    0
  9
$DIMCLRT
 70
    0
  9
$DIMTFAC
 40
1
  9
$DIMGAP
 40
0.625
  9
$DIMJUST
 70
    0
  9
$DIMSD1
 70
    0
  9
$DIMSD2
 70
    0
  9
$DIMTOLJ
 70
    0
  9
$DIMTZIN
 70
    8
  9
$DIMALTZ
 70
    0
  9
$DIMALTTZ
 70
    0
  9
$DIMUPT
 70
    0
  9
$DIMDEC
 70
    2
  9
$DIMTDEC
 70
    2
  9
$DIMALTU
 70
    2
  9
$DIMALTTD
 70
    3
  9
$DIMTXSTY
  7
STANDARD
  9
$DIMAUNIT
 70
    0
  9
$DIMADEC
 70
    0
  9
$DIMALTRND
 40
0
  9
$DIMAZIN
 70
    0
  9
$DIMDSEP
 70
   44
  9
$DIMATFIT
 70
    3
  9
$DIMFRAC
 70
    0
  9
$DIMLDRBLK
  1
STANDARD
  9
$DIMLUNIT
 70
    2
  9
$DIMLWD
 70
   -2
  9
$DIMLWE
 70
   -2
  9
$DIMTMOVE
 70
    0
  9
$DIMFXL
 40
1
  9
$DIMFXLON
 70
    0
  9
$DIMJOGANG
 40
0.7854
  9
$DIMTFILL
 70
    0
  9
$DIMTFILLCLR
 70
    0
  9
$DIMARCSYM
 70
    0
  9
$DIMLTYPE
  6

  9
$DIMLTEX1
  6

  9
$DIMLTEX2
  6

  9
$LUNITS
 70
    2
  9
$LUPREC
 70
    4
  9
$SKETCHINC
 40
1
  9
$FILLETRAD
 40
0
  9
$AUNITS
 70
    0
  9
$AUPREC
 70
    2
  9
$MENU
  1
.
  9
$ELEVATION
 40
0
  9
$PELEVATION
 40
0
  9
$THICKNESS
 40
0
  9
$LIMCHECK
 70
    0
  9
$CHAMFERA
 40
0
  9
$CHAMFERB
 40
0
  9
$CHAMFERC
 40
0
  9
$CHAMFERD
 40
0
  9
$SKPOLY
 70
    0
  9
$USRTIMER
 70
    1
  9
$ANGBASE
 50
0
  9
$ANGDIR
 70
    0
  9
$PDMODE
 70
   34
  9
$PDSIZE
 40
0
  9
$PLINEWID
 40
0
  9
$SPLFRAME
 70
    0
  9
$SPLINETYPE
 70
    2
  9
$SPLINESEGS
 70
    8
  9
$HANDSEED
  5
20000
  9
$SURFTAB1
 70
    6
  9
$SURFTAB2
 70
    6
  9
$SURFTYPE
 70
    6
  9
$SURFU
 70
    6
  9
$SURFV
 70
    6
  9
$UCSBASE
  2

  9
$UCSNAME
  2

  9
$UCSORG
 10
0
 20
0
 30
0
  9
$UCSXDIR
 10
1
 20
0
 30
0
  9
$UCSYDIR
 10
0
 20
1
 30
0
  9
$UCSORTHOREF
  2

  9
$UCSORTHOVIEW
 70
    0
  9
$UCSORGTOP
 10
0
 20
0
 30
0
  9
$UCSORGBOTTOM
 10
0
 20
0
 30
0
  9
$UCSORGLEFT
 10
0
 20
0
 30
0
  9
$UCSORGRIGHT
 10
0
 20
0
 30
0
  9
$UCSORGFRONT
 10
0
 20
0
 30
0
  9
$UCSORGBACK
 10
0
 20
0
 30
0
  9
$PUCSBASE
  2

  9
$PUCSNAME
  2

  9
$PUCSORG
 10
0
 20
0
 30
0
  9
$PUCSXDIR
 10
1
 20
0
 30
0
  9
$PUCSYDIR
 10
0
 20
1
 30
0
  9
$PUCSORTHOREF
  2

  9
$PUCSORTHOVIEW
 70
    0
  9
$PUCSORGTOP
 10
0
 20
0
 30
0
  9
$PUCSORGBOTTOM
 10
0
 20
0
 30
0
  9
$PUCSORGLEFT
 10
0
 20
0
 30
0
  9
$PUCSORGRIGHT
 10
0
 20
0
 30
0
  9
$PUCSORGFRONT
 10
0
 20
0
 30
0
  9
$PUCSORGBACK
 10
0
 20
0
 30
0
  9
$USERI1
 70
    0
  9
$USERI2
 70
    0
  9
$USERI3
 70
    0
  9
$USERI4
 70
    0
  9
$USERI5
 70
    0
  9
$USERR1
 40
0
  9
$USERR2
 40
0
  9
$USERR3
 40
0
  9
$USERR4
 40
0
  9
$USERR5
 40
0
  9
$WORLDVIEW
 70
    1
  9
$SHADEDGE
 70
    3
  9
$SHADEDIF
 70
   70
  9
$TILEMODE
 70
    1
  9
$MAXACTVP
 70
   64
  9
$PINSBASE
 10
0
 20
0
 30
0
  9
$PLIMCHECK
 70
    0
  9
$PEXTMIN
 10
0
 20
0
 30
0
  9
$PEXTMAX
 10
0
 20
0
 30
0
  9
$SNAPSTYLE
 70
    0
  9
$PLIMMIN
 10
0
 20
0
  9
$PLIMMAX
 10
210
 20
297
  9
$UNITMODE
 70
    0
  9
$VISRETAIN
 70
    1
  9
$PLINEGEN
 70
    0
  9
$PSLTSCALE
 70
    1
  9
$TREEDEPTH
 70
 3020
  9
$CMLSTYLE
  2
Standard
  9
$CMLJUST
 70
    0
  9
$CMLSCALE
 40
20
  9
$PROXYGRAPHICS
 70
    1
  9
$MEASUREMENT
 70
    1
  9
$CELWEIGHT
370
   -1
  9
$ENDCAPS
280
    0
  9
$JOINSTYLE
280
    0
  9
$LWDISPLAY
290
    0
  9
$INSUNITS
 70
    4
  9
$HYPERLINKBASE
  1

  9
$STYLESHEET
  1

  9
$XEDIT
290
    1
  9
$CEPSNTYPE
380
    0
  9
$PSTYLEMODE
290
    1
  9
$EXTNAMES
290
    1
  9
$PSVPSCALE
 40
1
  9
$OLESTARTUP
290
    0
  9
$SORTENTS
280
  127
  9
$INDEXCTL
280
    0
  9
$HIDETEXT
280
    1
  9
$XCLIPFRAME
290
    0
  9
$HALOGAP
280
    0
  9
$OBSCOLOR
 70
  257
  9
$OBSLTYPE
280
    0
  9
$INTERSECTIONDISPLAY
280
    0
  9
$INTERSECTIONCOLOR
 70
  257
  9
$DIMASSOC
280
    1
  9
$PROJECTNAME
  1

  9
$CAMERADISPLAY
290
    0
  9
$LENSLENGTH
 40
50
  9
$CAMERAHEIGHT
 40
0
  9
$STEPSPERSEC
 40
2
  9
$STEPSIZE
 40
50
  9
$3DDWFPREC
 40
2
  9
$PSOLWIDTH
 40
5
  9
$PSOLHEIGHT
 40
80
  9
$LOFTANG1
 40
1.570796326794897
  9
$LOFTANG2
 40
1.570796326794897
  9
$LOFTMAG1
 40
0
  9
$LOFTMAG2
 40
0
  9
$LOFTPARAM
 70
    7
  9
$LOFTNORMALS
280
    1
  9
$LATITUDE
 40
1
  9
$LONGITUDE
 40
1
  9
$NORTHDIRECTION
 40
0
  9
$TIMEZONE
 70
-8000
  9
$LIGHTGLYPHDISPLAY
280
    1
  9
$TILEMODELIGHTSYNCH
280
    1
  9
$SOLIDHIST
280
    1
  9
$SHOWHIST
280
    1
  9
$DWFFRAME
280
    2
  9
$DGNFRAME
280
    0
  9
$REALWORLDSCALE
290
    1
  9
$INTERFERECOLOR
 62
    1
  9
$CSHADOW
280
    0
  9
$SHADOWPLANELOCATION
 40
0
  0
ENDSEC
  0
SECTION
  2
CLASSES
  0
ENDSEC
  0
SECTION
  2
TABLES
  0
TABLE
  2
VPORT
  5
8
330
0
100
AcDbSymbolTable
 70
    1
  0
VPORT
  5
31
330
2
100
AcDbSymbolTableRecord
100
AcDbViewportTableRecord
  2
*ACTIVE
 70
    0
 10
0
 20
0
 11
1
 21
1
 12
92.16033867367956
 22
326.3616116949374
 13
0
 23
0
 14
10
 24
10
 15
10
 25
10
 16
0
 26
0
 36
1
 17
0
 27
0
 37
0
 40
556.2874050870039
 41
1.900939368061486
 42
50
 43
0
 44
0
 50
0
 51
0
 71
    0
 72
  100
 73
    1
 74
    3
 75
    0
 76
    1
 77
    0
 78
    0
281
    0
 65
    1
110
0
120
0
130
0
111
1
121
0
131
0
112
0
122
1
132
0
 79
    0
146
0
348
10020
 60
    7
 61
    5
292
1
282
    1
141
0
142
0
 63
  250
421
3358443
  0
ENDTAB
  0
TABLE
  2
LTYPE
  5
5
330
0
100
AcDbSymbolTable
 70
    4
  0
LTYPE
  5
14
330
5
100
AcDbSymbolTableRecord
100
AcDbLinetypeTableRecord
  2
ByBlock
 70
    0
  3

 72
   65
 73
    0
 40
0
  0
LTYPE
  5
15
330
5
100
AcDbSymbolTableRecord
100
AcDbLinetypeTableRecord
  2
ByLayer
 70
    0
  3

 72
   65
 73
    0
 40
0
  0
LTYPE
  5
16
330
5
100
AcDbSymbolTableRecord
100
AcDbLinetypeTableRecord
  2
Continuous
 70
    0
  3
Solid line
 72
   65
 73
    0
 40
0
  0
LTYPE
  5
32
330
5
100
AcDbSymbolTableRecord
100
AcDbLinetypeTableRecord
  2
DOT
 70
    0
  3
Dot . . . . . . . . . . . . . . . . . . . . . .
 72
   65
 73
    2
 40
6.35
 49
0
 74
    0
 49
-6.35
 74
    0
  0
LTYPE
  5
33
330
5
100
AcDbSymbolTableRecord
100
AcDbLinetypeTableRecord
  2
DOTTINY
 70
    0
  3
Dot (.15x) .....................................
 72
   65
 73
    2
 40
0.9525
 49
0
 74
    0
 49
-0.9525
 74
    0
  0
LTYPE
  5
34
330
5
100
AcDbSymbolTableRecord
100
AcDbLinetypeTableRecord
  2
DOT2
 70
    0
  3
Dot (.5x) .....................................
 72
   65
 73
    2
 40
3.175
 49
0
 74
    0
 49
-3.175
 74
    0
  0
LTYPE
  5
35
330
5
100
AcDbSymbolTableRecord
100
AcDbLinetypeTableRecord
  2
DOTX2
 70
    0
  3
Dot (2x) .  .  .  .  .  .  .  .  .  .  .  .  .
 72
   65
 73
    2
 40
12.7
 49
0
 74
    0
 49
-12.7
 74
    0
  0
LTYPE
  5
36
330
5
100
AcDbSymbolTableRecord
100
AcDbLinetypeTableRecord
  2
DASHED
 70
    0
  3
Dashed _ _ _ _ _ _ _ _ _ _ _ _ _ _ _ _ _
 72
   65
 73
    2
 40
19.05
 49
12.7
 74
    0
 49
-6.35
 74
    0
  0
LTYPE
  5
37
330
5
100
AcDbSymbolTableRecord
100
AcDbLinetypeTableRecord
  2
DASHEDTINY
 70
    0
  3
Dashed (.15x) _ _ _ _ _ _ _ _ _ _ _ _ _ _ _ _ _
 72
   65
 73
    2
 40
2.8575
 49
1.905
 74
    0
 49
-0.9525
 74
    0
  0
LTYPE
  5
38
330
5
100
AcDbSymbolTableRecord
100
AcDbLinetypeTableRecord
  2
DASHED2
 70
    0
  3
Dashed (.5x) _ _ _ _ _ _ _ _ _ _ _ _ _ _ _ _ _
 72
   65
 73
    2
 40
9.524999999999999
 49
6.35
 74
    0
 49
-3.175
 74
    0
  0
LTYPE
  5
39
330
5
100
AcDbSymbolTableRecord
100
AcDbLinetypeTableRecord
  2
DASHEDX2
 70
    0
  3
Dashed (2x) ____  ____  ____  ____  ____  ___
 72
   65
 73
    2
 40
38.09999999999999
 49
25.4
 74
    0
 49
-12.7
 74
    0
  0
LTYPE
  5
3A
330
5
100
AcDbSymbolTableRecord
100
AcDbLinetypeTableRecord
  2
DASHDOT
 70
    0
  3
Dash dot __ . __ . __ . __ . __ . __ . __ . __
 72
   65
 73
    4
 40
25.4
 49
12.7
 74
    0
 49
-6.35
 74
    0
 49
0
 74
    0
 49
-6.35
 74
    0
  0
LTYPE
  5
3B
330
5
100
AcDbSymbolTableRecord
100
AcDbLinetypeTableRecord
  2
DASHDOTTINY
 70
    0
  3
Dash dot (.15x) _._._._._._._._._._._._._._._.
 72
   65
 73
    4
 40
3.81
 49
1.905
 74
    0
 49
-0.9525
 74
    0
 49
0
 74
    0
 49
-0.9525
 74
    0
  0
LTYPE
  5
3C
330
5
100
AcDbSymbolTableRecord
100
AcDbLinetypeTableRecord
  2
DASHDOT2
 70
    0
  3
Dash dot (.5x) _._._._._._._._._._._._._._._.
 72
   65
 73
    4
 40
12.7
 49
6.35
 74
    0
 49
-3.175
 74
    0
 49
0
 74
    0
 49
-3.175
 74
    0
  0
LTYPE
  5
3D
330
5
100
AcDbSymbolTableRecord
100
AcDbLinetypeTableRecord
  2
DASHDOTX2
 70
    0
  3
Dash dot (2x) ____  .  ____  .  ____  .  ___
 72
   65
 73
    4
 40
50.8
 49
25.4
 74
    0
 49
-12.7
 74
    0
 49
0
 74
    0
 49
-12.7
 74
    0
  0
LTYPE
  5
3E
330
5
100
AcDbSymbolTableRecord
100
AcDbLinetypeTableRecord
  2
DIVIDE
 70
    0
  3
Divide ____ . . ____ . . ____ . . ____ . . ____
 72
   65
 73
    6
 40
31.75
 49
12.7
 74
    0
 49
-6.35
 74
    0
 49
0
 74
    0
 49
-6.35
 74
    0
 49
0
 74
    0
 49
-6.35
 74
    0
  0
LTYPE
  5
3F
330
5
100
AcDbSymbolTableRecord
100
AcDbLinetypeTableRecord
  2
DIVIDETINY
 70
    0
  3
Divide (.15x) __..__..__..__..__..__..__..__.._
 72
   65
 73
    6
 40
4.7625
 49
1.905
 74
    0
 49
-0.9525
 74
    0
 49
0
 74
    0
 49
-0.9525
 74
    0
 49
0
 74
    0
 49
-0.9525
 74
    0
  0
LTYPE
  5
40
330
5
100
AcDbSymbolTableRecord
100
AcDbLinetypeTableRecord
  2
DIVIDE2
 70
    0
  3
Divide (.5x) __..__..__..__..__..__..__..__.._
 72
   65
 73
    6
 40
15.875
 49
6.35
 74
    0
 49
-3.175
 74
    0
 49
0
 74
    0
 49
-3.175
 74
    0
 49
0
 74
    0
 49
-3.175
 74
    0
  0
LTYPE
  5
41
330
5
100
AcDbSymbolTableRecord
100
AcDbLinetypeTableRecord
  2
DIVIDEX2
 70
    0
  3
Divide (2x) ________  .  .  ________  .  .  _
 72
   65
 73
    6
 40
63.5
 49
25.4
 74
    0
 49
-12.7
 74
    0
 49
0
 74
    0
 49
-12.7
 74
    0
 49
0
 74
    0
 49
-12.7
 74
    0
  0
LTYPE
  5
42
330
5
100
AcDbSymbolTableRecord
100
AcDbLinetypeTableRecord
  2
BORDER
 70
    0
  3
Border __ __ . __ __ . __ __ . __ __ . __ __ .
 72
   65
 73
    6
 40
44.45
 49
12.7
 74
    0
 49
-6.35
 74
    0
 49
12.7
 74
    0
 49
-6.35
 74
    0
 49
0
 74
    0
 49
-6.35
 74
    0
  0
LTYPE
  5
43
330
5
100
AcDbSymbolTableRecord
100
AcDbLinetypeTableRecord
  2
BORDERTINY
 70
    0
  3
Border (.15x) __.__.__.__.__.__.__.__.__.__.__.
 72
   65
 73
    6
 40
6.6675
 49
1.905
 74
    0
 49
-0.9525
 74
    0
 49
1.905
 74
    0
 49
-0.9525
 74
    0
 49
0
 74
    0
 49
-0.9525
 74
    0
  0
LTYPE
  5
44
330
5
100
AcDbSymbolTableRecord
100
AcDbLinetypeTableRecord
  2
BORDER2
 70
    0
  3
Border (.5x) __.__.__.__.__.__.__.__.__.__.__.
 72
   65
 73
    6
 40
22.225
 49
6.35
 74
    0
 49
-3.175
 74
    0
 49
6.35
 74
    0
 49
-3.175
 74
    0
 49
0
 74
    0
 49
-3.175
 74
    0
  0
LTYPE
  5
45
330
5
100
AcDbSymbolTableRecord
100
AcDbLinetypeTableRecord
  2
BORDERX2
 70
    0
  3
Border (2x) ____  ____  .  ____  ____  .  ___
 72
   65
 73
    6
 40
88.89999999999999
 49
25.4
 74
    0
 49
-12.7
 74
    0
 49
25.4
 74
    0
 49
-12.7
 74
    0
 49
0
 74
    0
 49
-12.7
 74
    0
  0
LTYPE
  5
46
330
5
100
AcDbSymbolTableRecord
100
AcDbLinetypeTableRecord
  2
CENTER
 70
    0
  3
Center ____ _ ____ _ ____ _ ____ _ ____ _ ____
 72
   65
 73
    4
 40
50.8
 49
31.75
 74
    0
 49
-6.35
 74
    0
 49
6.35
 74
    0
 49
-6.35
 74
    0
  0
LTYPE
  5
47
330
5
100
AcDbSymbolTableRecord
100
AcDbLinetypeTableRecord
  2
CENTERTINY
 70
    0
  3
Center (.15x) ___ _ ___ _ ___ _ ___ _ ___ _ ___
 72
   65
 73
    4
 40
7.62
 49
4.7625
 74
    0
 49
-0.9525
 74
    0
 49
0.9525
 74
    0
 49
-0.9525
 74
    0
  0
LTYPE
  5
48
330
5
100
AcDbSymbolTableRecord
100
AcDbLinetypeTableRecord
  2
CENTER2
 70
    0
  3
Center (.5x) ___ _ ___ _ ___ _ ___ _ ___ _ ___
 72
   65
 73
    4
 40
28.575
 49
19.05
 74
    0
 49
-3.175
 74
    0
 49
3.175
 74
    0
 49
-3.175
 74
    0
  0
LTYPE
  5
49
330
5
100
AcDbSymbolTableRecord
100
AcDbLinetypeTableRecord
  2
CENTERX2
 70
    0
  3
Center (2x) ________  __  ________  __  _____
 72
   65
 73
    4
 40
101.6
 49
63.5
 74
    0
 49
-12.7
 74
    0
 49
12.7
 74
    0
 49
-12.7
 74
    0
  0
ENDTAB
  0
TABLE
  2
LAYER
  5
2
330
0
100
AcDbSymbolTable
 70
    1
  0
LAYER
  5
10
330
2
100
AcDbSymbolTableRecord
100
AcDbLayerTableRecord
  2
0
 70
    0
 62
    7
  6
CONTINUOUS
370
    0
390
F
  0
LAYER
  5
4A
330
2
100
AcDbSymbolTableRecord
100
AcDbLayerTableRecord
  2
LAYOUT -(HIDE ON PRINT-
 70
    0
 62
    7
  6
CONTINUOUS
370
   -3
390
F
  0
LAYER
  5
4B
330
2
100
AcDbSymbolTableRecord
100
AcDbLayerTableRecord
  2
Layer 1
 70
    0
 62
    7
  6
CONTINUOUS
370
   -3
390
F
  0
ENDTAB
  0
TABLE
  2
STYLE
  5
3
330
0
100
AcDbSymbolTable
 70
    3
  0
STYLE
  5
4C
330
2
100
AcDbSymbolTableRecord
100
AcDbTextStyleTableRecord
  2
Standard
 70
    0
 40
0
 41
1
 50
0
 71
    0
 42
1
  3
txt
  4

  0
ENDTAB
  0
TABLE
  2
VIEW
  5
6
330
0
100
AcDbSymbolTable
 70
    0
  0
ENDTAB
  0
TABLE
  2
UCS
  5
7
330
0
100
AcDbSymbolTable
 70
    0
  0
ENDTAB
  0
TABLE
  2
APPID
  5
9
330
0
100
AcDbSymbolTable
 70
    1
  0
APPID
  5
12
330
9
100
AcDbSymbolTableRecord
100
AcDbRegAppTableRecord
  2
ACAD
 70
    0
  0
APPID
  5
4D
330
9
100
AcDbSymbolTableRecord
100
AcDbRegAppTableRecord
  2
LibreCad
 70
    0
  0
ENDTAB
  0
TABLE
  2
DIMSTYLE
  5
A
330
0
100
AcDbSymbolTable
 70
    1
100
AcDbDimStyleTable
 71
    1
  0
DIMSTYLE
105
4E
330
A
100
AcDbSymbolTableRecord
100
AcDbDimStyleTableRecord
  2
Standard
 70
    0
 40
1
 41
2.5
 42
0.625
 43
0.38
 44
1.25
 45
0
 46
0
 47
0
 48
0
 49
1
140
2.5
141
0.09
142
2.5
143
25.4
144
1
145
0
146
1
147
0.625
148
0
 71
    0
 72
    0
 73
    0
 74
    1
 75
    0
 76
    0
 77
    0
 78
    1
 79
    0
170
    0
171
    2
172
    0
173
    0
174
    0
175
    0
176
    0
177
    0
178
    0
179
    0
271
    2
272
    4
273
    2
274
    2
275
    0
276
    0
277
    2
278
    0
279
    0
280
    0
281
    0
282
    0
283
    1
284
    0
285
    0
286
    0
288
    0
289
    3
340
standard
341

371
   -2
372
   -2
  0
ENDTAB
  0
TABLE
  2
BLOCK_RECORD
  5
1
330
0
100
AcDbSymbolTable
 70
    2
  0
BLOCK_RECORD
  5
1F
330
1
100
AcDbSymbolTableRecord
100
AcDbBlockTableRecord
  2
*Model_Space
 70
    0
280
    1
281
    0
  0
BLOCK_RECORD
  5
1E
330
1
100
AcDbSymbolTableRecord
100
AcDbBlockTableRecord
  2
*Paper_Space
 70
    0
280
    1
281
    0
  0
ENDTAB
  0
ENDSEC
  0
SECTION
  2
BLOCKS
  0
BLOCK
  5
20
330
1F
100
AcDbEntity
  8
0
100
AcDbBlockBegin
  2
*Model_Space
 70
    0
 10
0
 20
0
 30
0
  3
*Model_Space
  1

  0
ENDBLK
  5
21
330
1F
100
AcDbEntity
  8
0
100
AcDbBlockEnd
  0
BLOCK
  5
1C
330
1B
100
AcDbEntity
  8
0
100
AcDbBlockBegin
  2
*Paper_Space
 70
    0
 10
0
 20
0
 30
0
  3
*Paper_Space
  1

  0
ENDBLK
  5
1D
330
1F
100
AcDbEntity
  8
0
100
AcDbBlockEnd
  0
ENDSEC
  0
SECTION
  2
ENTITIES
  0
CIRCLE
  5
4F
100
AcDbEntity
  8
LAYOUT -(HIDE ON PRINT-
  6
CONTINUOUS
 62
    5
370
   -1
100
AcDbCircle
 10
-648.2814460808136
 20
225.822897126964
 40
1.906277545945314
  0
CIRCLE
  5
50
100
AcDbEntity
  8
LAYOUT -(HIDE ON PRINT-
  6
CONTINUOUS
 62
    5
370
   -1
100
AcDbCircle
 10
-648.2814460808136
 20
435.504897126964
 40
1.906277545945314
  0
CIRCLE
  5
51
100
AcDbEntity
  8
LAYOUT -(HIDE ON PRINT-
  6
CONTINUOUS
 62
    5
370
   -1
100
AcDbCircle
 10
-818.2511204608998
 20
225.8228934991394
 40
1.906275425911232
  0
CIRCLE
  5
52
100
AcDbEntity
  8
LAYOUT -(HIDE ON PRINT-
  6
CONTINUOUS
 62
    5
370
   -1
100
AcDbCircle
 10
-478.3121108079561
 20
225.8227150186814
 40
1.906442275577022
  0
CIRCLE
  5
53
100
AcDbEntity
  8
LAYOUT -(HIDE ON PRINT-
  6
CONTINUOUS
 62
    5
370
   -1
100
AcDbCircle
 10
-478.3121108079561
 20
435.5047150186814
 40
1.906442275577022
  0
CIRCLE
  5
54
100
AcDbEntity
  8
LAYOUT -(HIDE ON PRINT-
  6
CONTINUOUS
 62
    5
370
   -1
100
AcDbCircle
 10
-818.2511204608998
 20
435.5048934991394
 40
1.906275425911232
  0
ARC
  5
55
100
AcDbEntity
  8
LAYOUT -(HIDE ON PRINT-
  6
CONTINUOUS
 62
    5
370
   -1
100
AcDbCircle
 10
-476.8524860768151
 20
437.3443682227149
 40
3.176065052514718
100
AcDbArc
 50
359.9831101455346
 51
90.03647586941425
  0
ARC
  5
56
100
AcDbEntity
  8
LAYOUT -(HIDE ON PRINT-
  6
CONTINUOUS
 62
    5
370
   -1
100
AcDbCircle
 10
-476.8535724448772
 20
223.9822096724546
 40
3.176065052514798
100
AcDbArc
 50
269.9831101455085
 51
0.0364758694164188
  0
LWPOLYLINE
  5
57
100
AcDbEntity
  8
LAYOUT -(HIDE ON PRINT-
  6
ByLayer
 62
    5
370
   -1
100
AcDbPolyline
 90
    2
 70
    0
 43
0
 10
-473.6775080359764
 20
437.3434326316158
 10
-473.6775080359764
 20
223.9842316316157
  0
ARC
  5
58
100
AcDbEntity
  8
LAYOUT -(HIDE ON PRINT-
  6
CONTINUOUS
 62
    5
370
   -1
100
AcDbCircle
 10
-819.7104016361196
 20
223.983510196906
 40
3.176279086488971
100
AcDbArc
 50
179.9869817906051
 51
270.0328169868403
  0
LWPOLYLINE
  5
59
100
AcDbEntity
  8
LAYOUT -(HIDE ON PRINT-
  6
ByLayer
 62
    5
370
   -1
100
AcDbPolyline
 90
    2
 70
    0
 43
0
 10
-476.8545080359763
 20
220.8072316316157
 10
-819.7085820359762
 20
220.8072316316157
  0
ARC
  5
5A
100
AcDbEntity
  8
LAYOUT -(HIDE ON PRINT-
  6
CONTINUOUS
 62
    5
370
   -1
100
AcDbCircle
 10
-819.7093110876011
 20
437.3452824752184
 40
3.176271487044674
100
AcDbArc
 50
89.98684421889952
 51
180.0333626179076
  0
LWPOLYLINE
  5
5B
100
AcDbEntity
  8
LAYOUT -(HIDE ON PRINT-
  6
ByLayer
 62
    5
370
   -1
100
AcDbPolyline
 90
    2
 70
    0
 43
0
 10
-822.8855820359763
 20
223.9842316316157
 10
-822.8855820359763
 20
437.3434326316158
  0
LWPOLYLINE
  5
5C
100
AcDbEntity
  8
LAYOUT -(HIDE ON PRINT-
  6
ByLayer
 62
    5
370
   -1
100
AcDbPolyline
 90
    2
 70
    0
 43
0
 10
-819.7085820359762
 20
440.5204326316157
 10
-476.8545080359763
 20
440.5204326316157
  0
LINE
  5
5D
100
AcDbEntity
  8
Layer 1
  6
ByLayer
 62
  256
370
   -1
100
AcDbLine
 10
-542.9456663732566
 20
353.6546584005151
 11
-542.8045553732566
 21
355.6302084005151
  0
LINE
  5
5E
100
AcDbEntity
  8
Layer 1
  6
ByLayer
 62
  256
370
   -1
100
AcDbLine
 10
-542.8045553732566
 20
355.6302084005151
 11
-542.4165003732566
 21
357.570478400515
  0
LINE
  5
5F
100
AcDbEntity
  8
Layer 1
  6
ByLayer
 62
  256
370
   -1
100
AcDbLine
 10
-542.4165003732566
 20
357.570478400515
 11
-541.7815013732566
 21
359.440198400515
  0
LINE
  5
60
100
AcDbEntity
  8
Layer 1
  6
ByLayer
 62
  256
370
   -1
100
AcDbLine
 10
-541.7815013732566
 20
359.440198400515
 11
-540.9348363732566
 21
361.204078400515
  0
LINE
  5
61
100
AcDbEntity
  8
Layer 1
  6
ByLayer
 62
  256
370
   -1
100
AcDbLine
 10
-540.9348363732566
 20
361.204078400515
 11
-539.8412263732566
 21
362.826848400515
  0
LINE
  5
62
100
AcDbEntity
  8
Layer 1
  6
ByLayer
 62
  256
370
   -1
100
AcDbLine
 10
-539.8412263732566
 20
362.826848400515
 11
-538.5359563732566
 21
364.3085084005151
  0
LINE
  5
63
100
AcDbEntity
  8
Layer 1
  6
ByLayer
 62
  256
370
   -1
100
AcDbLine
 10
-538.5359563732566
 20
364.3085084005151
 11
-537.0542963732566
 21
365.6137784005151
  0
LINE
  5
64
100
AcDbEntity
  8
Layer 1
  6
ByLayer
 62
  256
370
   -1
100
AcDbLine
 10
-537.0542963732566
 20
365.6137784005151
 11
-535.3962463732566
 21
366.7073884005151
  0
LINE
  5
65
100
AcDbEntity
  8
Layer 1
  6
ByLayer
 62
  256
370
   -1
100
AcDbLine
 10
-535.3962463732566
 20
366.7073884005151
 11
-533.6323563732566
 21
367.5893304005151
  0
LINE
  5
66
100
AcDbEntity
  8
Layer 1
  6
ByLayer
 62
  256
370
   -1
100
AcDbLine
 10
-533.6323563732566
 20
367.5893304005151
 11
-531.7626363732566
 21
368.224329400515
  0
LINE
  5
67
100
AcDbEntity
  8
Layer 1
  6
ByLayer
 62
  256
370
   -1
100
AcDbLine
 10
-531.7626363732566
 20
368.224329400515
 11
-529.8223663732567
 21
368.6123844005151
  0
LINE
  5
68
100
AcDbEntity
  8
Layer 1
  6
ByLayer
 62
  256
370
   -1
100
AcDbLine
 10
-529.8223663732567
 20
368.6123844005151
 11
-527.8468163732567
 21
368.753495400515
  0
LINE
  5
69
100
AcDbEntity
  8
Layer 1
  6
ByLayer
 62
  256
370
   -1
100
AcDbLine
 10
-527.8468163732567
 20
368.753495400515
 11
-525.8712663732567
 21
368.6123844005151
  0
LINE
  5
6A
100
AcDbEntity
  8
Layer 1
  6
ByLayer
 62
  256
370
   -1
100
AcDbLine
 10
-525.8712663732567
 20
368.6123844005151
 11
-523.9309963732566
 21
368.224329400515
  0
LINE
  5
6B
100
AcDbEntity
  8
Layer 1
  6
ByLayer
 62
  256
370
   -1
100
AcDbLine
 10
-523.9309963732566
 20
368.224329400515
 11
-522.0612763732566
 21
367.5893304005151
  0
LINE
  5
6C
100
AcDbEntity
  8
Layer 1
  6
ByLayer
 62
  256
370
   -1
100
AcDbLine
 10
-522.0612763732566
 20
367.5893304005151
 11
-520.2973863732566
 21
366.7073884005151
  0
LINE
  5
6D
100
AcDbEntity
  8
Layer 1
  6
ByLayer
 62
  256
370
   -1
100
AcDbLine
 10
-520.2973863732566
 20
366.7073884005151
 11
-518.6393363732566
 21
365.6137784005151
  0
LINE
  5
6E
100
AcDbEntity
  8
Layer 1
  6
ByLayer
 62
  256
370
   -1
100
AcDbLine
 10
-518.6393363732566
 20
365.6137784005151
 11
-517.1576763732565
 21
364.3085084005151
  0
LINE
  5
6F
100
AcDbEntity
  8
Layer 1
  6
ByLayer
 62
  256
370
   -1
100
AcDbLine
 10
-517.1576763732565
 20
364.3085084005151
 11
-515.8524063732566
 21
362.826848400515
  0
LINE
  5
70
100
AcDbEntity
  8
Layer 1
  6
ByLayer
 62
  256
370
   -1
100
AcDbLine
 10
-515.8524063732566
 20
362.826848400515
 11
-514.7587963732566
 21
361.204078400515
  0
LINE
  5
71
100
AcDbEntity
  8
Layer 1
  6
ByLayer
 62
  256
370
   -1
100
AcDbLine
 10
-514.7587963732566
 20
361.204078400515
 11
-513.9121313732566
 21
359.440198400515
  0
LINE
  5
72
100
AcDbEntity
  8
Layer 1
  6
ByLayer
 62
  256
370
   -1
100
AcDbLine
 10
-513.9121313732566
 20
359.440198400515
 11
-513.2771323732566
 21
357.570478400515
  0
LINE
  5
73
100
AcDbEntity
  8
Layer 1
  6
ByLayer
 62
  256
370
   -1
100
AcDbLine
 10
-513.2771323732566
 20
357.570478400515
 11
-512.8890773732566
 21
355.6302084005151
  0
LINE
  5
74
100
AcDbEntity
  8
Layer 1
  6
ByLayer
 62
  256
370
   -1
100
AcDbLine
 10
-512.8890773732566
 20
355.6302084005151
 11
-512.7479663732566
 21
353.6546584005151
  0
LINE
  5
75
100
AcDbEntity
  8
Layer 1
  6
ByLayer
 62
  256
370
   -1
100
AcDbLine
 10
-512.7479663732566
 20
353.6546584005151
 11
-512.8890773732566
 21
351.6791084005151
  0
LINE
  5
76
100
AcDbEntity
  8
Layer 1
  6
ByLayer
 62
  256
370
   -1
100
AcDbLine
 10
-512.8890773732566
 20
351.6791084005151
 11
-513.2771323732566
 21
349.738838400515
  0
LINE
  5
77
100
AcDbEntity
  8
Layer 1
  6
ByLayer
 62
  256
370
   -1
100
AcDbLine
 10
-513.2771323732566
 20
349.738838400515
 11
-513.9121313732566
 21
347.869118400515
  0
LINE
  5
78
100
AcDbEntity
  8
Layer 1
  6
ByLayer
 62
  256
370
   -1
100
AcDbLine
 10
-513.9121313732566
 20
347.869118400515
 11
-514.7587963732566
 21
346.105228400515
  0
LINE
  5
79
100
AcDbEntity
  8
Layer 1
  6
ByLayer
 62
  256
370
   -1
100
AcDbLine
 10
-514.7587963732566
 20
346.105228400515
 11
-515.8524063732566
 21
344.447178400515
  0
LINE
  5
7A
100
AcDbEntity
  8
Layer 1
  6
ByLayer
 62
  256
370
   -1
100
AcDbLine
 10
-515.8524063732566
 20
344.447178400515
 11
-517.1576763732565
 21
342.965518400515
  0
LINE
  5
7B
100
AcDbEntity
  8
Layer 1
  6
ByLayer
 62
  256
370
   -1
100
AcDbLine
 10
-517.1576763732565
 20
342.965518400515
 11
-518.6393363732566
 21
341.6602484005151
  0
LINE
  5
7C
100
AcDbEntity
  8
Layer 1
  6
ByLayer
 62
  256
370
   -1
100
AcDbLine
 10
-518.6393363732566
 20
341.6602484005151
 11
-520.2973863732566
 21
340.566638400515
  0
LINE
  5
7D
100
AcDbEntity
  8
Layer 1
  6
ByLayer
 62
  256
370
   -1
100
AcDbLine
 10
-520.2973863732566
 20
340.566638400515
 11
-522.0612763732566
 21
339.6846954005151
  0
LINE
  5
7E
100
AcDbEntity
  8
Layer 1
  6
ByLayer
 62
  256
370
   -1
100
AcDbLine
 10
-522.0612763732566
 20
339.6846954005151
 11
-523.9309963732566
 21
339.0496964005151
  0
LINE
  5
7F
100
AcDbEntity
  8
Layer 1
  6
ByLayer
 62
  256
370
   -1
100
AcDbLine
 10
-523.9309963732566
 20
339.0496964005151
 11
-525.8712663732567
 21
338.6616414005151
  0
LINE
  5
80
100
AcDbEntity
  8
Layer 1
  6
ByLayer
 62
  256
370
   -1
100
AcDbLine
 10
-525.8712663732567
 20
338.6616414005151
 11
-527.8468163732567
 21
338.555808400515
  0
LINE
  5
81
100
AcDbEntity
  8
Layer 1
  6
ByLayer
 62
  256
370
   -1
100
AcDbLine
 10
-527.8468163732567
 20
338.555808400515
 11
-529.8223663732567
 21
338.6616414005151
  0
LINE
  5
82
100
AcDbEntity
  8
Layer 1
  6
ByLayer
 62
  256
370
   -1
100
AcDbLine
 10
-529.8223663732567
 20
338.6616414005151
 11
-531.7626363732566
 21
339.0496964005151
  0
LINE
  5
83
100
AcDbEntity
  8
Layer 1
  6
ByLayer
 62
  256
370
   -1
100
AcDbLine
 10
-531.7626363732566
 20
339.0496964005151
 11
-533.6323563732566
 21
339.6846954005151
  0
LINE
  5
84
100
AcDbEntity
  8
Layer 1
  6
ByLayer
 62
  256
370
   -1
100
AcDbLine
 10
-533.6323563732566
 20
339.6846954005151
 11
-535.3962463732566
 21
340.566638400515
  0
LINE
  5
85
100
AcDbEntity
  8
Layer 1
  6
ByLayer
 62
  256
370
   -1
100
AcDbLine
 10
-535.3962463732566
 20
340.566638400515
 11
-537.0542963732566
 21
341.6602484005151
  0
LINE
  5
86
100
AcDbEntity
  8
Layer 1
  6
ByLayer
 62
  256
370
   -1
100
AcDbLine
 10
-537.0542963732566
 20
341.6602484005151
 11
-538.5359563732566
 21
342.965518400515
  0
LINE
  5
87
100
AcDbEntity
  8
Layer 1
  6
ByLayer
 62
  256
370
   -1
100
AcDbLine
 10
-538.5359563732566
 20
342.965518400515
 11
-539.8412263732566
 21
344.447178400515
  0
LINE
  5
88
100
AcDbEntity
  8
Layer 1
  6
ByLayer
 62
  256
370
   -1
100
AcDbLine
 10
-539.8412263732566
 20
344.447178400515
 11
-540.9348363732566
 21
346.105228400515
  0
LINE
  5
89
100
AcDbEntity
  8
Layer 1
  6
ByLayer
 62
  256
370
   -1
100
AcDbLine
 10
-540.9348363732566
 20
346.105228400515
 11
-541.7815013732566
 21
347.869118400515
  0
LINE
  5
8A
100
AcDbEntity
  8
Layer 1
  6
ByLayer
 62
  256
370
   -1
100
AcDbLine
 10
-541.7815013732566
 20
347.869118400515
 11
-542.4165003732566
 21
349.738838400515
  0
LINE
  5
8B
100
AcDbEntity
  8
Layer 1
  6
ByLayer
 62
  256
370
   -1
100
AcDbLine
 10
-542.4165003732566
 20
349.738838400515
 11
-542.8045553732566
 21
351.6791084005151
  0
LINE
  5
8C
100
AcDbEntity
  8
Layer 1
  6
ByLayer
 62
  256
370
   -1
100
AcDbLine
 10
-542.8045553732566
 20
351.6791084005151
 11
-542.9456663732566
 21
353.6546584005151
  0
LINE
  5
8D
100
AcDbEntity
  8
Layer 1
  6
ByLayer
 62
  256
370
   -1
100
AcDbLine
 10
-572.2969773732566
 20
343.1423944005151
 11
-572.1558663732566
 21
344.906274400515
  0
LINE
  5
8E
100
AcDbEntity
  8
Layer 1
  6
ByLayer
 62
  256
370
   -1
100
AcDbLine
 10
-572.1558663732566
 20
344.906274400515
 11
-571.7678113732566
 21
346.634884400515
  0
LINE
  5
8F
100
AcDbEntity
  8
Layer 1
  6
ByLayer
 62
  256
370
   -1
100
AcDbLine
 10
-571.7678113732566
 20
346.634884400515
 11
-571.1328123732566
 21
348.292934400515
  0
LINE
  5
90
100
AcDbEntity
  8
Layer 1
  6
ByLayer
 62
  256
370
   -1
100
AcDbLine
 10
-571.1328123732566
 20
348.292934400515
 11
-570.2861473732565
 21
349.8098744005151
  0
LINE
  5
91
100
AcDbEntity
  8
Layer 1
  6
ByLayer
 62
  256
370
   -1
100
AcDbLine
 10
-570.2861473732565
 20
349.8098744005151
 11
-569.1925373732566
 21
351.2209844005151
  0
LINE
  5
92
100
AcDbEntity
  8
Layer 1
  6
ByLayer
 62
  256
370
   -1
100
AcDbLine
 10
-569.1925373732566
 20
351.2209844005151
 11
-567.9225373732567
 21
352.4557044005151
  0
LINE
  5
93
100
AcDbEntity
  8
Layer 1
  6
ByLayer
 62
  256
370
   -1
100
AcDbLine
 10
-567.9225373732567
 20
352.4557044005151
 11
-566.4761473732566
 21
353.478754400515
  0
LINE
  5
94
100
AcDbEntity
  8
Layer 1
  6
ByLayer
 62
  256
370
   -1
100
AcDbLine
 10
-566.4761473732566
 20
353.478754400515
 11
-564.9239273732566
 21
354.290141400515
  0
LINE
  5
95
100
AcDbEntity
  8
Layer 1
  6
ByLayer
 62
  256
370
   -1
100
AcDbLine
 10
-564.9239273732566
 20
354.290141400515
 11
-563.2305973732566
 21
354.854584400515
  0
LINE
  5
96
100
AcDbEntity
  8
Layer 1
  6
ByLayer
 62
  256
370
   -1
100
AcDbLine
 10
-563.2305973732566
 20
354.854584400515
 11
-561.5019873732566
 21
355.1720834005151
  0
LINE
  5
97
100
AcDbEntity
  8
Layer 1
  6
ByLayer
 62
  256
370
   -1
100
AcDbLine
 10
-561.5019873732566
 20
355.1720834005151
 11
-559.7380973732566
 21
355.242638400515
  0
LINE
  5
98
100
AcDbEntity
  8
Layer 1
  6
ByLayer
 62
  256
370
   -1
100
AcDbLine
 10
-559.7380973732566
 20
355.242638400515
 11
-557.9742173732566
 21
355.0309724005151
  0
LINE
  5
99
100
AcDbEntity
  8
Layer 1
  6
ByLayer
 62
  256
370
   -1
100
AcDbLine
 10
-557.9742173732566
 20
355.0309724005151
 11
-556.2808873732566
 21
354.607640400515
  0
LINE
  5
9A
100
AcDbEntity
  8
Layer 1
  6
ByLayer
 62
  256
370
   -1
100
AcDbLine
 10
-556.2808873732566
 20
354.607640400515
 11
-554.6581173732566
 21
353.902086400515
  0
LINE
  5
9B
100
AcDbEntity
  8
Layer 1
  6
ByLayer
 62
  256
370
   -1
100
AcDbLine
 10
-554.6581173732566
 20
353.902086400515
 11
-553.1411773732566
 21
352.984866400515
  0
LINE
  5
9C
100
AcDbEntity
  8
Layer 1
  6
ByLayer
 62
  256
370
   -1
100
AcDbLine
 10
-553.1411773732566
 20
352.984866400515
 11
-551.8006273732566
 21
351.855976400515
  0
LINE
  5
9D
100
AcDbEntity
  8
Layer 1
  6
ByLayer
 62
  256
370
   -1
100
AcDbLine
 10
-551.8006273732566
 20
351.855976400515
 11
-550.6011873732566
 21
350.550706400515
  0
LINE
  5
9E
100
AcDbEntity
  8
Layer 1
  6
ByLayer
 62
  256
370
   -1
100
AcDbLine
 10
-550.6011873732566
 20
350.550706400515
 11
-549.6486893732566
 21
349.069046400515
  0
LINE
  5
9F
100
AcDbEntity
  8
Layer 1
  6
ByLayer
 62
  256
370
   -1
100
AcDbLine
 10
-549.6486893732566
 20
349.069046400515
 11
-548.8725803732566
 21
347.481546400515
  0
LINE
  5
A0
100
AcDbEntity
  8
Layer 1
  6
ByLayer
 62
  256
370
   -1
100
AcDbLine
 10
-548.8725803732566
 20
347.481546400515
 11
-548.3786923732566
 21
345.7882164005151
  0
LINE
  5
A1
100
AcDbEntity
  8
Layer 1
  6
ByLayer
 62
  256
370
   -1
100
AcDbLine
 10
-548.3786923732566
 20
345.7882164005151
 11
-548.1317483732566
 21
344.024336400515
  0
LINE
  5
A2
100
AcDbEntity
  8
Layer 1
  6
ByLayer
 62
  256
370
   -1
100
AcDbLine
 10
-548.1317483732566
 20
344.024336400515
 11
-548.1323783732566
 21
342.260403400515
  0
LINE
  5
A3
100
AcDbEntity
  8
Layer 1
  6
ByLayer
 62
  256
370
   -1
100
AcDbLine
 10
-548.1323783732566
 20
342.260403400515
 11
-548.3793223732566
 21
340.531793400515
  0
LINE
  5
A4
100
AcDbEntity
  8
Layer 1
  6
ByLayer
 62
  256
370
   -1
100
AcDbLine
 10
-548.3793223732566
 20
340.531793400515
 11
-548.8732103732566
 21
338.838463400515
  0
LINE
  5
A5
100
AcDbEntity
  8
Layer 1
  6
ByLayer
 62
  256
370
   -1
100
AcDbLine
 10
-548.8732103732566
 20
338.838463400515
 11
-549.6493193732566
 21
337.215693400515
  0
LINE
  5
A6
100
AcDbEntity
  8
Layer 1
  6
ByLayer
 62
  256
370
   -1
100
AcDbLine
 10
-549.6493193732566
 20
337.215693400515
 11
-550.6018173732566
 21
335.7693034005151
  0
LINE
  5
A7
100
AcDbEntity
  8
Layer 1
  6
ByLayer
 62
  256
370
   -1
100
AcDbLine
 10
-550.6018173732566
 20
335.7693034005151
 11
-551.8012573732566
 21
334.4287534005151
  0
LINE
  5
A8
100
AcDbEntity
  8
Layer 1
  6
ByLayer
 62
  256
370
   -1
100
AcDbLine
 10
-551.8012573732566
 20
334.4287534005151
 11
-553.1418073732566
 21
333.2998634005151
  0
LINE
  5
A9
100
AcDbEntity
  8
Layer 1
  6
ByLayer
 62
  256
370
   -1
100
AcDbLine
 10
-553.1418073732566
 20
333.2998634005151
 11
-554.6587473732566
 21
332.3826434005151
  0
LINE
  5
AA
100
AcDbEntity
  8
Layer 1
  6
ByLayer
 62
  256
370
   -1
100
AcDbLine
 10
-554.6587473732566
 20
332.3826434005151
 11
-556.2815173732566
 21
331.7123674005151
  0
LINE
  5
AB
100
AcDbEntity
  8
Layer 1
  6
ByLayer
 62
  256
370
   -1
100
AcDbLine
 10
-556.2815173732566
 20
331.7123674005151
 11
-557.9748473732566
 21
331.253757400515
  0
LINE
  5
AC
100
AcDbEntity
  8
Layer 1
  6
ByLayer
 62
  256
370
   -1
100
AcDbLine
 10
-557.9748473732566
 20
331.253757400515
 11
-559.7387273732566
 21
331.0420914005151
  0
LINE
  5
AD
100
AcDbEntity
  8
Layer 1
  6
ByLayer
 62
  256
370
   -1
100
AcDbLine
 10
-559.7387273732566
 20
331.0420914005151
 11
-561.5026173732566
 21
331.1126464005151
  0
LINE
  5
AE
100
AcDbEntity
  8
Layer 1
  6
ByLayer
 62
  256
370
   -1
100
AcDbLine
 10
-561.5026173732566
 20
331.1126464005151
 11
-563.2312273732566
 21
331.4301454005151
  0
LINE
  5
AF
100
AcDbEntity
  8
Layer 1
  6
ByLayer
 62
  256
370
   -1
100
AcDbLine
 10
-563.2312273732566
 20
331.4301454005151
 11
-564.9245573732566
 21
331.9945884005151
  0
LINE
  5
B0
100
AcDbEntity
  8
Layer 1
  6
ByLayer
 62
  256
370
   -1
100
AcDbLine
 10
-564.9245573732566
 20
331.9945884005151
 11
-566.4767773732566
 21
332.805975400515
  0
LINE
  5
B1
100
AcDbEntity
  8
Layer 1
  6
ByLayer
 62
  256
370
   -1
100
AcDbLine
 10
-566.4767773732566
 20
332.805975400515
 11
-567.9231673732567
 21
333.864305400515
  0
LINE
  5
B2
100
AcDbEntity
  8
Layer 1
  6
ByLayer
 62
  256
370
   -1
100
AcDbLine
 10
-567.9231673732567
 20
333.864305400515
 11
-569.1931673732566
 21
335.0637454005151
  0
LINE
  5
B3
100
AcDbEntity
  8
Layer 1
  6
ByLayer
 62
  256
370
   -1
100
AcDbLine
 10
-569.1931673732566
 20
335.0637454005151
 11
-570.2867773732565
 21
336.474855400515
  0
LINE
  5
B4
100
AcDbEntity
  8
Layer 1
  6
ByLayer
 62
  256
370
   -1
100
AcDbLine
 10
-570.2867773732565
 20
336.474855400515
 11
-571.1334423732566
 21
338.0270754005151
  0
LINE
  5
B5
100
AcDbEntity
  8
Layer 1
  6
ByLayer
 62
  256
370
   -1
100
AcDbLine
 10
-571.1334423732566
 20
338.0270754005151
 11
-571.7684413732566
 21
339.6498454005151
  0
LINE
  5
B6
100
AcDbEntity
  8
Layer 1
  6
ByLayer
 62
  256
370
   -1
100
AcDbLine
 10
-571.7684413732566
 20
339.6498454005151
 11
-572.1564963732566
 21
341.3784554005151
  0
LINE
  5
B7
100
AcDbEntity
  8
Layer 1
  6
ByLayer
 62
  256
370
   -1
100
AcDbLine
 10
-572.1564963732566
 20
341.3784554005151
 11
-572.2976073732566
 21
343.142345400515
  0
LINE
  5
B8
100
AcDbEntity
  8
Layer 1
  6
ByLayer
 62
  256
370
   -1
100
AcDbLine
 10
-622.1803073732566
 20
363.1448454005151
 11
-622.0391963732566
 21
364.908725400515
  0
LINE
  5
B9
100
AcDbEntity
  8
Layer 1
  6
ByLayer
 62
  256
370
   -1
100
AcDbLine
 10
-622.0391963732566
 20
364.908725400515
 11
-621.6864193732566
 21
366.637335400515
  0
LINE
  5
BA
100
AcDbEntity
  8
Layer 1
  6
ByLayer
 62
  256
370
   -1
100
AcDbLine
 10
-621.6864193732566
 20
366.637335400515
 11
-621.0514203732566
 21
368.295385400515
  0
LINE
  5
BB
100
AcDbEntity
  8
Layer 1
  6
ByLayer
 62
  256
370
   -1
100
AcDbLine
 10
-621.0514203732566
 20
368.295385400515
 11
-620.1694773732567
 21
369.812325400515
  0
LINE
  5
BC
100
AcDbEntity
  8
Layer 1
  6
ByLayer
 62
  256
370
   -1
100
AcDbLine
 10
-620.1694773732567
 20
369.812325400515
 11
-619.1111473732566
 21
371.223435400515
  0
LINE
  5
BD
100
AcDbEntity
  8
Layer 1
  6
ByLayer
 62
  256
370
   -1
100
AcDbLine
 10
-619.1111473732566
 20
371.223435400515
 11
-617.8411473732566
 21
372.4581554005151
  0
LINE
  5
BE
100
AcDbEntity
  8
Layer 1
  6
ByLayer
 62
  256
370
   -1
100
AcDbLine
 10
-617.8411473732566
 20
372.4581554005151
 11
-616.3947573732565
 21
373.481205400515
  0
LINE
  5
BF
100
AcDbEntity
  8
Layer 1
  6
ByLayer
 62
  256
370
   -1
100
AcDbLine
 10
-616.3947573732565
 20
373.481205400515
 11
-614.8072573732566
 21
374.292592400515
  0
LINE
  5
C0
100
AcDbEntity
  8
Layer 1
  6
ByLayer
 62
  256
370
   -1
100
AcDbLine
 10
-614.8072573732566
 20
374.292592400515
 11
-613.1492073732566
 21
374.857035400515
  0
LINE
  5
C1
100
AcDbEntity
  8
Layer 1
  6
ByLayer
 62
  256
370
   -1
100
AcDbLine
 10
-613.1492073732566
 20
374.857035400515
 11
-611.4205973732566
 21
375.174534400515
  0
LINE
  5
C2
100
AcDbEntity
  8
Layer 1
  6
ByLayer
 62
  256
370
   -1
100
AcDbLine
 10
-611.4205973732566
 20
375.174534400515
 11
-609.6567173732566
 21
375.245090400515
  0
LINE
  5
C3
100
AcDbEntity
  8
Layer 1
  6
ByLayer
 62
  256
370
   -1
100
AcDbLine
 10
-609.6567173732566
 20
375.245090400515
 11
-607.8928373732566
 21
375.0334244005151
  0
LINE
  5
C4
100
AcDbEntity
  8
Layer 1
  6
ByLayer
 62
  256
370
   -1
100
AcDbLine
 10
-607.8928373732566
 20
375.0334244005151
 11
-606.1642273732566
 21
374.610092400515
  0
LINE
  5
C5
100
AcDbEntity
  8
Layer 1
  6
ByLayer
 62
  256
370
   -1
100
AcDbLine
 10
-606.1642273732566
 20
374.610092400515
 11
-604.5414573732565
 21
373.904538400515
  0
LINE
  5
C6
100
AcDbEntity
  8
Layer 1
  6
ByLayer
 62
  256
370
   -1
100
AcDbLine
 10
-604.5414573732565
 20
373.904538400515
 11
-603.0597973732566
 21
372.9873184005151
  0
LINE
  5
C7
100
AcDbEntity
  8
Layer 1
  6
ByLayer
 62
  256
370
   -1
100
AcDbLine
 10
-603.0597973732566
 20
372.9873184005151
 11
-601.6839673732566
 21
371.858428400515
  0
LINE
  5
C8
100
AcDbEntity
  8
Layer 1
  6
ByLayer
 62
  256
370
   -1
100
AcDbLine
 10
-601.6839673732566
 20
371.858428400515
 11
-600.5198073732566
 21
370.553158400515
  0
LINE
  5
C9
100
AcDbEntity
  8
Layer 1
  6
ByLayer
 62
  256
370
   -1
100
AcDbLine
 10
-600.5198073732566
 20
370.553158400515
 11
-599.5320313732566
 21
369.0714984005151
  0
LINE
  5
CA
100
AcDbEntity
  8
Layer 1
  6
ByLayer
 62
  256
370
   -1
100
AcDbLine
 10
-599.5320313732566
 20
369.0714984005151
 11
-598.7911993732566
 21
367.483998400515
  0
LINE
  5
CB
100
AcDbEntity
  8
Layer 1
  6
ByLayer
 62
  256
370
   -1
100
AcDbLine
 10
-598.7911993732566
 20
367.483998400515
 11
-598.2620333732566
 21
365.790668400515
  0
LINE
  5
CC
100
AcDbEntity
  8
Layer 1
  6
ByLayer
 62
  256
370
   -1
100
AcDbLine
 10
-598.2620333732566
 20
365.790668400515
 11
-598.0150893732566
 21
364.026788400515
  0
LINE
  5
CD
100
AcDbEntity
  8
Layer 1
  6
ByLayer
 62
  256
370
   -1
100
AcDbLine
 10
-598.0150893732566
 20
364.026788400515
 11
-598.0143783732566
 21
362.262403400515
  0
LINE
  5
CE
100
AcDbEntity
  8
Layer 1
  6
ByLayer
 62
  256
370
   -1
100
AcDbLine
 10
-598.0143783732566
 20
362.262403400515
 11
-598.2613223732566
 21
360.533793400515
  0
LINE
  5
CF
100
AcDbEntity
  8
Layer 1
  6
ByLayer
 62
  256
370
   -1
100
AcDbLine
 10
-598.2613223732566
 20
360.533793400515
 11
-598.7904883732566
 21
358.840463400515
  0
LINE
  5
D0
100
AcDbEntity
  8
Layer 1
  6
ByLayer
 62
  256
370
   -1
100
AcDbLine
 10
-598.7904883732566
 20
358.840463400515
 11
-599.5313203732566
 21
357.217693400515
  0
LINE
  5
D1
100
AcDbEntity
  8
Layer 1
  6
ByLayer
 62
  256
370
   -1
100
AcDbLine
 10
-599.5313203732566
 20
357.217693400515
 11
-600.5190963732566
 21
355.7360334005151
  0
LINE
  5
D2
100
AcDbEntity
  8
Layer 1
  6
ByLayer
 62
  256
370
   -1
100
AcDbLine
 10
-600.5190963732566
 20
355.7360334005151
 11
-601.6832563732565
 21
354.430763400515
  0
LINE
  5
D3
100
AcDbEntity
  8
Layer 1
  6
ByLayer
 62
  256
370
   -1
100
AcDbLine
 10
-601.6832563732565
 20
354.430763400515
 11
-603.0590863732566
 21
353.301873400515
  0
LINE
  5
D4
100
AcDbEntity
  8
Layer 1
  6
ByLayer
 62
  256
370
   -1
100
AcDbLine
 10
-603.0590863732566
 20
353.301873400515
 11
-604.5407463732566
 21
352.384653400515
  0
LINE
  5
D5
100
AcDbEntity
  8
Layer 1
  6
ByLayer
 62
  256
370
   -1
100
AcDbLine
 10
-604.5407463732566
 20
352.384653400515
 11
-606.1635163732566
 21
351.679099400515
  0
LINE
  5
D6
100
AcDbEntity
  8
Layer 1
  6
ByLayer
 62
  256
370
   -1
100
AcDbLine
 10
-606.1635163732566
 20
351.679099400515
 11
-607.8921263732566
 21
351.255767400515
  0
LINE
  5
D7
100
AcDbEntity
  8
Layer 1
  6
ByLayer
 62
  256
370
   -1
100
AcDbLine
 10
-607.8921263732566
 20
351.255767400515
 11
-609.6560063732566
 21
351.044101400515
  0
LINE
  5
D8
100
AcDbEntity
  8
Layer 1
  6
ByLayer
 62
  256
370
   -1
100
AcDbLine
 10
-609.6560063732566
 20
351.044101400515
 11
-611.4198863732566
 21
351.1146564005151
  0
LINE
  5
D9
100
AcDbEntity
  8
Layer 1
  6
ByLayer
 62
  256
370
   -1
100
AcDbLine
 10
-611.4198863732566
 20
351.1146564005151
 11
-613.1484963732565
 21
351.4321554005151
  0
LINE
  5
DA
100
AcDbEntity
  8
Layer 1
  6
ByLayer
 62
  256
370
   -1
100
AcDbLine
 10
-613.1484963732565
 20
351.4321554005151
 11
-614.8065463732565
 21
351.996598400515
  0
LINE
  5
DB
100
AcDbEntity
  8
Layer 1
  6
ByLayer
 62
  256
370
   -1
100
AcDbLine
 10
-614.8065463732565
 20
351.996598400515
 11
-616.3940463732566
 21
352.8079854005151
  0
LINE
  5
DC
100
AcDbEntity
  8
Layer 1
  6
ByLayer
 62
  256
370
   -1
100
AcDbLine
 10
-616.3940463732566
 20
352.8079854005151
 11
-617.8404363732566
 21
353.8310354005151
  0
LINE
  5
DD
100
AcDbEntity
  8
Layer 1
  6
ByLayer
 62
  256
370
   -1
100
AcDbLine
 10
-617.8404363732566
 20
353.8310354005151
 11
-619.1104363732566
 21
355.0657554005151
  0
LINE
  5
DE
100
AcDbEntity
  8
Layer 1
  6
ByLayer
 62
  256
370
   -1
100
AcDbLine
 10
-619.1104363732566
 20
355.0657554005151
 11
-620.1687663732566
 21
356.476865400515
  0
LINE
  5
DF
100
AcDbEntity
  8
Layer 1
  6
ByLayer
 62
  256
370
   -1
100
AcDbLine
 10
-620.1687663732566
 20
356.476865400515
 11
-621.0507093732566
 21
358.029085400515
  0
LINE
  5
E0
100
AcDbEntity
  8
Layer 1
  6
ByLayer
 62
  256
370
   -1
100
AcDbLine
 10
-621.0507093732566
 20
358.029085400515
 11
-621.6857083732566
 21
359.651855400515
  0
LINE
  5
E1
100
AcDbEntity
  8
Layer 1
  6
ByLayer
 62
  256
370
   -1
100
AcDbLine
 10
-621.6857083732566
 20
359.651855400515
 11
-622.0384853732565
 21
361.380465400515
  0
LINE
  5
E2
100
AcDbEntity
  8
Layer 1
  6
ByLayer
 62
  256
370
   -1
100
AcDbLine
 10
-622.0384853732565
 20
361.380465400515
 11
-622.1795963732566
 21
363.144345400515
  0
LINE
  5
E3
100
AcDbEntity
  8
Layer 1
  6
ByLayer
 62
  256
370
   -1
100
AcDbLine
 10
-595.6859963732566
 20
374.6448454005151
 11
-595.5448853732565
 21
376.408725400515
  0
LINE
  5
E4
100
AcDbEntity
  8
Layer 1
  6
ByLayer
 62
  256
370
   -1
100
AcDbLine
 10
-595.5448853732565
 20
376.408725400515
 11
-595.1568303732566
 21
378.137335400515
  0
LINE
  5
E5
100
AcDbEntity
  8
Layer 1
  6
ByLayer
 62
  256
370
   -1
100
AcDbLine
 10
-595.1568303732566
 20
378.137335400515
 11
-594.5218313732565
 21
379.795385400515
  0
LINE
  5
E6
100
AcDbEntity
  8
Layer 1
  6
ByLayer
 62
  256
370
   -1
100
AcDbLine
 10
-594.5218313732565
 20
379.795385400515
 11
-593.6751663732566
 21
381.312325400515
  0
LINE
  5
E7
100
AcDbEntity
  8
Layer 1
  6
ByLayer
 62
  256
370
   -1
100
AcDbLine
 10
-593.6751663732566
 20
381.312325400515
 11
-592.5815563732566
 21
382.723435400515
  0
LINE
  5
E8
100
AcDbEntity
  8
Layer 1
  6
ByLayer
 62
  256
370
   -1
100
AcDbLine
 10
-592.5815563732566
 20
382.723435400515
 11
-591.3115563732566
 21
383.9581554005151
  0
LINE
  5
E9
100
AcDbEntity
  8
Layer 1
  6
ByLayer
 62
  256
370
   -1
100
AcDbLine
 10
-591.3115563732566
 20
383.9581554005151
 11
-589.9004463732566
 21
384.981205400515
  0
LINE
  5
EA
100
AcDbEntity
  8
Layer 1
  6
ByLayer
 62
  256
370
   -1
100
AcDbLine
 10
-589.9004463732566
 20
384.981205400515
 11
-588.3129463732565
 21
385.792592400515
  0
LINE
  5
EB
100
AcDbEntity
  8
Layer 1
  6
ByLayer
 62
  256
370
   -1
100
AcDbLine
 10
-588.3129463732565
 20
385.792592400515
 11
-586.6548963732566
 21
386.357035400515
  0
LINE
  5
EC
100
AcDbEntity
  8
Layer 1
  6
ByLayer
 62
  256
370
   -1
100
AcDbLine
 10
-586.6548963732566
 20
386.357035400515
 11
-584.8910163732565
 21
386.674534400515
  0
LINE
  5
ED
100
AcDbEntity
  8
Layer 1
  6
ByLayer
 62
  256
370
   -1
100
AcDbLine
 10
-584.8910163732565
 20
386.674534400515
 11
-583.1271363732566
 21
386.745090400515
  0
LINE
  5
EE
100
AcDbEntity
  8
Layer 1
  6
ByLayer
 62
  256
370
   -1
100
AcDbLine
 10
-583.1271363732566
 20
386.745090400515
 11
-581.3985263732566
 21
386.5334244005151
  0
LINE
  5
EF
100
AcDbEntity
  8
Layer 1
  6
ByLayer
 62
  256
370
   -1
100
AcDbLine
 10
-581.3985263732566
 20
386.5334244005151
 11
-579.6699163732566
 21
386.110092400515
  0
LINE
  5
F0
100
AcDbEntity
  8
Layer 1
  6
ByLayer
 62
  256
370
   -1
100
AcDbLine
 10
-579.6699163732566
 20
386.110092400515
 11
-578.0471463732566
 21
385.404538400515
  0
LINE
  5
F1
100
AcDbEntity
  8
Layer 1
  6
ByLayer
 62
  256
370
   -1
100
AcDbLine
 10
-578.0471463732566
 20
385.404538400515
 11
-576.5302063732566
 21
384.4873184005151
  0
LINE
  5
F2
100
AcDbEntity
  8
Layer 1
  6
ByLayer
 62
  256
370
   -1
100
AcDbLine
 10
-576.5302063732566
 20
384.4873184005151
 11
-575.1896563732565
 21
383.358428400515
  0
LINE
  5
F3
100
AcDbEntity
  8
Layer 1
  6
ByLayer
 62
  256
370
   -1
100
AcDbLine
 10
-575.1896563732565
 20
383.358428400515
 11
-573.9902163732567
 21
382.053158400515
  0
LINE
  5
F4
100
AcDbEntity
  8
Layer 1
  6
ByLayer
 62
  256
370
   -1
100
AcDbLine
 10
-573.9902163732567
 20
382.053158400515
 11
-573.0377183732566
 21
380.5714984005151
  0
LINE
  5
F5
100
AcDbEntity
  8
Layer 1
  6
ByLayer
 62
  256
370
   -1
100
AcDbLine
 10
-573.0377183732566
 20
380.5714984005151
 11
-572.2968863732566
 21
378.983998400515
  0
LINE
  5
F6
100
AcDbEntity
  8
Layer 1
  6
ByLayer
 62
  256
370
   -1
100
AcDbLine
 10
-572.2968863732566
 20
378.983998400515
 11
-571.7677203732566
 21
377.290668400515
  0
LINE
  5
F7
100
AcDbEntity
  8
Layer 1
  6
ByLayer
 62
  256
370
   -1
100
AcDbLine
 10
-571.7677203732566
 20
377.290668400515
 11
-571.5207763732566
 21
375.526788400515
  0
LINE
  5
F8
100
AcDbEntity
  8
Layer 1
  6
ByLayer
 62
  256
370
   -1
100
AcDbLine
 10
-571.5207763732566
 20
375.526788400515
 11
-571.5213783732567
 21
373.763403400515
  0
LINE
  5
F9
100
AcDbEntity
  8
Layer 1
  6
ByLayer
 62
  256
370
   -1
100
AcDbLine
 10
-571.5213783732567
 20
373.763403400515
 11
-571.7683223732566
 21
371.9995134005151
  0
LINE
  5
FA
100
AcDbEntity
  8
Layer 1
  6
ByLayer
 62
  256
370
   -1
100
AcDbLine
 10
-571.7683223732566
 20
371.9995134005151
 11
-572.2974883732566
 21
370.3414634005151
  0
LINE
  5
FB
100
AcDbEntity
  8
Layer 1
  6
ByLayer
 62
  256
370
   -1
100
AcDbLine
 10
-572.2974883732566
 20
370.3414634005151
 11
-573.0383203732566
 21
368.7186934005151
  0
LINE
  5
FC
100
AcDbEntity
  8
Layer 1
  6
ByLayer
 62
  256
370
   -1
100
AcDbLine
 10
-573.0383203732566
 20
368.7186934005151
 11
-573.9908183732566
 21
367.237033400515
  0
LINE
  5
FD
100
AcDbEntity
  8
Layer 1
  6
ByLayer
 62
  256
370
   -1
100
AcDbLine
 10
-573.9908183732566
 20
367.237033400515
 11
-575.1902583732566
 21
365.931763400515
  0
LINE
  5
FE
100
AcDbEntity
  8
Layer 1
  6
ByLayer
 62
  256
370
   -1
100
AcDbLine
 10
-575.1902583732566
 20
365.931763400515
 11
-576.5308083732566
 21
364.8028734005151
  0
LINE
  5
FF
100
AcDbEntity
  8
Layer 1
  6
ByLayer
 62
  256
370
   -1
100
AcDbLine
 10
-576.5308083732566
 20
364.8028734005151
 11
-578.0477483732566
 21
363.885653400515
  0
LINE
  5
100
100
AcDbEntity
  8
Layer 1
  6
ByLayer
 62
  256
370
   -1
100
AcDbLine
 10
-578.0477483732566
 20
363.885653400515
 11
-579.6705183732566
 21
363.180099400515
  0
LINE
  5
101
100
AcDbEntity
  8
Layer 1
  6
ByLayer
 62
  256
370
   -1
100
AcDbLine
 10
-579.6705183732566
 20
363.180099400515
 11
-581.3991283732565
 21
362.7567674005151
  0
LINE
  5
102
100
AcDbEntity
  8
Layer 1
  6
ByLayer
 62
  256
370
   -1
100
AcDbLine
 10
-581.3991283732565
 20
362.7567674005151
 11
-583.1277383732566
 21
362.545101400515
  0
LINE
  5
103
100
AcDbEntity
  8
Layer 1
  6
ByLayer
 62
  256
370
   -1
100
AcDbLine
 10
-583.1277383732566
 20
362.545101400515
 11
-584.8916183732566
 21
362.615656400515
  0
LINE
  5
104
100
AcDbEntity
  8
Layer 1
  6
ByLayer
 62
  256
370
   -1
100
AcDbLine
 10
-584.8916183732566
 20
362.615656400515
 11
-586.6554983732566
 21
362.933155400515
  0
LINE
  5
105
100
AcDbEntity
  8
Layer 1
  6
ByLayer
 62
  256
370
   -1
100
AcDbLine
 10
-586.6554983732566
 20
362.933155400515
 11
-588.3135483732566
 21
363.497598400515
  0
LINE
  5
106
100
AcDbEntity
  8
Layer 1
  6
ByLayer
 62
  256
370
   -1
100
AcDbLine
 10
-588.3135483732566
 20
363.497598400515
 11
-589.9010483732566
 21
364.308985400515
  0
LINE
  5
107
100
AcDbEntity
  8
Layer 1
  6
ByLayer
 62
  256
370
   -1
100
AcDbLine
 10
-589.9010483732566
 20
364.308985400515
 11
-591.3121583732566
 21
365.3320354005151
  0
LINE
  5
108
100
AcDbEntity
  8
Layer 1
  6
ByLayer
 62
  256
370
   -1
100
AcDbLine
 10
-591.3121583732566
 20
365.3320354005151
 11
-592.5821583732566
 21
366.566755400515
  0
LINE
  5
109
100
AcDbEntity
  8
Layer 1
  6
ByLayer
 62
  256
370
   -1
100
AcDbLine
 10
-592.5821583732566
 20
366.566755400515
 11
-593.6757683732566
 21
367.977865400515
  0
LINE
  5
10A
100
AcDbEntity
  8
Layer 1
  6
ByLayer
 62
  256
370
   -1
100
AcDbLine
 10
-593.6757683732566
 20
367.977865400515
 11
-594.5224333732566
 21
369.494805400515
  0
LINE
  5
10B
100
AcDbEntity
  8
Layer 1
  6
ByLayer
 62
  256
370
   -1
100
AcDbLine
 10
-594.5224333732566
 20
369.494805400515
 11
-595.1574323732566
 21
371.152855400515
  0
LINE
  5
10C
100
AcDbEntity
  8
Layer 1
  6
ByLayer
 62
  256
370
   -1
100
AcDbLine
 10
-595.1574323732566
 20
371.152855400515
 11
-595.5454873732566
 21
372.881465400515
  0
LINE
  5
10D
100
AcDbEntity
  8
Layer 1
  6
ByLayer
 62
  256
370
   -1
100
AcDbLine
 10
-595.5454873732566
 20
372.881465400515
 11
-595.6865983732566
 21
374.645355400515
  0
LINE
  5
10E
100
AcDbEntity
  8
Layer 1
  6
ByLayer
 62
  256
370
   -1
100
AcDbLine
 10
-566.6882983732565
 20
374.645355400515
 11
-566.5471873732566
 21
376.4092354005151
  0
LINE
  5
10F
100
AcDbEntity
  8
Layer 1
  6
ByLayer
 62
  256
370
   -1
100
AcDbLine
 10
-566.5471873732566
 20
376.4092354005151
 11
-566.1591323732566
 21
378.1378454005151
  0
LINE
  5
110
100
AcDbEntity
  8
Layer 1
  6
ByLayer
 62
  256
370
   -1
100
AcDbLine
 10
-566.1591323732566
 20
378.1378454005151
 11
-565.5241333732566
 21
379.7958954005151
  0
LINE
  5
111
100
AcDbEntity
  8
Layer 1
  6
ByLayer
 62
  256
370
   -1
100
AcDbLine
 10
-565.5241333732566
 20
379.7958954005151
 11
-564.6774683732566
 21
381.312835400515
  0
LINE
  5
112
100
AcDbEntity
  8
Layer 1
  6
ByLayer
 62
  256
370
   -1
100
AcDbLine
 10
-564.6774683732566
 20
381.312835400515
 11
-563.5838583732566
 21
382.723945400515
  0
LINE
  5
113
100
AcDbEntity
  8
Layer 1
  6
ByLayer
 62
  256
370
   -1
100
AcDbLine
 10
-563.5838583732566
 20
382.723945400515
 11
-562.3138583732566
 21
383.958665400515
  0
LINE
  5
114
100
AcDbEntity
  8
Layer 1
  6
ByLayer
 62
  256
370
   -1
100
AcDbLine
 10
-562.3138583732566
 20
383.958665400515
 11
-560.9027483732566
 21
384.981715400515
  0
LINE
  5
115
100
AcDbEntity
  8
Layer 1
  6
ByLayer
 62
  256
370
   -1
100
AcDbLine
 10
-560.9027483732566
 20
384.981715400515
 11
-559.3152483732566
 21
385.7931024005151
  0
LINE
  5
116
100
AcDbEntity
  8
Layer 1
  6
ByLayer
 62
  256
370
   -1
100
AcDbLine
 10
-559.3152483732566
 20
385.7931024005151
 11
-557.6571983732566
 21
386.3575454005151
  0
LINE
  5
117
100
AcDbEntity
  8
Layer 1
  6
ByLayer
 62
  256
370
   -1
100
AcDbLine
 10
-557.6571983732566
 20
386.3575454005151
 11
-555.8933083732566
 21
386.675044400515
  0
LINE
  5
118
100
AcDbEntity
  8
Layer 1
  6
ByLayer
 62
  256
370
   -1
100
AcDbLine
 10
-555.8933083732566
 20
386.675044400515
 11
-554.1294283732566
 21
386.7456004005151
  0
LINE
  5
119
100
AcDbEntity
  8
Layer 1
  6
ByLayer
 62
  256
370
   -1
100
AcDbLine
 10
-554.1294283732566
 20
386.7456004005151
 11
-552.4008183732566
 21
386.533934400515
  0
LINE
  5
11A
100
AcDbEntity
  8
Layer 1
  6
ByLayer
 62
  256
370
   -1
100
AcDbLine
 10
-552.4008183732566
 20
386.533934400515
 11
-550.6722083732566
 21
386.1106024005151
  0
LINE
  5
11B
100
AcDbEntity
  8
Layer 1
  6
ByLayer
 62
  256
370
   -1
100
AcDbLine
 10
-550.6722083732566
 20
386.1106024005151
 11
-549.0494383732566
 21
385.4050484005151
  0
LINE
  5
11C
100
AcDbEntity
  8
Layer 1
  6
ByLayer
 62
  256
370
   -1
100
AcDbLine
 10
-549.0494383732566
 20
385.4050484005151
 11
-547.5324983732565
 21
384.4878284005151
  0
LINE
  5
11D
100
AcDbEntity
  8
Layer 1
  6
ByLayer
 62
  256
370
   -1
100
AcDbLine
 10
-547.5324983732565
 20
384.4878284005151
 11
-546.1919483732565
 21
383.3589384005151
  0
LINE
  5
11E
100
AcDbEntity
  8
Layer 1
  6
ByLayer
 62
  256
370
   -1
100
AcDbLine
 10
-546.1919483732565
 20
383.3589384005151
 11
-544.9925083732566
 21
382.0536684005151
  0
LINE
  5
11F
100
AcDbEntity
  8
Layer 1
  6
ByLayer
 62
  256
370
   -1
100
AcDbLine
 10
-544.9925083732566
 20
382.0536684005151
 11
-544.0400103732566
 21
380.572008400515
  0
LINE
  5
120
100
AcDbEntity
  8
Layer 1
  6
ByLayer
 62
  256
370
   -1
100
AcDbLine
 10
-544.0400103732566
 20
380.572008400515
 11
-543.2991783732566
 21
378.984508400515
  0
LINE
  5
121
100
AcDbEntity
  8
Layer 1
  6
ByLayer
 62
  256
370
   -1
100
AcDbLine
 10
-543.2991783732566
 20
378.984508400515
 11
-542.7700123732566
 21
377.291178400515
  0
LINE
  5
122
100
AcDbEntity
  8
Layer 1
  6
ByLayer
 62
  256
370
   -1
100
AcDbLine
 10
-542.7700123732566
 20
377.291178400515
 11
-542.5230683732566
 21
375.5272984005151
  0
LINE
  5
123
100
AcDbEntity
  8
Layer 1
  6
ByLayer
 62
  256
370
   -1
100
AcDbLine
 10
-542.5230683732566
 20
375.5272984005151
 11
-542.5223783732566
 21
373.763403400515
  0
LINE
  5
124
100
AcDbEntity
  8
Layer 1
  6
ByLayer
 62
  256
370
   -1
100
AcDbLine
 10
-542.5223783732566
 20
373.763403400515
 11
-542.7693223732567
 21
371.999523400515
  0
LINE
  5
125
100
AcDbEntity
  8
Layer 1
  6
ByLayer
 62
  256
370
   -1
100
AcDbLine
 10
-542.7693223732567
 20
371.999523400515
 11
-543.2984883732566
 21
370.341473400515
  0
LINE
  5
126
100
AcDbEntity
  8
Layer 1
  6
ByLayer
 62
  256
370
   -1
100
AcDbLine
 10
-543.2984883732566
 20
370.341473400515
 11
-544.0393203732566
 21
368.718703400515
  0
LINE
  5
127
100
AcDbEntity
  8
Layer 1
  6
ByLayer
 62
  256
370
   -1
100
AcDbLine
 10
-544.0393203732566
 20
368.718703400515
 11
-544.9918183732566
 21
367.2370434005151
  0
LINE
  5
128
100
AcDbEntity
  8
Layer 1
  6
ByLayer
 62
  256
370
   -1
100
AcDbLine
 10
-544.9918183732566
 20
367.2370434005151
 11
-546.1912583732566
 21
365.9317734005151
  0
LINE
  5
129
100
AcDbEntity
  8
Layer 1
  6
ByLayer
 62
  256
370
   -1
100
AcDbLine
 10
-546.1912583732566
 20
365.9317734005151
 11
-547.5318083732566
 21
364.802883400515
  0
LINE
  5
12A
100
AcDbEntity
  8
Layer 1
  6
ByLayer
 62
  256
370
   -1
100
AcDbLine
 10
-547.5318083732566
 20
364.802883400515
 11
-549.0487483732566
 21
363.8856634005151
  0
LINE
  5
12B
100
AcDbEntity
  8
Layer 1
  6
ByLayer
 62
  256
370
   -1
100
AcDbLine
 10
-549.0487483732566
 20
363.8856634005151
 11
-550.6715183732566
 21
363.1801094005151
  0
LINE
  5
12C
100
AcDbEntity
  8
Layer 1
  6
ByLayer
 62
  256
370
   -1
100
AcDbLine
 10
-550.6715183732566
 20
363.1801094005151
 11
-552.4001283732566
 21
362.756777400515
  0
LINE
  5
12D
100
AcDbEntity
  8
Layer 1
  6
ByLayer
 62
  256
370
   -1
100
AcDbLine
 10
-552.4001283732566
 20
362.756777400515
 11
-554.1287383732566
 21
362.5451114005151
  0
LINE
  5
12E
100
AcDbEntity
  8
Layer 1
  6
ByLayer
 62
  256
370
   -1
100
AcDbLine
 10
-554.1287383732566
 20
362.5451114005151
 11
-555.8926183732566
 21
362.6156664005151
  0
LINE
  5
12F
100
AcDbEntity
  8
Layer 1
  6
ByLayer
 62
  256
370
   -1
100
AcDbLine
 10
-555.8926183732566
 20
362.6156664005151
 11
-557.6565083732565
 21
362.9331654005151
  0
LINE
  5
130
100
AcDbEntity
  8
Layer 1
  6
ByLayer
 62
  256
370
   -1
100
AcDbLine
 10
-557.6565083732565
 20
362.9331654005151
 11
-559.3145583732565
 21
363.497608400515
  0
LINE
  5
131
100
AcDbEntity
  8
Layer 1
  6
ByLayer
 62
  256
370
   -1
100
AcDbLine
 10
-559.3145583732565
 20
363.497608400515
 11
-560.9020583732566
 21
364.308995400515
  0
LINE
  5
132
100
AcDbEntity
  8
Layer 1
  6
ByLayer
 62
  256
370
   -1
100
AcDbLine
 10
-560.9020583732566
 20
364.308995400515
 11
-562.3131683732566
 21
365.332045400515
  0
LINE
  5
133
100
AcDbEntity
  8
Layer 1
  6
ByLayer
 62
  256
370
   -1
100
AcDbLine
 10
-562.3131683732566
 20
365.332045400515
 11
-563.5831683732566
 21
366.5667654005151
  0
LINE
  5
134
100
AcDbEntity
  8
Layer 1
  6
ByLayer
 62
  256
370
   -1
100
AcDbLine
 10
-563.5831683732566
 20
366.5667654005151
 11
-564.6767783732565
 21
367.977875400515
  0
LINE
  5
135
100
AcDbEntity
  8
Layer 1
  6
ByLayer
 62
  256
370
   -1
100
AcDbLine
 10
-564.6767783732565
 20
367.977875400515
 11
-565.5234433732566
 21
369.4948154005151
  0
LINE
  5
136
100
AcDbEntity
  8
Layer 1
  6
ByLayer
 62
  256
370
   -1
100
AcDbLine
 10
-565.5234433732566
 20
369.4948154005151
 11
-566.1584423732567
 21
371.1528654005151
  0
LINE
  5
137
100
AcDbEntity
  8
Layer 1
  6
ByLayer
 62
  256
370
   -1
100
AcDbLine
 10
-566.1584423732567
 20
371.1528654005151
 11
-566.5464973732566
 21
372.8814754005151
  0
LINE
  5
138
100
AcDbEntity
  8
Layer 1
  6
ByLayer
 62
  256
370
   -1
100
AcDbLine
 10
-566.5464973732566
 20
372.8814754005151
 11
-566.6876083732566
 21
374.645355400515
  0
LINE
  5
139
100
AcDbEntity
  8
Layer 1
  6
ByLayer
 62
  256
370
   -1
100
AcDbLine
 10
-606.7983083732566
 20
311.145455400515
 11
-606.6571973732566
 21
312.909335400515
  0
LINE
  5
13A
100
AcDbEntity
  8
Layer 1
  6
ByLayer
 62
  256
370
   -1
100
AcDbLine
 10
-606.6571973732566
 20
312.909335400515
 11
-606.2691423732566
 21
314.637945400515
  0
LINE
  5
13B
100
AcDbEntity
  8
Layer 1
  6
ByLayer
 62
  256
370
   -1
100
AcDbLine
 10
-606.2691423732566
 20
314.637945400515
 11
-605.6341433732566
 21
316.295995400515
  0
LINE
  5
13C
100
AcDbEntity
  8
Layer 1
  6
ByLayer
 62
  256
370
   -1
100
AcDbLine
 10
-605.6341433732566
 20
316.295995400515
 11
-604.7874783732566
 21
317.812935400515
  0
LINE
  5
13D
100
AcDbEntity
  8
Layer 1
  6
ByLayer
 62
  256
370
   -1
100
AcDbLine
 10
-604.7874783732566
 20
317.812935400515
 11
-603.6938683732566
 21
319.224045400515
  0
LINE
  5
13E
100
AcDbEntity
  8
Layer 1
  6
ByLayer
 62
  256
370
   -1
100
AcDbLine
 10
-603.6938683732566
 20
319.224045400515
 11
-602.4238683732566
 21
320.458765400515
  0
LINE
  5
13F
100
AcDbEntity
  8
Layer 1
  6
ByLayer
 62
  256
370
   -1
100
AcDbLine
 10
-602.4238683732566
 20
320.458765400515
 11
-600.9774783732565
 21
321.481815400515
  0
LINE
  5
140
100
AcDbEntity
  8
Layer 1
  6
ByLayer
 62
  256
370
   -1
100
AcDbLine
 10
-600.9774783732565
 20
321.481815400515
 11
-599.4252583732566
 21
322.293202400515
  0
LINE
  5
141
100
AcDbEntity
  8
Layer 1
  6
ByLayer
 62
  256
370
   -1
100
AcDbLine
 10
-599.4252583732566
 20
322.293202400515
 11
-597.7319283732566
 21
322.857645400515
  0
LINE
  5
142
100
AcDbEntity
  8
Layer 1
  6
ByLayer
 62
  256
370
   -1
100
AcDbLine
 10
-597.7319283732566
 20
322.857645400515
 11
-596.0033183732565
 21
323.175144400515
  0
LINE
  5
143
100
AcDbEntity
  8
Layer 1
  6
ByLayer
 62
  256
370
   -1
100
AcDbLine
 10
-596.0033183732565
 20
323.175144400515
 11
-594.2394383732566
 21
323.245700400515
  0
LINE
  5
144
100
AcDbEntity
  8
Layer 1
  6
ByLayer
 62
  256
370
   -1
100
AcDbLine
 10
-594.2394383732566
 20
323.245700400515
 11
-592.4755483732566
 21
323.0340344005151
  0
LINE
  5
145
100
AcDbEntity
  8
Layer 1
  6
ByLayer
 62
  256
370
   -1
100
AcDbLine
 10
-592.4755483732566
 20
323.0340344005151
 11
-590.7822183732566
 21
322.610702400515
  0
LINE
  5
146
100
AcDbEntity
  8
Layer 1
  6
ByLayer
 62
  256
370
   -1
100
AcDbLine
 10
-590.7822183732566
 20
322.610702400515
 11
-589.1594483732566
 21
321.905148400515
  0
LINE
  5
147
100
AcDbEntity
  8
Layer 1
  6
ByLayer
 62
  256
370
   -1
100
AcDbLine
 10
-589.1594483732566
 20
321.905148400515
 11
-587.6425083732566
 21
320.987928400515
  0
LINE
  5
148
100
AcDbEntity
  8
Layer 1
  6
ByLayer
 62
  256
370
   -1
100
AcDbLine
 10
-587.6425083732566
 20
320.987928400515
 11
-586.3019583732565
 21
319.859038400515
  0
LINE
  5
149
100
AcDbEntity
  8
Layer 1
  6
ByLayer
 62
  256
370
   -1
100
AcDbLine
 10
-586.3019583732565
 20
319.859038400515
 11
-585.1025183732567
 21
318.553768400515
  0
LINE
  5
14A
100
AcDbEntity
  8
Layer 1
  6
ByLayer
 62
  256
370
   -1
100
AcDbLine
 10
-585.1025183732567
 20
318.553768400515
 11
-584.1147423732566
 21
317.072108400515
  0
LINE
  5
14B
100
AcDbEntity
  8
Layer 1
  6
ByLayer
 62
  256
370
   -1
100
AcDbLine
 10
-584.1147423732566
 20
317.072108400515
 11
-583.3739103732565
 21
315.484608400515
  0
LINE
  5
14C
100
AcDbEntity
  8
Layer 1
  6
ByLayer
 62
  256
370
   -1
100
AcDbLine
 10
-583.3739103732565
 20
315.484608400515
 11
-582.8800223732566
 21
313.791278400515
  0
LINE
  5
14D
100
AcDbEntity
  8
Layer 1
  6
ByLayer
 62
  256
370
   -1
100
AcDbLine
 10
-582.8800223732566
 20
313.791278400515
 11
-582.5978003732566
 21
312.027388400515
  0
LINE
  5
14E
100
AcDbEntity
  8
Layer 1
  6
ByLayer
 62
  256
370
   -1
100
AcDbLine
 10
-582.5978003732566
 20
312.027388400515
 11
-582.5983783732567
 21
310.263503400515
  0
LINE
  5
14F
100
AcDbEntity
  8
Layer 1
  6
ByLayer
 62
  256
370
   -1
100
AcDbLine
 10
-582.5983783732567
 20
310.263503400515
 11
-582.8806003732566
 21
308.499613400515
  0
LINE
  5
150
100
AcDbEntity
  8
Layer 1
  6
ByLayer
 62
  256
370
   -1
100
AcDbLine
 10
-582.8806003732566
 20
308.499613400515
 11
-583.3744883732566
 21
306.841563400515
  0
LINE
  5
151
100
AcDbEntity
  8
Layer 1
  6
ByLayer
 62
  256
370
   -1
100
AcDbLine
 10
-583.3744883732566
 20
306.841563400515
 11
-584.1153203732566
 21
305.218793400515
  0
LINE
  5
152
100
AcDbEntity
  8
Layer 1
  6
ByLayer
 62
  256
370
   -1
100
AcDbLine
 10
-584.1153203732566
 20
305.218793400515
 11
-585.1030963732566
 21
303.737133400515
  0
LINE
  5
153
100
AcDbEntity
  8
Layer 1
  6
ByLayer
 62
  256
370
   -1
100
AcDbLine
 10
-585.1030963732566
 20
303.737133400515
 11
-586.3025363732567
 21
302.4318634005151
  0
LINE
  5
154
100
AcDbEntity
  8
Layer 1
  6
ByLayer
 62
  256
370
   -1
100
AcDbLine
 10
-586.3025363732567
 20
302.4318634005151
 11
-587.6430863732566
 21
301.302973400515
  0
LINE
  5
155
100
AcDbEntity
  8
Layer 1
  6
ByLayer
 62
  256
370
   -1
100
AcDbLine
 10
-587.6430863732566
 20
301.302973400515
 11
-589.1600263732565
 21
300.3857534005151
  0
LINE
  5
156
100
AcDbEntity
  8
Layer 1
  6
ByLayer
 62
  256
370
   -1
100
AcDbLine
 10
-589.1600263732565
 20
300.3857534005151
 11
-590.7827963732566
 21
299.6801994005151
  0
LINE
  5
157
100
AcDbEntity
  8
Layer 1
  6
ByLayer
 62
  256
370
   -1
100
AcDbLine
 10
-590.7827963732566
 20
299.6801994005151
 11
-592.4761263732565
 21
299.256867400515
  0
LINE
  5
158
100
AcDbEntity
  8
Layer 1
  6
ByLayer
 62
  256
370
   -1
100
AcDbLine
 10
-592.4761263732565
 20
299.256867400515
 11
-594.2400163732566
 21
299.0452014005151
  0
LINE
  5
159
100
AcDbEntity
  8
Layer 1
  6
ByLayer
 62
  256
370
   -1
100
AcDbLine
 10
-594.2400163732566
 20
299.0452014005151
 11
-596.0038963732566
 21
299.1157564005151
  0
LINE
  5
15A
100
AcDbEntity
  8
Layer 1
  6
ByLayer
 62
  256
370
   -1
100
AcDbLine
 10
-596.0038963732566
 20
299.1157564005151
 11
-597.7325063732566
 21
299.4332554005151
  0
LINE
  5
15B
100
AcDbEntity
  8
Layer 1
  6
ByLayer
 62
  256
370
   -1
100
AcDbLine
 10
-597.7325063732566
 20
299.4332554005151
 11
-599.4258363732566
 21
299.997698400515
  0
LINE
  5
15C
100
AcDbEntity
  8
Layer 1
  6
ByLayer
 62
  256
370
   -1
100
AcDbLine
 10
-599.4258363732566
 20
299.997698400515
 11
-600.9780563732565
 21
300.809085400515
  0
LINE
  5
15D
100
AcDbEntity
  8
Layer 1
  6
ByLayer
 62
  256
370
   -1
100
AcDbLine
 10
-600.9780563732565
 20
300.809085400515
 11
-602.4244463732566
 21
301.832135400515
  0
LINE
  5
15E
100
AcDbEntity
  8
Layer 1
  6
ByLayer
 62
  256
370
   -1
100
AcDbLine
 10
-602.4244463732566
 20
301.832135400515
 11
-603.6944463732566
 21
303.0668554005151
  0
LINE
  5
15F
100
AcDbEntity
  8
Layer 1
  6
ByLayer
 62
  256
370
   -1
100
AcDbLine
 10
-603.6944463732566
 20
303.0668554005151
 11
-604.7880563732566
 21
304.477965400515
  0
LINE
  5
160
100
AcDbEntity
  8
Layer 1
  6
ByLayer
 62
  256
370
   -1
100
AcDbLine
 10
-604.7880563732566
 20
304.477965400515
 11
-605.6347213732566
 21
305.9949054005151
  0
LINE
  5
161
100
AcDbEntity
  8
Layer 1
  6
ByLayer
 62
  256
370
   -1
100
AcDbLine
 10
-605.6347213732566
 20
305.9949054005151
 11
-606.2697203732566
 21
307.6529554005151
  0
LINE
  5
162
100
AcDbEntity
  8
Layer 1
  6
ByLayer
 62
  256
370
   -1
100
AcDbLine
 10
-606.2697203732566
 20
307.6529554005151
 11
-606.6577753732566
 21
309.3815654005151
  0
LINE
  5
163
100
AcDbEntity
  8
Layer 1
  6
ByLayer
 62
  256
370
   -1
100
AcDbLine
 10
-606.6577753732566
 20
309.3815654005151
 11
-606.7988863732566
 21
311.145455400515
  0
LINE
  5
164
100
AcDbEntity
  8
Layer 1
  6
ByLayer
 62
  256
370
   -1
100
AcDbLine
 10
-642.7821863732566
 20
298.657155400515
 11
-642.6410753732566
 21
300.632705400515
  0
LINE
  5
165
100
AcDbEntity
  8
Layer 1
  6
ByLayer
 62
  256
370
   -1
100
AcDbLine
 10
-642.6410753732566
 20
300.632705400515
 11
-642.2530203732566
 21
302.572975400515
  0
LINE
  5
166
100
AcDbEntity
  8
Layer 1
  6
ByLayer
 62
  256
370
   -1
100
AcDbLine
 10
-642.2530203732566
 20
302.572975400515
 11
-641.6180213732566
 21
304.442695400515
  0
LINE
  5
167
100
AcDbEntity
  8
Layer 1
  6
ByLayer
 62
  256
370
   -1
100
AcDbLine
 10
-641.6180213732566
 20
304.442695400515
 11
-640.7713563732566
 21
306.2065854005151
  0
LINE
  5
168
100
AcDbEntity
  8
Layer 1
  6
ByLayer
 62
  256
370
   -1
100
AcDbLine
 10
-640.7713563732566
 20
306.2065854005151
 11
-639.6777463732566
 21
307.829355400515
  0
LINE
  5
169
100
AcDbEntity
  8
Layer 1
  6
ByLayer
 62
  256
370
   -1
100
AcDbLine
 10
-639.6777463732566
 20
307.829355400515
 11
-638.3724763732566
 21
309.311015400515
  0
LINE
  5
16A
100
AcDbEntity
  8
Layer 1
  6
ByLayer
 62
  256
370
   -1
100
AcDbLine
 10
-638.3724763732566
 20
309.311015400515
 11
-636.8908163732566
 21
310.616285400515
  0
LINE
  5
16B
100
AcDbEntity
  8
Layer 1
  6
ByLayer
 62
  256
370
   -1
100
AcDbLine
 10
-636.8908163732566
 20
310.616285400515
 11
-635.2327663732566
 21
311.7098954005151
  0
LINE
  5
16C
100
AcDbEntity
  8
Layer 1
  6
ByLayer
 62
  256
370
   -1
100
AcDbLine
 10
-635.2327663732566
 20
311.7098954005151
 11
-633.4688863732566
 21
312.591838400515
  0
LINE
  5
16D
100
AcDbEntity
  8
Layer 1
  6
ByLayer
 62
  256
370
   -1
100
AcDbLine
 10
-633.4688863732566
 20
312.591838400515
 11
-631.5991663732566
 21
313.226837400515
  0
LINE
  5
16E
100
AcDbEntity
  8
Layer 1
  6
ByLayer
 62
  256
370
   -1
100
AcDbLine
 10
-631.5991663732566
 20
313.226837400515
 11
-629.6588963732567
 21
313.614892400515
  0
LINE
  5
16F
100
AcDbEntity
  8
Layer 1
  6
ByLayer
 62
  256
370
   -1
100
AcDbLine
 10
-629.6588963732567
 20
313.614892400515
 11
-627.6833463732565
 21
313.756003400515
  0
LINE
  5
170
100
AcDbEntity
  8
Layer 1
  6
ByLayer
 62
  256
370
   -1
100
AcDbLine
 10
-627.6833463732565
 20
313.756003400515
 11
-625.7077963732567
 21
313.614892400515
  0
LINE
  5
171
100
AcDbEntity
  8
Layer 1
  6
ByLayer
 62
  256
370
   -1
100
AcDbLine
 10
-625.7077963732567
 20
313.614892400515
 11
-623.7675263732566
 21
313.226837400515
  0
LINE
  5
172
100
AcDbEntity
  8
Layer 1
  6
ByLayer
 62
  256
370
   -1
100
AcDbLine
 10
-623.7675263732566
 20
313.226837400515
 11
-621.8978063732566
 21
312.591838400515
  0
LINE
  5
173
100
AcDbEntity
  8
Layer 1
  6
ByLayer
 62
  256
370
   -1
100
AcDbLine
 10
-621.8978063732566
 20
312.591838400515
 11
-620.1339263732566
 21
311.7098954005151
  0
LINE
  5
174
100
AcDbEntity
  8
Layer 1
  6
ByLayer
 62
  256
370
   -1
100
AcDbLine
 10
-620.1339263732566
 20
311.7098954005151
 11
-618.4758763732566
 21
310.616285400515
  0
LINE
  5
175
100
AcDbEntity
  8
Layer 1
  6
ByLayer
 62
  256
370
   -1
100
AcDbLine
 10
-618.4758763732566
 20
310.616285400515
 11
-616.9942163732566
 21
309.311015400515
  0
LINE
  5
176
100
AcDbEntity
  8
Layer 1
  6
ByLayer
 62
  256
370
   -1
100
AcDbLine
 10
-616.9942163732566
 20
309.311015400515
 11
-615.6889463732566
 21
307.829355400515
  0
LINE
  5
177
100
AcDbEntity
  8
Layer 1
  6
ByLayer
 62
  256
370
   -1
100
AcDbLine
 10
-615.6889463732566
 20
307.829355400515
 11
-614.5953363732566
 21
306.2065854005151
  0
LINE
  5
178
100
AcDbEntity
  8
Layer 1
  6
ByLayer
 62
  256
370
   -1
100
AcDbLine
 10
-614.5953363732566
 20
306.2065854005151
 11
-613.7486713732566
 21
304.442695400515
  0
LINE
  5
179
100
AcDbEntity
  8
Layer 1
  6
ByLayer
 62
  256
370
   -1
100
AcDbLine
 10
-613.7486713732566
 20
304.442695400515
 11
-613.1136723732566
 21
302.572975400515
  0
LINE
  5
17A
100
AcDbEntity
  8
Layer 1
  6
ByLayer
 62
  256
370
   -1
100
AcDbLine
 10
-613.1136723732566
 20
302.572975400515
 11
-612.7256173732566
 21
300.632705400515
  0
LINE
  5
17B
100
AcDbEntity
  8
Layer 1
  6
ByLayer
 62
  256
370
   -1
100
AcDbLine
 10
-612.7256173732566
 20
300.632705400515
 11
-612.5845063732567
 21
298.657155400515
  0
LINE
  5
17C
100
AcDbEntity
  8
Layer 1
  6
ByLayer
 62
  256
370
   -1
100
AcDbLine
 10
-612.5845063732567
 20
298.657155400515
 11
-612.7256173732566
 21
296.681605400515
  0
LINE
  5
17D
100
AcDbEntity
  8
Layer 1
  6
ByLayer
 62
  256
370
   -1
100
AcDbLine
 10
-612.7256173732566
 20
296.681605400515
 11
-613.1136723732566
 21
294.741335400515
  0
LINE
  5
17E
100
AcDbEntity
  8
Layer 1
  6
ByLayer
 62
  256
370
   -1
100
AcDbLine
 10
-613.1136723732566
 20
294.741335400515
 11
-613.7486713732566
 21
292.8716154005151
  0
LINE
  5
17F
100
AcDbEntity
  8
Layer 1
  6
ByLayer
 62
  256
370
   -1
100
AcDbLine
 10
-613.7486713732566
 20
292.8716154005151
 11
-614.5953363732566
 21
291.1077254005151
  0
LINE
  5
180
100
AcDbEntity
  8
Layer 1
  6
ByLayer
 62
  256
370
   -1
100
AcDbLine
 10
-614.5953363732566
 20
291.1077254005151
 11
-615.6889463732566
 21
289.449675400515
  0
LINE
  5
181
100
AcDbEntity
  8
Layer 1
  6
ByLayer
 62
  256
370
   -1
100
AcDbLine
 10
-615.6889463732566
 20
289.449675400515
 11
-616.9942163732566
 21
287.968015400515
  0
LINE
  5
182
100
AcDbEntity
  8
Layer 1
  6
ByLayer
 62
  256
370
   -1
100
AcDbLine
 10
-616.9942163732566
 20
287.968015400515
 11
-618.4758763732566
 21
286.662745400515
  0
LINE
  5
183
100
AcDbEntity
  8
Layer 1
  6
ByLayer
 62
  256
370
   -1
100
AcDbLine
 10
-618.4758763732566
 20
286.662745400515
 11
-620.1339263732566
 21
285.5691354005151
  0
LINE
  5
184
100
AcDbEntity
  8
Layer 1
  6
ByLayer
 62
  256
370
   -1
100
AcDbLine
 10
-620.1339263732566
 20
285.5691354005151
 11
-621.8978063732566
 21
284.687192400515
  0
LINE
  5
185
100
AcDbEntity
  8
Layer 1
  6
ByLayer
 62
  256
370
   -1
100
AcDbLine
 10
-621.8978063732566
 20
284.687192400515
 11
-623.7675263732566
 21
284.052193400515
  0
LINE
  5
186
100
AcDbEntity
  8
Layer 1
  6
ByLayer
 62
  256
370
   -1
100
AcDbLine
 10
-623.7675263732566
 20
284.052193400515
 11
-625.7077963732567
 21
283.664138400515
  0
LINE
  5
187
100
AcDbEntity
  8
Layer 1
  6
ByLayer
 62
  256
370
   -1
100
AcDbLine
 10
-625.7077963732567
 20
283.664138400515
 11
-627.6833463732565
 21
283.5583054005151
  0
LINE
  5
188
100
AcDbEntity
  8
Layer 1
  6
ByLayer
 62
  256
370
   -1
100
AcDbLine
 10
-627.6833463732565
 20
283.5583054005151
 11
-629.6588963732567
 21
283.664138400515
  0
LINE
  5
189
100
AcDbEntity
  8
Layer 1
  6
ByLayer
 62
  256
370
   -1
100
AcDbLine
 10
-629.6588963732567
 20
283.664138400515
 11
-631.5991663732566
 21
284.052193400515
  0
LINE
  5
18A
100
AcDbEntity
  8
Layer 1
  6
ByLayer
 62
  256
370
   -1
100
AcDbLine
 10
-631.5991663732566
 20
284.052193400515
 11
-633.4688863732566
 21
284.687192400515
  0
LINE
  5
18B
100
AcDbEntity
  8
Layer 1
  6
ByLayer
 62
  256
370
   -1
100
AcDbLine
 10
-633.4688863732566
 20
284.687192400515
 11
-635.2327663732566
 21
285.5691354005151
  0
LINE
  5
18C
100
AcDbEntity
  8
Layer 1
  6
ByLayer
 62
  256
370
   -1
100
AcDbLine
 10
-635.2327663732566
 20
285.5691354005151
 11
-636.8908163732566
 21
286.662745400515
  0
LINE
  5
18D
100
AcDbEntity
  8
Layer 1
  6
ByLayer
 62
  256
370
   -1
100
AcDbLine
 10
-636.8908163732566
 20
286.662745400515
 11
-638.3724763732566
 21
287.968015400515
  0
LINE
  5
18E
100
AcDbEntity
  8
Layer 1
  6
ByLayer
 62
  256
370
   -1
100
AcDbLine
 10
-638.3724763732566
 20
287.968015400515
 11
-639.6777463732566
 21
289.449675400515
  0
LINE
  5
18F
100
AcDbEntity
  8
Layer 1
  6
ByLayer
 62
  256
370
   -1
100
AcDbLine
 10
-639.6777463732566
 20
289.449675400515
 11
-640.7713563732566
 21
291.1077254005151
  0
LINE
  5
190
100
AcDbEntity
  8
Layer 1
  6
ByLayer
 62
  256
370
   -1
100
AcDbLine
 10
-640.7713563732566
 20
291.1077254005151
 11
-641.6180213732566
 21
292.8716154005151
  0
LINE
  5
191
100
AcDbEntity
  8
Layer 1
  6
ByLayer
 62
  256
370
   -1
100
AcDbLine
 10
-641.6180213732566
 20
292.8716154005151
 11
-642.2530203732566
 21
294.741335400515
  0
LINE
  5
192
100
AcDbEntity
  8
Layer 1
  6
ByLayer
 62
  256
370
   -1
100
AcDbLine
 10
-642.2530203732566
 20
294.741335400515
 11
-642.6410753732566
 21
296.681605400515
  0
LINE
  5
193
100
AcDbEntity
  8
Layer 1
  6
ByLayer
 62
  256
370
   -1
100
AcDbLine
 10
-642.6410753732566
 20
296.681605400515
 11
-642.7821863732566
 21
298.657155400515
  0
LINE
  5
194
100
AcDbEntity
  8
Layer 1
  6
ByLayer
 62
  256
370
   -1
100
AcDbLine
 10
-627.7891863732566
 20
332.1356554005151
 11
-627.6480753732566
 21
333.899535400515
  0
LINE
  5
195
100
AcDbEntity
  8
Layer 1
  6
ByLayer
 62
  256
370
   -1
100
AcDbLine
 10
-627.6480753732566
 20
333.899535400515
 11
-627.2600203732566
 21
335.6281454005151
  0
LINE
  5
196
100
AcDbEntity
  8
Layer 1
  6
ByLayer
 62
  256
370
   -1
100
AcDbLine
 10
-627.2600203732566
 20
335.6281454005151
 11
-626.6250213732566
 21
337.2861954005151
  0
LINE
  5
197
100
AcDbEntity
  8
Layer 1
  6
ByLayer
 62
  256
370
   -1
100
AcDbLine
 10
-626.6250213732566
 20
337.2861954005151
 11
-625.7783563732565
 21
338.838415400515
  0
LINE
  5
198
100
AcDbEntity
  8
Layer 1
  6
ByLayer
 62
  256
370
   -1
100
AcDbLine
 10
-625.7783563732565
 20
338.838415400515
 11
-624.6847463732566
 21
340.214245400515
  0
LINE
  5
199
100
AcDbEntity
  8
Layer 1
  6
ByLayer
 62
  256
370
   -1
100
AcDbLine
 10
-624.6847463732566
 20
340.214245400515
 11
-623.4147463732565
 21
341.4489654005151
  0
LINE
  5
19A
100
AcDbEntity
  8
Layer 1
  6
ByLayer
 62
  256
370
   -1
100
AcDbLine
 10
-623.4147463732565
 20
341.4489654005151
 11
-622.0036363732567
 21
342.472015400515
  0
LINE
  5
19B
100
AcDbEntity
  8
Layer 1
  6
ByLayer
 62
  256
370
   -1
100
AcDbLine
 10
-622.0036363732567
 20
342.472015400515
 11
-620.4161363732566
 21
343.2834024005151
  0
LINE
  5
19C
100
AcDbEntity
  8
Layer 1
  6
ByLayer
 62
  256
370
   -1
100
AcDbLine
 10
-620.4161363732566
 20
343.2834024005151
 11
-618.7580863732566
 21
343.847845400515
  0
LINE
  5
19D
100
AcDbEntity
  8
Layer 1
  6
ByLayer
 62
  256
370
   -1
100
AcDbLine
 10
-618.7580863732566
 20
343.847845400515
 11
-616.9941963732566
 21
344.165344400515
  0
LINE
  5
19E
100
AcDbEntity
  8
Layer 1
  6
ByLayer
 62
  256
370
   -1
100
AcDbLine
 10
-616.9941963732566
 20
344.165344400515
 11
-615.2303163732566
 21
344.235900400515
  0
LINE
  5
19F
100
AcDbEntity
  8
Layer 1
  6
ByLayer
 62
  256
370
   -1
100
AcDbLine
 10
-615.2303163732566
 20
344.235900400515
 11
-613.5017063732565
 21
344.0595114005151
  0
LINE
  5
1A0
100
AcDbEntity
  8
Layer 1
  6
ByLayer
 62
  256
370
   -1
100
AcDbLine
 10
-613.5017063732565
 20
344.0595114005151
 11
-611.7730963732566
 21
343.6009014005151
  0
LINE
  5
1A1
100
AcDbEntity
  8
Layer 1
  6
ByLayer
 62
  256
370
   -1
100
AcDbLine
 10
-611.7730963732566
 20
343.6009014005151
 11
-610.1503263732566
 21
342.895347400515
  0
LINE
  5
1A2
100
AcDbEntity
  8
Layer 1
  6
ByLayer
 62
  256
370
   -1
100
AcDbLine
 10
-610.1503263732566
 20
342.895347400515
 11
-608.6333863732566
 21
341.9781274005151
  0
LINE
  5
1A3
100
AcDbEntity
  8
Layer 1
  6
ByLayer
 62
  256
370
   -1
100
AcDbLine
 10
-608.6333863732566
 20
341.9781274005151
 11
-607.2928363732566
 21
340.8492374005151
  0
LINE
  5
1A4
100
AcDbEntity
  8
Layer 1
  6
ByLayer
 62
  256
370
   -1
100
AcDbLine
 10
-607.2928363732566
 20
340.8492374005151
 11
-606.0933963732566
 21
339.543967400515
  0
LINE
  5
1A5
100
AcDbEntity
  8
Layer 1
  6
ByLayer
 62
  256
370
   -1
100
AcDbLine
 10
-606.0933963732566
 20
339.543967400515
 11
-605.1408983732566
 21
338.0623074005151
  0
LINE
  5
1A6
100
AcDbEntity
  8
Layer 1
  6
ByLayer
 62
  256
370
   -1
100
AcDbLine
 10
-605.1408983732566
 20
338.0623074005151
 11
-604.3647893732566
 21
336.474807400515
  0
LINE
  5
1A7
100
AcDbEntity
  8
Layer 1
  6
ByLayer
 62
  256
370
   -1
100
AcDbLine
 10
-604.3647893732566
 20
336.474807400515
 11
-603.8709013732566
 21
334.781477400515
  0
LINE
  5
1A8
100
AcDbEntity
  8
Layer 1
  6
ByLayer
 62
  256
370
   -1
100
AcDbLine
 10
-603.8709013732566
 20
334.781477400515
 11
-603.6239573732565
 21
333.017587400515
  0
LINE
  5
1A9
100
AcDbEntity
  8
Layer 1
  6
ByLayer
 62
  256
370
   -1
100
AcDbLine
 10
-603.6239573732565
 20
333.017587400515
 11
-603.6233783732566
 21
331.253403400515
  0
LINE
  5
1AA
100
AcDbEntity
  8
Layer 1
  6
ByLayer
 62
  256
370
   -1
100
AcDbLine
 10
-603.6233783732566
 20
331.253403400515
 11
-603.8703223732566
 21
329.524793400515
  0
LINE
  5
1AB
100
AcDbEntity
  8
Layer 1
  6
ByLayer
 62
  256
370
   -1
100
AcDbLine
 10
-603.8703223732566
 20
329.524793400515
 11
-604.3642103732566
 21
327.831463400515
  0
LINE
  5
1AC
100
AcDbEntity
  8
Layer 1
  6
ByLayer
 62
  256
370
   -1
100
AcDbLine
 10
-604.3642103732566
 20
327.831463400515
 11
-605.1403193732566
 21
326.208693400515
  0
LINE
  5
1AD
100
AcDbEntity
  8
Layer 1
  6
ByLayer
 62
  256
370
   -1
100
AcDbLine
 10
-605.1403193732566
 20
326.208693400515
 11
-606.0928173732566
 21
324.762303400515
  0
LINE
  5
1AE
100
AcDbEntity
  8
Layer 1
  6
ByLayer
 62
  256
370
   -1
100
AcDbLine
 10
-606.0928173732566
 20
324.762303400515
 11
-607.2922573732566
 21
323.421753400515
  0
LINE
  5
1AF
100
AcDbEntity
  8
Layer 1
  6
ByLayer
 62
  256
370
   -1
100
AcDbLine
 10
-607.2922573732566
 20
323.421753400515
 11
-608.6328073732566
 21
322.292863400515
  0
LINE
  5
1B0
100
AcDbEntity
  8
Layer 1
  6
ByLayer
 62
  256
370
   -1
100
AcDbLine
 10
-608.6328073732566
 20
322.292863400515
 11
-610.1497473732566
 21
321.375643400515
  0
LINE
  5
1B1
100
AcDbEntity
  8
Layer 1
  6
ByLayer
 62
  256
370
   -1
100
AcDbLine
 10
-610.1497473732566
 20
321.375643400515
 11
-611.7725173732566
 21
320.7053674005151
  0
LINE
  5
1B2
100
AcDbEntity
  8
Layer 1
  6
ByLayer
 62
  256
370
   -1
100
AcDbLine
 10
-611.7725173732566
 20
320.7053674005151
 11
-613.5011273732566
 21
320.246757400515
  0
LINE
  5
1B3
100
AcDbEntity
  8
Layer 1
  6
ByLayer
 62
  256
370
   -1
100
AcDbLine
 10
-613.5011273732566
 20
320.246757400515
 11
-615.2297373732566
 21
320.0703684005151
  0
LINE
  5
1B4
100
AcDbEntity
  8
Layer 1
  6
ByLayer
 62
  256
370
   -1
100
AcDbLine
 10
-615.2297373732566
 20
320.0703684005151
 11
-616.9936173732566
 21
320.105646400515
  0
LINE
  5
1B5
100
AcDbEntity
  8
Layer 1
  6
ByLayer
 62
  256
370
   -1
100
AcDbLine
 10
-616.9936173732566
 20
320.105646400515
 11
-618.7575073732565
 21
320.458423400515
  0
LINE
  5
1B6
100
AcDbEntity
  8
Layer 1
  6
ByLayer
 62
  256
370
   -1
100
AcDbLine
 10
-618.7575073732565
 20
320.458423400515
 11
-620.4155573732565
 21
321.0228664005151
  0
LINE
  5
1B7
100
AcDbEntity
  8
Layer 1
  6
ByLayer
 62
  256
370
   -1
100
AcDbLine
 10
-620.4155573732565
 20
321.0228664005151
 11
-622.0030573732566
 21
321.834253400515
  0
LINE
  5
1B8
100
AcDbEntity
  8
Layer 1
  6
ByLayer
 62
  256
370
   -1
100
AcDbLine
 10
-622.0030573732566
 20
321.834253400515
 11
-623.4141673732566
 21
322.857303400515
  0
LINE
  5
1B9
100
AcDbEntity
  8
Layer 1
  6
ByLayer
 62
  256
370
   -1
100
AcDbLine
 10
-623.4141673732566
 20
322.857303400515
 11
-624.6841673732566
 21
324.056743400515
  0
LINE
  5
1BA
100
AcDbEntity
  8
Layer 1
  6
ByLayer
 62
  256
370
   -1
100
AcDbLine
 10
-624.6841673732566
 20
324.056743400515
 11
-625.7777773732565
 21
325.467853400515
  0
LINE
  5
1BB
100
AcDbEntity
  8
Layer 1
  6
ByLayer
 62
  256
370
   -1
100
AcDbLine
 10
-625.7777773732565
 20
325.467853400515
 11
-626.6244423732566
 21
327.0200734005151
  0
LINE
  5
1BC
100
AcDbEntity
  8
Layer 1
  6
ByLayer
 62
  256
370
   -1
100
AcDbLine
 10
-626.6244423732566
 20
327.0200734005151
 11
-627.2594413732565
 21
328.6781234005151
  0
LINE
  5
1BD
100
AcDbEntity
  8
Layer 1
  6
ByLayer
 62
  256
370
   -1
100
AcDbLine
 10
-627.2594413732565
 20
328.6781234005151
 11
-627.6474963732566
 21
330.371453400515
  0
LINE
  5
1BE
100
AcDbEntity
  8
Layer 1
  6
ByLayer
 62
  256
370
   -1
100
AcDbLine
 10
-627.6474963732566
 20
330.371453400515
 11
-627.7886073732566
 21
332.1353434005151
  0
LINE
  5
1BF
100
AcDbEntity
  8
Layer 1
  6
ByLayer
 62
  256
370
   -1
100
AcDbLine
 10
-601.2950073732566
 20
343.1419434005151
 11
-601.1538963732565
 21
344.9058334005151
  0
LINE
  5
1C0
100
AcDbEntity
  8
Layer 1
  6
ByLayer
 62
  256
370
   -1
100
AcDbLine
 10
-601.1538963732565
 20
344.9058334005151
 11
-600.7658413732566
 21
346.6344434005151
  0
LINE
  5
1C1
100
AcDbEntity
  8
Layer 1
  6
ByLayer
 62
  256
370
   -1
100
AcDbLine
 10
-600.7658413732566
 20
346.6344434005151
 11
-600.1308423732565
 21
348.2924934005151
  0
LINE
  5
1C2
100
AcDbEntity
  8
Layer 1
  6
ByLayer
 62
  256
370
   -1
100
AcDbLine
 10
-600.1308423732565
 20
348.2924934005151
 11
-599.2841773732566
 21
349.809433400515
  0
LINE
  5
1C3
100
AcDbEntity
  8
Layer 1
  6
ByLayer
 62
  256
370
   -1
100
AcDbLine
 10
-599.2841773732566
 20
349.809433400515
 11
-598.1905673732566
 21
351.2205434005151
  0
LINE
  5
1C4
100
AcDbEntity
  8
Layer 1
  6
ByLayer
 62
  256
370
   -1
100
AcDbLine
 10
-598.1905673732566
 20
351.2205434005151
 11
-596.9205673732566
 21
352.455263400515
  0
LINE
  5
1C5
100
AcDbEntity
  8
Layer 1
  6
ByLayer
 62
  256
370
   -1
100
AcDbLine
 10
-596.9205673732566
 20
352.455263400515
 11
-595.4741773732566
 21
353.478313400515
  0
LINE
  5
1C6
100
AcDbEntity
  8
Layer 1
  6
ByLayer
 62
  256
370
   -1
100
AcDbLine
 10
-595.4741773732566
 20
353.478313400515
 11
-593.9219573732565
 21
354.2897004005151
  0
LINE
  5
1C7
100
AcDbEntity
  8
Layer 1
  6
ByLayer
 62
  256
370
   -1
100
AcDbLine
 10
-593.9219573732565
 20
354.2897004005151
 11
-592.2286273732566
 21
354.8541434005151
  0
LINE
  5
1C8
100
AcDbEntity
  8
Layer 1
  6
ByLayer
 62
  256
370
   -1
100
AcDbLine
 10
-592.2286273732566
 20
354.8541434005151
 11
-590.5000173732566
 21
355.1716424005151
  0
LINE
  5
1C9
100
AcDbEntity
  8
Layer 1
  6
ByLayer
 62
  256
370
   -1
100
AcDbLine
 10
-590.5000173732566
 20
355.1716424005151
 11
-588.7361273732566
 21
355.2421974005151
  0
LINE
  5
1CA
100
AcDbEntity
  8
Layer 1
  6
ByLayer
 62
  256
370
   -1
100
AcDbLine
 10
-588.7361273732566
 20
355.2421974005151
 11
-586.9722473732566
 21
355.030531400515
  0
LINE
  5
1CB
100
AcDbEntity
  8
Layer 1
  6
ByLayer
 62
  256
370
   -1
100
AcDbLine
 10
-586.9722473732566
 20
355.030531400515
 11
-585.2789173732566
 21
354.6071994005151
  0
LINE
  5
1CC
100
AcDbEntity
  8
Layer 1
  6
ByLayer
 62
  256
370
   -1
100
AcDbLine
 10
-585.2789173732566
 20
354.6071994005151
 11
-583.6561473732567
 21
353.9016454005151
  0
LINE
  5
1CD
100
AcDbEntity
  8
Layer 1
  6
ByLayer
 62
  256
370
   -1
100
AcDbLine
 10
-583.6561473732567
 20
353.9016454005151
 11
-582.1392073732566
 21
352.984425400515
  0
LINE
  5
1CE
100
AcDbEntity
  8
Layer 1
  6
ByLayer
 62
  256
370
   -1
100
AcDbLine
 10
-582.1392073732566
 20
352.984425400515
 11
-580.7986573732566
 21
351.8555354005151
  0
LINE
  5
1CF
100
AcDbEntity
  8
Layer 1
  6
ByLayer
 62
  256
370
   -1
100
AcDbLine
 10
-580.7986573732566
 20
351.8555354005151
 11
-579.5992173732566
 21
350.5502654005151
  0
LINE
  5
1D0
100
AcDbEntity
  8
Layer 1
  6
ByLayer
 62
  256
370
   -1
100
AcDbLine
 10
-579.5992173732566
 20
350.5502654005151
 11
-578.6467193732566
 21
349.068605400515
  0
LINE
  5
1D1
100
AcDbEntity
  8
Layer 1
  6
ByLayer
 62
  256
370
   -1
100
AcDbLine
 10
-578.6467193732566
 20
349.068605400515
 11
-577.8706103732566
 21
347.481105400515
  0
LINE
  5
1D2
100
AcDbEntity
  8
Layer 1
  6
ByLayer
 62
  256
370
   -1
100
AcDbLine
 10
-577.8706103732566
 20
347.481105400515
 11
-577.3767223732566
 21
345.787775400515
  0
LINE
  5
1D3
100
AcDbEntity
  8
Layer 1
  6
ByLayer
 62
  256
370
   -1
100
AcDbLine
 10
-577.3767223732566
 20
345.787775400515
 11
-577.1297783732566
 21
344.023885400515
  0
LINE
  5
1D4
100
AcDbEntity
  8
Layer 1
  6
ByLayer
 62
  256
370
   -1
100
AcDbLine
 10
-577.1297783732566
 20
344.023885400515
 11
-577.1303783732566
 21
342.260403400515
  0
LINE
  5
1D5
100
AcDbEntity
  8
Layer 1
  6
ByLayer
 62
  256
370
   -1
100
AcDbLine
 10
-577.1303783732566
 20
342.260403400515
 11
-577.3773223732566
 21
340.531793400515
  0
LINE
  5
1D6
100
AcDbEntity
  8
Layer 1
  6
ByLayer
 62
  256
370
   -1
100
AcDbLine
 10
-577.3773223732566
 20
340.531793400515
 11
-577.8712103732565
 21
338.838463400515
  0
LINE
  5
1D7
100
AcDbEntity
  8
Layer 1
  6
ByLayer
 62
  256
370
   -1
100
AcDbLine
 10
-577.8712103732565
 20
338.838463400515
 11
-578.6473193732566
 21
337.215693400515
  0
LINE
  5
1D8
100
AcDbEntity
  8
Layer 1
  6
ByLayer
 62
  256
370
   -1
100
AcDbLine
 10
-578.6473193732566
 20
337.215693400515
 11
-579.5998173732565
 21
335.7693034005151
  0
LINE
  5
1D9
100
AcDbEntity
  8
Layer 1
  6
ByLayer
 62
  256
370
   -1
100
AcDbLine
 10
-579.5998173732565
 20
335.7693034005151
 11
-580.7992573732566
 21
334.4287534005151
  0
LINE
  5
1DA
100
AcDbEntity
  8
Layer 1
  6
ByLayer
 62
  256
370
   -1
100
AcDbLine
 10
-580.7992573732566
 20
334.4287534005151
 11
-582.1398073732565
 21
333.2998634005151
  0
LINE
  5
1DB
100
AcDbEntity
  8
Layer 1
  6
ByLayer
 62
  256
370
   -1
100
AcDbLine
 10
-582.1398073732565
 20
333.2998634005151
 11
-583.6567473732566
 21
332.3826434005151
  0
LINE
  5
1DC
100
AcDbEntity
  8
Layer 1
  6
ByLayer
 62
  256
370
   -1
100
AcDbLine
 10
-583.6567473732566
 20
332.3826434005151
 11
-585.2795173732566
 21
331.7123674005151
  0
LINE
  5
1DD
100
AcDbEntity
  8
Layer 1
  6
ByLayer
 62
  256
370
   -1
100
AcDbLine
 10
-585.2795173732566
 20
331.7123674005151
 11
-586.9728473732566
 21
331.253757400515
  0
LINE
  5
1DE
100
AcDbEntity
  8
Layer 1
  6
ByLayer
 62
  256
370
   -1
100
AcDbLine
 10
-586.9728473732566
 20
331.253757400515
 11
-588.7367273732566
 21
331.0420914005151
  0
LINE
  5
1DF
100
AcDbEntity
  8
Layer 1
  6
ByLayer
 62
  256
370
   -1
100
AcDbLine
 10
-588.7367273732566
 20
331.0420914005151
 11
-590.5006173732567
 21
331.1126464005151
  0
LINE
  5
1E0
100
AcDbEntity
  8
Layer 1
  6
ByLayer
 62
  256
370
   -1
100
AcDbLine
 10
-590.5006173732567
 20
331.1126464005151
 11
-592.2292273732565
 21
331.4301454005151
  0
LINE
  5
1E1
100
AcDbEntity
  8
Layer 1
  6
ByLayer
 62
  256
370
   -1
100
AcDbLine
 10
-592.2292273732565
 20
331.4301454005151
 11
-593.9225573732566
 21
331.9945884005151
  0
LINE
  5
1E2
100
AcDbEntity
  8
Layer 1
  6
ByLayer
 62
  256
370
   -1
100
AcDbLine
 10
-593.9225573732566
 20
331.9945884005151
 11
-595.4747773732566
 21
332.805975400515
  0
LINE
  5
1E3
100
AcDbEntity
  8
Layer 1
  6
ByLayer
 62
  256
370
   -1
100
AcDbLine
 10
-595.4747773732566
 20
332.805975400515
 11
-596.9211673732566
 21
333.864305400515
  0
LINE
  5
1E4
100
AcDbEntity
  8
Layer 1
  6
ByLayer
 62
  256
370
   -1
100
AcDbLine
 10
-596.9211673732566
 20
333.864305400515
 11
-598.1911673732566
 21
335.0637454005151
  0
LINE
  5
1E5
100
AcDbEntity
  8
Layer 1
  6
ByLayer
 62
  256
370
   -1
100
AcDbLine
 10
-598.1911673732566
 20
335.0637454005151
 11
-599.2847773732566
 21
336.474855400515
  0
LINE
  5
1E6
100
AcDbEntity
  8
Layer 1
  6
ByLayer
 62
  256
370
   -1
100
AcDbLine
 10
-599.2847773732566
 20
336.474855400515
 11
-600.1314423732566
 21
338.0270754005151
  0
LINE
  5
1E7
100
AcDbEntity
  8
Layer 1
  6
ByLayer
 62
  256
370
   -1
100
AcDbLine
 10
-600.1314423732566
 20
338.0270754005151
 11
-600.7664413732566
 21
339.6498454005151
  0
LINE
  5
1E8
100
AcDbEntity
  8
Layer 1
  6
ByLayer
 62
  256
370
   -1
100
AcDbLine
 10
-600.7664413732566
 20
339.6498454005151
 11
-601.1544963732566
 21
341.3784554005151
  0
LINE
  5
1E9
100
AcDbEntity
  8
Layer 1
  6
ByLayer
 62
  256
370
   -1
100
AcDbLine
 10
-601.1544963732566
 20
341.3784554005151
 11
-601.2956073732565
 21
343.142345400515
  0
LINE
  5
1EA
100
AcDbEntity
  8
Layer 1
  6
ByLayer
 62
  256
370
   -1
100
AcDbLine
 10
-680.3854833732565
 20
298.657155400515
 11
-680.2443723732566
 21
300.632705400515
  0
LINE
  5
1EB
100
AcDbEntity
  8
Layer 1
  6
ByLayer
 62
  256
370
   -1
100
AcDbLine
 10
-680.2443723732566
 20
300.632705400515
 11
-679.8563173732566
 21
302.572975400515
  0
LINE
  5
1EC
100
AcDbEntity
  8
Layer 1
  6
ByLayer
 62
  256
370
   -1
100
AcDbLine
 10
-679.8563173732566
 20
302.572975400515
 11
-679.2213183732566
 21
304.442695400515
  0
LINE
  5
1ED
100
AcDbEntity
  8
Layer 1
  6
ByLayer
 62
  256
370
   -1
100
AcDbLine
 10
-679.2213183732566
 20
304.442695400515
 11
-678.3746533732566
 21
306.2065854005151
  0
LINE
  5
1EE
100
AcDbEntity
  8
Layer 1
  6
ByLayer
 62
  256
370
   -1
100
AcDbLine
 10
-678.3746533732566
 20
306.2065854005151
 11
-677.2810433732566
 21
307.829355400515
  0
LINE
  5
1EF
100
AcDbEntity
  8
Layer 1
  6
ByLayer
 62
  256
370
   -1
100
AcDbLine
 10
-677.2810433732566
 20
307.829355400515
 11
-675.9757733732566
 21
309.311015400515
  0
LINE
  5
1F0
100
AcDbEntity
  8
Layer 1
  6
ByLayer
 62
  256
370
   -1
100
AcDbLine
 10
-675.9757733732566
 20
309.311015400515
 11
-674.4941133732566
 21
310.616285400515
  0
LINE
  5
1F1
100
AcDbEntity
  8
Layer 1
  6
ByLayer
 62
  256
370
   -1
100
AcDbLine
 10
-674.4941133732566
 20
310.616285400515
 11
-672.8360633732566
 21
311.7098954005151
  0
LINE
  5
1F2
100
AcDbEntity
  8
Layer 1
  6
ByLayer
 62
  256
370
   -1
100
AcDbLine
 10
-672.8360633732566
 20
311.7098954005151
 11
-671.0721833732566
 21
312.591838400515
  0
LINE
  5
1F3
100
AcDbEntity
  8
Layer 1
  6
ByLayer
 62
  256
370
   -1
100
AcDbLine
 10
-671.0721833732566
 20
312.591838400515
 11
-669.2024633732566
 21
313.226837400515
  0
LINE
  5
1F4
100
AcDbEntity
  8
Layer 1
  6
ByLayer
 62
  256
370
   -1
100
AcDbLine
 10
-669.2024633732566
 20
313.226837400515
 11
-667.2621933732565
 21
313.614892400515
  0
LINE
  5
1F5
100
AcDbEntity
  8
Layer 1
  6
ByLayer
 62
  256
370
   -1
100
AcDbLine
 10
-667.2621933732565
 20
313.614892400515
 11
-665.2866433732567
 21
313.756003400515
  0
LINE
  5
1F6
100
AcDbEntity
  8
Layer 1
  6
ByLayer
 62
  256
370
   -1
100
AcDbLine
 10
-665.2866433732567
 20
313.756003400515
 11
-663.3110933732565
 21
313.614892400515
  0
LINE
  5
1F7
100
AcDbEntity
  8
Layer 1
  6
ByLayer
 62
  256
370
   -1
100
AcDbLine
 10
-663.3110933732565
 20
313.614892400515
 11
-661.3708233732566
 21
313.226837400515
  0
LINE
  5
1F8
100
AcDbEntity
  8
Layer 1
  6
ByLayer
 62
  256
370
   -1
100
AcDbLine
 10
-661.3708233732566
 20
313.226837400515
 11
-659.5011033732566
 21
312.591838400515
  0
LINE
  5
1F9
100
AcDbEntity
  8
Layer 1
  6
ByLayer
 62
  256
370
   -1
100
AcDbLine
 10
-659.5011033732566
 20
312.591838400515
 11
-657.7372233732566
 21
311.7098954005151
  0
LINE
  5
1FA
100
AcDbEntity
  8
Layer 1
  6
ByLayer
 62
  256
370
   -1
100
AcDbLine
 10
-657.7372233732566
 20
311.7098954005151
 11
-656.0791733732566
 21
310.616285400515
  0
LINE
  5
1FB
100
AcDbEntity
  8
Layer 1
  6
ByLayer
 62
  256
370
   -1
100
AcDbLine
 10
-656.0791733732566
 20
310.616285400515
 11
-654.5975133732566
 21
309.311015400515
  0
LINE
  5
1FC
100
AcDbEntity
  8
Layer 1
  6
ByLayer
 62
  256
370
   -1
100
AcDbLine
 10
-654.5975133732566
 20
309.311015400515
 11
-653.2922433732566
 21
307.829355400515
  0
LINE
  5
1FD
100
AcDbEntity
  8
Layer 1
  6
ByLayer
 62
  256
370
   -1
100
AcDbLine
 10
-653.2922433732566
 20
307.829355400515
 11
-652.1986333732566
 21
306.2065854005151
  0
LINE
  5
1FE
100
AcDbEntity
  8
Layer 1
  6
ByLayer
 62
  256
370
   -1
100
AcDbLine
 10
-652.1986333732566
 20
306.2065854005151
 11
-651.3519683732566
 21
304.442695400515
  0
LINE
  5
1FF
100
AcDbEntity
  8
Layer 1
  6
ByLayer
 62
  256
370
   -1
100
AcDbLine
 10
-651.3519683732566
 20
304.442695400515
 11
-650.7169693732566
 21
302.572975400515
  0
LINE
  5
200
100
AcDbEntity
  8
Layer 1
  6
ByLayer
 62
  256
370
   -1
100
AcDbLine
 10
-650.7169693732566
 20
302.572975400515
 11
-650.3289143732566
 21
300.632705400515
  0
LINE
  5
201
100
AcDbEntity
  8
Layer 1
  6
ByLayer
 62
  256
370
   -1
100
AcDbLine
 10
-650.3289143732566
 20
300.632705400515
 11
-650.1878033732565
 21
298.657155400515
  0
LINE
  5
202
100
AcDbEntity
  8
Layer 1
  6
ByLayer
 62
  256
370
   -1
100
AcDbLine
 10
-650.1878033732565
 20
298.657155400515
 11
-650.3289143732566
 21
296.681605400515
  0
LINE
  5
203
100
AcDbEntity
  8
Layer 1
  6
ByLayer
 62
  256
370
   -1
100
AcDbLine
 10
-650.3289143732566
 20
296.681605400515
 11
-650.7169693732566
 21
294.741335400515
  0
LINE
  5
204
100
AcDbEntity
  8
Layer 1
  6
ByLayer
 62
  256
370
   -1
100
AcDbLine
 10
-650.7169693732566
 20
294.741335400515
 11
-651.3519683732566
 21
292.8716154005151
  0
LINE
  5
205
100
AcDbEntity
  8
Layer 1
  6
ByLayer
 62
  256
370
   -1
100
AcDbLine
 10
-651.3519683732566
 20
292.8716154005151
 11
-652.1986333732566
 21
291.1077254005151
  0
LINE
  5
206
100
AcDbEntity
  8
Layer 1
  6
ByLayer
 62
  256
370
   -1
100
AcDbLine
 10
-652.1986333732566
 20
291.1077254005151
 11
-653.2922433732566
 21
289.449675400515
  0
LINE
  5
207
100
AcDbEntity
  8
Layer 1
  6
ByLayer
 62
  256
370
   -1
100
AcDbLine
 10
-653.2922433732566
 20
289.449675400515
 11
-654.5975133732566
 21
287.968015400515
  0
LINE
  5
208
100
AcDbEntity
  8
Layer 1
  6
ByLayer
 62
  256
370
   -1
100
AcDbLine
 10
-654.5975133732566
 20
287.968015400515
 11
-656.0791733732566
 21
286.662745400515
  0
LINE
  5
209
100
AcDbEntity
  8
Layer 1
  6
ByLayer
 62
  256
370
   -1
100
AcDbLine
 10
-656.0791733732566
 20
286.662745400515
 11
-657.7372233732566
 21
285.5691354005151
  0
LINE
  5
20A
100
AcDbEntity
  8
Layer 1
  6
ByLayer
 62
  256
370
   -1
100
AcDbLine
 10
-657.7372233732566
 20
285.5691354005151
 11
-659.5011033732566
 21
284.687192400515
  0
LINE
  5
20B
100
AcDbEntity
  8
Layer 1
  6
ByLayer
 62
  256
370
   -1
100
AcDbLine
 10
-659.5011033732566
 20
284.687192400515
 11
-661.3708233732566
 21
284.052193400515
  0
LINE
  5
20C
100
AcDbEntity
  8
Layer 1
  6
ByLayer
 62
  256
370
   -1
100
AcDbLine
 10
-661.3708233732566
 20
284.052193400515
 11
-663.3110933732565
 21
283.664138400515
  0
LINE
  5
20D
100
AcDbEntity
  8
Layer 1
  6
ByLayer
 62
  256
370
   -1
100
AcDbLine
 10
-663.3110933732565
 20
283.664138400515
 11
-665.2866433732567
 21
283.5583054005151
  0
LINE
  5
20E
100
AcDbEntity
  8
Layer 1
  6
ByLayer
 62
  256
370
   -1
100
AcDbLine
 10
-665.2866433732567
 20
283.5583054005151
 11
-667.2621933732565
 21
283.664138400515
  0
LINE
  5
20F
100
AcDbEntity
  8
Layer 1
  6
ByLayer
 62
  256
370
   -1
100
AcDbLine
 10
-667.2621933732565
 20
283.664138400515
 11
-669.2024633732566
 21
284.052193400515
  0
LINE
  5
210
100
AcDbEntity
  8
Layer 1
  6
ByLayer
 62
  256
370
   -1
100
AcDbLine
 10
-669.2024633732566
 20
284.052193400515
 11
-671.0721833732566
 21
284.687192400515
  0
LINE
  5
211
100
AcDbEntity
  8
Layer 1
  6
ByLayer
 62
  256
370
   -1
100
AcDbLine
 10
-671.0721833732566
 20
284.687192400515
 11
-672.8360633732566
 21
285.5691354005151
  0
LINE
  5
212
100
AcDbEntity
  8
Layer 1
  6
ByLayer
 62
  256
370
   -1
100
AcDbLine
 10
-672.8360633732566
 20
285.5691354005151
 11
-674.4941133732566
 21
286.662745400515
  0
LINE
  5
213
100
AcDbEntity
  8
Layer 1
  6
ByLayer
 62
  256
370
   -1
100
AcDbLine
 10
-674.4941133732566
 20
286.662745400515
 11
-675.9757733732566
 21
287.968015400515
  0
LINE
  5
214
100
AcDbEntity
  8
Layer 1
  6
ByLayer
 62
  256
370
   -1
100
AcDbLine
 10
-675.9757733732566
 20
287.968015400515
 11
-677.2810433732566
 21
289.449675400515
  0
LINE
  5
215
100
AcDbEntity
  8
Layer 1
  6
ByLayer
 62
  256
370
   -1
100
AcDbLine
 10
-677.2810433732566
 20
289.449675400515
 11
-678.3746533732566
 21
291.1077254005151
  0
LINE
  5
216
100
AcDbEntity
  8
Layer 1
  6
ByLayer
 62
  256
370
   -1
100
AcDbLine
 10
-678.3746533732566
 20
291.1077254005151
 11
-679.2213183732566
 21
292.8716154005151
  0
LINE
  5
217
100
AcDbEntity
  8
Layer 1
  6
ByLayer
 62
  256
370
   -1
100
AcDbLine
 10
-679.2213183732566
 20
292.8716154005151
 11
-679.8563173732566
 21
294.741335400515
  0
LINE
  5
218
100
AcDbEntity
  8
Layer 1
  6
ByLayer
 62
  256
370
   -1
100
AcDbLine
 10
-679.8563173732566
 20
294.741335400515
 11
-680.2443723732566
 21
296.681605400515
  0
LINE
  5
219
100
AcDbEntity
  8
Layer 1
  6
ByLayer
 62
  256
370
   -1
100
AcDbLine
 10
-680.2443723732566
 20
296.681605400515
 11
-680.3854833732565
 21
298.657155400515
  0
LINE
  5
21A
100
AcDbEntity
  8
Layer 1
  6
ByLayer
 62
  256
370
   -1
100
AcDbLine
 10
-712.0508003732566
 20
310.983897400515
 11
-711.9449673732566
 21
312.7477874005151
  0
LINE
  5
21B
100
AcDbEntity
  8
Layer 1
  6
ByLayer
 62
  256
370
   -1
100
AcDbLine
 10
-711.9449673732566
 20
312.7477874005151
 11
-711.5569123732566
 21
314.4763974005151
  0
LINE
  5
21C
100
AcDbEntity
  8
Layer 1
  6
ByLayer
 62
  256
370
   -1
100
AcDbLine
 10
-711.5569123732566
 20
314.4763974005151
 11
-710.9219133732566
 21
316.1344474005151
  0
LINE
  5
21D
100
AcDbEntity
  8
Layer 1
  6
ByLayer
 62
  256
370
   -1
100
AcDbLine
 10
-710.9219133732566
 20
316.1344474005151
 11
-710.0399703732566
 21
317.651387400515
  0
LINE
  5
21E
100
AcDbEntity
  8
Layer 1
  6
ByLayer
 62
  256
370
   -1
100
AcDbLine
 10
-710.0399703732566
 20
317.651387400515
 11
-708.9816403732566
 21
319.062497400515
  0
LINE
  5
21F
100
AcDbEntity
  8
Layer 1
  6
ByLayer
 62
  256
370
   -1
100
AcDbLine
 10
-708.9816403732566
 20
319.062497400515
 11
-707.7116403732566
 21
320.297217400515
  0
LINE
  5
220
100
AcDbEntity
  8
Layer 1
  6
ByLayer
 62
  256
370
   -1
100
AcDbLine
 10
-707.7116403732566
 20
320.297217400515
 11
-706.2652503732565
 21
321.320267400515
  0
LINE
  5
221
100
AcDbEntity
  8
Layer 1
  6
ByLayer
 62
  256
370
   -1
100
AcDbLine
 10
-706.2652503732565
 20
321.320267400515
 11
-704.7130303732566
 21
322.1316544005151
  0
LINE
  5
222
100
AcDbEntity
  8
Layer 1
  6
ByLayer
 62
  256
370
   -1
100
AcDbLine
 10
-704.7130303732566
 20
322.1316544005151
 11
-703.0197003732566
 21
322.696097400515
  0
LINE
  5
223
100
AcDbEntity
  8
Layer 1
  6
ByLayer
 62
  256
370
   -1
100
AcDbLine
 10
-703.0197003732566
 20
322.696097400515
 11
-701.2910903732566
 21
323.013596400515
  0
LINE
  5
224
100
AcDbEntity
  8
Layer 1
  6
ByLayer
 62
  256
370
   -1
100
AcDbLine
 10
-701.2910903732566
 20
323.013596400515
 11
-699.5272103732566
 21
323.0841524005151
  0
LINE
  5
225
100
AcDbEntity
  8
Layer 1
  6
ByLayer
 62
  256
370
   -1
100
AcDbLine
 10
-699.5272103732566
 20
323.0841524005151
 11
-697.7633203732565
 21
322.872486400515
  0
LINE
  5
226
100
AcDbEntity
  8
Layer 1
  6
ByLayer
 62
  256
370
   -1
100
AcDbLine
 10
-697.7633203732565
 20
322.872486400515
 11
-696.0699903732566
 21
322.4491544005151
  0
LINE
  5
227
100
AcDbEntity
  8
Layer 1
  6
ByLayer
 62
  256
370
   -1
100
AcDbLine
 10
-696.0699903732566
 20
322.4491544005151
 11
-694.4472203732565
 21
321.743600400515
  0
LINE
  5
228
100
AcDbEntity
  8
Layer 1
  6
ByLayer
 62
  256
370
   -1
100
AcDbLine
 10
-694.4472203732565
 20
321.743600400515
 11
-692.9302803732566
 21
320.8263804005151
  0
LINE
  5
229
100
AcDbEntity
  8
Layer 1
  6
ByLayer
 62
  256
370
   -1
100
AcDbLine
 10
-692.9302803732566
 20
320.8263804005151
 11
-691.5544503732566
 21
319.6974904005151
  0
LINE
  5
22A
100
AcDbEntity
  8
Layer 1
  6
ByLayer
 62
  256
370
   -1
100
AcDbLine
 10
-691.5544503732566
 20
319.6974904005151
 11
-690.3902903732566
 21
318.392220400515
  0
LINE
  5
22B
100
AcDbEntity
  8
Layer 1
  6
ByLayer
 62
  256
370
   -1
100
AcDbLine
 10
-690.3902903732566
 20
318.392220400515
 11
-689.4025143732566
 21
316.9105604005151
  0
LINE
  5
22C
100
AcDbEntity
  8
Layer 1
  6
ByLayer
 62
  256
370
   -1
100
AcDbLine
 10
-689.4025143732566
 20
316.9105604005151
 11
-688.6616823732566
 21
315.323060400515
  0
LINE
  5
22D
100
AcDbEntity
  8
Layer 1
  6
ByLayer
 62
  256
370
   -1
100
AcDbLine
 10
-688.6616823732566
 20
315.323060400515
 11
-688.1677943732566
 21
313.629730400515
  0
LINE
  5
22E
100
AcDbEntity
  8
Layer 1
  6
ByLayer
 62
  256
370
   -1
100
AcDbLine
 10
-688.1677943732566
 20
313.629730400515
 11
-687.8855723732567
 21
311.8658504005151
  0
LINE
  5
22F
100
AcDbEntity
  8
Layer 1
  6
ByLayer
 62
  256
370
   -1
100
AcDbLine
 10
-687.8855723732567
 20
311.8658504005151
 11
-687.8846823732566
 21
310.1018454005151
  0
LINE
  5
230
100
AcDbEntity
  8
Layer 1
  6
ByLayer
 62
  256
370
   -1
100
AcDbLine
 10
-687.8846823732566
 20
310.1018454005151
 11
-688.1669043732566
 21
308.337965400515
  0
LINE
  5
231
100
AcDbEntity
  8
Layer 1
  6
ByLayer
 62
  256
370
   -1
100
AcDbLine
 10
-688.1669043732566
 20
308.337965400515
 11
-688.6607923732566
 21
306.679915400515
  0
LINE
  5
232
100
AcDbEntity
  8
Layer 1
  6
ByLayer
 62
  256
370
   -1
100
AcDbLine
 10
-688.6607923732566
 20
306.679915400515
 11
-689.4016243732566
 21
305.057145400515
  0
LINE
  5
233
100
AcDbEntity
  8
Layer 1
  6
ByLayer
 62
  256
370
   -1
100
AcDbLine
 10
-689.4016243732566
 20
305.057145400515
 11
-690.3894003732565
 21
303.575485400515
  0
LINE
  5
234
100
AcDbEntity
  8
Layer 1
  6
ByLayer
 62
  256
370
   -1
100
AcDbLine
 10
-690.3894003732565
 20
303.575485400515
 11
-691.5535603732566
 21
302.270215400515
  0
LINE
  5
235
100
AcDbEntity
  8
Layer 1
  6
ByLayer
 62
  256
370
   -1
100
AcDbLine
 10
-691.5535603732566
 20
302.270215400515
 11
-692.9293903732566
 21
301.141325400515
  0
LINE
  5
236
100
AcDbEntity
  8
Layer 1
  6
ByLayer
 62
  256
370
   -1
100
AcDbLine
 10
-692.9293903732566
 20
301.141325400515
 11
-694.4463303732566
 21
300.224105400515
  0
LINE
  5
237
100
AcDbEntity
  8
Layer 1
  6
ByLayer
 62
  256
370
   -1
100
AcDbLine
 10
-694.4463303732566
 20
300.224105400515
 11
-696.0691003732566
 21
299.518551400515
  0
LINE
  5
238
100
AcDbEntity
  8
Layer 1
  6
ByLayer
 62
  256
370
   -1
100
AcDbLine
 10
-696.0691003732566
 20
299.518551400515
 11
-697.7624303732566
 21
299.0952194005151
  0
LINE
  5
239
100
AcDbEntity
  8
Layer 1
  6
ByLayer
 62
  256
370
   -1
100
AcDbLine
 10
-697.7624303732566
 20
299.0952194005151
 11
-699.5263203732566
 21
298.883553400515
  0
LINE
  5
23A
100
AcDbEntity
  8
Layer 1
  6
ByLayer
 62
  256
370
   -1
100
AcDbLine
 10
-699.5263203732566
 20
298.883553400515
 11
-701.2902003732567
 21
298.9541084005151
  0
LINE
  5
23B
100
AcDbEntity
  8
Layer 1
  6
ByLayer
 62
  256
370
   -1
100
AcDbLine
 10
-701.2902003732567
 20
298.9541084005151
 11
-703.0188103732565
 21
299.2716074005151
  0
LINE
  5
23C
100
AcDbEntity
  8
Layer 1
  6
ByLayer
 62
  256
370
   -1
100
AcDbLine
 10
-703.0188103732565
 20
299.2716074005151
 11
-704.7121403732566
 21
299.836050400515
  0
LINE
  5
23D
100
AcDbEntity
  8
Layer 1
  6
ByLayer
 62
  256
370
   -1
100
AcDbLine
 10
-704.7121403732566
 20
299.836050400515
 11
-706.2643603732566
 21
300.6474374005151
  0
LINE
  5
23E
100
AcDbEntity
  8
Layer 1
  6
ByLayer
 62
  256
370
   -1
100
AcDbLine
 10
-706.2643603732566
 20
300.6474374005151
 11
-707.7107503732566
 21
301.670487400515
  0
LINE
  5
23F
100
AcDbEntity
  8
Layer 1
  6
ByLayer
 62
  256
370
   -1
100
AcDbLine
 10
-707.7107503732566
 20
301.670487400515
 11
-708.9807503732566
 21
302.9052074005151
  0
LINE
  5
240
100
AcDbEntity
  8
Layer 1
  6
ByLayer
 62
  256
370
   -1
100
AcDbLine
 10
-708.9807503732566
 20
302.9052074005151
 11
-710.0390803732566
 21
304.3163174005151
  0
LINE
  5
241
100
AcDbEntity
  8
Layer 1
  6
ByLayer
 62
  256
370
   -1
100
AcDbLine
 10
-710.0390803732566
 20
304.3163174005151
 11
-710.9210233732566
 21
305.833257400515
  0
LINE
  5
242
100
AcDbEntity
  8
Layer 1
  6
ByLayer
 62
  256
370
   -1
100
AcDbLine
 10
-710.9210233732566
 20
305.833257400515
 11
-711.5560223732566
 21
307.491307400515
  0
LINE
  5
243
100
AcDbEntity
  8
Layer 1
  6
ByLayer
 62
  256
370
   -1
100
AcDbLine
 10
-711.5560223732566
 20
307.491307400515
 11
-711.9440773732566
 21
309.219917400515
  0
LINE
  5
244
100
AcDbEntity
  8
Layer 1
  6
ByLayer
 62
  256
370
   -1
100
AcDbLine
 10
-711.9440773732566
 20
309.219917400515
 11
-712.0499103732566
 21
310.983807400515
  0
LINE
  5
245
100
AcDbEntity
  8
Layer 1
  6
ByLayer
 62
  256
370
   -1
100
AcDbLine
 10
-723.0569703732566
 20
372.9827004005151
 11
-722.9511373732565
 21
374.746580400515
  0
LINE
  5
246
100
AcDbEntity
  8
Layer 1
  6
ByLayer
 62
  256
370
   -1
100
AcDbLine
 10
-722.9511373732565
 20
374.746580400515
 11
-722.5630823732566
 21
376.475190400515
  0
LINE
  5
247
100
AcDbEntity
  8
Layer 1
  6
ByLayer
 62
  256
370
   -1
100
AcDbLine
 10
-722.5630823732566
 20
376.475190400515
 11
-721.9280833732565
 21
378.133240400515
  0
LINE
  5
248
100
AcDbEntity
  8
Layer 1
  6
ByLayer
 62
  256
370
   -1
100
AcDbLine
 10
-721.9280833732565
 20
378.133240400515
 11
-721.0461403732565
 21
379.6501804005151
  0
LINE
  5
249
100
AcDbEntity
  8
Layer 1
  6
ByLayer
 62
  256
370
   -1
100
AcDbLine
 10
-721.0461403732565
 20
379.6501804005151
 11
-719.9878103732566
 21
381.061290400515
  0
LINE
  5
24A
100
AcDbEntity
  8
Layer 1
  6
ByLayer
 62
  256
370
   -1
100
AcDbLine
 10
-719.9878103732566
 20
381.061290400515
 11
-718.7178103732566
 21
382.2960104005151
  0
LINE
  5
24B
100
AcDbEntity
  8
Layer 1
  6
ByLayer
 62
  256
370
   -1
100
AcDbLine
 10
-718.7178103732566
 20
382.2960104005151
 11
-717.2714203732565
 21
383.3190604005151
  0
LINE
  5
24C
100
AcDbEntity
  8
Layer 1
  6
ByLayer
 62
  256
370
   -1
100
AcDbLine
 10
-717.2714203732565
 20
383.3190604005151
 11
-715.6839203732566
 21
384.130447400515
  0
LINE
  5
24D
100
AcDbEntity
  8
Layer 1
  6
ByLayer
 62
  256
370
   -1
100
AcDbLine
 10
-715.6839203732566
 20
384.130447400515
 11
-714.0258703732566
 21
384.694890400515
  0
LINE
  5
24E
100
AcDbEntity
  8
Layer 1
  6
ByLayer
 62
  256
370
   -1
100
AcDbLine
 10
-714.0258703732566
 20
384.694890400515
 11
-712.2972603732566
 21
385.012389400515
  0
LINE
  5
24F
100
AcDbEntity
  8
Layer 1
  6
ByLayer
 62
  256
370
   -1
100
AcDbLine
 10
-712.2972603732566
 20
385.012389400515
 11
-710.5333703732566
 21
385.082945400515
  0
LINE
  5
250
100
AcDbEntity
  8
Layer 1
  6
ByLayer
 62
  256
370
   -1
100
AcDbLine
 10
-710.5333703732566
 20
385.082945400515
 11
-708.7694903732566
 21
384.871279400515
  0
LINE
  5
251
100
AcDbEntity
  8
Layer 1
  6
ByLayer
 62
  256
370
   -1
100
AcDbLine
 10
-708.7694903732566
 20
384.871279400515
 11
-707.0761603732566
 21
384.447947400515
  0
LINE
  5
252
100
AcDbEntity
  8
Layer 1
  6
ByLayer
 62
  256
370
   -1
100
AcDbLine
 10
-707.0761603732566
 20
384.447947400515
 11
-705.4181103732566
 21
383.742393400515
  0
LINE
  5
253
100
AcDbEntity
  8
Layer 1
  6
ByLayer
 62
  256
370
   -1
100
AcDbLine
 10
-705.4181103732566
 20
383.742393400515
 11
-703.9364503732565
 21
382.825173400515
  0
LINE
  5
254
100
AcDbEntity
  8
Layer 1
  6
ByLayer
 62
  256
370
   -1
100
AcDbLine
 10
-703.9364503732565
 20
382.825173400515
 11
-702.5606203732566
 21
381.696283400515
  0
LINE
  5
255
100
AcDbEntity
  8
Layer 1
  6
ByLayer
 62
  256
370
   -1
100
AcDbLine
 10
-702.5606203732566
 20
381.696283400515
 11
-701.3964603732566
 21
380.391013400515
  0
LINE
  5
256
100
AcDbEntity
  8
Layer 1
  6
ByLayer
 62
  256
370
   -1
100
AcDbLine
 10
-701.3964603732566
 20
380.391013400515
 11
-700.4086843732566
 21
378.909353400515
  0
LINE
  5
257
100
AcDbEntity
  8
Layer 1
  6
ByLayer
 62
  256
370
   -1
100
AcDbLine
 10
-700.4086843732566
 20
378.909353400515
 11
-699.6678523732566
 21
377.3218534005151
  0
LINE
  5
258
100
AcDbEntity
  8
Layer 1
  6
ByLayer
 62
  256
370
   -1
100
AcDbLine
 10
-699.6678523732566
 20
377.3218534005151
 11
-699.1386863732566
 21
375.6285234005151
  0
LINE
  5
259
100
AcDbEntity
  8
Layer 1
  6
ByLayer
 62
  256
370
   -1
100
AcDbLine
 10
-699.1386863732566
 20
375.6285234005151
 11
-698.8917423732565
 21
373.864643400515
  0
LINE
  5
25A
100
AcDbEntity
  8
Layer 1
  6
ByLayer
 62
  256
370
   -1
100
AcDbLine
 10
-698.8917423732565
 20
373.864643400515
 11
-698.8916823732566
 21
372.1007454005151
  0
LINE
  5
25B
100
AcDbEntity
  8
Layer 1
  6
ByLayer
 62
  256
370
   -1
100
AcDbLine
 10
-698.8916823732566
 20
372.1007454005151
 11
-699.1386263732566
 21
370.372135400515
  0
LINE
  5
25C
100
AcDbEntity
  8
Layer 1
  6
ByLayer
 62
  256
370
   -1
100
AcDbLine
 10
-699.1386263732566
 20
370.372135400515
 11
-699.6677923732566
 21
368.678805400515
  0
LINE
  5
25D
100
AcDbEntity
  8
Layer 1
  6
ByLayer
 62
  256
370
   -1
100
AcDbLine
 10
-699.6677923732566
 20
368.678805400515
 11
-700.4086243732565
 21
367.056035400515
  0
LINE
  5
25E
100
AcDbEntity
  8
Layer 1
  6
ByLayer
 62
  256
370
   -1
100
AcDbLine
 10
-700.4086243732565
 20
367.056035400515
 11
-701.3964003732566
 21
365.5743754005151
  0
LINE
  5
25F
100
AcDbEntity
  8
Layer 1
  6
ByLayer
 62
  256
370
   -1
100
AcDbLine
 10
-701.3964003732566
 20
365.5743754005151
 11
-702.5605603732566
 21
364.2691054005151
  0
LINE
  5
260
100
AcDbEntity
  8
Layer 1
  6
ByLayer
 62
  256
370
   -1
100
AcDbLine
 10
-702.5605603732566
 20
364.2691054005151
 11
-703.9363903732566
 21
363.140215400515
  0
LINE
  5
261
100
AcDbEntity
  8
Layer 1
  6
ByLayer
 62
  256
370
   -1
100
AcDbLine
 10
-703.9363903732566
 20
363.140215400515
 11
-705.4180503732566
 21
362.2229954005151
  0
LINE
  5
262
100
AcDbEntity
  8
Layer 1
  6
ByLayer
 62
  256
370
   -1
100
AcDbLine
 10
-705.4180503732566
 20
362.2229954005151
 11
-707.0761003732566
 21
361.5174414005151
  0
LINE
  5
263
100
AcDbEntity
  8
Layer 1
  6
ByLayer
 62
  256
370
   -1
100
AcDbLine
 10
-707.0761003732566
 20
361.5174414005151
 11
-708.7694303732566
 21
361.094109400515
  0
LINE
  5
264
100
AcDbEntity
  8
Layer 1
  6
ByLayer
 62
  256
370
   -1
100
AcDbLine
 10
-708.7694303732566
 20
361.094109400515
 11
-710.5333103732565
 21
360.8824434005151
  0
LINE
  5
265
100
AcDbEntity
  8
Layer 1
  6
ByLayer
 62
  256
370
   -1
100
AcDbLine
 10
-710.5333103732565
 20
360.8824434005151
 11
-712.2972003732566
 21
360.9529984005151
  0
LINE
  5
266
100
AcDbEntity
  8
Layer 1
  6
ByLayer
 62
  256
370
   -1
100
AcDbLine
 10
-712.2972003732566
 20
360.9529984005151
 11
-714.0258103732566
 21
361.2704974005151
  0
LINE
  5
267
100
AcDbEntity
  8
Layer 1
  6
ByLayer
 62
  256
370
   -1
100
AcDbLine
 10
-714.0258103732566
 20
361.2704974005151
 11
-715.6838603732566
 21
361.8349404005151
  0
LINE
  5
268
100
AcDbEntity
  8
Layer 1
  6
ByLayer
 62
  256
370
   -1
100
AcDbLine
 10
-715.6838603732566
 20
361.8349404005151
 11
-717.2713603732566
 21
362.646327400515
  0
LINE
  5
269
100
AcDbEntity
  8
Layer 1
  6
ByLayer
 62
  256
370
   -1
100
AcDbLine
 10
-717.2713603732566
 20
362.646327400515
 11
-718.7177503732565
 21
363.669377400515
  0
LINE
  5
26A
100
AcDbEntity
  8
Layer 1
  6
ByLayer
 62
  256
370
   -1
100
AcDbLine
 10
-718.7177503732565
 20
363.669377400515
 11
-719.9877503732566
 21
364.9040974005151
  0
LINE
  5
26B
100
AcDbEntity
  8
Layer 1
  6
ByLayer
 62
  256
370
   -1
100
AcDbLine
 10
-719.9877503732566
 20
364.9040974005151
 11
-721.0460803732566
 21
366.315207400515
  0
LINE
  5
26C
100
AcDbEntity
  8
Layer 1
  6
ByLayer
 62
  256
370
   -1
100
AcDbLine
 10
-721.0460803732566
 20
366.315207400515
 11
-721.9280233732566
 21
367.8674274005151
  0
LINE
  5
26D
100
AcDbEntity
  8
Layer 1
  6
ByLayer
 62
  256
370
   -1
100
AcDbLine
 10
-721.9280233732566
 20
367.8674274005151
 11
-722.5630223732566
 21
369.4901974005151
  0
LINE
  5
26E
100
AcDbEntity
  8
Layer 1
  6
ByLayer
 62
  256
370
   -1
100
AcDbLine
 10
-722.5630223732566
 20
369.4901974005151
 11
-722.9510773732566
 21
371.2188074005151
  0
LINE
  5
26F
100
AcDbEntity
  8
Layer 1
  6
ByLayer
 62
  256
370
   -1
100
AcDbLine
 10
-722.9510773732566
 20
371.2188074005151
 11
-723.0569103732565
 21
372.982687400515
  0
LINE
  5
270
100
AcDbEntity
  8
Layer 1
  6
ByLayer
 62
  256
370
   -1
100
AcDbLine
 10
-752.0552103732566
 20
372.982687400515
 11
-751.9493773732567
 21
374.746577400515
  0
LINE
  5
271
100
AcDbEntity
  8
Layer 1
  6
ByLayer
 62
  256
370
   -1
100
AcDbLine
 10
-751.9493773732567
 20
374.746577400515
 11
-751.5613223732565
 21
376.475187400515
  0
LINE
  5
272
100
AcDbEntity
  8
Layer 1
  6
ByLayer
 62
  256
370
   -1
100
AcDbLine
 10
-751.5613223732565
 20
376.475187400515
 11
-750.9263233732567
 21
378.133237400515
  0
LINE
  5
273
100
AcDbEntity
  8
Layer 1
  6
ByLayer
 62
  256
370
   -1
100
AcDbLine
 10
-750.9263233732567
 20
378.133237400515
 11
-750.0443813732566
 21
379.650177400515
  0
LINE
  5
274
100
AcDbEntity
  8
Layer 1
  6
ByLayer
 62
  256
370
   -1
100
AcDbLine
 10
-750.0443813732566
 20
379.650177400515
 11
-748.9860513732566
 21
381.061287400515
  0
LINE
  5
275
100
AcDbEntity
  8
Layer 1
  6
ByLayer
 62
  256
370
   -1
100
AcDbLine
 10
-748.9860513732566
 20
381.061287400515
 11
-747.7160513732566
 21
382.2960074005151
  0
LINE
  5
276
100
AcDbEntity
  8
Layer 1
  6
ByLayer
 62
  256
370
   -1
100
AcDbLine
 10
-747.7160513732566
 20
382.2960074005151
 11
-746.2696613732566
 21
383.319057400515
  0
LINE
  5
277
100
AcDbEntity
  8
Layer 1
  6
ByLayer
 62
  256
370
   -1
100
AcDbLine
 10
-746.2696613732566
 20
383.319057400515
 11
-744.6821613732566
 21
384.130444400515
  0
LINE
  5
278
100
AcDbEntity
  8
Layer 1
  6
ByLayer
 62
  256
370
   -1
100
AcDbLine
 10
-744.6821613732566
 20
384.130444400515
 11
-743.0241113732566
 21
384.694887400515
  0
LINE
  5
279
100
AcDbEntity
  8
Layer 1
  6
ByLayer
 62
  256
370
   -1
100
AcDbLine
 10
-743.0241113732566
 20
384.694887400515
 11
-741.2955013732566
 21
385.012386400515
  0
LINE
  5
27A
100
AcDbEntity
  8
Layer 1
  6
ByLayer
 62
  256
370
   -1
100
AcDbLine
 10
-741.2955013732566
 20
385.012386400515
 11
-739.5316113732566
 21
385.082942400515
  0
LINE
  5
27B
100
AcDbEntity
  8
Layer 1
  6
ByLayer
 62
  256
370
   -1
100
AcDbLine
 10
-739.5316113732566
 20
385.082942400515
 11
-737.7677213732566
 21
384.8712764005151
  0
LINE
  5
27C
100
AcDbEntity
  8
Layer 1
  6
ByLayer
 62
  256
370
   -1
100
AcDbLine
 10
-737.7677213732566
 20
384.8712764005151
 11
-736.0743913732566
 21
384.447944400515
  0
LINE
  5
27D
100
AcDbEntity
  8
Layer 1
  6
ByLayer
 62
  256
370
   -1
100
AcDbLine
 10
-736.0743913732566
 20
384.447944400515
 11
-734.4163413732566
 21
383.742390400515
  0
LINE
  5
27E
100
AcDbEntity
  8
Layer 1
  6
ByLayer
 62
  256
370
   -1
100
AcDbLine
 10
-734.4163413732566
 20
383.742390400515
 11
-732.9346813732566
 21
382.825170400515
  0
LINE
  5
27F
100
AcDbEntity
  8
Layer 1
  6
ByLayer
 62
  256
370
   -1
100
AcDbLine
 10
-732.9346813732566
 20
382.825170400515
 11
-731.5588513732566
 21
381.696280400515
  0
LINE
  5
280
100
AcDbEntity
  8
Layer 1
  6
ByLayer
 62
  256
370
   -1
100
AcDbLine
 10
-731.5588513732566
 20
381.696280400515
 11
-730.3946913732566
 21
380.391010400515
  0
LINE
  5
281
100
AcDbEntity
  8
Layer 1
  6
ByLayer
 62
  256
370
   -1
100
AcDbLine
 10
-730.3946913732566
 20
380.391010400515
 11
-729.4069153732565
 21
378.9093504005151
  0
LINE
  5
282
100
AcDbEntity
  8
Layer 1
  6
ByLayer
 62
  256
370
   -1
100
AcDbLine
 10
-729.4069153732565
 20
378.9093504005151
 11
-728.6660833732566
 21
377.321850400515
  0
LINE
  5
283
100
AcDbEntity
  8
Layer 1
  6
ByLayer
 62
  256
370
   -1
100
AcDbLine
 10
-728.6660833732566
 20
377.321850400515
 11
-728.1721953732566
 21
375.6285204005151
  0
LINE
  5
284
100
AcDbEntity
  8
Layer 1
  6
ByLayer
 62
  256
370
   -1
100
AcDbLine
 10
-728.1721953732566
 20
375.6285204005151
 11
-727.8899733732566
 21
373.8646304005151
  0
LINE
  5
285
100
AcDbEntity
  8
Layer 1
  6
ByLayer
 62
  256
370
   -1
100
AcDbLine
 10
-727.8899733732566
 20
373.8646304005151
 11
-727.8896823732566
 21
372.1007454005151
  0
LINE
  5
286
100
AcDbEntity
  8
Layer 1
  6
ByLayer
 62
  256
370
   -1
100
AcDbLine
 10
-727.8896823732566
 20
372.1007454005151
 11
-728.1719043732566
 21
370.372135400515
  0
LINE
  5
287
100
AcDbEntity
  8
Layer 1
  6
ByLayer
 62
  256
370
   -1
100
AcDbLine
 10
-728.1719043732566
 20
370.372135400515
 11
-728.6657923732566
 21
368.678805400515
  0
LINE
  5
288
100
AcDbEntity
  8
Layer 1
  6
ByLayer
 62
  256
370
   -1
100
AcDbLine
 10
-728.6657923732566
 20
368.678805400515
 11
-729.4066243732566
 21
367.056035400515
  0
LINE
  5
289
100
AcDbEntity
  8
Layer 1
  6
ByLayer
 62
  256
370
   -1
100
AcDbLine
 10
-729.4066243732566
 20
367.056035400515
 11
-730.3944003732566
 21
365.5743754005151
  0
LINE
  5
28A
100
AcDbEntity
  8
Layer 1
  6
ByLayer
 62
  256
370
   -1
100
AcDbLine
 10
-730.3944003732566
 20
365.5743754005151
 11
-731.5585603732566
 21
364.2691054005151
  0
LINE
  5
28B
100
AcDbEntity
  8
Layer 1
  6
ByLayer
 62
  256
370
   -1
100
AcDbLine
 10
-731.5585603732566
 20
364.2691054005151
 11
-732.9343903732566
 21
363.140215400515
  0
LINE
  5
28C
100
AcDbEntity
  8
Layer 1
  6
ByLayer
 62
  256
370
   -1
100
AcDbLine
 10
-732.9343903732566
 20
363.140215400515
 11
-734.4160503732566
 21
362.2229954005151
  0
LINE
  5
28D
100
AcDbEntity
  8
Layer 1
  6
ByLayer
 62
  256
370
   -1
100
AcDbLine
 10
-734.4160503732566
 20
362.2229954005151
 11
-736.0741003732566
 21
361.5174414005151
  0
LINE
  5
28E
100
AcDbEntity
  8
Layer 1
  6
ByLayer
 62
  256
370
   -1
100
AcDbLine
 10
-736.0741003732566
 20
361.5174414005151
 11
-737.7674303732566
 21
361.094109400515
  0
LINE
  5
28F
100
AcDbEntity
  8
Layer 1
  6
ByLayer
 62
  256
370
   -1
100
AcDbLine
 10
-737.7674303732566
 20
361.094109400515
 11
-739.5313203732566
 21
360.8824434005151
  0
LINE
  5
290
100
AcDbEntity
  8
Layer 1
  6
ByLayer
 62
  256
370
   -1
100
AcDbLine
 10
-739.5313203732566
 20
360.8824434005151
 11
-741.2952103732566
 21
360.9529984005151
  0
LINE
  5
291
100
AcDbEntity
  8
Layer 1
  6
ByLayer
 62
  256
370
   -1
100
AcDbLine
 10
-741.2952103732566
 20
360.9529984005151
 11
-743.0238203732566
 21
361.2704974005151
  0
LINE
  5
292
100
AcDbEntity
  8
Layer 1
  6
ByLayer
 62
  256
370
   -1
100
AcDbLine
 10
-743.0238203732566
 20
361.2704974005151
 11
-744.6818703732566
 21
361.8349404005151
  0
LINE
  5
293
100
AcDbEntity
  8
Layer 1
  6
ByLayer
 62
  256
370
   -1
100
AcDbLine
 10
-744.6818703732566
 20
361.8349404005151
 11
-746.2693703732566
 21
362.646327400515
  0
LINE
  5
294
100
AcDbEntity
  8
Layer 1
  6
ByLayer
 62
  256
370
   -1
100
AcDbLine
 10
-746.2693703732566
 20
362.646327400515
 11
-747.7157603732566
 21
363.669377400515
  0
LINE
  5
295
100
AcDbEntity
  8
Layer 1
  6
ByLayer
 62
  256
370
   -1
100
AcDbLine
 10
-747.7157603732566
 20
363.669377400515
 11
-748.9857603732565
 21
364.9040974005151
  0
LINE
  5
296
100
AcDbEntity
  8
Layer 1
  6
ByLayer
 62
  256
370
   -1
100
AcDbLine
 10
-748.9857603732565
 20
364.9040974005151
 11
-750.0440903732566
 21
366.315207400515
  0
LINE
  5
297
100
AcDbEntity
  8
Layer 1
  6
ByLayer
 62
  256
370
   -1
100
AcDbLine
 10
-750.0440903732566
 20
366.315207400515
 11
-750.9260323732566
 21
367.8674274005151
  0
LINE
  5
298
100
AcDbEntity
  8
Layer 1
  6
ByLayer
 62
  256
370
   -1
100
AcDbLine
 10
-750.9260323732566
 20
367.8674274005151
 11
-751.5610313732566
 21
369.4901974005151
  0
LINE
  5
299
100
AcDbEntity
  8
Layer 1
  6
ByLayer
 62
  256
370
   -1
100
AcDbLine
 10
-751.5610313732566
 20
369.4901974005151
 11
-751.9490863732566
 21
371.2188074005151
  0
LINE
  5
29A
100
AcDbEntity
  8
Layer 1
  6
ByLayer
 62
  256
370
   -1
100
AcDbLine
 10
-751.9490863732566
 20
371.2188074005151
 11
-752.0549193732566
 21
372.9826974005151
  0
LINE
  5
29B
100
AcDbEntity
  8
Layer 1
  6
ByLayer
 62
  256
370
   -1
100
AcDbLine
 10
-778.5485103732566
 20
361.482487400515
 11
-778.4426773732566
 21
363.2463674005151
  0
LINE
  5
29C
100
AcDbEntity
  8
Layer 1
  6
ByLayer
 62
  256
370
   -1
100
AcDbLine
 10
-778.4426773732566
 20
363.2463674005151
 11
-778.0546223732566
 21
364.9749774005151
  0
LINE
  5
29D
100
AcDbEntity
  8
Layer 1
  6
ByLayer
 62
  256
370
   -1
100
AcDbLine
 10
-778.0546223732566
 20
364.9749774005151
 11
-777.4196233732565
 21
366.6330274005151
  0
LINE
  5
29E
100
AcDbEntity
  8
Layer 1
  6
ByLayer
 62
  256
370
   -1
100
AcDbLine
 10
-777.4196233732565
 20
366.6330274005151
 11
-776.5729583732566
 21
368.149967400515
  0
LINE
  5
29F
100
AcDbEntity
  8
Layer 1
  6
ByLayer
 62
  256
370
   -1
100
AcDbLine
 10
-776.5729583732566
 20
368.149967400515
 11
-775.4793483732566
 21
369.561077400515
  0
LINE
  5
2A0
100
AcDbEntity
  8
Layer 1
  6
ByLayer
 62
  256
370
   -1
100
AcDbLine
 10
-775.4793483732566
 20
369.561077400515
 11
-774.2093483732566
 21
370.795797400515
  0
LINE
  5
2A1
100
AcDbEntity
  8
Layer 1
  6
ByLayer
 62
  256
370
   -1
100
AcDbLine
 10
-774.2093483732566
 20
370.795797400515
 11
-772.7629583732565
 21
371.818847400515
  0
LINE
  5
2A2
100
AcDbEntity
  8
Layer 1
  6
ByLayer
 62
  256
370
   -1
100
AcDbLine
 10
-772.7629583732565
 20
371.818847400515
 11
-771.2107383732566
 21
372.6302344005151
  0
LINE
  5
2A3
100
AcDbEntity
  8
Layer 1
  6
ByLayer
 62
  256
370
   -1
100
AcDbLine
 10
-771.2107383732566
 20
372.6302344005151
 11
-769.5174083732566
 21
373.194677400515
  0
LINE
  5
2A4
100
AcDbEntity
  8
Layer 1
  6
ByLayer
 62
  256
370
   -1
100
AcDbLine
 10
-769.5174083732566
 20
373.194677400515
 11
-767.7887983732566
 21
373.512176400515
  0
LINE
  5
2A5
100
AcDbEntity
  8
Layer 1
  6
ByLayer
 62
  256
370
   -1
100
AcDbLine
 10
-767.7887983732566
 20
373.512176400515
 11
-766.0249083732566
 21
373.5827324005151
  0
LINE
  5
2A6
100
AcDbEntity
  8
Layer 1
  6
ByLayer
 62
  256
370
   -1
100
AcDbLine
 10
-766.0249083732566
 20
373.5827324005151
 11
-764.2610283732566
 21
373.371066400515
  0
LINE
  5
2A7
100
AcDbEntity
  8
Layer 1
  6
ByLayer
 62
  256
370
   -1
100
AcDbLine
 10
-764.2610283732566
 20
373.371066400515
 11
-762.5676983732566
 21
372.9477344005151
  0
LINE
  5
2A8
100
AcDbEntity
  8
Layer 1
  6
ByLayer
 62
  256
370
   -1
100
AcDbLine
 10
-762.5676983732566
 20
372.9477344005151
 11
-760.9449283732566
 21
372.2421804005151
  0
LINE
  5
2A9
100
AcDbEntity
  8
Layer 1
  6
ByLayer
 62
  256
370
   -1
100
AcDbLine
 10
-760.9449283732566
 20
372.2421804005151
 11
-759.4279883732565
 21
371.3249604005151
  0
LINE
  5
2AA
100
AcDbEntity
  8
Layer 1
  6
ByLayer
 62
  256
370
   -1
100
AcDbLine
 10
-759.4279883732565
 20
371.3249604005151
 11
-758.0521583732566
 21
370.1960704005151
  0
LINE
  5
2AB
100
AcDbEntity
  8
Layer 1
  6
ByLayer
 62
  256
370
   -1
100
AcDbLine
 10
-758.0521583732566
 20
370.1960704005151
 11
-756.8879983732566
 21
368.890800400515
  0
LINE
  5
2AC
100
AcDbEntity
  8
Layer 1
  6
ByLayer
 62
  256
370
   -1
100
AcDbLine
 10
-756.8879983732566
 20
368.890800400515
 11
-755.9002223732566
 21
367.4091404005151
  0
LINE
  5
2AD
100
AcDbEntity
  8
Layer 1
  6
ByLayer
 62
  256
370
   -1
100
AcDbLine
 10
-755.9002223732566
 20
367.4091404005151
 11
-755.1593903732565
 21
365.821640400515
  0
LINE
  5
2AE
100
AcDbEntity
  8
Layer 1
  6
ByLayer
 62
  256
370
   -1
100
AcDbLine
 10
-755.1593903732565
 20
365.821640400515
 11
-754.6655023732566
 21
364.128310400515
  0
LINE
  5
2AF
100
AcDbEntity
  8
Layer 1
  6
ByLayer
 62
  256
370
   -1
100
AcDbLine
 10
-754.6655023732566
 20
364.128310400515
 11
-754.3832803732565
 21
362.3644304005151
  0
LINE
  5
2B0
100
AcDbEntity
  8
Layer 1
  6
ByLayer
 62
  256
370
   -1
100
AcDbLine
 10
-754.3832803732565
 20
362.3644304005151
 11
-754.3835823732566
 21
360.6007454005151
  0
LINE
  5
2B1
100
AcDbEntity
  8
Layer 1
  6
ByLayer
 62
  256
370
   -1
100
AcDbLine
 10
-754.3835823732566
 20
360.6007454005151
 11
-754.6658043732566
 21
358.872135400515
  0
LINE
  5
2B2
100
AcDbEntity
  8
Layer 1
  6
ByLayer
 62
  256
370
   -1
100
AcDbLine
 10
-754.6658043732566
 20
358.872135400515
 11
-755.1596923732566
 21
357.178805400515
  0
LINE
  5
2B3
100
AcDbEntity
  8
Layer 1
  6
ByLayer
 62
  256
370
   -1
100
AcDbLine
 10
-755.1596923732566
 20
357.178805400515
 11
-755.9005243732566
 21
355.556035400515
  0
LINE
  5
2B4
100
AcDbEntity
  8
Layer 1
  6
ByLayer
 62
  256
370
   -1
100
AcDbLine
 10
-755.9005243732566
 20
355.556035400515
 11
-756.8883003732566
 21
354.0743754005151
  0
LINE
  5
2B5
100
AcDbEntity
  8
Layer 1
  6
ByLayer
 62
  256
370
   -1
100
AcDbLine
 10
-756.8883003732566
 20
354.0743754005151
 11
-758.0524603732566
 21
352.7691054005151
  0
LINE
  5
2B6
100
AcDbEntity
  8
Layer 1
  6
ByLayer
 62
  256
370
   -1
100
AcDbLine
 10
-758.0524603732566
 20
352.7691054005151
 11
-759.4282903732566
 21
351.640215400515
  0
LINE
  5
2B7
100
AcDbEntity
  8
Layer 1
  6
ByLayer
 62
  256
370
   -1
100
AcDbLine
 10
-759.4282903732566
 20
351.640215400515
 11
-760.9452303732565
 21
350.7229954005151
  0
LINE
  5
2B8
100
AcDbEntity
  8
Layer 1
  6
ByLayer
 62
  256
370
   -1
100
AcDbLine
 10
-760.9452303732565
 20
350.7229954005151
 11
-762.5680003732566
 21
350.0174414005151
  0
LINE
  5
2B9
100
AcDbEntity
  8
Layer 1
  6
ByLayer
 62
  256
370
   -1
100
AcDbLine
 10
-762.5680003732566
 20
350.0174414005151
 11
-764.2613303732566
 21
349.594109400515
  0
LINE
  5
2BA
100
AcDbEntity
  8
Layer 1
  6
ByLayer
 62
  256
370
   -1
100
AcDbLine
 10
-764.2613303732566
 20
349.594109400515
 11
-766.0252103732565
 21
349.3824434005151
  0
LINE
  5
2BB
100
AcDbEntity
  8
Layer 1
  6
ByLayer
 62
  256
370
   -1
100
AcDbLine
 10
-766.0252103732565
 20
349.3824434005151
 11
-767.7891003732566
 21
349.452998400515
  0
LINE
  5
2BC
100
AcDbEntity
  8
Layer 1
  6
ByLayer
 62
  256
370
   -1
100
AcDbLine
 10
-767.7891003732566
 20
349.452998400515
 11
-769.5177103732566
 21
349.770497400515
  0
LINE
  5
2BD
100
AcDbEntity
  8
Layer 1
  6
ByLayer
 62
  256
370
   -1
100
AcDbLine
 10
-769.5177103732566
 20
349.770497400515
 11
-771.2110403732567
 21
350.3349404005151
  0
LINE
  5
2BE
100
AcDbEntity
  8
Layer 1
  6
ByLayer
 62
  256
370
   -1
100
AcDbLine
 10
-771.2110403732567
 20
350.3349404005151
 11
-772.7632603732566
 21
351.1463274005151
  0
LINE
  5
2BF
100
AcDbEntity
  8
Layer 1
  6
ByLayer
 62
  256
370
   -1
100
AcDbLine
 10
-772.7632603732566
 20
351.1463274005151
 11
-774.2096503732566
 21
352.169377400515
  0
LINE
  5
2C0
100
AcDbEntity
  8
Layer 1
  6
ByLayer
 62
  256
370
   -1
100
AcDbLine
 10
-774.2096503732566
 20
352.169377400515
 11
-775.4796503732566
 21
353.404097400515
  0
LINE
  5
2C1
100
AcDbEntity
  8
Layer 1
  6
ByLayer
 62
  256
370
   -1
100
AcDbLine
 10
-775.4796503732566
 20
353.404097400515
 11
-776.5732603732566
 21
354.815207400515
  0
LINE
  5
2C2
100
AcDbEntity
  8
Layer 1
  6
ByLayer
 62
  256
370
   -1
100
AcDbLine
 10
-776.5732603732566
 20
354.815207400515
 11
-777.4199253732567
 21
356.3674274005151
  0
LINE
  5
2C3
100
AcDbEntity
  8
Layer 1
  6
ByLayer
 62
  256
370
   -1
100
AcDbLine
 10
-777.4199253732567
 20
356.3674274005151
 11
-778.0549243732565
 21
357.9901974005151
  0
LINE
  5
2C4
100
AcDbEntity
  8
Layer 1
  6
ByLayer
 62
  256
370
   -1
100
AcDbLine
 10
-778.0549243732565
 20
357.9901974005151
 11
-778.4429793732567
 21
359.7188074005151
  0
LINE
  5
2C5
100
AcDbEntity
  8
Layer 1
  6
ByLayer
 62
  256
370
   -1
100
AcDbLine
 10
-778.4429793732567
 20
359.7188074005151
 11
-778.5488123732566
 21
361.482687400515
  0
LINE
  5
2C6
100
AcDbEntity
  8
Layer 1
  6
ByLayer
 62
  256
370
   -1
100
AcDbLine
 10
-696.5634123732566
 20
361.482687400515
 11
-696.4223013732566
 21
363.246577400515
  0
LINE
  5
2C7
100
AcDbEntity
  8
Layer 1
  6
ByLayer
 62
  256
370
   -1
100
AcDbLine
 10
-696.4223013732566
 20
363.246577400515
 11
-696.0695243732566
 21
364.975187400515
  0
LINE
  5
2C8
100
AcDbEntity
  8
Layer 1
  6
ByLayer
 62
  256
370
   -1
100
AcDbLine
 10
-696.0695243732566
 20
364.975187400515
 11
-695.4345253732566
 21
366.633237400515
  0
LINE
  5
2C9
100
AcDbEntity
  8
Layer 1
  6
ByLayer
 62
  256
370
   -1
100
AcDbLine
 10
-695.4345253732566
 20
366.633237400515
 11
-694.5525823732565
 21
368.150177400515
  0
LINE
  5
2CA
100
AcDbEntity
  8
Layer 1
  6
ByLayer
 62
  256
370
   -1
100
AcDbLine
 10
-694.5525823732565
 20
368.150177400515
 11
-693.4942523732566
 21
369.561287400515
  0
LINE
  5
2CB
100
AcDbEntity
  8
Layer 1
  6
ByLayer
 62
  256
370
   -1
100
AcDbLine
 10
-693.4942523732566
 20
369.561287400515
 11
-692.1889823732566
 21
370.7960074005151
  0
LINE
  5
2CC
100
AcDbEntity
  8
Layer 1
  6
ByLayer
 62
  256
370
   -1
100
AcDbLine
 10
-692.1889823732566
 20
370.7960074005151
 11
-690.7778723732566
 21
371.819057400515
  0
LINE
  5
2CD
100
AcDbEntity
  8
Layer 1
  6
ByLayer
 62
  256
370
   -1
100
AcDbLine
 10
-690.7778723732566
 20
371.819057400515
 11
-689.1903723732565
 21
372.630444400515
  0
LINE
  5
2CE
100
AcDbEntity
  8
Layer 1
  6
ByLayer
 62
  256
370
   -1
100
AcDbLine
 10
-689.1903723732565
 20
372.630444400515
 11
-687.5323223732565
 21
373.194887400515
  0
LINE
  5
2CF
100
AcDbEntity
  8
Layer 1
  6
ByLayer
 62
  256
370
   -1
100
AcDbLine
 10
-687.5323223732565
 20
373.194887400515
 11
-685.8037123732566
 21
373.512386400515
  0
LINE
  5
2D0
100
AcDbEntity
  8
Layer 1
  6
ByLayer
 62
  256
370
   -1
100
AcDbLine
 10
-685.8037123732566
 20
373.512386400515
 11
-684.0398323732566
 21
373.582942400515
  0
LINE
  5
2D1
100
AcDbEntity
  8
Layer 1
  6
ByLayer
 62
  256
370
   -1
100
AcDbLine
 10
-684.0398323732566
 20
373.582942400515
 11
-682.2759423732566
 21
373.3712764005151
  0
LINE
  5
2D2
100
AcDbEntity
  8
Layer 1
  6
ByLayer
 62
  256
370
   -1
100
AcDbLine
 10
-682.2759423732566
 20
373.3712764005151
 11
-680.5473323732566
 21
372.947944400515
  0
LINE
  5
2D3
100
AcDbEntity
  8
Layer 1
  6
ByLayer
 62
  256
370
   -1
100
AcDbLine
 10
-680.5473323732566
 20
372.947944400515
 11
-678.9245623732565
 21
372.242390400515
  0
LINE
  5
2D4
100
AcDbEntity
  8
Layer 1
  6
ByLayer
 62
  256
370
   -1
100
AcDbLine
 10
-678.9245623732565
 20
372.242390400515
 11
-677.4076223732566
 21
371.325170400515
  0
LINE
  5
2D5
100
AcDbEntity
  8
Layer 1
  6
ByLayer
 62
  256
370
   -1
100
AcDbLine
 10
-677.4076223732566
 20
371.325170400515
 11
-676.0670723732566
 21
370.196280400515
  0
LINE
  5
2D6
100
AcDbEntity
  8
Layer 1
  6
ByLayer
 62
  256
370
   -1
100
AcDbLine
 10
-676.0670723732566
 20
370.196280400515
 11
-674.9029123732565
 21
368.891010400515
  0
LINE
  5
2D7
100
AcDbEntity
  8
Layer 1
  6
ByLayer
 62
  256
370
   -1
100
AcDbLine
 10
-674.9029123732565
 20
368.891010400515
 11
-673.9151363732566
 21
367.4093504005151
  0
LINE
  5
2D8
100
AcDbEntity
  8
Layer 1
  6
ByLayer
 62
  256
370
   -1
100
AcDbLine
 10
-673.9151363732566
 20
367.4093504005151
 11
-673.1743043732566
 21
365.821850400515
  0
LINE
  5
2D9
100
AcDbEntity
  8
Layer 1
  6
ByLayer
 62
  256
370
   -1
100
AcDbLine
 10
-673.1743043732566
 20
365.821850400515
 11
-672.6451383732566
 21
364.1285204005151
  0
LINE
  5
2DA
100
AcDbEntity
  8
Layer 1
  6
ByLayer
 62
  256
370
   -1
100
AcDbLine
 10
-672.6451383732566
 20
364.1285204005151
 11
-672.3981943732566
 21
362.3646304005151
  0
LINE
  5
2DB
100
AcDbEntity
  8
Layer 1
  6
ByLayer
 62
  256
370
   -1
100
AcDbLine
 10
-672.3981943732566
 20
362.3646304005151
 11
-672.3986823732566
 21
360.6007454005151
  0
LINE
  5
2DC
100
AcDbEntity
  8
Layer 1
  6
ByLayer
 62
  256
370
   -1
100
AcDbLine
 10
-672.3986823732566
 20
360.6007454005151
 11
-672.6456263732566
 21
358.872135400515
  0
LINE
  5
2DD
100
AcDbEntity
  8
Layer 1
  6
ByLayer
 62
  256
370
   -1
100
AcDbLine
 10
-672.6456263732566
 20
358.872135400515
 11
-673.1747923732565
 21
357.178805400515
  0
LINE
  5
2DE
100
AcDbEntity
  8
Layer 1
  6
ByLayer
 62
  256
370
   -1
100
AcDbLine
 10
-673.1747923732565
 20
357.178805400515
 11
-673.9156243732566
 21
355.556035400515
  0
LINE
  5
2DF
100
AcDbEntity
  8
Layer 1
  6
ByLayer
 62
  256
370
   -1
100
AcDbLine
 10
-673.9156243732566
 20
355.556035400515
 11
-674.9034003732567
 21
354.0743754005151
  0
LINE
  5
2E0
100
AcDbEntity
  8
Layer 1
  6
ByLayer
 62
  256
370
   -1
100
AcDbLine
 10
-674.9034003732567
 20
354.0743754005151
 11
-676.0675603732566
 21
352.7691054005151
  0
LINE
  5
2E1
100
AcDbEntity
  8
Layer 1
  6
ByLayer
 62
  256
370
   -1
100
AcDbLine
 10
-676.0675603732566
 20
352.7691054005151
 11
-677.4081103732566
 21
351.640215400515
  0
LINE
  5
2E2
100
AcDbEntity
  8
Layer 1
  6
ByLayer
 62
  256
370
   -1
100
AcDbLine
 10
-677.4081103732566
 20
351.640215400515
 11
-678.9250503732566
 21
350.7229954005151
  0
LINE
  5
2E3
100
AcDbEntity
  8
Layer 1
  6
ByLayer
 62
  256
370
   -1
100
AcDbLine
 10
-678.9250503732566
 20
350.7229954005151
 11
-680.5478203732566
 21
350.0174414005151
  0
LINE
  5
2E4
100
AcDbEntity
  8
Layer 1
  6
ByLayer
 62
  256
370
   -1
100
AcDbLine
 10
-680.5478203732566
 20
350.0174414005151
 11
-682.2764303732566
 21
349.594109400515
  0
LINE
  5
2E5
100
AcDbEntity
  8
Layer 1
  6
ByLayer
 62
  256
370
   -1
100
AcDbLine
 10
-682.2764303732566
 20
349.594109400515
 11
-684.0403203732566
 21
349.3824434005151
  0
LINE
  5
2E6
100
AcDbEntity
  8
Layer 1
  6
ByLayer
 62
  256
370
   -1
100
AcDbLine
 10
-684.0403203732566
 20
349.3824434005151
 11
-685.8042003732565
 21
349.452998400515
  0
LINE
  5
2E7
100
AcDbEntity
  8
Layer 1
  6
ByLayer
 62
  256
370
   -1
100
AcDbLine
 10
-685.8042003732565
 20
349.452998400515
 11
-687.5328103732566
 21
349.770497400515
  0
LINE
  5
2E8
100
AcDbEntity
  8
Layer 1
  6
ByLayer
 62
  256
370
   -1
100
AcDbLine
 10
-687.5328103732566
 20
349.770497400515
 11
-689.1908603732566
 21
350.3349404005151
  0
LINE
  5
2E9
100
AcDbEntity
  8
Layer 1
  6
ByLayer
 62
  256
370
   -1
100
AcDbLine
 10
-689.1908603732566
 20
350.3349404005151
 11
-690.7783603732565
 21
351.1463274005151
  0
LINE
  5
2EA
100
AcDbEntity
  8
Layer 1
  6
ByLayer
 62
  256
370
   -1
100
AcDbLine
 10
-690.7783603732565
 20
351.1463274005151
 11
-692.1894703732565
 21
352.169377400515
  0
LINE
  5
2EB
100
AcDbEntity
  8
Layer 1
  6
ByLayer
 62
  256
370
   -1
100
AcDbLine
 10
-692.1894703732565
 20
352.169377400515
 11
-693.4947403732566
 21
353.404097400515
  0
LINE
  5
2EC
100
AcDbEntity
  8
Layer 1
  6
ByLayer
 62
  256
370
   -1
100
AcDbLine
 10
-693.4947403732566
 20
353.404097400515
 11
-694.5530703732566
 21
354.815207400515
  0
LINE
  5
2ED
100
AcDbEntity
  8
Layer 1
  6
ByLayer
 62
  256
370
   -1
100
AcDbLine
 10
-694.5530703732566
 20
354.815207400515
 11
-695.4350133732565
 21
356.3674274005151
  0
LINE
  5
2EE
100
AcDbEntity
  8
Layer 1
  6
ByLayer
 62
  256
370
   -1
100
AcDbLine
 10
-695.4350133732565
 20
356.3674274005151
 11
-696.0700123732566
 21
357.9901974005151
  0
LINE
  5
2EF
100
AcDbEntity
  8
Layer 1
  6
ByLayer
 62
  256
370
   -1
100
AcDbLine
 10
-696.0700123732566
 20
357.9901974005151
 11
-696.4227893732566
 21
359.7188074005151
  0
LINE
  5
2F0
100
AcDbEntity
  8
Layer 1
  6
ByLayer
 62
  256
370
   -1
100
AcDbLine
 10
-696.4227893732566
 20
359.7188074005151
 11
-696.5639003732566
 21
361.4826974005151
  0
ENDSEC
  0
SECTION
  2
OBJECTS
  0
DICTIONARY
  5
C
330
0
100
AcDbDictionary
281
    1
  3
ACAD_GROUP
350
D
  0
DICTIONARY
  5
D
330
C
100
AcDbDictionary
281
    1
  0
PLOTSETTINGS
  5
2F1
100
AcDbPlotSettings
  6
1x1
 40
0
 41
0
 42
0
 43
0
  0
ENDSEC
  0
EOF
