999
dxfrw 0.6.3
  0
SECTION
  2
HEADER
  9
$ACADVER
  1
AC1021
  9
$DWGCODEPAGE
  3
ANSI_1252
  9
$INSBASE
 10
0
 20
0
 30
0
  9
$EXTMIN
 10
-822.8866807226086
 20
220.8061446199398
 30
0
  9
$EXTMAX
 10
-473.6764210243004
 20
440.5215539622631
 30
0
  9
$LIMMIN
 10
0
 20
0
  9
$LIMMAX
 10
420
 20
297
  9
$ORTHOMODE
 70
    0
  9
$REGENMODE
 70
    1
  9
$FILLMODE
 70
    1
  9
$QTEXTMODE
 70
    0
  9
$MIRRTEXT
 70
    0
  9
$LTSCALE
 40
1
  9
$ATTMODE
 70
    0
  9
$TEXTSIZE
 40
2.5
  9
$TRACEWID
 40
15.68
  9
$TEXTSTYLE
  7
STANDARD
  9
$CLAYER
  8
0
  9
$CELTYPE
  6
BYLAYER
  9
$CECOLOR
 62
  256
  9
$CELTSCALE
 40
1
  9
$DISPSILH
 70
    0
  9
$DIMSCALE
 40
2.5
  9
$DIMASZ
 40
2.5
  9
$DIMEXO
 40
0.625
  9
$DIMDLI
 40
3.75
  9
$DIMRND
 40
0
  9
$DIMDLE
 40
0
  9
$DIMEXE
 40
1.25
  9
$DIMTP
 40
0
  9
$DIMTM
 40
0
  9
$DIMTXT
 40
2.5
  9
$DIMCEN
 40
2.5
  9
$DIMTSZ
 40
0
  9
$DIMTOL
 70
    0
  9
$DIMLIM
 70
    0
  9
$DIMTIH
 70
    0
  9
$DIMTOH
 70
    0
  9
$DIMSE1
 70
    0
  9
$DIMSE2
 70
    0
  9
$DIMTAD
 70
    1
  9
$DIMZIN
 70
    8
  9
$DIMBLK
  1

  9
$DIMASO
 70
    1
  9
$DIMSHO
 70
    1
  9
$DIMPOST
  1

  9
$DIMAPOST
  1

  9
$DIMALT
 70
    0
  9
$DIMALTD
 70
    3
  9
$DIMALTF
 40
0.03937
  9
$DIMLFAC
 40
1
  9
$DIMTOFL
 70
    1
  9
$DIMTVP
 40
0
  9
$DIMTIX
 70
    0
  9
$DIMSOXD
 70
    0
  9
$DIMSAH
 70
    0
  9
$DIMBLK1
  1

  9
$DIMBLK2
  1

  9
$DIMSTYLE
  2
STANDARD
  9
$DIMCLRD
 70
    0
  9
$DIMCLRE
 70
    0
  9
$DIMCLRT
 70
    0
  9
$DIMTFAC
 40
1
  9
$DIMGAP
 40
0.625
  9
$DIMJUST
 70
    0
  9
$DIMSD1
 70
    0
  9
$DIMSD2
 70
    0
  9
$DIMTOLJ
 70
    0
  9
$DIMTZIN
 70
    8
  9
$DIMALTZ
 70
    0
  9
$DIMALTTZ
 70
    0
  9
$DIMUPT
 70
    0
  9
$DIMDEC
 70
    2
  9
$DIMTDEC
 70
    2
  9
$DIMALTU
 70
    2
  9
$DIMALTTD
 70
    3
  9
$DIMTXSTY
  7
STANDARD
  9
$DIMAUNIT
 70
    0
  9
$DIMADEC
 70
    0
  9
$DIMALTRND
 40
0
  9
$DIMAZIN
 70
    0
  9
$DIMDSEP
 70
   44
  9
$DIMATFIT
 70
    3
  9
$DIMFRAC
 70
    0
  9
$DIMLDRBLK
  1
STANDARD
  9
$DIMLUNIT
 70
    2
  9
$DIMLWD
 70
   -2
  9
$DIMLWE
 70
   -2
  9
$DIMTMOVE
 70
    0
  9
$DIMFXL
 40
1
  9
$DIMFXLON
 70
    0
  9
$DIMJOGANG
 40
0.7854
  9
$DIMTFILL
 70
    0
  9
$DIMTFILLCLR
 70
    0
  9
$DIMARCSYM
 70
    0
  9
$DIMLTYPE
  6

  9
$DIMLTEX1
  6

  9
$DIMLTEX2
  6

  9
$LUNITS
 70
    2
  9
$LUPREC
 70
    4
  9
$SKETCHINC
 40
1
  9
$FILLETRAD
 40
0
  9
$AUNITS
 70
    0
  9
$AUPREC
 70
    2
  9
$MENU
  1
.
  9
$ELEVATION
 40
0
  9
$PELEVATION
 40
0
  9
$THICKNESS
 40
0
  9
$LIMCHECK
 70
    0
  9
$CHAMFERA
 40
0
  9
$CHAMFERB
 40
0
  9
$CHAMFERC
 40
0
  9
$CHAMFERD
 40
0
  9
$SKPOLY
 70
    0
  9
$USRTIMER
 70
    1
  9
$ANGBASE
 50
0
  9
$ANGDIR
 70
    0
  9
$PDMODE
 70
   34
  9
$PDSIZE
 40
0
  9
$PLINEWID
 40
0
  9
$SPLFRAME
 70
    0
  9
$SPLINETYPE
 70
    2
  9
$SPLINESEGS
 70
    8
  9
$HANDSEED
  5
20000
  9
$SURFTAB1
 70
    6
  9
$SURFTAB2
 70
    6
  9
$SURFTYPE
 70
    6
  9
$SURFU
 70
    6
  9
$SURFV
 70
    6
  9
$UCSBASE
  2

  9
$UCSNAME
  2

  9
$UCSORG
 10
0
 20
0
 30
0
  9
$UCSXDIR
 10
1
 20
0
 30
0
  9
$UCSYDIR
 10
0
 20
1
 30
0
  9
$UCSORTHOREF
  2

  9
$UCSORTHOVIEW
 70
    0
  9
$UCSORGTOP
 10
0
 20
0
 30
0
  9
$UCSORGBOTTOM
 10
0
 20
0
 30
0
  9
$UCSORGLEFT
 10
0
 20
0
 30
0
  9
$UCSORGRIGHT
 10
0
 20
0
 30
0
  9
$UCSORGFRONT
 10
0
 20
0
 30
0
  9
$UCSORGBACK
 10
0
 20
0
 30
0
  9
$PUCSBASE
  2

  9
$PUCSNAME
  2

  9
$PUCSORG
 10
0
 20
0
 30
0
  9
$PUCSXDIR
 10
1
 20
0
 30
0
  9
$PUCSYDIR
 10
0
 20
1
 30
0
  9
$PUCSORTHOREF
  2

  9
$PUCSORTHOVIEW
 70
    0
  9
$PUCSORGTOP
 10
0
 20
0
 30
0
  9
$PUCSORGBOTTOM
 10
0
 20
0
 30
0
  9
$PUCSORGLEFT
 10
0
 20
0
 30
0
  9
$PUCSORGRIGHT
 10
0
 20
0
 30
0
  9
$PUCSORGFRONT
 10
0
 20
0
 30
0
  9
$PUCSORGBACK
 10
0
 20
0
 30
0
  9
$USERI1
 70
    0
  9
$USERI2
 70
    0
  9
$USERI3
 70
    0
  9
$USERI4
 70
    0
  9
$USERI5
 70
    0
  9
$USERR1
 40
0
  9
$USERR2
 40
0
  9
$USERR3
 40
0
  9
$USERR4
 40
0
  9
$USERR5
 40
0
  9
$WORLDVIEW
 70
    1
  9
$SHADEDGE
 70
    3
  9
$SHADEDIF
 70
   70
  9
$TILEMODE
 70
    1
  9
$MAXACTVP
 70
   64
  9
$PINSBASE
 10
0
 20
0
 30
0
  9
$PLIMCHECK
 70
    0
  9
$PEXTMIN
 10
0
 20
0
 30
0
  9
$PEXTMAX
 10
0
 20
0
 30
0
  9
$GRIDMODE
 70
    1
  9
$SNAPSTYLE
 70
    0
  9
$PLIMMIN
 10
0
 20
0
  9
$PLIMMAX
 10
210
 20
297
  9
$UNITMODE
 70
    0
  9
$VISRETAIN
 70
    1
  9
$PLINEGEN
 70
    0
  9
$PSLTSCALE
 70
    1
  9
$TREEDEPTH
 70
 3020
  9
$CMLSTYLE
  2
Standard
  9
$CMLJUST
 70
    0
  9
$CMLSCALE
 40
20
  9
$PROXYGRAPHICS
 70
    1
  9
$MEASUREMENT
 70
    1
  9
$CELWEIGHT
370
   -1
  9
$ENDCAPS
280
    0
  9
$JOINSTYLE
280
    0
  9
$LWDISPLAY
290
    0
  9
$INSUNITS
 70
    4
  9
$HYPERLINKBASE
  1

  9
$STYLESHEET
  1

  9
$XEDIT
290
    1
  9
$CEPSNTYPE
380
    0
  9
$PSTYLEMODE
290
    1
  9
$EXTNAMES
290
    1
  9
$PSVPSCALE
 40
1
  9
$OLESTARTUP
290
    0
  9
$SORTENTS
280
  127
  9
$INDEXCTL
280
    0
  9
$HIDETEXT
280
    1
  9
$XCLIPFRAME
290
    0
  9
$HALOGAP
280
    0
  9
$OBSCOLOR
 70
  257
  9
$OBSLTYPE
280
    0
  9
$INTERSECTIONDISPLAY
280
    0
  9
$INTERSECTIONCOLOR
 70
  257
  9
$DIMASSOC
280
    1
  9
$PROJECTNAME
  1

  9
$CAMERADISPLAY
290
    0
  9
$LENSLENGTH
 40
50
  9
$CAMERAHEIGHT
 40
0
  9
$STEPSPERSEC
 40
2
  9
$STEPSIZE
 40
50
  9
$3DDWFPREC
 40
2
  9
$PSOLWIDTH
 40
5
  9
$PSOLHEIGHT
 40
80
  9
$LOFTANG1
 40
1.570796326794897
  9
$LOFTANG2
 40
1.570796326794897
  9
$LOFTMAG1
 40
0
  9
$LOFTMAG2
 40
0
  9
$LOFTPARAM
 70
    7
  9
$LOFTNORMALS
280
    1
  9
$LATITUDE
 40
1
  9
$LONGITUDE
 40
1
  9
$NORTHDIRECTION
 40
0
  9
$TIMEZONE
 70
-8000
  9
$LIGHTGLYPHDISPLAY
280
    1
  9
$TILEMODELIGHTSYNCH
280
    1
  9
$SOLIDHIST
280
    1
  9
$SHOWHIST
280
    1
  9
$DWFFRAME
280
    2
  9
$DGNFRAME
280
    0
  9
$REALWORLDSCALE
290
    1
  9
$INTERFERECOLOR
 62
    1
  9
$CSHADOW
280
    0
  9
$SHADOWPLANELOCATION
 40
0
  0
ENDSEC
  0
SECTION
  2
CLASSES
  0
ENDSEC
  0
SECTION
  2
TABLES
  0
TABLE
  2
VPORT
  5
8
330
0
100
AcDbSymbolTable
 70
    1
  0
VPORT
  5
31
330
2
100
AcDbSymbolTableRecord
100
AcDbViewportTableRecord
  2
*ACTIVE
 70
    0
 10
0
 20
0
 11
1
 21
1
 12
-157.9912864881457
 22
236.3745604047451
 13
0
 23
0
 14
10
 24
10
 15
10
 25
10
 16
0
 26
0
 36
1
 17
0
 27
0
 37
0
 40
332.8567500000038
 41
2.049059689288634
 42
50
 43
0
 44
0
 50
0
 51
0
 71
    0
 72
  100
 73
    1
 74
    3
 75
    0
 76
    1
 77
    0
 78
    0
281
    0
 65
    1
110
0
120
0
130
0
111
1
121
0
131
0
112
0
122
1
132
0
 79
    0
146
0
348
10020
 60
    7
 61
    5
292
1
282
    1
141
0
142
0
 63
  250
421
3358443
  0
ENDTAB
  0
TABLE
  2
LTYPE
  5
5
330
0
100
AcDbSymbolTable
 70
    4
  0
LTYPE
  5
14
330
5
100
AcDbSymbolTableRecord
100
AcDbLinetypeTableRecord
  2
ByBlock
 70
    0
  3

 72
   65
 73
    0
 40
0
  0
LTYPE
  5
15
330
5
100
AcDbSymbolTableRecord
100
AcDbLinetypeTableRecord
  2
ByLayer
 70
    0
  3

 72
   65
 73
    0
 40
0
  0
LTYPE
  5
16
330
5
100
AcDbSymbolTableRecord
100
AcDbLinetypeTableRecord
  2
Continuous
 70
    0
  3
Solid line
 72
   65
 73
    0
 40
0
  0
LTYPE
  5
32
330
5
100
AcDbSymbolTableRecord
100
AcDbLinetypeTableRecord
  2
DOT
 70
    0
  3
Dot . . . . . . . . . . . . . . . . . . . . . .
 72
   65
 73
    2
 40
6.35
 49
0
 74
    0
 49
-6.35
 74
    0
  0
LTYPE
  5
33
330
5
100
AcDbSymbolTableRecord
100
AcDbLinetypeTableRecord
  2
DOTTINY
 70
    0
  3
Dot (.15x) .....................................
 72
   65
 73
    2
 40
0.9525
 49
0
 74
    0
 49
-0.9525
 74
    0
  0
LTYPE
  5
34
330
5
100
AcDbSymbolTableRecord
100
AcDbLinetypeTableRecord
  2
DOT2
 70
    0
  3
Dot (.5x) .....................................
 72
   65
 73
    2
 40
3.175
 49
0
 74
    0
 49
-3.175
 74
    0
  0
LTYPE
  5
35
330
5
100
AcDbSymbolTableRecord
100
AcDbLinetypeTableRecord
  2
DOTX2
 70
    0
  3
Dot (2x) .  .  .  .  .  .  .  .  .  .  .  .  .
 72
   65
 73
    2
 40
12.7
 49
0
 74
    0
 49
-12.7
 74
    0
  0
LTYPE
  5
36
330
5
100
AcDbSymbolTableRecord
100
AcDbLinetypeTableRecord
  2
DASHED
 70
    0
  3
Dashed _ _ _ _ _ _ _ _ _ _ _ _ _ _ _ _ _
 72
   65
 73
    2
 40
19.05
 49
12.7
 74
    0
 49
-6.35
 74
    0
  0
LTYPE
  5
37
330
5
100
AcDbSymbolTableRecord
100
AcDbLinetypeTableRecord
  2
DASHEDTINY
 70
    0
  3
Dashed (.15x) _ _ _ _ _ _ _ _ _ _ _ _ _ _ _ _ _
 72
   65
 73
    2
 40
2.8575
 49
1.905
 74
    0
 49
-0.9525
 74
    0
  0
LTYPE
  5
38
330
5
100
AcDbSymbolTableRecord
100
AcDbLinetypeTableRecord
  2
DASHED2
 70
    0
  3
Dashed (.5x) _ _ _ _ _ _ _ _ _ _ _ _ _ _ _ _ _
 72
   65
 73
    2
 40
9.524999999999999
 49
6.35
 74
    0
 49
-3.175
 74
    0
  0
LTYPE
  5
39
330
5
100
AcDbSymbolTableRecord
100
AcDbLinetypeTableRecord
  2
DASHEDX2
 70
    0
  3
Dashed (2x) ____  ____  ____  ____  ____  ___
 72
   65
 73
    2
 40
38.09999999999999
 49
25.4
 74
    0
 49
-12.7
 74
    0
  0
LTYPE
  5
3A
330
5
100
AcDbSymbolTableRecord
100
AcDbLinetypeTableRecord
  2
DASHDOT
 70
    0
  3
Dash dot __ . __ . __ . __ . __ . __ . __ . __
 72
   65
 73
    4
 40
25.4
 49
12.7
 74
    0
 49
-6.35
 74
    0
 49
0
 74
    0
 49
-6.35
 74
    0
  0
LTYPE
  5
3B
330
5
100
AcDbSymbolTableRecord
100
AcDbLinetypeTableRecord
  2
DASHDOTTINY
 70
    0
  3
Dash dot (.15x) _._._._._._._._._._._._._._._.
 72
   65
 73
    4
 40
3.81
 49
1.905
 74
    0
 49
-0.9525
 74
    0
 49
0
 74
    0
 49
-0.9525
 74
    0
  0
LTYPE
  5
3C
330
5
100
AcDbSymbolTableRecord
100
AcDbLinetypeTableRecord
  2
DASHDOT2
 70
    0
  3
Dash dot (.5x) _._._._._._._._._._._._._._._.
 72
   65
 73
    4
 40
12.7
 49
6.35
 74
    0
 49
-3.175
 74
    0
 49
0
 74
    0
 49
-3.175
 74
    0
  0
LTYPE
  5
3D
330
5
100
AcDbSymbolTableRecord
100
AcDbLinetypeTableRecord
  2
DASHDOTX2
 70
    0
  3
Dash dot (2x) ____  .  ____  .  ____  .  ___
 72
   65
 73
    4
 40
50.8
 49
25.4
 74
    0
 49
-12.7
 74
    0
 49
0
 74
    0
 49
-12.7
 74
    0
  0
LTYPE
  5
3E
330
5
100
AcDbSymbolTableRecord
100
AcDbLinetypeTableRecord
  2
DIVIDE
 70
    0
  3
Divide ____ . . ____ . . ____ . . ____ . . ____
 72
   65
 73
    6
 40
31.75
 49
12.7
 74
    0
 49
-6.35
 74
    0
 49
0
 74
    0
 49
-6.35
 74
    0
 49
0
 74
    0
 49
-6.35
 74
    0
  0
LTYPE
  5
3F
330
5
100
AcDbSymbolTableRecord
100
AcDbLinetypeTableRecord
  2
DIVIDETINY
 70
    0
  3
Divide (.15x) __..__..__..__..__..__..__..__.._
 72
   65
 73
    6
 40
4.7625
 49
1.905
 74
    0
 49
-0.9525
 74
    0
 49
0
 74
    0
 49
-0.9525
 74
    0
 49
0
 74
    0
 49
-0.9525
 74
    0
  0
LTYPE
  5
40
330
5
100
AcDbSymbolTableRecord
100
AcDbLinetypeTableRecord
  2
DIVIDE2
 70
    0
  3
Divide (.5x) __..__..__..__..__..__..__..__.._
 72
   65
 73
    6
 40
15.875
 49
6.35
 74
    0
 49
-3.175
 74
    0
 49
0
 74
    0
 49
-3.175
 74
    0
 49
0
 74
    0
 49
-3.175
 74
    0
  0
LTYPE
  5
41
330
5
100
AcDbSymbolTableRecord
100
AcDbLinetypeTableRecord
  2
DIVIDEX2
 70
    0
  3
Divide (2x) ________  .  .  ________  .  .  _
 72
   65
 73
    6
 40
63.5
 49
25.4
 74
    0
 49
-12.7
 74
    0
 49
0
 74
    0
 49
-12.7
 74
    0
 49
0
 74
    0
 49
-12.7
 74
    0
  0
LTYPE
  5
42
330
5
100
AcDbSymbolTableRecord
100
AcDbLinetypeTableRecord
  2
BORDER
 70
    0
  3
Border __ __ . __ __ . __ __ . __ __ . __ __ .
 72
   65
 73
    6
 40
44.45
 49
12.7
 74
    0
 49
-6.35
 74
    0
 49
12.7
 74
    0
 49
-6.35
 74
    0
 49
0
 74
    0
 49
-6.35
 74
    0
  0
LTYPE
  5
43
330
5
100
AcDbSymbolTableRecord
100
AcDbLinetypeTableRecord
  2
BORDERTINY
 70
    0
  3
Border (.15x) __.__.__.__.__.__.__.__.__.__.__.
 72
   65
 73
    6
 40
6.6675
 49
1.905
 74
    0
 49
-0.9525
 74
    0
 49
1.905
 74
    0
 49
-0.9525
 74
    0
 49
0
 74
    0
 49
-0.9525
 74
    0
  0
LTYPE
  5
44
330
5
100
AcDbSymbolTableRecord
100
AcDbLinetypeTableRecord
  2
BORDER2
 70
    0
  3
Border (.5x) __.__.__.__.__.__.__.__.__.__.__.
 72
   65
 73
    6
 40
22.225
 49
6.35
 74
    0
 49
-3.175
 74
    0
 49
6.35
 74
    0
 49
-3.175
 74
    0
 49
0
 74
    0
 49
-3.175
 74
    0
  0
LTYPE
  5
45
330
5
100
AcDbSymbolTableRecord
100
AcDbLinetypeTableRecord
  2
BORDERX2
 70
    0
  3
Border (2x) ____  ____  .  ____  ____  .  ___
 72
   65
 73
    6
 40
88.89999999999999
 49
25.4
 74
    0
 49
-12.7
 74
    0
 49
25.4
 74
    0
 49
-12.7
 74
    0
 49
0
 74
    0
 49
-12.7
 74
    0
  0
LTYPE
  5
46
330
5
100
AcDbSymbolTableRecord
100
AcDbLinetypeTableRecord
  2
CENTER
 70
    0
  3
Center ____ _ ____ _ ____ _ ____ _ ____ _ ____
 72
   65
 73
    4
 40
50.8
 49
31.75
 74
    0
 49
-6.35
 74
    0
 49
6.35
 74
    0
 49
-6.35
 74
    0
  0
LTYPE
  5
47
330
5
100
AcDbSymbolTableRecord
100
AcDbLinetypeTableRecord
  2
CENTERTINY
 70
    0
  3
Center (.15x) ___ _ ___ _ ___ _ ___ _ ___ _ ___
 72
   65
 73
    4
 40
7.62
 49
4.7625
 74
    0
 49
-0.9525
 74
    0
 49
0.9525
 74
    0
 49
-0.9525
 74
    0
  0
LTYPE
  5
48
330
5
100
AcDbSymbolTableRecord
100
AcDbLinetypeTableRecord
  2
CENTER2
 70
    0
  3
Center (.5x) ___ _ ___ _ ___ _ ___ _ ___ _ ___
 72
   65
 73
    4
 40
28.575
 49
19.05
 74
    0
 49
-3.175
 74
    0
 49
3.175
 74
    0
 49
-3.175
 74
    0
  0
LTYPE
  5
49
330
5
100
AcDbSymbolTableRecord
100
AcDbLinetypeTableRecord
  2
CENTERX2
 70
    0
  3
Center (2x) ________  __  ________  __  _____
 72
   65
 73
    4
 40
101.6
 49
63.5
 74
    0
 49
-12.7
 74
    0
 49
12.7
 74
    0
 49
-12.7
 74
    0
  0
ENDTAB
  0
TABLE
  2
LAYER
  5
2
330
0
100
AcDbSymbolTable
 70
    1
  0
LAYER
  5
10
330
2
100
AcDbSymbolTableRecord
100
AcDbLayerTableRecord
  2
0
 70
    0
 62
    7
  6
CONTINUOUS
370
    0
390
F
  0
LAYER
  5
4A
330
2
100
AcDbSymbolTableRecord
100
AcDbLayerTableRecord
  2
LAYOUT -(HIDE ON PRINT-
 70
    0
 62
    7
  6
CONTINUOUS
370
   -3
390
F
  0
LAYER
  5
4B
330
2
100
AcDbSymbolTableRecord
100
AcDbLayerTableRecord
  2
Layer 1
 70
    0
 62
    7
  6
CONTINUOUS
370
   -3
390
F
  0
ENDTAB
  0
TABLE
  2
STYLE
  5
3
330
0
100
AcDbSymbolTable
 70
    3
  0
STYLE
  5
4C
330
2
100
AcDbSymbolTableRecord
100
AcDbTextStyleTableRecord
  2
Standard
 70
    0
 40
0
 41
1
 50
0
 71
    0
 42
1
  3
txt
  4

  0
ENDTAB
  0
TABLE
  2
VIEW
  5
6
330
0
100
AcDbSymbolTable
 70
    0
  0
ENDTAB
  0
TABLE
  2
UCS
  5
7
330
0
100
AcDbSymbolTable
 70
    0
  0
ENDTAB
  0
TABLE
  2
APPID
  5
9
330
0
100
AcDbSymbolTable
 70
    1
  0
APPID
  5
12
330
9
100
AcDbSymbolTableRecord
100
AcDbRegAppTableRecord
  2
ACAD
 70
    0
  0
APPID
  5
4D
330
9
100
AcDbSymbolTableRecord
100
AcDbRegAppTableRecord
  2
LibreCad
 70
    0
  0
ENDTAB
  0
TABLE
  2
DIMSTYLE
  5
A
330
0
100
AcDbSymbolTable
 70
    1
100
AcDbDimStyleTable
 71
    1
  0
DIMSTYLE
105
4E
330
A
100
AcDbSymbolTableRecord
100
AcDbDimStyleTableRecord
  2
Standard
 70
    0
 40
2.5
 41
2.5
 42
0.625
 43
0.38
 44
1.25
 45
0
 46
0
 47
0
 48
0
 49
1
140
2.5
141
0.09
142
0
143
25.4
144
1
145
0
146
1
147
0.625
148
0
 71
    0
 72
    0
 73
    0
 74
    1
 75
    0
 76
    0
 77
    0
 78
    8
 79
    0
170
    0
171
    2
172
    0
173
    0
174
    0
175
    0
176
    0
177
    0
178
    0
179
    0
271
    2
272
    4
273
    2
274
    2
275
    0
276
    0
277
    2
278
   44
279
    0
280
    0
281
    0
282
    0
283
    1
284
    0
285
    0
286
    0
288
    0
289
    3
340
STANDARD
341

371
   -2
372
   -2
  0
ENDTAB
  0
TABLE
  2
BLOCK_RECORD
  5
1
330
0
100
AcDbSymbolTable
 70
    2
  0
BLOCK_RECORD
  5
1F
330
1
100
AcDbSymbolTableRecord
100
AcDbBlockTableRecord
  2
*Model_Space
 70
    0
280
    1
281
    0
  0
BLOCK_RECORD
  5
1E
330
1
100
AcDbSymbolTableRecord
100
AcDbBlockTableRecord
  2
*Paper_Space
 70
    0
280
    1
281
    0
  0
ENDTAB
  0
ENDSEC
  0
SECTION
  2
BLOCKS
  0
BLOCK
  5
20
330
1F
100
AcDbEntity
  8
0
100
AcDbBlockBegin
  2
*Model_Space
 70
    0
 10
0
 20
0
 30
0
  3
*Model_Space
  1

  0
ENDBLK
  5
21
330
1F
100
AcDbEntity
  8
0
100
AcDbBlockEnd
  0
BLOCK
  5
1C
330
1B
100
AcDbEntity
  8
0
100
AcDbBlockBegin
  2
*Paper_Space
 70
    0
 10
0
 20
0
 30
0
  3
*Paper_Space
  1

  0
ENDBLK
  5
1D
330
1F
100
AcDbEntity
  8
0
100
AcDbBlockEnd
  0
ENDSEC
  0
SECTION
  2
ENTITIES
  0
CIRCLE
  5
4F
100
AcDbEntity
  8
LAYOUT -(HIDE ON PRINT-
  6
CONTINUOUS
 62
    5
370
   -1
100
AcDbCircle
 10
-648.2814460808136
 20
225.822897126964
 40
1.906277545945314
  0
CIRCLE
  5
50
100
AcDbEntity
  8
LAYOUT -(HIDE ON PRINT-
  6
CONTINUOUS
 62
    5
370
   -1
100
AcDbCircle
 10
-648.2814460808136
 20
435.504897126964
 40
1.906277545945314
  0
CIRCLE
  5
51
100
AcDbEntity
  8
LAYOUT -(HIDE ON PRINT-
  6
CONTINUOUS
 62
    5
370
   -1
100
AcDbCircle
 10
-818.2511204608998
 20
225.8228934991394
 40
1.906275425911232
  0
CIRCLE
  5
52
100
AcDbEntity
  8
LAYOUT -(HIDE ON PRINT-
  6
CONTINUOUS
 62
    5
370
   -1
100
AcDbCircle
 10
-478.3121108079561
 20
225.8227150186814
 40
1.906442275577022
  0
CIRCLE
  5
53
100
AcDbEntity
  8
LAYOUT -(HIDE ON PRINT-
  6
CONTINUOUS
 62
    5
370
   -1
100
AcDbCircle
 10
-478.3121108079561
 20
435.5047150186814
 40
1.906442275577022
  0
CIRCLE
  5
54
100
AcDbEntity
  8
LAYOUT -(HIDE ON PRINT-
  6
CONTINUOUS
 62
    5
370
   -1
100
AcDbCircle
 10
-818.2511204608998
 20
435.5048934991394
 40
1.906275425911232
  0
ARC
  5
55
100
AcDbEntity
  8
LAYOUT -(HIDE ON PRINT-
  6
CONTINUOUS
 62
    5
370
   -1
100
AcDbCircle
 10
-476.8524860768151
 20
437.3443682227149
 40
3.176065052514718
100
AcDbArc
 50
359.9831101455346
 51
90.03647586941425
  0
ARC
  5
56
100
AcDbEntity
  8
LAYOUT -(HIDE ON PRINT-
  6
CONTINUOUS
 62
    5
370
   -1
100
AcDbCircle
 10
-476.8535724448772
 20
223.9822096724546
 40
3.176065052514798
100
AcDbArc
 50
269.9831101455085
 51
0.0364758694164188
  0
LWPOLYLINE
  5
57
100
AcDbEntity
  8
LAYOUT -(HIDE ON PRINT-
  6
ByLayer
 62
    5
370
   -1
100
AcDbPolyline
 90
    2
 70
    0
 43
0
 10
-473.6775080359764
 20
437.3434326316158
 10
-473.6775080359764
 20
223.9842316316157
  0
ARC
  5
58
100
AcDbEntity
  8
LAYOUT -(HIDE ON PRINT-
  6
CONTINUOUS
 62
    5
370
   -1
100
AcDbCircle
 10
-819.7104016361196
 20
223.983510196906
 40
3.176279086488971
100
AcDbArc
 50
179.9869817906051
 51
270.0328169868403
  0
LWPOLYLINE
  5
59
100
AcDbEntity
  8
LAYOUT -(HIDE ON PRINT-
  6
ByLayer
 62
    5
370
   -1
100
AcDbPolyline
 90
    2
 70
    0
 43
0
 10
-476.8545080359763
 20
220.8072316316157
 10
-819.7085820359762
 20
220.8072316316157
  0
ARC
  5
5A
100
AcDbEntity
  8
LAYOUT -(HIDE ON PRINT-
  6
CONTINUOUS
 62
    5
370
   -1
100
AcDbCircle
 10
-819.7093110876011
 20
437.3452824752184
 40
3.176271487044674
100
AcDbArc
 50
89.98684421889952
 51
180.0333626179076
  0
LWPOLYLINE
  5
5B
100
AcDbEntity
  8
LAYOUT -(HIDE ON PRINT-
  6
ByLayer
 62
    5
370
   -1
100
AcDbPolyline
 90
    2
 70
    0
 43
0
 10
-822.8855820359763
 20
223.9842316316157
 10
-822.8855820359763
 20
437.3434326316158
  0
LWPOLYLINE
  5
5C
100
AcDbEntity
  8
LAYOUT -(HIDE ON PRINT-
  6
ByLayer
 62
    5
370
   -1
100
AcDbPolyline
 90
    2
 70
    0
 43
0
 10
-819.7085820359762
 20
440.5204326316157
 10
-476.8545080359763
 20
440.5204326316157
  0
LINE
  5
5D
100
AcDbEntity
  8
Layer 1
  6
ByLayer
 62
  256
370
   -1
100
AcDbLine
 10
-545.4319742875227
 20
341.7367164484849
 11
-545.2908632875227
 21
343.7122664484849
  0
LINE
  5
5E
100
AcDbEntity
  8
Layer 1
  6
ByLayer
 62
  256
370
   -1
100
AcDbLine
 10
-545.2908632875227
 20
343.7122664484849
 11
-544.9028082875227
 21
345.6525364484849
  0
LINE
  5
5F
100
AcDbEntity
  8
Layer 1
  6
ByLayer
 62
  256
370
   -1
100
AcDbLine
 10
-544.9028082875227
 20
345.6525364484849
 11
-544.2678092875227
 21
347.5222564484848
  0
LINE
  5
60
100
AcDbEntity
  8
Layer 1
  6
ByLayer
 62
  256
370
   -1
100
AcDbLine
 10
-544.2678092875227
 20
347.5222564484848
 11
-543.4211442875228
 21
349.2861364484849
  0
LINE
  5
61
100
AcDbEntity
  8
Layer 1
  6
ByLayer
 62
  256
370
   -1
100
AcDbLine
 10
-543.4211442875228
 20
349.2861364484849
 11
-542.3275342875228
 21
350.9089064484849
  0
LINE
  5
62
100
AcDbEntity
  8
Layer 1
  6
ByLayer
 62
  256
370
   -1
100
AcDbLine
 10
-542.3275342875228
 20
350.9089064484849
 11
-541.0222642875227
 21
352.3905664484849
  0
LINE
  5
63
100
AcDbEntity
  8
Layer 1
  6
ByLayer
 62
  256
370
   -1
100
AcDbLine
 10
-541.0222642875227
 20
352.3905664484849
 11
-539.5406042875228
 21
353.695836448485
  0
LINE
  5
64
100
AcDbEntity
  8
Layer 1
  6
ByLayer
 62
  256
370
   -1
100
AcDbLine
 10
-539.5406042875228
 20
353.695836448485
 11
-537.8825542875228
 21
354.7894464484849
  0
LINE
  5
65
100
AcDbEntity
  8
Layer 1
  6
ByLayer
 62
  256
370
   -1
100
AcDbLine
 10
-537.8825542875228
 20
354.7894464484849
 11
-536.1186642875227
 21
355.6713884484849
  0
LINE
  5
66
100
AcDbEntity
  8
Layer 1
  6
ByLayer
 62
  256
370
   -1
100
AcDbLine
 10
-536.1186642875227
 20
355.6713884484849
 11
-534.2489442875227
 21
356.3063874484848
  0
LINE
  5
67
100
AcDbEntity
  8
Layer 1
  6
ByLayer
 62
  256
370
   -1
100
AcDbLine
 10
-534.2489442875227
 20
356.3063874484848
 11
-532.3086742875229
 21
356.6944424484849
  0
LINE
  5
68
100
AcDbEntity
  8
Layer 1
  6
ByLayer
 62
  256
370
   -1
100
AcDbLine
 10
-532.3086742875229
 20
356.6944424484849
 11
-530.3331242875229
 21
356.8355534484849
  0
LINE
  5
69
100
AcDbEntity
  8
Layer 1
  6
ByLayer
 62
  256
370
   -1
100
AcDbLine
 10
-530.3331242875229
 20
356.8355534484849
 11
-528.3575742875229
 21
356.6944424484849
  0
LINE
  5
6A
100
AcDbEntity
  8
Layer 1
  6
ByLayer
 62
  256
370
   -1
100
AcDbLine
 10
-528.3575742875229
 20
356.6944424484849
 11
-526.4173042875227
 21
356.3063874484848
  0
LINE
  5
6B
100
AcDbEntity
  8
Layer 1
  6
ByLayer
 62
  256
370
   -1
100
AcDbLine
 10
-526.4173042875227
 20
356.3063874484848
 11
-524.5475842875228
 21
355.6713884484849
  0
LINE
  5
6C
100
AcDbEntity
  8
Layer 1
  6
ByLayer
 62
  256
370
   -1
100
AcDbLine
 10
-524.5475842875228
 20
355.6713884484849
 11
-522.7836942875227
 21
354.7894464484849
  0
LINE
  5
6D
100
AcDbEntity
  8
Layer 1
  6
ByLayer
 62
  256
370
   -1
100
AcDbLine
 10
-522.7836942875227
 20
354.7894464484849
 11
-521.1256442875227
 21
353.695836448485
  0
LINE
  5
6E
100
AcDbEntity
  8
Layer 1
  6
ByLayer
 62
  256
370
   -1
100
AcDbLine
 10
-521.1256442875227
 20
353.695836448485
 11
-519.6439842875227
 21
352.3905664484849
  0
LINE
  5
6F
100
AcDbEntity
  8
Layer 1
  6
ByLayer
 62
  256
370
   -1
100
AcDbLine
 10
-519.6439842875227
 20
352.3905664484849
 11
-518.3387142875227
 21
350.9089064484849
  0
LINE
  5
70
100
AcDbEntity
  8
Layer 1
  6
ByLayer
 62
  256
370
   -1
100
AcDbLine
 10
-518.3387142875227
 20
350.9089064484849
 11
-517.2451042875227
 21
349.2861364484849
  0
LINE
  5
71
100
AcDbEntity
  8
Layer 1
  6
ByLayer
 62
  256
370
   -1
100
AcDbLine
 10
-517.2451042875227
 20
349.2861364484849
 11
-516.3984392875227
 21
347.5222564484848
  0
LINE
  5
72
100
AcDbEntity
  8
Layer 1
  6
ByLayer
 62
  256
370
   -1
100
AcDbLine
 10
-516.3984392875227
 20
347.5222564484848
 11
-515.7634402875227
 21
345.6525364484849
  0
LINE
  5
73
100
AcDbEntity
  8
Layer 1
  6
ByLayer
 62
  256
370
   -1
100
AcDbLine
 10
-515.7634402875227
 20
345.6525364484849
 11
-515.3753852875227
 21
343.7122664484849
  0
LINE
  5
74
100
AcDbEntity
  8
Layer 1
  6
ByLayer
 62
  256
370
   -1
100
AcDbLine
 10
-515.3753852875227
 20
343.7122664484849
 11
-515.2342742875228
 21
341.7367164484849
  0
LINE
  5
75
100
AcDbEntity
  8
Layer 1
  6
ByLayer
 62
  256
370
   -1
100
AcDbLine
 10
-515.2342742875228
 20
341.7367164484849
 11
-515.3753852875227
 21
339.7611664484849
  0
LINE
  5
76
100
AcDbEntity
  8
Layer 1
  6
ByLayer
 62
  256
370
   -1
100
AcDbLine
 10
-515.3753852875227
 20
339.7611664484849
 11
-515.7634402875227
 21
337.8208964484849
  0
LINE
  5
77
100
AcDbEntity
  8
Layer 1
  6
ByLayer
 62
  256
370
   -1
100
AcDbLine
 10
-515.7634402875227
 20
337.8208964484849
 11
-516.3984392875227
 21
335.9511764484848
  0
LINE
  5
78
100
AcDbEntity
  8
Layer 1
  6
ByLayer
 62
  256
370
   -1
100
AcDbLine
 10
-516.3984392875227
 20
335.9511764484848
 11
-517.2451042875227
 21
334.1872864484848
  0
LINE
  5
79
100
AcDbEntity
  8
Layer 1
  6
ByLayer
 62
  256
370
   -1
100
AcDbLine
 10
-517.2451042875227
 20
334.1872864484848
 11
-518.3387142875227
 21
332.5292364484848
  0
LINE
  5
7A
100
AcDbEntity
  8
Layer 1
  6
ByLayer
 62
  256
370
   -1
100
AcDbLine
 10
-518.3387142875227
 20
332.5292364484848
 11
-519.6439842875227
 21
331.0475764484848
  0
LINE
  5
7B
100
AcDbEntity
  8
Layer 1
  6
ByLayer
 62
  256
370
   -1
100
AcDbLine
 10
-519.6439842875227
 20
331.0475764484848
 11
-521.1256442875227
 21
329.742306448485
  0
LINE
  5
7C
100
AcDbEntity
  8
Layer 1
  6
ByLayer
 62
  256
370
   -1
100
AcDbLine
 10
-521.1256442875227
 20
329.742306448485
 11
-522.7836942875227
 21
328.6486964484848
  0
LINE
  5
7D
100
AcDbEntity
  8
Layer 1
  6
ByLayer
 62
  256
370
   -1
100
AcDbLine
 10
-522.7836942875227
 20
328.6486964484848
 11
-524.5475842875228
 21
327.766753448485
  0
LINE
  5
7E
100
AcDbEntity
  8
Layer 1
  6
ByLayer
 62
  256
370
   -1
100
AcDbLine
 10
-524.5475842875228
 20
327.766753448485
 11
-526.4173042875227
 21
327.1317544484849
  0
LINE
  5
7F
100
AcDbEntity
  8
Layer 1
  6
ByLayer
 62
  256
370
   -1
100
AcDbLine
 10
-526.4173042875227
 20
327.1317544484849
 11
-528.3575742875229
 21
326.743699448485
  0
LINE
  5
80
100
AcDbEntity
  8
Layer 1
  6
ByLayer
 62
  256
370
   -1
100
AcDbLine
 10
-528.3575742875229
 20
326.743699448485
 11
-530.3331242875229
 21
326.6378664484848
  0
LINE
  5
81
100
AcDbEntity
  8
Layer 1
  6
ByLayer
 62
  256
370
   -1
100
AcDbLine
 10
-530.3331242875229
 20
326.6378664484848
 11
-532.3086742875229
 21
326.743699448485
  0
LINE
  5
82
100
AcDbEntity
  8
Layer 1
  6
ByLayer
 62
  256
370
   -1
100
AcDbLine
 10
-532.3086742875229
 20
326.743699448485
 11
-534.2489442875227
 21
327.1317544484849
  0
LINE
  5
83
100
AcDbEntity
  8
Layer 1
  6
ByLayer
 62
  256
370
   -1
100
AcDbLine
 10
-534.2489442875227
 20
327.1317544484849
 11
-536.1186642875227
 21
327.766753448485
  0
LINE
  5
84
100
AcDbEntity
  8
Layer 1
  6
ByLayer
 62
  256
370
   -1
100
AcDbLine
 10
-536.1186642875227
 20
327.766753448485
 11
-537.8825542875228
 21
328.6486964484848
  0
LINE
  5
85
100
AcDbEntity
  8
Layer 1
  6
ByLayer
 62
  256
370
   -1
100
AcDbLine
 10
-537.8825542875228
 20
328.6486964484848
 11
-539.5406042875228
 21
329.742306448485
  0
LINE
  5
86
100
AcDbEntity
  8
Layer 1
  6
ByLayer
 62
  256
370
   -1
100
AcDbLine
 10
-539.5406042875228
 20
329.742306448485
 11
-541.0222642875227
 21
331.0475764484848
  0
LINE
  5
87
100
AcDbEntity
  8
Layer 1
  6
ByLayer
 62
  256
370
   -1
100
AcDbLine
 10
-541.0222642875227
 20
331.0475764484848
 11
-542.3275342875228
 21
332.5292364484848
  0
LINE
  5
88
100
AcDbEntity
  8
Layer 1
  6
ByLayer
 62
  256
370
   -1
100
AcDbLine
 10
-542.3275342875228
 20
332.5292364484848
 11
-543.4211442875228
 21
334.1872864484848
  0
LINE
  5
89
100
AcDbEntity
  8
Layer 1
  6
ByLayer
 62
  256
370
   -1
100
AcDbLine
 10
-543.4211442875228
 20
334.1872864484848
 11
-544.2678092875227
 21
335.9511764484848
  0
LINE
  5
8A
100
AcDbEntity
  8
Layer 1
  6
ByLayer
 62
  256
370
   -1
100
AcDbLine
 10
-544.2678092875227
 20
335.9511764484848
 11
-544.9028082875227
 21
337.8208964484849
  0
LINE
  5
8B
100
AcDbEntity
  8
Layer 1
  6
ByLayer
 62
  256
370
   -1
100
AcDbLine
 10
-544.9028082875227
 20
337.8208964484849
 11
-545.2908632875227
 21
339.7611664484849
  0
LINE
  5
8C
100
AcDbEntity
  8
Layer 1
  6
ByLayer
 62
  256
370
   -1
100
AcDbLine
 10
-545.2908632875227
 20
339.7611664484849
 11
-545.4319742875227
 21
341.7367164484849
  0
LINE
  5
8D
100
AcDbEntity
  8
Layer 1
  6
ByLayer
 62
  256
370
   -1
100
AcDbLine
 10
-574.7832852875227
 20
331.224452448485
 11
-574.6421742875227
 21
332.9883324484848
  0
LINE
  5
8E
100
AcDbEntity
  8
Layer 1
  6
ByLayer
 62
  256
370
   -1
100
AcDbLine
 10
-574.6421742875227
 20
332.9883324484848
 11
-574.2541192875227
 21
334.7169424484848
  0
LINE
  5
8F
100
AcDbEntity
  8
Layer 1
  6
ByLayer
 62
  256
370
   -1
100
AcDbLine
 10
-574.2541192875227
 20
334.7169424484848
 11
-573.6191202875227
 21
336.3749924484848
  0
LINE
  5
90
100
AcDbEntity
  8
Layer 1
  6
ByLayer
 62
  256
370
   -1
100
AcDbLine
 10
-573.6191202875227
 20
336.3749924484848
 11
-572.7724552875227
 21
337.891932448485
  0
LINE
  5
91
100
AcDbEntity
  8
Layer 1
  6
ByLayer
 62
  256
370
   -1
100
AcDbLine
 10
-572.7724552875227
 20
337.891932448485
 11
-571.6788452875228
 21
339.3030424484849
  0
LINE
  5
92
100
AcDbEntity
  8
Layer 1
  6
ByLayer
 62
  256
370
   -1
100
AcDbLine
 10
-571.6788452875228
 20
339.3030424484849
 11
-570.4088452875228
 21
340.537762448485
  0
LINE
  5
93
100
AcDbEntity
  8
Layer 1
  6
ByLayer
 62
  256
370
   -1
100
AcDbLine
 10
-570.4088452875228
 20
340.537762448485
 11
-568.9624552875227
 21
341.5608124484849
  0
LINE
  5
94
100
AcDbEntity
  8
Layer 1
  6
ByLayer
 62
  256
370
   -1
100
AcDbLine
 10
-568.9624552875227
 20
341.5608124484849
 11
-567.4102352875227
 21
342.3721994484848
  0
LINE
  5
95
100
AcDbEntity
  8
Layer 1
  6
ByLayer
 62
  256
370
   -1
100
AcDbLine
 10
-567.4102352875227
 20
342.3721994484848
 11
-565.7169052875228
 21
342.9366424484849
  0
LINE
  5
96
100
AcDbEntity
  8
Layer 1
  6
ByLayer
 62
  256
370
   -1
100
AcDbLine
 10
-565.7169052875228
 20
342.9366424484849
 11
-563.9882952875228
 21
343.2541414484849
  0
LINE
  5
97
100
AcDbEntity
  8
Layer 1
  6
ByLayer
 62
  256
370
   -1
100
AcDbLine
 10
-563.9882952875228
 20
343.2541414484849
 11
-562.2244052875227
 21
343.3246964484848
  0
LINE
  5
98
100
AcDbEntity
  8
Layer 1
  6
ByLayer
 62
  256
370
   -1
100
AcDbLine
 10
-562.2244052875227
 20
343.3246964484848
 11
-560.4605252875227
 21
343.1130304484849
  0
LINE
  5
99
100
AcDbEntity
  8
Layer 1
  6
ByLayer
 62
  256
370
   -1
100
AcDbLine
 10
-560.4605252875227
 20
343.1130304484849
 11
-558.7671952875228
 21
342.6896984484848
  0
LINE
  5
9A
100
AcDbEntity
  8
Layer 1
  6
ByLayer
 62
  256
370
   -1
100
AcDbLine
 10
-558.7671952875228
 20
342.6896984484848
 11
-557.1444252875227
 21
341.9841444484848
  0
LINE
  5
9B
100
AcDbEntity
  8
Layer 1
  6
ByLayer
 62
  256
370
   -1
100
AcDbLine
 10
-557.1444252875227
 20
341.9841444484848
 11
-555.6274852875227
 21
341.0669244484848
  0
LINE
  5
9C
100
AcDbEntity
  8
Layer 1
  6
ByLayer
 62
  256
370
   -1
100
AcDbLine
 10
-555.6274852875227
 20
341.0669244484848
 11
-554.2869352875227
 21
339.9380344484848
  0
LINE
  5
9D
100
AcDbEntity
  8
Layer 1
  6
ByLayer
 62
  256
370
   -1
100
AcDbLine
 10
-554.2869352875227
 20
339.9380344484848
 11
-553.0874952875228
 21
338.6327644484849
  0
LINE
  5
9E
100
AcDbEntity
  8
Layer 1
  6
ByLayer
 62
  256
370
   -1
100
AcDbLine
 10
-553.0874952875228
 20
338.6327644484849
 11
-552.1349972875228
 21
337.1511044484848
  0
LINE
  5
9F
100
AcDbEntity
  8
Layer 1
  6
ByLayer
 62
  256
370
   -1
100
AcDbLine
 10
-552.1349972875228
 20
337.1511044484848
 11
-551.3588882875227
 21
335.5636044484849
  0
LINE
  5
A0
100
AcDbEntity
  8
Layer 1
  6
ByLayer
 62
  256
370
   -1
100
AcDbLine
 10
-551.3588882875227
 20
335.5636044484849
 11
-550.8650002875228
 21
333.870274448485
  0
LINE
  5
A1
100
AcDbEntity
  8
Layer 1
  6
ByLayer
 62
  256
370
   -1
100
AcDbLine
 10
-550.8650002875228
 20
333.870274448485
 11
-550.6180562875228
 21
332.1063944484848
  0
LINE
  5
A2
100
AcDbEntity
  8
Layer 1
  6
ByLayer
 62
  256
370
   -1
100
AcDbLine
 10
-550.6180562875228
 20
332.1063944484848
 11
-550.6186862875228
 21
330.3424614484848
  0
LINE
  5
A3
100
AcDbEntity
  8
Layer 1
  6
ByLayer
 62
  256
370
   -1
100
AcDbLine
 10
-550.6186862875228
 20
330.3424614484848
 11
-550.8656302875228
 21
328.6138514484849
  0
LINE
  5
A4
100
AcDbEntity
  8
Layer 1
  6
ByLayer
 62
  256
370
   -1
100
AcDbLine
 10
-550.8656302875228
 20
328.6138514484849
 11
-551.3595182875227
 21
326.9205214484849
  0
LINE
  5
A5
100
AcDbEntity
  8
Layer 1
  6
ByLayer
 62
  256
370
   -1
100
AcDbLine
 10
-551.3595182875227
 20
326.9205214484849
 11
-552.1356272875228
 21
325.2977514484849
  0
LINE
  5
A6
100
AcDbEntity
  8
Layer 1
  6
ByLayer
 62
  256
370
   -1
100
AcDbLine
 10
-552.1356272875228
 20
325.2977514484849
 11
-553.0881252875228
 21
323.851361448485
  0
LINE
  5
A7
100
AcDbEntity
  8
Layer 1
  6
ByLayer
 62
  256
370
   -1
100
AcDbLine
 10
-553.0881252875228
 20
323.851361448485
 11
-554.2875652875227
 21
322.510811448485
  0
LINE
  5
A8
100
AcDbEntity
  8
Layer 1
  6
ByLayer
 62
  256
370
   -1
100
AcDbLine
 10
-554.2875652875227
 20
322.510811448485
 11
-555.6281152875227
 21
321.3819214484849
  0
LINE
  5
A9
100
AcDbEntity
  8
Layer 1
  6
ByLayer
 62
  256
370
   -1
100
AcDbLine
 10
-555.6281152875227
 20
321.3819214484849
 11
-557.1450552875227
 21
320.464701448485
  0
LINE
  5
AA
100
AcDbEntity
  8
Layer 1
  6
ByLayer
 62
  256
370
   -1
100
AcDbLine
 10
-557.1450552875227
 20
320.464701448485
 11
-558.7678252875228
 21
319.794425448485
  0
LINE
  5
AB
100
AcDbEntity
  8
Layer 1
  6
ByLayer
 62
  256
370
   -1
100
AcDbLine
 10
-558.7678252875228
 20
319.794425448485
 11
-560.4611552875227
 21
319.3358154484848
  0
LINE
  5
AC
100
AcDbEntity
  8
Layer 1
  6
ByLayer
 62
  256
370
   -1
100
AcDbLine
 10
-560.4611552875227
 20
319.3358154484848
 11
-562.2250352875227
 21
319.124149448485
  0
LINE
  5
AD
100
AcDbEntity
  8
Layer 1
  6
ByLayer
 62
  256
370
   -1
100
AcDbLine
 10
-562.2250352875227
 20
319.124149448485
 11
-563.9889252875228
 21
319.1947044484849
  0
LINE
  5
AE
100
AcDbEntity
  8
Layer 1
  6
ByLayer
 62
  256
370
   -1
100
AcDbLine
 10
-563.9889252875228
 20
319.1947044484849
 11
-565.7175352875228
 21
319.5122034484849
  0
LINE
  5
AF
100
AcDbEntity
  8
Layer 1
  6
ByLayer
 62
  256
370
   -1
100
AcDbLine
 10
-565.7175352875228
 20
319.5122034484849
 11
-567.4108652875227
 21
320.076646448485
  0
LINE
  5
B0
100
AcDbEntity
  8
Layer 1
  6
ByLayer
 62
  256
370
   -1
100
AcDbLine
 10
-567.4108652875227
 20
320.076646448485
 11
-568.9630852875227
 21
320.8880334484849
  0
LINE
  5
B1
100
AcDbEntity
  8
Layer 1
  6
ByLayer
 62
  256
370
   -1
100
AcDbLine
 10
-568.9630852875227
 20
320.8880334484849
 11
-570.4094752875228
 21
321.9463634484848
  0
LINE
  5
B2
100
AcDbEntity
  8
Layer 1
  6
ByLayer
 62
  256
370
   -1
100
AcDbLine
 10
-570.4094752875228
 20
321.9463634484848
 11
-571.6794752875228
 21
323.1458034484849
  0
LINE
  5
B3
100
AcDbEntity
  8
Layer 1
  6
ByLayer
 62
  256
370
   -1
100
AcDbLine
 10
-571.6794752875228
 20
323.1458034484849
 11
-572.7730852875227
 21
324.5569134484849
  0
LINE
  5
B4
100
AcDbEntity
  8
Layer 1
  6
ByLayer
 62
  256
370
   -1
100
AcDbLine
 10
-572.7730852875227
 20
324.5569134484849
 11
-573.6197502875227
 21
326.109133448485
  0
LINE
  5
B5
100
AcDbEntity
  8
Layer 1
  6
ByLayer
 62
  256
370
   -1
100
AcDbLine
 10
-573.6197502875227
 20
326.109133448485
 11
-574.2547492875227
 21
327.731903448485
  0
LINE
  5
B6
100
AcDbEntity
  8
Layer 1
  6
ByLayer
 62
  256
370
   -1
100
AcDbLine
 10
-574.2547492875227
 20
327.731903448485
 11
-574.6428042875227
 21
329.460513448485
  0
LINE
  5
B7
100
AcDbEntity
  8
Layer 1
  6
ByLayer
 62
  256
370
   -1
100
AcDbLine
 10
-574.6428042875227
 20
329.460513448485
 11
-574.7839152875227
 21
331.2244034484848
  0
LINE
  5
B8
100
AcDbEntity
  8
Layer 1
  6
ByLayer
 62
  256
370
   -1
100
AcDbLine
 10
-624.6666152875227
 20
351.226903448485
 11
-624.5255042875227
 21
352.9907834484848
  0
LINE
  5
B9
100
AcDbEntity
  8
Layer 1
  6
ByLayer
 62
  256
370
   -1
100
AcDbLine
 10
-624.5255042875227
 20
352.9907834484848
 11
-624.1727272875228
 21
354.7193934484848
  0
LINE
  5
BA
100
AcDbEntity
  8
Layer 1
  6
ByLayer
 62
  256
370
   -1
100
AcDbLine
 10
-624.1727272875228
 20
354.7193934484848
 11
-623.5377282875228
 21
356.3774434484848
  0
LINE
  5
BB
100
AcDbEntity
  8
Layer 1
  6
ByLayer
 62
  256
370
   -1
100
AcDbLine
 10
-623.5377282875228
 20
356.3774434484848
 11
-622.6557852875228
 21
357.8943834484849
  0
LINE
  5
BC
100
AcDbEntity
  8
Layer 1
  6
ByLayer
 62
  256
370
   -1
100
AcDbLine
 10
-622.6557852875228
 20
357.8943834484849
 11
-621.5974552875227
 21
359.3054934484848
  0
LINE
  5
BD
100
AcDbEntity
  8
Layer 1
  6
ByLayer
 62
  256
370
   -1
100
AcDbLine
 10
-621.5974552875227
 20
359.3054934484848
 11
-620.3274552875228
 21
360.540213448485
  0
LINE
  5
BE
100
AcDbEntity
  8
Layer 1
  6
ByLayer
 62
  256
370
   -1
100
AcDbLine
 10
-620.3274552875228
 20
360.540213448485
 11
-618.8810652875227
 21
361.5632634484849
  0
LINE
  5
BF
100
AcDbEntity
  8
Layer 1
  6
ByLayer
 62
  256
370
   -1
100
AcDbLine
 10
-618.8810652875227
 20
361.5632634484849
 11
-617.2935652875227
 21
362.3746504484848
  0
LINE
  5
C0
100
AcDbEntity
  8
Layer 1
  6
ByLayer
 62
  256
370
   -1
100
AcDbLine
 10
-617.2935652875227
 20
362.3746504484848
 11
-615.6355152875227
 21
362.9390934484848
  0
LINE
  5
C1
100
AcDbEntity
  8
Layer 1
  6
ByLayer
 62
  256
370
   -1
100
AcDbLine
 10
-615.6355152875227
 20
362.9390934484848
 11
-613.9069052875227
 21
363.2565924484848
  0
LINE
  5
C2
100
AcDbEntity
  8
Layer 1
  6
ByLayer
 62
  256
370
   -1
100
AcDbLine
 10
-613.9069052875227
 20
363.2565924484848
 11
-612.1430252875227
 21
363.3271484484848
  0
LINE
  5
C3
100
AcDbEntity
  8
Layer 1
  6
ByLayer
 62
  256
370
   -1
100
AcDbLine
 10
-612.1430252875227
 20
363.3271484484848
 11
-610.3791452875228
 21
363.115482448485
  0
LINE
  5
C4
100
AcDbEntity
  8
Layer 1
  6
ByLayer
 62
  256
370
   -1
100
AcDbLine
 10
-610.3791452875228
 20
363.115482448485
 11
-608.6505352875228
 21
362.6921504484848
  0
LINE
  5
C5
100
AcDbEntity
  8
Layer 1
  6
ByLayer
 62
  256
370
   -1
100
AcDbLine
 10
-608.6505352875228
 20
362.6921504484848
 11
-607.0277652875227
 21
361.9865964484848
  0
LINE
  5
C6
100
AcDbEntity
  8
Layer 1
  6
ByLayer
 62
  256
370
   -1
100
AcDbLine
 10
-607.0277652875227
 20
361.9865964484848
 11
-605.5461052875228
 21
361.0693764484849
  0
LINE
  5
C7
100
AcDbEntity
  8
Layer 1
  6
ByLayer
 62
  256
370
   -1
100
AcDbLine
 10
-605.5461052875228
 20
361.0693764484849
 11
-604.1702752875227
 21
359.9404864484848
  0
LINE
  5
C8
100
AcDbEntity
  8
Layer 1
  6
ByLayer
 62
  256
370
   -1
100
AcDbLine
 10
-604.1702752875227
 20
359.9404864484848
 11
-603.0061152875228
 21
358.6352164484848
  0
LINE
  5
C9
100
AcDbEntity
  8
Layer 1
  6
ByLayer
 62
  256
370
   -1
100
AcDbLine
 10
-603.0061152875228
 20
358.6352164484848
 11
-602.0183392875227
 21
357.1535564484849
  0
LINE
  5
CA
100
AcDbEntity
  8
Layer 1
  6
ByLayer
 62
  256
370
   -1
100
AcDbLine
 10
-602.0183392875227
 20
357.1535564484849
 11
-601.2775072875228
 21
355.5660564484849
  0
LINE
  5
CB
100
AcDbEntity
  8
Layer 1
  6
ByLayer
 62
  256
370
   -1
100
AcDbLine
 10
-601.2775072875228
 20
355.5660564484849
 11
-600.7483412875227
 21
353.8727264484849
  0
LINE
  5
CC
100
AcDbEntity
  8
Layer 1
  6
ByLayer
 62
  256
370
   -1
100
AcDbLine
 10
-600.7483412875227
 20
353.8727264484849
 11
-600.5013972875228
 21
352.1088464484848
  0
LINE
  5
CD
100
AcDbEntity
  8
Layer 1
  6
ByLayer
 62
  256
370
   -1
100
AcDbLine
 10
-600.5013972875228
 20
352.1088464484848
 11
-600.5006862875227
 21
350.3444614484848
  0
LINE
  5
CE
100
AcDbEntity
  8
Layer 1
  6
ByLayer
 62
  256
370
   -1
100
AcDbLine
 10
-600.5006862875227
 20
350.3444614484848
 11
-600.7476302875227
 21
348.6158514484848
  0
LINE
  5
CF
100
AcDbEntity
  8
Layer 1
  6
ByLayer
 62
  256
370
   -1
100
AcDbLine
 10
-600.7476302875227
 20
348.6158514484848
 11
-601.2767962875228
 21
346.9225214484848
  0
LINE
  5
D0
100
AcDbEntity
  8
Layer 1
  6
ByLayer
 62
  256
370
   -1
100
AcDbLine
 10
-601.2767962875228
 20
346.9225214484848
 11
-602.0176282875227
 21
345.2997514484848
  0
LINE
  5
D1
100
AcDbEntity
  8
Layer 1
  6
ByLayer
 62
  256
370
   -1
100
AcDbLine
 10
-602.0176282875227
 20
345.2997514484848
 11
-603.0054042875228
 21
343.8180914484849
  0
LINE
  5
D2
100
AcDbEntity
  8
Layer 1
  6
ByLayer
 62
  256
370
   -1
100
AcDbLine
 10
-603.0054042875228
 20
343.8180914484849
 11
-604.1695642875227
 21
342.5128214484848
  0
LINE
  5
D3
100
AcDbEntity
  8
Layer 1
  6
ByLayer
 62
  256
370
   -1
100
AcDbLine
 10
-604.1695642875227
 20
342.5128214484848
 11
-605.5453942875228
 21
341.3839314484848
  0
LINE
  5
D4
100
AcDbEntity
  8
Layer 1
  6
ByLayer
 62
  256
370
   -1
100
AcDbLine
 10
-605.5453942875228
 20
341.3839314484848
 11
-607.0270542875228
 21
340.4667114484848
  0
LINE
  5
D5
100
AcDbEntity
  8
Layer 1
  6
ByLayer
 62
  256
370
   -1
100
AcDbLine
 10
-607.0270542875228
 20
340.4667114484848
 11
-608.6498242875227
 21
339.7611574484848
  0
LINE
  5
D6
100
AcDbEntity
  8
Layer 1
  6
ByLayer
 62
  256
370
   -1
100
AcDbLine
 10
-608.6498242875227
 20
339.7611574484848
 11
-610.3784342875227
 21
339.3378254484849
  0
LINE
  5
D7
100
AcDbEntity
  8
Layer 1
  6
ByLayer
 62
  256
370
   -1
100
AcDbLine
 10
-610.3784342875227
 20
339.3378254484849
 11
-612.1423142875227
 21
339.1261594484848
  0
LINE
  5
D8
100
AcDbEntity
  8
Layer 1
  6
ByLayer
 62
  256
370
   -1
100
AcDbLine
 10
-612.1423142875227
 20
339.1261594484848
 11
-613.9061942875228
 21
339.196714448485
  0
LINE
  5
D9
100
AcDbEntity
  8
Layer 1
  6
ByLayer
 62
  256
370
   -1
100
AcDbLine
 10
-613.9061942875228
 20
339.196714448485
 11
-615.6348042875227
 21
339.514213448485
  0
LINE
  5
DA
100
AcDbEntity
  8
Layer 1
  6
ByLayer
 62
  256
370
   -1
100
AcDbLine
 10
-615.6348042875227
 20
339.514213448485
 11
-617.2928542875227
 21
340.0786564484848
  0
LINE
  5
DB
100
AcDbEntity
  8
Layer 1
  6
ByLayer
 62
  256
370
   -1
100
AcDbLine
 10
-617.2928542875227
 20
340.0786564484848
 11
-618.8803542875228
 21
340.890043448485
  0
LINE
  5
DC
100
AcDbEntity
  8
Layer 1
  6
ByLayer
 62
  256
370
   -1
100
AcDbLine
 10
-618.8803542875228
 20
340.890043448485
 11
-620.3267442875227
 21
341.9130934484849
  0
LINE
  5
DD
100
AcDbEntity
  8
Layer 1
  6
ByLayer
 62
  256
370
   -1
100
AcDbLine
 10
-620.3267442875227
 20
341.9130934484849
 11
-621.5967442875227
 21
343.147813448485
  0
LINE
  5
DE
100
AcDbEntity
  8
Layer 1
  6
ByLayer
 62
  256
370
   -1
100
AcDbLine
 10
-621.5967442875227
 20
343.147813448485
 11
-622.6550742875228
 21
344.5589234484848
  0
LINE
  5
DF
100
AcDbEntity
  8
Layer 1
  6
ByLayer
 62
  256
370
   -1
100
AcDbLine
 10
-622.6550742875228
 20
344.5589234484848
 11
-623.5370172875228
 21
346.1111434484848
  0
LINE
  5
E0
100
AcDbEntity
  8
Layer 1
  6
ByLayer
 62
  256
370
   -1
100
AcDbLine
 10
-623.5370172875228
 20
346.1111434484848
 11
-624.1720162875228
 21
347.7339134484848
  0
LINE
  5
E1
100
AcDbEntity
  8
Layer 1
  6
ByLayer
 62
  256
370
   -1
100
AcDbLine
 10
-624.1720162875228
 20
347.7339134484848
 11
-624.5247932875227
 21
349.4625234484848
  0
LINE
  5
E2
100
AcDbEntity
  8
Layer 1
  6
ByLayer
 62
  256
370
   -1
100
AcDbLine
 10
-624.5247932875227
 20
349.4625234484848
 11
-624.6659042875227
 21
351.2264034484849
  0
LINE
  5
E3
100
AcDbEntity
  8
Layer 1
  6
ByLayer
 62
  256
370
   -1
100
AcDbLine
 10
-598.1723042875227
 20
362.726903448485
 11
-598.0311932875227
 21
364.4907834484848
  0
LINE
  5
E4
100
AcDbEntity
  8
Layer 1
  6
ByLayer
 62
  256
370
   -1
100
AcDbLine
 10
-598.0311932875227
 20
364.4907834484848
 11
-597.6431382875228
 21
366.2193934484848
  0
LINE
  5
E5
100
AcDbEntity
  8
Layer 1
  6
ByLayer
 62
  256
370
   -1
100
AcDbLine
 10
-597.6431382875228
 20
366.2193934484848
 11
-597.0081392875227
 21
367.8774434484848
  0
LINE
  5
E6
100
AcDbEntity
  8
Layer 1
  6
ByLayer
 62
  256
370
   -1
100
AcDbLine
 10
-597.0081392875227
 20
367.8774434484848
 11
-596.1614742875228
 21
369.3943834484849
  0
LINE
  5
E7
100
AcDbEntity
  8
Layer 1
  6
ByLayer
 62
  256
370
   -1
100
AcDbLine
 10
-596.1614742875228
 20
369.3943834484849
 11
-595.0678642875228
 21
370.8054934484848
  0
LINE
  5
E8
100
AcDbEntity
  8
Layer 1
  6
ByLayer
 62
  256
370
   -1
100
AcDbLine
 10
-595.0678642875228
 20
370.8054934484848
 11
-593.7978642875228
 21
372.040213448485
  0
LINE
  5
E9
100
AcDbEntity
  8
Layer 1
  6
ByLayer
 62
  256
370
   -1
100
AcDbLine
 10
-593.7978642875228
 20
372.040213448485
 11
-592.3867542875228
 21
373.0632634484849
  0
LINE
  5
EA
100
AcDbEntity
  8
Layer 1
  6
ByLayer
 62
  256
370
   -1
100
AcDbLine
 10
-592.3867542875228
 20
373.0632634484849
 11
-590.7992542875227
 21
373.8746504484848
  0
LINE
  5
EB
100
AcDbEntity
  8
Layer 1
  6
ByLayer
 62
  256
370
   -1
100
AcDbLine
 10
-590.7992542875227
 20
373.8746504484848
 11
-589.1412042875228
 21
374.4390934484848
  0
LINE
  5
EC
100
AcDbEntity
  8
Layer 1
  6
ByLayer
 62
  256
370
   -1
100
AcDbLine
 10
-589.1412042875228
 20
374.4390934484848
 11
-587.3773242875227
 21
374.7565924484848
  0
LINE
  5
ED
100
AcDbEntity
  8
Layer 1
  6
ByLayer
 62
  256
370
   -1
100
AcDbLine
 10
-587.3773242875227
 20
374.7565924484848
 11
-585.6134442875227
 21
374.8271484484848
  0
LINE
  5
EE
100
AcDbEntity
  8
Layer 1
  6
ByLayer
 62
  256
370
   -1
100
AcDbLine
 10
-585.6134442875227
 20
374.8271484484848
 11
-583.8848342875227
 21
374.615482448485
  0
LINE
  5
EF
100
AcDbEntity
  8
Layer 1
  6
ByLayer
 62
  256
370
   -1
100
AcDbLine
 10
-583.8848342875227
 20
374.615482448485
 11
-582.1562242875227
 21
374.1921504484848
  0
LINE
  5
F0
100
AcDbEntity
  8
Layer 1
  6
ByLayer
 62
  256
370
   -1
100
AcDbLine
 10
-582.1562242875227
 20
374.1921504484848
 11
-580.5334542875228
 21
373.4865964484848
  0
LINE
  5
F1
100
AcDbEntity
  8
Layer 1
  6
ByLayer
 62
  256
370
   -1
100
AcDbLine
 10
-580.5334542875228
 20
373.4865964484848
 11
-579.0165142875228
 21
372.5693764484849
  0
LINE
  5
F2
100
AcDbEntity
  8
Layer 1
  6
ByLayer
 62
  256
370
   -1
100
AcDbLine
 10
-579.0165142875228
 20
372.5693764484849
 11
-577.6759642875227
 21
371.4404864484848
  0
LINE
  5
F3
100
AcDbEntity
  8
Layer 1
  6
ByLayer
 62
  256
370
   -1
100
AcDbLine
 10
-577.6759642875227
 20
371.4404864484848
 11
-576.4765242875228
 21
370.1352164484848
  0
LINE
  5
F4
100
AcDbEntity
  8
Layer 1
  6
ByLayer
 62
  256
370
   -1
100
AcDbLine
 10
-576.4765242875228
 20
370.1352164484848
 11
-575.5240262875227
 21
368.6535564484849
  0
LINE
  5
F5
100
AcDbEntity
  8
Layer 1
  6
ByLayer
 62
  256
370
   -1
100
AcDbLine
 10
-575.5240262875227
 20
368.6535564484849
 11
-574.7831942875227
 21
367.0660564484849
  0
LINE
  5
F6
100
AcDbEntity
  8
Layer 1
  6
ByLayer
 62
  256
370
   -1
100
AcDbLine
 10
-574.7831942875227
 20
367.0660564484849
 11
-574.2540282875227
 21
365.3727264484849
  0
LINE
  5
F7
100
AcDbEntity
  8
Layer 1
  6
ByLayer
 62
  256
370
   -1
100
AcDbLine
 10
-574.2540282875227
 20
365.3727264484849
 11
-574.0070842875227
 21
363.6088464484848
  0
LINE
  5
F8
100
AcDbEntity
  8
Layer 1
  6
ByLayer
 62
  256
370
   -1
100
AcDbLine
 10
-574.0070842875227
 20
363.6088464484848
 11
-574.0076862875228
 21
361.8454614484849
  0
LINE
  5
F9
100
AcDbEntity
  8
Layer 1
  6
ByLayer
 62
  256
370
   -1
100
AcDbLine
 10
-574.0076862875228
 20
361.8454614484849
 11
-574.2546302875228
 21
360.081571448485
  0
LINE
  5
FA
100
AcDbEntity
  8
Layer 1
  6
ByLayer
 62
  256
370
   -1
100
AcDbLine
 10
-574.2546302875228
 20
360.081571448485
 11
-574.7837962875227
 21
358.423521448485
  0
LINE
  5
FB
100
AcDbEntity
  8
Layer 1
  6
ByLayer
 62
  256
370
   -1
100
AcDbLine
 10
-574.7837962875227
 20
358.423521448485
 11
-575.5246282875228
 21
356.800751448485
  0
LINE
  5
FC
100
AcDbEntity
  8
Layer 1
  6
ByLayer
 62
  256
370
   -1
100
AcDbLine
 10
-575.5246282875228
 20
356.800751448485
 11
-576.4771262875228
 21
355.3190914484848
  0
LINE
  5
FD
100
AcDbEntity
  8
Layer 1
  6
ByLayer
 62
  256
370
   -1
100
AcDbLine
 10
-576.4771262875228
 20
355.3190914484848
 11
-577.6765662875227
 21
354.0138214484849
  0
LINE
  5
FE
100
AcDbEntity
  8
Layer 1
  6
ByLayer
 62
  256
370
   -1
100
AcDbLine
 10
-577.6765662875227
 20
354.0138214484849
 11
-579.0171162875228
 21
352.884931448485
  0
LINE
  5
FF
100
AcDbEntity
  8
Layer 1
  6
ByLayer
 62
  256
370
   -1
100
AcDbLine
 10
-579.0171162875228
 20
352.884931448485
 11
-580.5340562875227
 21
351.9677114484849
  0
LINE
  5
100
100
AcDbEntity
  8
Layer 1
  6
ByLayer
 62
  256
370
   -1
100
AcDbLine
 10
-580.5340562875227
 20
351.9677114484849
 11
-582.1568262875228
 21
351.2621574484849
  0
LINE
  5
101
100
AcDbEntity
  8
Layer 1
  6
ByLayer
 62
  256
370
   -1
100
AcDbLine
 10
-582.1568262875228
 20
351.2621574484849
 11
-583.8854362875227
 21
350.838825448485
  0
LINE
  5
102
100
AcDbEntity
  8
Layer 1
  6
ByLayer
 62
  256
370
   -1
100
AcDbLine
 10
-583.8854362875227
 20
350.838825448485
 11
-585.6140462875228
 21
350.6271594484849
  0
LINE
  5
103
100
AcDbEntity
  8
Layer 1
  6
ByLayer
 62
  256
370
   -1
100
AcDbLine
 10
-585.6140462875228
 20
350.6271594484849
 11
-587.3779262875228
 21
350.6977144484848
  0
LINE
  5
104
100
AcDbEntity
  8
Layer 1
  6
ByLayer
 62
  256
370
   -1
100
AcDbLine
 10
-587.3779262875228
 20
350.6977144484848
 11
-589.1418062875227
 21
351.0152134484848
  0
LINE
  5
105
100
AcDbEntity
  8
Layer 1
  6
ByLayer
 62
  256
370
   -1
100
AcDbLine
 10
-589.1418062875227
 20
351.0152134484848
 11
-590.7998562875227
 21
351.5796564484849
  0
LINE
  5
106
100
AcDbEntity
  8
Layer 1
  6
ByLayer
 62
  256
370
   -1
100
AcDbLine
 10
-590.7998562875227
 20
351.5796564484849
 11
-592.3873562875227
 21
352.3910434484848
  0
LINE
  5
107
100
AcDbEntity
  8
Layer 1
  6
ByLayer
 62
  256
370
   -1
100
AcDbLine
 10
-592.3873562875227
 20
352.3910434484848
 11
-593.7984662875227
 21
353.4140934484849
  0
LINE
  5
108
100
AcDbEntity
  8
Layer 1
  6
ByLayer
 62
  256
370
   -1
100
AcDbLine
 10
-593.7984662875227
 20
353.4140934484849
 11
-595.0684662875227
 21
354.6488134484848
  0
LINE
  5
109
100
AcDbEntity
  8
Layer 1
  6
ByLayer
 62
  256
370
   -1
100
AcDbLine
 10
-595.0684662875227
 20
354.6488134484848
 11
-596.1620762875227
 21
356.0599234484848
  0
LINE
  5
10A
100
AcDbEntity
  8
Layer 1
  6
ByLayer
 62
  256
370
   -1
100
AcDbLine
 10
-596.1620762875227
 20
356.0599234484848
 11
-597.0087412875228
 21
357.5768634484849
  0
LINE
  5
10B
100
AcDbEntity
  8
Layer 1
  6
ByLayer
 62
  256
370
   -1
100
AcDbLine
 10
-597.0087412875228
 20
357.5768634484849
 11
-597.6437402875227
 21
359.2349134484849
  0
LINE
  5
10C
100
AcDbEntity
  8
Layer 1
  6
ByLayer
 62
  256
370
   -1
100
AcDbLine
 10
-597.6437402875227
 20
359.2349134484849
 11
-598.0317952875228
 21
360.9635234484849
  0
LINE
  5
10D
100
AcDbEntity
  8
Layer 1
  6
ByLayer
 62
  256
370
   -1
100
AcDbLine
 10
-598.0317952875228
 20
360.9635234484849
 11
-598.1729062875228
 21
362.7274134484848
  0
LINE
  5
10E
100
AcDbEntity
  8
Layer 1
  6
ByLayer
 62
  256
370
   -1
100
AcDbLine
 10
-569.1746062875227
 20
362.7274134484848
 11
-569.0334952875228
 21
364.491293448485
  0
LINE
  5
10F
100
AcDbEntity
  8
Layer 1
  6
ByLayer
 62
  256
370
   -1
100
AcDbLine
 10
-569.0334952875228
 20
364.491293448485
 11
-568.6454402875228
 21
366.219903448485
  0
LINE
  5
110
100
AcDbEntity
  8
Layer 1
  6
ByLayer
 62
  256
370
   -1
100
AcDbLine
 10
-568.6454402875228
 20
366.219903448485
 11
-568.0104412875228
 21
367.877953448485
  0
LINE
  5
111
100
AcDbEntity
  8
Layer 1
  6
ByLayer
 62
  256
370
   -1
100
AcDbLine
 10
-568.0104412875228
 20
367.877953448485
 11
-567.1637762875228
 21
369.3948934484848
  0
LINE
  5
112
100
AcDbEntity
  8
Layer 1
  6
ByLayer
 62
  256
370
   -1
100
AcDbLine
 10
-567.1637762875228
 20
369.3948934484848
 11
-566.0701662875227
 21
370.8060034484848
  0
LINE
  5
113
100
AcDbEntity
  8
Layer 1
  6
ByLayer
 62
  256
370
   -1
100
AcDbLine
 10
-566.0701662875227
 20
370.8060034484848
 11
-564.8001662875228
 21
372.0407234484848
  0
LINE
  5
114
100
AcDbEntity
  8
Layer 1
  6
ByLayer
 62
  256
370
   -1
100
AcDbLine
 10
-564.8001662875228
 20
372.0407234484848
 11
-563.3890562875227
 21
373.0637734484848
  0
LINE
  5
115
100
AcDbEntity
  8
Layer 1
  6
ByLayer
 62
  256
370
   -1
100
AcDbLine
 10
-563.3890562875227
 20
373.0637734484848
 11
-561.8015562875228
 21
373.875160448485
  0
LINE
  5
116
100
AcDbEntity
  8
Layer 1
  6
ByLayer
 62
  256
370
   -1
100
AcDbLine
 10
-561.8015562875228
 20
373.875160448485
 11
-560.1435062875228
 21
374.4396034484849
  0
LINE
  5
117
100
AcDbEntity
  8
Layer 1
  6
ByLayer
 62
  256
370
   -1
100
AcDbLine
 10
-560.1435062875228
 20
374.4396034484849
 11
-558.3796162875227
 21
374.7571024484848
  0
LINE
  5
118
100
AcDbEntity
  8
Layer 1
  6
ByLayer
 62
  256
370
   -1
100
AcDbLine
 10
-558.3796162875227
 20
374.7571024484848
 11
-556.6157362875227
 21
374.827658448485
  0
LINE
  5
119
100
AcDbEntity
  8
Layer 1
  6
ByLayer
 62
  256
370
   -1
100
AcDbLine
 10
-556.6157362875227
 20
374.827658448485
 11
-554.8871262875227
 21
374.6159924484849
  0
LINE
  5
11A
100
AcDbEntity
  8
Layer 1
  6
ByLayer
 62
  256
370
   -1
100
AcDbLine
 10
-554.8871262875227
 20
374.6159924484849
 11
-553.1585162875227
 21
374.192660448485
  0
LINE
  5
11B
100
AcDbEntity
  8
Layer 1
  6
ByLayer
 62
  256
370
   -1
100
AcDbLine
 10
-553.1585162875227
 20
374.192660448485
 11
-551.5357462875228
 21
373.487106448485
  0
LINE
  5
11C
100
AcDbEntity
  8
Layer 1
  6
ByLayer
 62
  256
370
   -1
100
AcDbLine
 10
-551.5357462875228
 20
373.487106448485
 11
-550.0188062875227
 21
372.569886448485
  0
LINE
  5
11D
100
AcDbEntity
  8
Layer 1
  6
ByLayer
 62
  256
370
   -1
100
AcDbLine
 10
-550.0188062875227
 20
372.569886448485
 11
-548.6782562875227
 21
371.440996448485
  0
LINE
  5
11E
100
AcDbEntity
  8
Layer 1
  6
ByLayer
 62
  256
370
   -1
100
AcDbLine
 10
-548.6782562875227
 20
371.440996448485
 11
-547.4788162875227
 21
370.1357264484849
  0
LINE
  5
11F
100
AcDbEntity
  8
Layer 1
  6
ByLayer
 62
  256
370
   -1
100
AcDbLine
 10
-547.4788162875227
 20
370.1357264484849
 11
-546.5263182875227
 21
368.6540664484849
  0
LINE
  5
120
100
AcDbEntity
  8
Layer 1
  6
ByLayer
 62
  256
370
   -1
100
AcDbLine
 10
-546.5263182875227
 20
368.6540664484849
 11
-545.7854862875228
 21
367.0665664484848
  0
LINE
  5
121
100
AcDbEntity
  8
Layer 1
  6
ByLayer
 62
  256
370
   -1
100
AcDbLine
 10
-545.7854862875228
 20
367.0665664484848
 11
-545.2563202875227
 21
365.3732364484848
  0
LINE
  5
122
100
AcDbEntity
  8
Layer 1
  6
ByLayer
 62
  256
370
   -1
100
AcDbLine
 10
-545.2563202875227
 20
365.3732364484848
 11
-545.0093762875227
 21
363.609356448485
  0
LINE
  5
123
100
AcDbEntity
  8
Layer 1
  6
ByLayer
 62
  256
370
   -1
100
AcDbLine
 10
-545.0093762875227
 20
363.609356448485
 11
-545.0086862875228
 21
361.8454614484849
  0
LINE
  5
124
100
AcDbEntity
  8
Layer 1
  6
ByLayer
 62
  256
370
   -1
100
AcDbLine
 10
-545.0086862875228
 20
361.8454614484849
 11
-545.2556302875229
 21
360.0815814484848
  0
LINE
  5
125
100
AcDbEntity
  8
Layer 1
  6
ByLayer
 62
  256
370
   -1
100
AcDbLine
 10
-545.2556302875229
 20
360.0815814484848
 11
-545.7847962875228
 21
358.4235314484848
  0
LINE
  5
126
100
AcDbEntity
  8
Layer 1
  6
ByLayer
 62
  256
370
   -1
100
AcDbLine
 10
-545.7847962875228
 20
358.4235314484848
 11
-546.5256282875227
 21
356.8007614484848
  0
LINE
  5
127
100
AcDbEntity
  8
Layer 1
  6
ByLayer
 62
  256
370
   -1
100
AcDbLine
 10
-546.5256282875227
 20
356.8007614484848
 11
-547.4781262875227
 21
355.319101448485
  0
LINE
  5
128
100
AcDbEntity
  8
Layer 1
  6
ByLayer
 62
  256
370
   -1
100
AcDbLine
 10
-547.4781262875227
 20
355.319101448485
 11
-548.6775662875227
 21
354.013831448485
  0
LINE
  5
129
100
AcDbEntity
  8
Layer 1
  6
ByLayer
 62
  256
370
   -1
100
AcDbLine
 10
-548.6775662875227
 20
354.013831448485
 11
-550.0181162875227
 21
352.8849414484848
  0
LINE
  5
12A
100
AcDbEntity
  8
Layer 1
  6
ByLayer
 62
  256
370
   -1
100
AcDbLine
 10
-550.0181162875227
 20
352.8849414484848
 11
-551.5350562875227
 21
351.967721448485
  0
LINE
  5
12B
100
AcDbEntity
  8
Layer 1
  6
ByLayer
 62
  256
370
   -1
100
AcDbLine
 10
-551.5350562875227
 20
351.967721448485
 11
-553.1578262875228
 21
351.2621674484849
  0
LINE
  5
12C
100
AcDbEntity
  8
Layer 1
  6
ByLayer
 62
  256
370
   -1
100
AcDbLine
 10
-553.1578262875228
 20
351.2621674484849
 11
-554.8864362875228
 21
350.8388354484848
  0
LINE
  5
12D
100
AcDbEntity
  8
Layer 1
  6
ByLayer
 62
  256
370
   -1
100
AcDbLine
 10
-554.8864362875228
 20
350.8388354484848
 11
-556.6150462875228
 21
350.6271694484849
  0
LINE
  5
12E
100
AcDbEntity
  8
Layer 1
  6
ByLayer
 62
  256
370
   -1
100
AcDbLine
 10
-556.6150462875228
 20
350.6271694484849
 11
-558.3789262875227
 21
350.697724448485
  0
LINE
  5
12F
100
AcDbEntity
  8
Layer 1
  6
ByLayer
 62
  256
370
   -1
100
AcDbLine
 10
-558.3789262875227
 20
350.697724448485
 11
-560.1428162875227
 21
351.015223448485
  0
LINE
  5
130
100
AcDbEntity
  8
Layer 1
  6
ByLayer
 62
  256
370
   -1
100
AcDbLine
 10
-560.1428162875227
 20
351.015223448485
 11
-561.8008662875227
 21
351.5796664484848
  0
LINE
  5
131
100
AcDbEntity
  8
Layer 1
  6
ByLayer
 62
  256
370
   -1
100
AcDbLine
 10
-561.8008662875227
 20
351.5796664484848
 11
-563.3883662875228
 21
352.3910534484849
  0
LINE
  5
132
100
AcDbEntity
  8
Layer 1
  6
ByLayer
 62
  256
370
   -1
100
AcDbLine
 10
-563.3883662875228
 20
352.3910534484849
 11
-564.7994762875228
 21
353.4141034484849
  0
LINE
  5
133
100
AcDbEntity
  8
Layer 1
  6
ByLayer
 62
  256
370
   -1
100
AcDbLine
 10
-564.7994762875228
 20
353.4141034484849
 11
-566.0694762875228
 21
354.648823448485
  0
LINE
  5
134
100
AcDbEntity
  8
Layer 1
  6
ByLayer
 62
  256
370
   -1
100
AcDbLine
 10
-566.0694762875228
 20
354.648823448485
 11
-567.1630862875227
 21
356.0599334484849
  0
LINE
  5
135
100
AcDbEntity
  8
Layer 1
  6
ByLayer
 62
  256
370
   -1
100
AcDbLine
 10
-567.1630862875227
 20
356.0599334484849
 11
-568.0097512875227
 21
357.5768734484849
  0
LINE
  5
136
100
AcDbEntity
  8
Layer 1
  6
ByLayer
 62
  256
370
   -1
100
AcDbLine
 10
-568.0097512875227
 20
357.5768734484849
 11
-568.6447502875228
 21
359.2349234484849
  0
LINE
  5
137
100
AcDbEntity
  8
Layer 1
  6
ByLayer
 62
  256
370
   -1
100
AcDbLine
 10
-568.6447502875228
 20
359.2349234484849
 11
-569.0328052875227
 21
360.963533448485
  0
LINE
  5
138
100
AcDbEntity
  8
Layer 1
  6
ByLayer
 62
  256
370
   -1
100
AcDbLine
 10
-569.0328052875227
 20
360.963533448485
 11
-569.1739162875227
 21
362.7274134484848
  0
LINE
  5
139
100
AcDbEntity
  8
Layer 1
  6
ByLayer
 62
  256
370
   -1
100
AcDbLine
 10
-609.2846162875228
 20
299.2275134484848
 11
-609.1435052875228
 21
300.9913934484848
  0
LINE
  5
13A
100
AcDbEntity
  8
Layer 1
  6
ByLayer
 62
  256
370
   -1
100
AcDbLine
 10
-609.1435052875228
 20
300.9913934484848
 11
-608.7554502875228
 21
302.7200034484848
  0
LINE
  5
13B
100
AcDbEntity
  8
Layer 1
  6
ByLayer
 62
  256
370
   -1
100
AcDbLine
 10
-608.7554502875228
 20
302.7200034484848
 11
-608.1204512875228
 21
304.3780534484848
  0
LINE
  5
13C
100
AcDbEntity
  8
Layer 1
  6
ByLayer
 62
  256
370
   -1
100
AcDbLine
 10
-608.1204512875228
 20
304.3780534484848
 11
-607.2737862875227
 21
305.8949934484849
  0
LINE
  5
13D
100
AcDbEntity
  8
Layer 1
  6
ByLayer
 62
  256
370
   -1
100
AcDbLine
 10
-607.2737862875227
 20
305.8949934484849
 11
-606.1801762875227
 21
307.3061034484849
  0
LINE
  5
13E
100
AcDbEntity
  8
Layer 1
  6
ByLayer
 62
  256
370
   -1
100
AcDbLine
 10
-606.1801762875227
 20
307.3061034484849
 11
-604.9101762875227
 21
308.5408234484848
  0
LINE
  5
13F
100
AcDbEntity
  8
Layer 1
  6
ByLayer
 62
  256
370
   -1
100
AcDbLine
 10
-604.9101762875227
 20
308.5408234484848
 11
-603.4637862875227
 21
309.5638734484849
  0
LINE
  5
140
100
AcDbEntity
  8
Layer 1
  6
ByLayer
 62
  256
370
   -1
100
AcDbLine
 10
-603.4637862875227
 20
309.5638734484849
 11
-601.9115662875228
 21
310.3752604484848
  0
LINE
  5
141
100
AcDbEntity
  8
Layer 1
  6
ByLayer
 62
  256
370
   -1
100
AcDbLine
 10
-601.9115662875228
 20
310.3752604484848
 11
-600.2182362875227
 21
310.9397034484849
  0
LINE
  5
142
100
AcDbEntity
  8
Layer 1
  6
ByLayer
 62
  256
370
   -1
100
AcDbLine
 10
-600.2182362875227
 20
310.9397034484849
 11
-598.4896262875227
 21
311.2572024484849
  0
LINE
  5
143
100
AcDbEntity
  8
Layer 1
  6
ByLayer
 62
  256
370
   -1
100
AcDbLine
 10
-598.4896262875227
 20
311.2572024484849
 11
-596.7257462875227
 21
311.3277584484848
  0
LINE
  5
144
100
AcDbEntity
  8
Layer 1
  6
ByLayer
 62
  256
370
   -1
100
AcDbLine
 10
-596.7257462875227
 20
311.3277584484848
 11
-594.9618562875228
 21
311.1160924484849
  0
LINE
  5
145
100
AcDbEntity
  8
Layer 1
  6
ByLayer
 62
  256
370
   -1
100
AcDbLine
 10
-594.9618562875228
 20
311.1160924484849
 11
-593.2685262875227
 21
310.6927604484848
  0
LINE
  5
146
100
AcDbEntity
  8
Layer 1
  6
ByLayer
 62
  256
370
   -1
100
AcDbLine
 10
-593.2685262875227
 20
310.6927604484848
 11
-591.6457562875228
 21
309.9872064484848
  0
LINE
  5
147
100
AcDbEntity
  8
Layer 1
  6
ByLayer
 62
  256
370
   -1
100
AcDbLine
 10
-591.6457562875228
 20
309.9872064484848
 11
-590.1288162875228
 21
309.0699864484848
  0
LINE
  5
148
100
AcDbEntity
  8
Layer 1
  6
ByLayer
 62
  256
370
   -1
100
AcDbLine
 10
-590.1288162875228
 20
309.0699864484848
 11
-588.7882662875227
 21
307.9410964484848
  0
LINE
  5
149
100
AcDbEntity
  8
Layer 1
  6
ByLayer
 62
  256
370
   -1
100
AcDbLine
 10
-588.7882662875227
 20
307.9410964484848
 11
-587.5888262875228
 21
306.6358264484849
  0
LINE
  5
14A
100
AcDbEntity
  8
Layer 1
  6
ByLayer
 62
  256
370
   -1
100
AcDbLine
 10
-587.5888262875228
 20
306.6358264484849
 11
-586.6010502875228
 21
305.1541664484848
  0
LINE
  5
14B
100
AcDbEntity
  8
Layer 1
  6
ByLayer
 62
  256
370
   -1
100
AcDbLine
 10
-586.6010502875228
 20
305.1541664484848
 11
-585.8602182875227
 21
303.5666664484849
  0
LINE
  5
14C
100
AcDbEntity
  8
Layer 1
  6
ByLayer
 62
  256
370
   -1
100
AcDbLine
 10
-585.8602182875227
 20
303.5666664484849
 11
-585.3663302875227
 21
301.8733364484848
  0
LINE
  5
14D
100
AcDbEntity
  8
Layer 1
  6
ByLayer
 62
  256
370
   -1
100
AcDbLine
 10
-585.3663302875227
 20
301.8733364484848
 11
-585.0841082875228
 21
300.1094464484848
  0
LINE
  5
14E
100
AcDbEntity
  8
Layer 1
  6
ByLayer
 62
  256
370
   -1
100
AcDbLine
 10
-585.0841082875228
 20
300.1094464484848
 11
-585.0846862875228
 21
298.3455614484848
  0
LINE
  5
14F
100
AcDbEntity
  8
Layer 1
  6
ByLayer
 62
  256
370
   -1
100
AcDbLine
 10
-585.0846862875228
 20
298.3455614484848
 11
-585.3669082875227
 21
296.5816714484848
  0
LINE
  5
150
100
AcDbEntity
  8
Layer 1
  6
ByLayer
 62
  256
370
   -1
100
AcDbLine
 10
-585.3669082875227
 20
296.5816714484848
 11
-585.8607962875227
 21
294.9236214484848
  0
LINE
  5
151
100
AcDbEntity
  8
Layer 1
  6
ByLayer
 62
  256
370
   -1
100
AcDbLine
 10
-585.8607962875227
 20
294.9236214484848
 11
-586.6016282875228
 21
293.3008514484848
  0
LINE
  5
152
100
AcDbEntity
  8
Layer 1
  6
ByLayer
 62
  256
370
   -1
100
AcDbLine
 10
-586.6016282875228
 20
293.3008514484848
 11
-587.5894042875227
 21
291.8191914484848
  0
LINE
  5
153
100
AcDbEntity
  8
Layer 1
  6
ByLayer
 62
  256
370
   -1
100
AcDbLine
 10
-587.5894042875227
 20
291.8191914484848
 11
-588.7888442875228
 21
290.513921448485
  0
LINE
  5
154
100
AcDbEntity
  8
Layer 1
  6
ByLayer
 62
  256
370
   -1
100
AcDbLine
 10
-588.7888442875228
 20
290.513921448485
 11
-590.1293942875227
 21
289.3850314484848
  0
LINE
  5
155
100
AcDbEntity
  8
Layer 1
  6
ByLayer
 62
  256
370
   -1
100
AcDbLine
 10
-590.1293942875227
 20
289.3850314484848
 11
-591.6463342875227
 21
288.467811448485
  0
LINE
  5
156
100
AcDbEntity
  8
Layer 1
  6
ByLayer
 62
  256
370
   -1
100
AcDbLine
 10
-591.6463342875227
 20
288.467811448485
 11
-593.2691042875227
 21
287.7622574484849
  0
LINE
  5
157
100
AcDbEntity
  8
Layer 1
  6
ByLayer
 62
  256
370
   -1
100
AcDbLine
 10
-593.2691042875227
 20
287.7622574484849
 11
-594.9624342875227
 21
287.3389254484848
  0
LINE
  5
158
100
AcDbEntity
  8
Layer 1
  6
ByLayer
 62
  256
370
   -1
100
AcDbLine
 10
-594.9624342875227
 20
287.3389254484848
 11
-596.7263242875227
 21
287.1272594484849
  0
LINE
  5
159
100
AcDbEntity
  8
Layer 1
  6
ByLayer
 62
  256
370
   -1
100
AcDbLine
 10
-596.7263242875227
 20
287.1272594484849
 11
-598.4902042875227
 21
287.197814448485
  0
LINE
  5
15A
100
AcDbEntity
  8
Layer 1
  6
ByLayer
 62
  256
370
   -1
100
AcDbLine
 10
-598.4902042875227
 20
287.197814448485
 11
-600.2188142875227
 21
287.515313448485
  0
LINE
  5
15B
100
AcDbEntity
  8
Layer 1
  6
ByLayer
 62
  256
370
   -1
100
AcDbLine
 10
-600.2188142875227
 20
287.515313448485
 11
-601.9121442875228
 21
288.0797564484848
  0
LINE
  5
15C
100
AcDbEntity
  8
Layer 1
  6
ByLayer
 62
  256
370
   -1
100
AcDbLine
 10
-601.9121442875228
 20
288.0797564484848
 11
-603.4643642875227
 21
288.8911434484849
  0
LINE
  5
15D
100
AcDbEntity
  8
Layer 1
  6
ByLayer
 62
  256
370
   -1
100
AcDbLine
 10
-603.4643642875227
 20
288.8911434484849
 11
-604.9107542875228
 21
289.9141934484849
  0
LINE
  5
15E
100
AcDbEntity
  8
Layer 1
  6
ByLayer
 62
  256
370
   -1
100
AcDbLine
 10
-604.9107542875228
 20
289.9141934484849
 11
-606.1807542875227
 21
291.148913448485
  0
LINE
  5
15F
100
AcDbEntity
  8
Layer 1
  6
ByLayer
 62
  256
370
   -1
100
AcDbLine
 10
-606.1807542875227
 20
291.148913448485
 11
-607.2743642875228
 21
292.5600234484849
  0
LINE
  5
160
100
AcDbEntity
  8
Layer 1
  6
ByLayer
 62
  256
370
   -1
100
AcDbLine
 10
-607.2743642875228
 20
292.5600234484849
 11
-608.1210292875228
 21
294.0769634484849
  0
LINE
  5
161
100
AcDbEntity
  8
Layer 1
  6
ByLayer
 62
  256
370
   -1
100
AcDbLine
 10
-608.1210292875228
 20
294.0769634484849
 11
-608.7560282875228
 21
295.7350134484849
  0
LINE
  5
162
100
AcDbEntity
  8
Layer 1
  6
ByLayer
 62
  256
370
   -1
100
AcDbLine
 10
-608.7560282875228
 20
295.7350134484849
 11
-609.1440832875228
 21
297.463623448485
  0
LINE
  5
163
100
AcDbEntity
  8
Layer 1
  6
ByLayer
 62
  256
370
   -1
100
AcDbLine
 10
-609.1440832875228
 20
297.463623448485
 11
-609.2851942875227
 21
299.2275134484848
  0
LINE
  5
164
100
AcDbEntity
  8
Layer 1
  6
ByLayer
 62
  256
370
   -1
100
AcDbLine
 10
-645.2684942875228
 20
286.7392134484849
 11
-645.1273832875228
 21
288.7147634484849
  0
LINE
  5
165
100
AcDbEntity
  8
Layer 1
  6
ByLayer
 62
  256
370
   -1
100
AcDbLine
 10
-645.1273832875228
 20
288.7147634484849
 11
-644.7393282875228
 21
290.6550334484849
  0
LINE
  5
166
100
AcDbEntity
  8
Layer 1
  6
ByLayer
 62
  256
370
   -1
100
AcDbLine
 10
-644.7393282875228
 20
290.6550334484849
 11
-644.1043292875228
 21
292.5247534484848
  0
LINE
  5
167
100
AcDbEntity
  8
Layer 1
  6
ByLayer
 62
  256
370
   -1
100
AcDbLine
 10
-644.1043292875228
 20
292.5247534484848
 11
-643.2576642875227
 21
294.2886434484849
  0
LINE
  5
168
100
AcDbEntity
  8
Layer 1
  6
ByLayer
 62
  256
370
   -1
100
AcDbLine
 10
-643.2576642875227
 20
294.2886434484849
 11
-642.1640542875227
 21
295.9114134484848
  0
LINE
  5
169
100
AcDbEntity
  8
Layer 1
  6
ByLayer
 62
  256
370
   -1
100
AcDbLine
 10
-642.1640542875227
 20
295.9114134484848
 11
-640.8587842875228
 21
297.3930734484848
  0
LINE
  5
16A
100
AcDbEntity
  8
Layer 1
  6
ByLayer
 62
  256
370
   -1
100
AcDbLine
 10
-640.8587842875228
 20
297.3930734484848
 11
-639.3771242875227
 21
298.6983434484848
  0
LINE
  5
16B
100
AcDbEntity
  8
Layer 1
  6
ByLayer
 62
  256
370
   -1
100
AcDbLine
 10
-639.3771242875227
 20
298.6983434484848
 11
-637.7190742875227
 21
299.7919534484849
  0
LINE
  5
16C
100
AcDbEntity
  8
Layer 1
  6
ByLayer
 62
  256
370
   -1
100
AcDbLine
 10
-637.7190742875227
 20
299.7919534484849
 11
-635.9551942875228
 21
300.6738964484848
  0
LINE
  5
16D
100
AcDbEntity
  8
Layer 1
  6
ByLayer
 62
  256
370
   -1
100
AcDbLine
 10
-635.9551942875228
 20
300.6738964484848
 11
-634.0854742875227
 21
301.3088954484849
  0
LINE
  5
16E
100
AcDbEntity
  8
Layer 1
  6
ByLayer
 62
  256
370
   -1
100
AcDbLine
 10
-634.0854742875227
 20
301.3088954484849
 11
-632.1452042875228
 21
301.6969504484848
  0
LINE
  5
16F
100
AcDbEntity
  8
Layer 1
  6
ByLayer
 62
  256
370
   -1
100
AcDbLine
 10
-632.1452042875228
 20
301.6969504484848
 11
-630.1696542875227
 21
301.8380614484848
  0
LINE
  5
170
100
AcDbEntity
  8
Layer 1
  6
ByLayer
 62
  256
370
   -1
100
AcDbLine
 10
-630.1696542875227
 20
301.8380614484848
 11
-628.1941042875228
 21
301.6969504484848
  0
LINE
  5
171
100
AcDbEntity
  8
Layer 1
  6
ByLayer
 62
  256
370
   -1
100
AcDbLine
 10
-628.1941042875228
 20
301.6969504484848
 11
-626.2538342875227
 21
301.3088954484849
  0
LINE
  5
172
100
AcDbEntity
  8
Layer 1
  6
ByLayer
 62
  256
370
   -1
100
AcDbLine
 10
-626.2538342875227
 20
301.3088954484849
 11
-624.3841142875227
 21
300.6738964484848
  0
LINE
  5
173
100
AcDbEntity
  8
Layer 1
  6
ByLayer
 62
  256
370
   -1
100
AcDbLine
 10
-624.3841142875227
 20
300.6738964484848
 11
-622.6202342875227
 21
299.7919534484849
  0
LINE
  5
174
100
AcDbEntity
  8
Layer 1
  6
ByLayer
 62
  256
370
   -1
100
AcDbLine
 10
-622.6202342875227
 20
299.7919534484849
 11
-620.9621842875227
 21
298.6983434484848
  0
LINE
  5
175
100
AcDbEntity
  8
Layer 1
  6
ByLayer
 62
  256
370
   -1
100
AcDbLine
 10
-620.9621842875227
 20
298.6983434484848
 11
-619.4805242875227
 21
297.3930734484848
  0
LINE
  5
176
100
AcDbEntity
  8
Layer 1
  6
ByLayer
 62
  256
370
   -1
100
AcDbLine
 10
-619.4805242875227
 20
297.3930734484848
 11
-618.1752542875228
 21
295.9114134484848
  0
LINE
  5
177
100
AcDbEntity
  8
Layer 1
  6
ByLayer
 62
  256
370
   -1
100
AcDbLine
 10
-618.1752542875228
 20
295.9114134484848
 11
-617.0816442875227
 21
294.2886434484849
  0
LINE
  5
178
100
AcDbEntity
  8
Layer 1
  6
ByLayer
 62
  256
370
   -1
100
AcDbLine
 10
-617.0816442875227
 20
294.2886434484849
 11
-616.2349792875227
 21
292.5247534484848
  0
LINE
  5
179
100
AcDbEntity
  8
Layer 1
  6
ByLayer
 62
  256
370
   -1
100
AcDbLine
 10
-616.2349792875227
 20
292.5247534484848
 11
-615.5999802875227
 21
290.6550334484849
  0
LINE
  5
17A
100
AcDbEntity
  8
Layer 1
  6
ByLayer
 62
  256
370
   -1
100
AcDbLine
 10
-615.5999802875227
 20
290.6550334484849
 11
-615.2119252875227
 21
288.7147634484849
  0
LINE
  5
17B
100
AcDbEntity
  8
Layer 1
  6
ByLayer
 62
  256
370
   -1
100
AcDbLine
 10
-615.2119252875227
 20
288.7147634484849
 11
-615.0708142875228
 21
286.7392134484849
  0
LINE
  5
17C
100
AcDbEntity
  8
Layer 1
  6
ByLayer
 62
  256
370
   -1
100
AcDbLine
 10
-615.0708142875228
 20
286.7392134484849
 11
-615.2119252875227
 21
284.7636634484849
  0
LINE
  5
17D
100
AcDbEntity
  8
Layer 1
  6
ByLayer
 62
  256
370
   -1
100
AcDbLine
 10
-615.2119252875227
 20
284.7636634484849
 11
-615.5999802875227
 21
282.8233934484849
  0
LINE
  5
17E
100
AcDbEntity
  8
Layer 1
  6
ByLayer
 62
  256
370
   -1
100
AcDbLine
 10
-615.5999802875227
 20
282.8233934484849
 11
-616.2349792875227
 21
280.9536734484849
  0
LINE
  5
17F
100
AcDbEntity
  8
Layer 1
  6
ByLayer
 62
  256
370
   -1
100
AcDbLine
 10
-616.2349792875227
 20
280.9536734484849
 11
-617.0816442875227
 21
279.1897834484849
  0
LINE
  5
180
100
AcDbEntity
  8
Layer 1
  6
ByLayer
 62
  256
370
   -1
100
AcDbLine
 10
-617.0816442875227
 20
279.1897834484849
 11
-618.1752542875228
 21
277.5317334484848
  0
LINE
  5
181
100
AcDbEntity
  8
Layer 1
  6
ByLayer
 62
  256
370
   -1
100
AcDbLine
 10
-618.1752542875228
 20
277.5317334484848
 11
-619.4805242875227
 21
276.0500734484849
  0
LINE
  5
182
100
AcDbEntity
  8
Layer 1
  6
ByLayer
 62
  256
370
   -1
100
AcDbLine
 10
-619.4805242875227
 20
276.0500734484849
 11
-620.9621842875227
 21
274.7448034484848
  0
LINE
  5
183
100
AcDbEntity
  8
Layer 1
  6
ByLayer
 62
  256
370
   -1
100
AcDbLine
 10
-620.9621842875227
 20
274.7448034484848
 11
-622.6202342875227
 21
273.6511934484849
  0
LINE
  5
184
100
AcDbEntity
  8
Layer 1
  6
ByLayer
 62
  256
370
   -1
100
AcDbLine
 10
-622.6202342875227
 20
273.6511934484849
 11
-624.3841142875227
 21
272.7692504484849
  0
LINE
  5
185
100
AcDbEntity
  8
Layer 1
  6
ByLayer
 62
  256
370
   -1
100
AcDbLine
 10
-624.3841142875227
 20
272.7692504484849
 11
-626.2538342875227
 21
272.1342514484849
  0
LINE
  5
186
100
AcDbEntity
  8
Layer 1
  6
ByLayer
 62
  256
370
   -1
100
AcDbLine
 10
-626.2538342875227
 20
272.1342514484849
 11
-628.1941042875228
 21
271.7461964484849
  0
LINE
  5
187
100
AcDbEntity
  8
Layer 1
  6
ByLayer
 62
  256
370
   -1
100
AcDbLine
 10
-628.1941042875228
 20
271.7461964484849
 11
-630.1696542875227
 21
271.6403634484849
  0
LINE
  5
188
100
AcDbEntity
  8
Layer 1
  6
ByLayer
 62
  256
370
   -1
100
AcDbLine
 10
-630.1696542875227
 20
271.6403634484849
 11
-632.1452042875228
 21
271.7461964484849
  0
LINE
  5
189
100
AcDbEntity
  8
Layer 1
  6
ByLayer
 62
  256
370
   -1
100
AcDbLine
 10
-632.1452042875228
 20
271.7461964484849
 11
-634.0854742875227
 21
272.1342514484849
  0
LINE
  5
18A
100
AcDbEntity
  8
Layer 1
  6
ByLayer
 62
  256
370
   -1
100
AcDbLine
 10
-634.0854742875227
 20
272.1342514484849
 11
-635.9551942875228
 21
272.7692504484849
  0
LINE
  5
18B
100
AcDbEntity
  8
Layer 1
  6
ByLayer
 62
  256
370
   -1
100
AcDbLine
 10
-635.9551942875228
 20
272.7692504484849
 11
-637.7190742875227
 21
273.6511934484849
  0
LINE
  5
18C
100
AcDbEntity
  8
Layer 1
  6
ByLayer
 62
  256
370
   -1
100
AcDbLine
 10
-637.7190742875227
 20
273.6511934484849
 11
-639.3771242875227
 21
274.7448034484848
  0
LINE
  5
18D
100
AcDbEntity
  8
Layer 1
  6
ByLayer
 62
  256
370
   -1
100
AcDbLine
 10
-639.3771242875227
 20
274.7448034484848
 11
-640.8587842875228
 21
276.0500734484849
  0
LINE
  5
18E
100
AcDbEntity
  8
Layer 1
  6
ByLayer
 62
  256
370
   -1
100
AcDbLine
 10
-640.8587842875228
 20
276.0500734484849
 11
-642.1640542875227
 21
277.5317334484848
  0
LINE
  5
18F
100
AcDbEntity
  8
Layer 1
  6
ByLayer
 62
  256
370
   -1
100
AcDbLine
 10
-642.1640542875227
 20
277.5317334484848
 11
-643.2576642875227
 21
279.1897834484849
  0
LINE
  5
190
100
AcDbEntity
  8
Layer 1
  6
ByLayer
 62
  256
370
   -1
100
AcDbLine
 10
-643.2576642875227
 20
279.1897834484849
 11
-644.1043292875228
 21
280.9536734484849
  0
LINE
  5
191
100
AcDbEntity
  8
Layer 1
  6
ByLayer
 62
  256
370
   -1
100
AcDbLine
 10
-644.1043292875228
 20
280.9536734484849
 11
-644.7393282875228
 21
282.8233934484849
  0
LINE
  5
192
100
AcDbEntity
  8
Layer 1
  6
ByLayer
 62
  256
370
   -1
100
AcDbLine
 10
-644.7393282875228
 20
282.8233934484849
 11
-645.1273832875228
 21
284.7636634484849
  0
LINE
  5
193
100
AcDbEntity
  8
Layer 1
  6
ByLayer
 62
  256
370
   -1
100
AcDbLine
 10
-645.1273832875228
 20
284.7636634484849
 11
-645.2684942875228
 21
286.7392134484849
  0
LINE
  5
194
100
AcDbEntity
  8
Layer 1
  6
ByLayer
 62
  256
370
   -1
100
AcDbLine
 10
-630.2754942875227
 20
320.2177134484849
 11
-630.1343832875227
 21
321.9815934484848
  0
LINE
  5
195
100
AcDbEntity
  8
Layer 1
  6
ByLayer
 62
  256
370
   -1
100
AcDbLine
 10
-630.1343832875227
 20
321.9815934484848
 11
-629.7463282875227
 21
323.7102034484849
  0
LINE
  5
196
100
AcDbEntity
  8
Layer 1
  6
ByLayer
 62
  256
370
   -1
100
AcDbLine
 10
-629.7463282875227
 20
323.7102034484849
 11
-629.1113292875227
 21
325.3682534484849
  0
LINE
  5
197
100
AcDbEntity
  8
Layer 1
  6
ByLayer
 62
  256
370
   -1
100
AcDbLine
 10
-629.1113292875227
 20
325.3682534484849
 11
-628.2646642875227
 21
326.9204734484848
  0
LINE
  5
198
100
AcDbEntity
  8
Layer 1
  6
ByLayer
 62
  256
370
   -1
100
AcDbLine
 10
-628.2646642875227
 20
326.9204734484848
 11
-627.1710542875228
 21
328.2963034484848
  0
LINE
  5
199
100
AcDbEntity
  8
Layer 1
  6
ByLayer
 62
  256
370
   -1
100
AcDbLine
 10
-627.1710542875228
 20
328.2963034484848
 11
-625.9010542875227
 21
329.5310234484849
  0
LINE
  5
19A
100
AcDbEntity
  8
Layer 1
  6
ByLayer
 62
  256
370
   -1
100
AcDbLine
 10
-625.9010542875227
 20
329.5310234484849
 11
-624.4899442875228
 21
330.5540734484848
  0
LINE
  5
19B
100
AcDbEntity
  8
Layer 1
  6
ByLayer
 62
  256
370
   -1
100
AcDbLine
 10
-624.4899442875228
 20
330.5540734484848
 11
-622.9024442875227
 21
331.365460448485
  0
LINE
  5
19C
100
AcDbEntity
  8
Layer 1
  6
ByLayer
 62
  256
370
   -1
100
AcDbLine
 10
-622.9024442875227
 20
331.365460448485
 11
-621.2443942875227
 21
331.9299034484848
  0
LINE
  5
19D
100
AcDbEntity
  8
Layer 1
  6
ByLayer
 62
  256
370
   -1
100
AcDbLine
 10
-621.2443942875227
 20
331.9299034484848
 11
-619.4805042875228
 21
332.2474024484848
  0
LINE
  5
19E
100
AcDbEntity
  8
Layer 1
  6
ByLayer
 62
  256
370
   -1
100
AcDbLine
 10
-619.4805042875228
 20
332.2474024484848
 11
-617.7166242875228
 21
332.3179584484848
  0
LINE
  5
19F
100
AcDbEntity
  8
Layer 1
  6
ByLayer
 62
  256
370
   -1
100
AcDbLine
 10
-617.7166242875228
 20
332.3179584484848
 11
-615.9880142875227
 21
332.1415694484849
  0
LINE
  5
1A0
100
AcDbEntity
  8
Layer 1
  6
ByLayer
 62
  256
370
   -1
100
AcDbLine
 10
-615.9880142875227
 20
332.1415694484849
 11
-614.2594042875228
 21
331.682959448485
  0
LINE
  5
1A1
100
AcDbEntity
  8
Layer 1
  6
ByLayer
 62
  256
370
   -1
100
AcDbLine
 10
-614.2594042875228
 20
331.682959448485
 11
-612.6366342875227
 21
330.9774054484848
  0
LINE
  5
1A2
100
AcDbEntity
  8
Layer 1
  6
ByLayer
 62
  256
370
   -1
100
AcDbLine
 10
-612.6366342875227
 20
330.9774054484848
 11
-611.1196942875227
 21
330.060185448485
  0
LINE
  5
1A3
100
AcDbEntity
  8
Layer 1
  6
ByLayer
 62
  256
370
   -1
100
AcDbLine
 10
-611.1196942875227
 20
330.060185448485
 11
-609.7791442875227
 21
328.9312954484849
  0
LINE
  5
1A4
100
AcDbEntity
  8
Layer 1
  6
ByLayer
 62
  256
370
   -1
100
AcDbLine
 10
-609.7791442875227
 20
328.9312954484849
 11
-608.5797042875228
 21
327.6260254484848
  0
LINE
  5
1A5
100
AcDbEntity
  8
Layer 1
  6
ByLayer
 62
  256
370
   -1
100
AcDbLine
 10
-608.5797042875228
 20
327.6260254484848
 11
-607.6272062875228
 21
326.144365448485
  0
LINE
  5
1A6
100
AcDbEntity
  8
Layer 1
  6
ByLayer
 62
  256
370
   -1
100
AcDbLine
 10
-607.6272062875228
 20
326.144365448485
 11
-606.8510972875227
 21
324.5568654484848
  0
LINE
  5
1A7
100
AcDbEntity
  8
Layer 1
  6
ByLayer
 62
  256
370
   -1
100
AcDbLine
 10
-606.8510972875227
 20
324.5568654484848
 11
-606.3572092875228
 21
322.8635354484848
  0
LINE
  5
1A8
100
AcDbEntity
  8
Layer 1
  6
ByLayer
 62
  256
370
   -1
100
AcDbLine
 10
-606.3572092875228
 20
322.8635354484848
 11
-606.1102652875227
 21
321.0996454484849
  0
LINE
  5
1A9
100
AcDbEntity
  8
Layer 1
  6
ByLayer
 62
  256
370
   -1
100
AcDbLine
 10
-606.1102652875227
 20
321.0996454484849
 11
-606.1096862875228
 21
319.3354614484849
  0
LINE
  5
1AA
100
AcDbEntity
  8
Layer 1
  6
ByLayer
 62
  256
370
   -1
100
AcDbLine
 10
-606.1096862875228
 20
319.3354614484849
 11
-606.3566302875228
 21
317.6068514484849
  0
LINE
  5
1AB
100
AcDbEntity
  8
Layer 1
  6
ByLayer
 62
  256
370
   -1
100
AcDbLine
 10
-606.3566302875228
 20
317.6068514484849
 11
-606.8505182875227
 21
315.9135214484849
  0
LINE
  5
1AC
100
AcDbEntity
  8
Layer 1
  6
ByLayer
 62
  256
370
   -1
100
AcDbLine
 10
-606.8505182875227
 20
315.9135214484849
 11
-607.6266272875228
 21
314.2907514484849
  0
LINE
  5
1AD
100
AcDbEntity
  8
Layer 1
  6
ByLayer
 62
  256
370
   -1
100
AcDbLine
 10
-607.6266272875228
 20
314.2907514484849
 11
-608.5791252875227
 21
312.8443614484848
  0
LINE
  5
1AE
100
AcDbEntity
  8
Layer 1
  6
ByLayer
 62
  256
370
   -1
100
AcDbLine
 10
-608.5791252875227
 20
312.8443614484848
 11
-609.7785652875227
 21
311.5038114484848
  0
LINE
  5
1AF
100
AcDbEntity
  8
Layer 1
  6
ByLayer
 62
  256
370
   -1
100
AcDbLine
 10
-609.7785652875227
 20
311.5038114484848
 11
-611.1191152875227
 21
310.3749214484848
  0
LINE
  5
1B0
100
AcDbEntity
  8
Layer 1
  6
ByLayer
 62
  256
370
   -1
100
AcDbLine
 10
-611.1191152875227
 20
310.3749214484848
 11
-612.6360552875227
 21
309.4577014484848
  0
LINE
  5
1B1
100
AcDbEntity
  8
Layer 1
  6
ByLayer
 62
  256
370
   -1
100
AcDbLine
 10
-612.6360552875227
 20
309.4577014484848
 11
-614.2588252875228
 21
308.787425448485
  0
LINE
  5
1B2
100
AcDbEntity
  8
Layer 1
  6
ByLayer
 62
  256
370
   -1
100
AcDbLine
 10
-614.2588252875228
 20
308.787425448485
 11
-615.9874352875228
 21
308.3288154484848
  0
LINE
  5
1B3
100
AcDbEntity
  8
Layer 1
  6
ByLayer
 62
  256
370
   -1
100
AcDbLine
 10
-615.9874352875228
 20
308.3288154484848
 11
-617.7160452875228
 21
308.152426448485
  0
LINE
  5
1B4
100
AcDbEntity
  8
Layer 1
  6
ByLayer
 62
  256
370
   -1
100
AcDbLine
 10
-617.7160452875228
 20
308.152426448485
 11
-619.4799252875227
 21
308.1877044484849
  0
LINE
  5
1B5
100
AcDbEntity
  8
Layer 1
  6
ByLayer
 62
  256
370
   -1
100
AcDbLine
 10
-619.4799252875227
 20
308.1877044484849
 11
-621.2438152875227
 21
308.5404814484849
  0
LINE
  5
1B6
100
AcDbEntity
  8
Layer 1
  6
ByLayer
 62
  256
370
   -1
100
AcDbLine
 10
-621.2438152875227
 20
308.5404814484849
 11
-622.9018652875227
 21
309.104924448485
  0
LINE
  5
1B7
100
AcDbEntity
  8
Layer 1
  6
ByLayer
 62
  256
370
   -1
100
AcDbLine
 10
-622.9018652875227
 20
309.104924448485
 11
-624.4893652875228
 21
309.9163114484849
  0
LINE
  5
1B8
100
AcDbEntity
  8
Layer 1
  6
ByLayer
 62
  256
370
   -1
100
AcDbLine
 10
-624.4893652875228
 20
309.9163114484849
 11
-625.9004752875228
 21
310.9393614484848
  0
LINE
  5
1B9
100
AcDbEntity
  8
Layer 1
  6
ByLayer
 62
  256
370
   -1
100
AcDbLine
 10
-625.9004752875228
 20
310.9393614484848
 11
-627.1704752875228
 21
312.1388014484849
  0
LINE
  5
1BA
100
AcDbEntity
  8
Layer 1
  6
ByLayer
 62
  256
370
   -1
100
AcDbLine
 10
-627.1704752875228
 20
312.1388014484849
 11
-628.2640852875227
 21
313.5499114484849
  0
LINE
  5
1BB
100
AcDbEntity
  8
Layer 1
  6
ByLayer
 62
  256
370
   -1
100
AcDbLine
 10
-628.2640852875227
 20
313.5499114484849
 11
-629.1107502875227
 21
315.102131448485
  0
LINE
  5
1BC
100
AcDbEntity
  8
Layer 1
  6
ByLayer
 62
  256
370
   -1
100
AcDbLine
 10
-629.1107502875227
 20
315.102131448485
 11
-629.7457492875227
 21
316.760181448485
  0
LINE
  5
1BD
100
AcDbEntity
  8
Layer 1
  6
ByLayer
 62
  256
370
   -1
100
AcDbLine
 10
-629.7457492875227
 20
316.760181448485
 11
-630.1338042875227
 21
318.4535114484848
  0
LINE
  5
1BE
100
AcDbEntity
  8
Layer 1
  6
ByLayer
 62
  256
370
   -1
100
AcDbLine
 10
-630.1338042875227
 20
318.4535114484848
 11
-630.2749152875227
 21
320.217401448485
  0
LINE
  5
1BF
100
AcDbEntity
  8
Layer 1
  6
ByLayer
 62
  256
370
   -1
100
AcDbLine
 10
-603.7813152875227
 20
331.224001448485
 11
-603.6402042875227
 21
332.987891448485
  0
LINE
  5
1C0
100
AcDbEntity
  8
Layer 1
  6
ByLayer
 62
  256
370
   -1
100
AcDbLine
 10
-603.6402042875227
 20
332.987891448485
 11
-603.2521492875228
 21
334.716501448485
  0
LINE
  5
1C1
100
AcDbEntity
  8
Layer 1
  6
ByLayer
 62
  256
370
   -1
100
AcDbLine
 10
-603.2521492875228
 20
334.716501448485
 11
-602.6171502875227
 21
336.374551448485
  0
LINE
  5
1C2
100
AcDbEntity
  8
Layer 1
  6
ByLayer
 62
  256
370
   -1
100
AcDbLine
 10
-602.6171502875227
 20
336.374551448485
 11
-601.7704852875228
 21
337.8914914484848
  0
LINE
  5
1C3
100
AcDbEntity
  8
Layer 1
  6
ByLayer
 62
  256
370
   -1
100
AcDbLine
 10
-601.7704852875228
 20
337.8914914484848
 11
-600.6768752875228
 21
339.3026014484849
  0
LINE
  5
1C4
100
AcDbEntity
  8
Layer 1
  6
ByLayer
 62
  256
370
   -1
100
AcDbLine
 10
-600.6768752875228
 20
339.3026014484849
 11
-599.4068752875228
 21
340.5373214484848
  0
LINE
  5
1C5
100
AcDbEntity
  8
Layer 1
  6
ByLayer
 62
  256
370
   -1
100
AcDbLine
 10
-599.4068752875228
 20
340.5373214484848
 11
-597.9604852875227
 21
341.5603714484848
  0
LINE
  5
1C6
100
AcDbEntity
  8
Layer 1
  6
ByLayer
 62
  256
370
   -1
100
AcDbLine
 10
-597.9604852875227
 20
341.5603714484848
 11
-596.4082652875227
 21
342.3717584484849
  0
LINE
  5
1C7
100
AcDbEntity
  8
Layer 1
  6
ByLayer
 62
  256
370
   -1
100
AcDbLine
 10
-596.4082652875227
 20
342.3717584484849
 11
-594.7149352875227
 21
342.936201448485
  0
LINE
  5
1C8
100
AcDbEntity
  8
Layer 1
  6
ByLayer
 62
  256
370
   -1
100
AcDbLine
 10
-594.7149352875227
 20
342.936201448485
 11
-592.9863252875227
 21
343.2537004484849
  0
LINE
  5
1C9
100
AcDbEntity
  8
Layer 1
  6
ByLayer
 62
  256
370
   -1
100
AcDbLine
 10
-592.9863252875227
 20
343.2537004484849
 11
-591.2224352875228
 21
343.324255448485
  0
LINE
  5
1CA
100
AcDbEntity
  8
Layer 1
  6
ByLayer
 62
  256
370
   -1
100
AcDbLine
 10
-591.2224352875228
 20
343.324255448485
 11
-589.4585552875227
 21
343.1125894484848
  0
LINE
  5
1CB
100
AcDbEntity
  8
Layer 1
  6
ByLayer
 62
  256
370
   -1
100
AcDbLine
 10
-589.4585552875227
 20
343.1125894484848
 11
-587.7652252875228
 21
342.689257448485
  0
LINE
  5
1CC
100
AcDbEntity
  8
Layer 1
  6
ByLayer
 62
  256
370
   -1
100
AcDbLine
 10
-587.7652252875228
 20
342.689257448485
 11
-586.1424552875228
 21
341.983703448485
  0
LINE
  5
1CD
100
AcDbEntity
  8
Layer 1
  6
ByLayer
 62
  256
370
   -1
100
AcDbLine
 10
-586.1424552875228
 20
341.983703448485
 11
-584.6255152875227
 21
341.0664834484849
  0
LINE
  5
1CE
100
AcDbEntity
  8
Layer 1
  6
ByLayer
 62
  256
370
   -1
100
AcDbLine
 10
-584.6255152875227
 20
341.0664834484849
 11
-583.2849652875227
 21
339.937593448485
  0
LINE
  5
1CF
100
AcDbEntity
  8
Layer 1
  6
ByLayer
 62
  256
370
   -1
100
AcDbLine
 10
-583.2849652875227
 20
339.937593448485
 11
-582.0855252875227
 21
338.632323448485
  0
LINE
  5
1D0
100
AcDbEntity
  8
Layer 1
  6
ByLayer
 62
  256
370
   -1
100
AcDbLine
 10
-582.0855252875227
 20
338.632323448485
 11
-581.1330272875227
 21
337.1506634484849
  0
LINE
  5
1D1
100
AcDbEntity
  8
Layer 1
  6
ByLayer
 62
  256
370
   -1
100
AcDbLine
 10
-581.1330272875227
 20
337.1506634484849
 11
-580.3569182875227
 21
335.5631634484848
  0
LINE
  5
1D2
100
AcDbEntity
  8
Layer 1
  6
ByLayer
 62
  256
370
   -1
100
AcDbLine
 10
-580.3569182875227
 20
335.5631634484848
 11
-579.8630302875227
 21
333.8698334484848
  0
LINE
  5
1D3
100
AcDbEntity
  8
Layer 1
  6
ByLayer
 62
  256
370
   -1
100
AcDbLine
 10
-579.8630302875227
 20
333.8698334484848
 11
-579.6160862875228
 21
332.1059434484848
  0
LINE
  5
1D4
100
AcDbEntity
  8
Layer 1
  6
ByLayer
 62
  256
370
   -1
100
AcDbLine
 10
-579.6160862875228
 20
332.1059434484848
 11
-579.6166862875227
 21
330.3424614484848
  0
LINE
  5
1D5
100
AcDbEntity
  8
Layer 1
  6
ByLayer
 62
  256
370
   -1
100
AcDbLine
 10
-579.6166862875227
 20
330.3424614484848
 11
-579.8636302875227
 21
328.6138514484849
  0
LINE
  5
1D6
100
AcDbEntity
  8
Layer 1
  6
ByLayer
 62
  256
370
   -1
100
AcDbLine
 10
-579.8636302875227
 20
328.6138514484849
 11
-580.3575182875227
 21
326.9205214484849
  0
LINE
  5
1D7
100
AcDbEntity
  8
Layer 1
  6
ByLayer
 62
  256
370
   -1
100
AcDbLine
 10
-580.3575182875227
 20
326.9205214484849
 11
-581.1336272875227
 21
325.2977514484849
  0
LINE
  5
1D8
100
AcDbEntity
  8
Layer 1
  6
ByLayer
 62
  256
370
   -1
100
AcDbLine
 10
-581.1336272875227
 20
325.2977514484849
 11
-582.0861252875227
 21
323.851361448485
  0
LINE
  5
1D9
100
AcDbEntity
  8
Layer 1
  6
ByLayer
 62
  256
370
   -1
100
AcDbLine
 10
-582.0861252875227
 20
323.851361448485
 11
-583.2855652875228
 21
322.510811448485
  0
LINE
  5
1DA
100
AcDbEntity
  8
Layer 1
  6
ByLayer
 62
  256
370
   -1
100
AcDbLine
 10
-583.2855652875228
 20
322.510811448485
 11
-584.6261152875227
 21
321.3819214484849
  0
LINE
  5
1DB
100
AcDbEntity
  8
Layer 1
  6
ByLayer
 62
  256
370
   -1
100
AcDbLine
 10
-584.6261152875227
 20
321.3819214484849
 11
-586.1430552875228
 21
320.464701448485
  0
LINE
  5
1DC
100
AcDbEntity
  8
Layer 1
  6
ByLayer
 62
  256
370
   -1
100
AcDbLine
 10
-586.1430552875228
 20
320.464701448485
 11
-587.7658252875227
 21
319.794425448485
  0
LINE
  5
1DD
100
AcDbEntity
  8
Layer 1
  6
ByLayer
 62
  256
370
   -1
100
AcDbLine
 10
-587.7658252875227
 20
319.794425448485
 11
-589.4591552875228
 21
319.3358154484848
  0
LINE
  5
1DE
100
AcDbEntity
  8
Layer 1
  6
ByLayer
 62
  256
370
   -1
100
AcDbLine
 10
-589.4591552875228
 20
319.3358154484848
 11
-591.2230352875227
 21
319.124149448485
  0
LINE
  5
1DF
100
AcDbEntity
  8
Layer 1
  6
ByLayer
 62
  256
370
   -1
100
AcDbLine
 10
-591.2230352875227
 20
319.124149448485
 11
-592.9869252875228
 21
319.1947044484849
  0
LINE
  5
1E0
100
AcDbEntity
  8
Layer 1
  6
ByLayer
 62
  256
370
   -1
100
AcDbLine
 10
-592.9869252875228
 20
319.1947044484849
 11
-594.7155352875227
 21
319.5122034484849
  0
LINE
  5
1E1
100
AcDbEntity
  8
Layer 1
  6
ByLayer
 62
  256
370
   -1
100
AcDbLine
 10
-594.7155352875227
 20
319.5122034484849
 11
-596.4088652875228
 21
320.076646448485
  0
LINE
  5
1E2
100
AcDbEntity
  8
Layer 1
  6
ByLayer
 62
  256
370
   -1
100
AcDbLine
 10
-596.4088652875228
 20
320.076646448485
 11
-597.9610852875228
 21
320.8880334484849
  0
LINE
  5
1E3
100
AcDbEntity
  8
Layer 1
  6
ByLayer
 62
  256
370
   -1
100
AcDbLine
 10
-597.9610852875228
 20
320.8880334484849
 11
-599.4074752875227
 21
321.9463634484848
  0
LINE
  5
1E4
100
AcDbEntity
  8
Layer 1
  6
ByLayer
 62
  256
370
   -1
100
AcDbLine
 10
-599.4074752875227
 20
321.9463634484848
 11
-600.6774752875227
 21
323.1458034484849
  0
LINE
  5
1E5
100
AcDbEntity
  8
Layer 1
  6
ByLayer
 62
  256
370
   -1
100
AcDbLine
 10
-600.6774752875227
 20
323.1458034484849
 11
-601.7710852875227
 21
324.5569134484849
  0
LINE
  5
1E6
100
AcDbEntity
  8
Layer 1
  6
ByLayer
 62
  256
370
   -1
100
AcDbLine
 10
-601.7710852875227
 20
324.5569134484849
 11
-602.6177502875228
 21
326.109133448485
  0
LINE
  5
1E7
100
AcDbEntity
  8
Layer 1
  6
ByLayer
 62
  256
370
   -1
100
AcDbLine
 10
-602.6177502875228
 20
326.109133448485
 11
-603.2527492875228
 21
327.731903448485
  0
LINE
  5
1E8
100
AcDbEntity
  8
Layer 1
  6
ByLayer
 62
  256
370
   -1
100
AcDbLine
 10
-603.2527492875228
 20
327.731903448485
 11
-603.6408042875228
 21
329.460513448485
  0
LINE
  5
1E9
100
AcDbEntity
  8
Layer 1
  6
ByLayer
 62
  256
370
   -1
100
AcDbLine
 10
-603.6408042875228
 20
329.460513448485
 11
-603.7819152875227
 21
331.2244034484848
  0
LINE
  5
1EA
100
AcDbEntity
  8
Layer 1
  6
ByLayer
 62
  256
370
   -1
100
AcDbLine
 10
-682.8717912875227
 20
286.7392134484849
 11
-682.7306802875228
 21
288.7147634484849
  0
LINE
  5
1EB
100
AcDbEntity
  8
Layer 1
  6
ByLayer
 62
  256
370
   -1
100
AcDbLine
 10
-682.7306802875228
 20
288.7147634484849
 11
-682.3426252875228
 21
290.6550334484849
  0
LINE
  5
1EC
100
AcDbEntity
  8
Layer 1
  6
ByLayer
 62
  256
370
   -1
100
AcDbLine
 10
-682.3426252875228
 20
290.6550334484849
 11
-681.7076262875228
 21
292.5247534484848
  0
LINE
  5
1ED
100
AcDbEntity
  8
Layer 1
  6
ByLayer
 62
  256
370
   -1
100
AcDbLine
 10
-681.7076262875228
 20
292.5247534484848
 11
-680.8609612875227
 21
294.2886434484849
  0
LINE
  5
1EE
100
AcDbEntity
  8
Layer 1
  6
ByLayer
 62
  256
370
   -1
100
AcDbLine
 10
-680.8609612875227
 20
294.2886434484849
 11
-679.7673512875227
 21
295.9114134484848
  0
LINE
  5
1EF
100
AcDbEntity
  8
Layer 1
  6
ByLayer
 62
  256
370
   -1
100
AcDbLine
 10
-679.7673512875227
 20
295.9114134484848
 11
-678.4620812875228
 21
297.3930734484848
  0
LINE
  5
1F0
100
AcDbEntity
  8
Layer 1
  6
ByLayer
 62
  256
370
   -1
100
AcDbLine
 10
-678.4620812875228
 20
297.3930734484848
 11
-676.9804212875227
 21
298.6983434484848
  0
LINE
  5
1F1
100
AcDbEntity
  8
Layer 1
  6
ByLayer
 62
  256
370
   -1
100
AcDbLine
 10
-676.9804212875227
 20
298.6983434484848
 11
-675.3223712875227
 21
299.7919534484849
  0
LINE
  5
1F2
100
AcDbEntity
  8
Layer 1
  6
ByLayer
 62
  256
370
   -1
100
AcDbLine
 10
-675.3223712875227
 20
299.7919534484849
 11
-673.5584912875228
 21
300.6738964484848
  0
LINE
  5
1F3
100
AcDbEntity
  8
Layer 1
  6
ByLayer
 62
  256
370
   -1
100
AcDbLine
 10
-673.5584912875228
 20
300.6738964484848
 11
-671.6887712875227
 21
301.3088954484849
  0
LINE
  5
1F4
100
AcDbEntity
  8
Layer 1
  6
ByLayer
 62
  256
370
   -1
100
AcDbLine
 10
-671.6887712875227
 20
301.3088954484849
 11
-669.7485012875227
 21
301.6969504484848
  0
LINE
  5
1F5
100
AcDbEntity
  8
Layer 1
  6
ByLayer
 62
  256
370
   -1
100
AcDbLine
 10
-669.7485012875227
 20
301.6969504484848
 11
-667.7729512875228
 21
301.8380614484848
  0
LINE
  5
1F6
100
AcDbEntity
  8
Layer 1
  6
ByLayer
 62
  256
370
   -1
100
AcDbLine
 10
-667.7729512875228
 20
301.8380614484848
 11
-665.7974012875227
 21
301.6969504484848
  0
LINE
  5
1F7
100
AcDbEntity
  8
Layer 1
  6
ByLayer
 62
  256
370
   -1
100
AcDbLine
 10
-665.7974012875227
 20
301.6969504484848
 11
-663.8571312875227
 21
301.3088954484849
  0
LINE
  5
1F8
100
AcDbEntity
  8
Layer 1
  6
ByLayer
 62
  256
370
   -1
100
AcDbLine
 10
-663.8571312875227
 20
301.3088954484849
 11
-661.9874112875227
 21
300.6738964484848
  0
LINE
  5
1F9
100
AcDbEntity
  8
Layer 1
  6
ByLayer
 62
  256
370
   -1
100
AcDbLine
 10
-661.9874112875227
 20
300.6738964484848
 11
-660.2235312875227
 21
299.7919534484849
  0
LINE
  5
1FA
100
AcDbEntity
  8
Layer 1
  6
ByLayer
 62
  256
370
   -1
100
AcDbLine
 10
-660.2235312875227
 20
299.7919534484849
 11
-658.5654812875227
 21
298.6983434484848
  0
LINE
  5
1FB
100
AcDbEntity
  8
Layer 1
  6
ByLayer
 62
  256
370
   -1
100
AcDbLine
 10
-658.5654812875227
 20
298.6983434484848
 11
-657.0838212875227
 21
297.3930734484848
  0
LINE
  5
1FC
100
AcDbEntity
  8
Layer 1
  6
ByLayer
 62
  256
370
   -1
100
AcDbLine
 10
-657.0838212875227
 20
297.3930734484848
 11
-655.7785512875228
 21
295.9114134484848
  0
LINE
  5
1FD
100
AcDbEntity
  8
Layer 1
  6
ByLayer
 62
  256
370
   -1
100
AcDbLine
 10
-655.7785512875228
 20
295.9114134484848
 11
-654.6849412875227
 21
294.2886434484849
  0
LINE
  5
1FE
100
AcDbEntity
  8
Layer 1
  6
ByLayer
 62
  256
370
   -1
100
AcDbLine
 10
-654.6849412875227
 20
294.2886434484849
 11
-653.8382762875227
 21
292.5247534484848
  0
LINE
  5
1FF
100
AcDbEntity
  8
Layer 1
  6
ByLayer
 62
  256
370
   -1
100
AcDbLine
 10
-653.8382762875227
 20
292.5247534484848
 11
-653.2032772875227
 21
290.6550334484849
  0
LINE
  5
200
100
AcDbEntity
  8
Layer 1
  6
ByLayer
 62
  256
370
   -1
100
AcDbLine
 10
-653.2032772875227
 20
290.6550334484849
 11
-652.8152222875227
 21
288.7147634484849
  0
LINE
  5
201
100
AcDbEntity
  8
Layer 1
  6
ByLayer
 62
  256
370
   -1
100
AcDbLine
 10
-652.8152222875227
 20
288.7147634484849
 11
-652.6741112875227
 21
286.7392134484849
  0
LINE
  5
202
100
AcDbEntity
  8
Layer 1
  6
ByLayer
 62
  256
370
   -1
100
AcDbLine
 10
-652.6741112875227
 20
286.7392134484849
 11
-652.8152222875227
 21
284.7636634484849
  0
LINE
  5
203
100
AcDbEntity
  8
Layer 1
  6
ByLayer
 62
  256
370
   -1
100
AcDbLine
 10
-652.8152222875227
 20
284.7636634484849
 11
-653.2032772875227
 21
282.8233934484849
  0
LINE
  5
204
100
AcDbEntity
  8
Layer 1
  6
ByLayer
 62
  256
370
   -1
100
AcDbLine
 10
-653.2032772875227
 20
282.8233934484849
 11
-653.8382762875227
 21
280.9536734484849
  0
LINE
  5
205
100
AcDbEntity
  8
Layer 1
  6
ByLayer
 62
  256
370
   -1
100
AcDbLine
 10
-653.8382762875227
 20
280.9536734484849
 11
-654.6849412875227
 21
279.1897834484849
  0
LINE
  5
206
100
AcDbEntity
  8
Layer 1
  6
ByLayer
 62
  256
370
   -1
100
AcDbLine
 10
-654.6849412875227
 20
279.1897834484849
 11
-655.7785512875228
 21
277.5317334484848
  0
LINE
  5
207
100
AcDbEntity
  8
Layer 1
  6
ByLayer
 62
  256
370
   -1
100
AcDbLine
 10
-655.7785512875228
 20
277.5317334484848
 11
-657.0838212875227
 21
276.0500734484849
  0
LINE
  5
208
100
AcDbEntity
  8
Layer 1
  6
ByLayer
 62
  256
370
   -1
100
AcDbLine
 10
-657.0838212875227
 20
276.0500734484849
 11
-658.5654812875227
 21
274.7448034484848
  0
LINE
  5
209
100
AcDbEntity
  8
Layer 1
  6
ByLayer
 62
  256
370
   -1
100
AcDbLine
 10
-658.5654812875227
 20
274.7448034484848
 11
-660.2235312875227
 21
273.6511934484849
  0
LINE
  5
20A
100
AcDbEntity
  8
Layer 1
  6
ByLayer
 62
  256
370
   -1
100
AcDbLine
 10
-660.2235312875227
 20
273.6511934484849
 11
-661.9874112875227
 21
272.7692504484849
  0
LINE
  5
20B
100
AcDbEntity
  8
Layer 1
  6
ByLayer
 62
  256
370
   -1
100
AcDbLine
 10
-661.9874112875227
 20
272.7692504484849
 11
-663.8571312875227
 21
272.1342514484849
  0
LINE
  5
20C
100
AcDbEntity
  8
Layer 1
  6
ByLayer
 62
  256
370
   -1
100
AcDbLine
 10
-663.8571312875227
 20
272.1342514484849
 11
-665.7974012875227
 21
271.7461964484849
  0
LINE
  5
20D
100
AcDbEntity
  8
Layer 1
  6
ByLayer
 62
  256
370
   -1
100
AcDbLine
 10
-665.7974012875227
 20
271.7461964484849
 11
-667.7729512875228
 21
271.6403634484849
  0
LINE
  5
20E
100
AcDbEntity
  8
Layer 1
  6
ByLayer
 62
  256
370
   -1
100
AcDbLine
 10
-667.7729512875228
 20
271.6403634484849
 11
-669.7485012875227
 21
271.7461964484849
  0
LINE
  5
20F
100
AcDbEntity
  8
Layer 1
  6
ByLayer
 62
  256
370
   -1
100
AcDbLine
 10
-669.7485012875227
 20
271.7461964484849
 11
-671.6887712875227
 21
272.1342514484849
  0
LINE
  5
210
100
AcDbEntity
  8
Layer 1
  6
ByLayer
 62
  256
370
   -1
100
AcDbLine
 10
-671.6887712875227
 20
272.1342514484849
 11
-673.5584912875228
 21
272.7692504484849
  0
LINE
  5
211
100
AcDbEntity
  8
Layer 1
  6
ByLayer
 62
  256
370
   -1
100
AcDbLine
 10
-673.5584912875228
 20
272.7692504484849
 11
-675.3223712875227
 21
273.6511934484849
  0
LINE
  5
212
100
AcDbEntity
  8
Layer 1
  6
ByLayer
 62
  256
370
   -1
100
AcDbLine
 10
-675.3223712875227
 20
273.6511934484849
 11
-676.9804212875227
 21
274.7448034484848
  0
LINE
  5
213
100
AcDbEntity
  8
Layer 1
  6
ByLayer
 62
  256
370
   -1
100
AcDbLine
 10
-676.9804212875227
 20
274.7448034484848
 11
-678.4620812875228
 21
276.0500734484849
  0
LINE
  5
214
100
AcDbEntity
  8
Layer 1
  6
ByLayer
 62
  256
370
   -1
100
AcDbLine
 10
-678.4620812875228
 20
276.0500734484849
 11
-679.7673512875227
 21
277.5317334484848
  0
LINE
  5
215
100
AcDbEntity
  8
Layer 1
  6
ByLayer
 62
  256
370
   -1
100
AcDbLine
 10
-679.7673512875227
 20
277.5317334484848
 11
-680.8609612875227
 21
279.1897834484849
  0
LINE
  5
216
100
AcDbEntity
  8
Layer 1
  6
ByLayer
 62
  256
370
   -1
100
AcDbLine
 10
-680.8609612875227
 20
279.1897834484849
 11
-681.7076262875228
 21
280.9536734484849
  0
LINE
  5
217
100
AcDbEntity
  8
Layer 1
  6
ByLayer
 62
  256
370
   -1
100
AcDbLine
 10
-681.7076262875228
 20
280.9536734484849
 11
-682.3426252875228
 21
282.8233934484849
  0
LINE
  5
218
100
AcDbEntity
  8
Layer 1
  6
ByLayer
 62
  256
370
   -1
100
AcDbLine
 10
-682.3426252875228
 20
282.8233934484849
 11
-682.7306802875228
 21
284.7636634484849
  0
LINE
  5
219
100
AcDbEntity
  8
Layer 1
  6
ByLayer
 62
  256
370
   -1
100
AcDbLine
 10
-682.7306802875228
 20
284.7636634484849
 11
-682.8717912875227
 21
286.7392134484849
  0
LINE
  5
21A
100
AcDbEntity
  8
Layer 1
  6
ByLayer
 62
  256
370
   -1
100
AcDbLine
 10
-714.5371082875228
 20
299.0659554484848
 11
-714.4312752875228
 21
300.8298454484849
  0
LINE
  5
21B
100
AcDbEntity
  8
Layer 1
  6
ByLayer
 62
  256
370
   -1
100
AcDbLine
 10
-714.4312752875228
 20
300.8298454484849
 11
-714.0432202875228
 21
302.5584554484849
  0
LINE
  5
21C
100
AcDbEntity
  8
Layer 1
  6
ByLayer
 62
  256
370
   -1
100
AcDbLine
 10
-714.0432202875228
 20
302.5584554484849
 11
-713.4082212875228
 21
304.216505448485
  0
LINE
  5
21D
100
AcDbEntity
  8
Layer 1
  6
ByLayer
 62
  256
370
   -1
100
AcDbLine
 10
-713.4082212875228
 20
304.216505448485
 11
-712.5262782875227
 21
305.7334454484848
  0
LINE
  5
21E
100
AcDbEntity
  8
Layer 1
  6
ByLayer
 62
  256
370
   -1
100
AcDbLine
 10
-712.5262782875227
 20
305.7334454484848
 11
-711.4679482875227
 21
307.1445554484848
  0
LINE
  5
21F
100
AcDbEntity
  8
Layer 1
  6
ByLayer
 62
  256
370
   -1
100
AcDbLine
 10
-711.4679482875227
 20
307.1445554484848
 11
-710.1979482875228
 21
308.3792754484849
  0
LINE
  5
220
100
AcDbEntity
  8
Layer 1
  6
ByLayer
 62
  256
370
   -1
100
AcDbLine
 10
-710.1979482875228
 20
308.3792754484849
 11
-708.7515582875227
 21
309.4023254484848
  0
LINE
  5
221
100
AcDbEntity
  8
Layer 1
  6
ByLayer
 62
  256
370
   -1
100
AcDbLine
 10
-708.7515582875227
 20
309.4023254484848
 11
-707.1993382875228
 21
310.213712448485
  0
LINE
  5
222
100
AcDbEntity
  8
Layer 1
  6
ByLayer
 62
  256
370
   -1
100
AcDbLine
 10
-707.1993382875228
 20
310.213712448485
 11
-705.5060082875227
 21
310.7781554484848
  0
LINE
  5
223
100
AcDbEntity
  8
Layer 1
  6
ByLayer
 62
  256
370
   -1
100
AcDbLine
 10
-705.5060082875227
 20
310.7781554484848
 11
-703.7773982875227
 21
311.0956544484848
  0
LINE
  5
224
100
AcDbEntity
  8
Layer 1
  6
ByLayer
 62
  256
370
   -1
100
AcDbLine
 10
-703.7773982875227
 20
311.0956544484848
 11
-702.0135182875227
 21
311.1662104484849
  0
LINE
  5
225
100
AcDbEntity
  8
Layer 1
  6
ByLayer
 62
  256
370
   -1
100
AcDbLine
 10
-702.0135182875227
 20
311.1662104484849
 11
-700.2496282875227
 21
310.9545444484849
  0
LINE
  5
226
100
AcDbEntity
  8
Layer 1
  6
ByLayer
 62
  256
370
   -1
100
AcDbLine
 10
-700.2496282875227
 20
310.9545444484849
 11
-698.5562982875227
 21
310.531212448485
  0
LINE
  5
227
100
AcDbEntity
  8
Layer 1
  6
ByLayer
 62
  256
370
   -1
100
AcDbLine
 10
-698.5562982875227
 20
310.531212448485
 11
-696.9335282875227
 21
309.8256584484848
  0
LINE
  5
228
100
AcDbEntity
  8
Layer 1
  6
ByLayer
 62
  256
370
   -1
100
AcDbLine
 10
-696.9335282875227
 20
309.8256584484848
 11
-695.4165882875227
 21
308.908438448485
  0
LINE
  5
229
100
AcDbEntity
  8
Layer 1
  6
ByLayer
 62
  256
370
   -1
100
AcDbLine
 10
-695.4165882875227
 20
308.908438448485
 11
-694.0407582875227
 21
307.7795484484849
  0
LINE
  5
22A
100
AcDbEntity
  8
Layer 1
  6
ByLayer
 62
  256
370
   -1
100
AcDbLine
 10
-694.0407582875227
 20
307.7795484484849
 11
-692.8765982875227
 21
306.4742784484848
  0
LINE
  5
22B
100
AcDbEntity
  8
Layer 1
  6
ByLayer
 62
  256
370
   -1
100
AcDbLine
 10
-692.8765982875227
 20
306.4742784484848
 11
-691.8888222875228
 21
304.992618448485
  0
LINE
  5
22C
100
AcDbEntity
  8
Layer 1
  6
ByLayer
 62
  256
370
   -1
100
AcDbLine
 10
-691.8888222875228
 20
304.992618448485
 11
-691.1479902875227
 21
303.4051184484848
  0
LINE
  5
22D
100
AcDbEntity
  8
Layer 1
  6
ByLayer
 62
  256
370
   -1
100
AcDbLine
 10
-691.1479902875227
 20
303.4051184484848
 11
-690.6541022875227
 21
301.7117884484848
  0
LINE
  5
22E
100
AcDbEntity
  8
Layer 1
  6
ByLayer
 62
  256
370
   -1
100
AcDbLine
 10
-690.6541022875227
 20
301.7117884484848
 11
-690.3718802875228
 21
299.947908448485
  0
LINE
  5
22F
100
AcDbEntity
  8
Layer 1
  6
ByLayer
 62
  256
370
   -1
100
AcDbLine
 10
-690.3718802875228
 20
299.947908448485
 11
-690.3709902875228
 21
298.183903448485
  0
LINE
  5
230
100
AcDbEntity
  8
Layer 1
  6
ByLayer
 62
  256
370
   -1
100
AcDbLine
 10
-690.3709902875228
 20
298.183903448485
 11
-690.6532122875227
 21
296.4200234484848
  0
LINE
  5
231
100
AcDbEntity
  8
Layer 1
  6
ByLayer
 62
  256
370
   -1
100
AcDbLine
 10
-690.6532122875227
 20
296.4200234484848
 11
-691.1471002875228
 21
294.7619734484848
  0
LINE
  5
232
100
AcDbEntity
  8
Layer 1
  6
ByLayer
 62
  256
370
   -1
100
AcDbLine
 10
-691.1471002875228
 20
294.7619734484848
 11
-691.8879322875227
 21
293.1392034484849
  0
LINE
  5
233
100
AcDbEntity
  8
Layer 1
  6
ByLayer
 62
  256
370
   -1
100
AcDbLine
 10
-691.8879322875227
 20
293.1392034484849
 11
-692.8757082875227
 21
291.6575434484848
  0
LINE
  5
234
100
AcDbEntity
  8
Layer 1
  6
ByLayer
 62
  256
370
   -1
100
AcDbLine
 10
-692.8757082875227
 20
291.6575434484848
 11
-694.0398682875227
 21
290.3522734484848
  0
LINE
  5
235
100
AcDbEntity
  8
Layer 1
  6
ByLayer
 62
  256
370
   -1
100
AcDbLine
 10
-694.0398682875227
 20
290.3522734484848
 11
-695.4156982875228
 21
289.2233834484848
  0
LINE
  5
236
100
AcDbEntity
  8
Layer 1
  6
ByLayer
 62
  256
370
   -1
100
AcDbLine
 10
-695.4156982875228
 20
289.2233834484848
 11
-696.9326382875228
 21
288.3061634484848
  0
LINE
  5
237
100
AcDbEntity
  8
Layer 1
  6
ByLayer
 62
  256
370
   -1
100
AcDbLine
 10
-696.9326382875228
 20
288.3061634484848
 11
-698.5554082875227
 21
287.6006094484848
  0
LINE
  5
238
100
AcDbEntity
  8
Layer 1
  6
ByLayer
 62
  256
370
   -1
100
AcDbLine
 10
-698.5554082875227
 20
287.6006094484848
 11
-700.2487382875228
 21
287.1772774484849
  0
LINE
  5
239
100
AcDbEntity
  8
Layer 1
  6
ByLayer
 62
  256
370
   -1
100
AcDbLine
 10
-700.2487382875228
 20
287.1772774484849
 11
-702.0126282875227
 21
286.9656114484848
  0
LINE
  5
23A
100
AcDbEntity
  8
Layer 1
  6
ByLayer
 62
  256
370
   -1
100
AcDbLine
 10
-702.0126282875227
 20
286.9656114484848
 11
-703.7765082875228
 21
287.0361664484849
  0
LINE
  5
23B
100
AcDbEntity
  8
Layer 1
  6
ByLayer
 62
  256
370
   -1
100
AcDbLine
 10
-703.7765082875228
 20
287.0361664484849
 11
-705.5051182875227
 21
287.3536654484849
  0
LINE
  5
23C
100
AcDbEntity
  8
Layer 1
  6
ByLayer
 62
  256
370
   -1
100
AcDbLine
 10
-705.5051182875227
 20
287.3536654484849
 11
-707.1984482875228
 21
287.9181084484848
  0
LINE
  5
23D
100
AcDbEntity
  8
Layer 1
  6
ByLayer
 62
  256
370
   -1
100
AcDbLine
 10
-707.1984482875228
 20
287.9181084484848
 11
-708.7506682875228
 21
288.729495448485
  0
LINE
  5
23E
100
AcDbEntity
  8
Layer 1
  6
ByLayer
 62
  256
370
   -1
100
AcDbLine
 10
-708.7506682875228
 20
288.729495448485
 11
-710.1970582875227
 21
289.7525454484849
  0
LINE
  5
23F
100
AcDbEntity
  8
Layer 1
  6
ByLayer
 62
  256
370
   -1
100
AcDbLine
 10
-710.1970582875227
 20
289.7525454484849
 11
-711.4670582875227
 21
290.9872654484849
  0
LINE
  5
240
100
AcDbEntity
  8
Layer 1
  6
ByLayer
 62
  256
370
   -1
100
AcDbLine
 10
-711.4670582875227
 20
290.9872654484849
 11
-712.5253882875228
 21
292.398375448485
  0
LINE
  5
241
100
AcDbEntity
  8
Layer 1
  6
ByLayer
 62
  256
370
   -1
100
AcDbLine
 10
-712.5253882875228
 20
292.398375448485
 11
-713.4073312875228
 21
293.9153154484848
  0
LINE
  5
242
100
AcDbEntity
  8
Layer 1
  6
ByLayer
 62
  256
370
   -1
100
AcDbLine
 10
-713.4073312875228
 20
293.9153154484848
 11
-714.0423302875228
 21
295.5733654484848
  0
LINE
  5
243
100
AcDbEntity
  8
Layer 1
  6
ByLayer
 62
  256
370
   -1
100
AcDbLine
 10
-714.0423302875228
 20
295.5733654484848
 11
-714.4303852875228
 21
297.3019754484848
  0
LINE
  5
244
100
AcDbEntity
  8
Layer 1
  6
ByLayer
 62
  256
370
   -1
100
AcDbLine
 10
-714.4303852875228
 20
297.3019754484848
 11
-714.5362182875227
 21
299.0658654484848
  0
LINE
  5
245
100
AcDbEntity
  8
Layer 1
  6
ByLayer
 62
  256
370
   -1
100
AcDbLine
 10
-725.5432782875228
 20
361.064758448485
 11
-725.4374452875227
 21
362.8286384484848
  0
LINE
  5
246
100
AcDbEntity
  8
Layer 1
  6
ByLayer
 62
  256
370
   -1
100
AcDbLine
 10
-725.4374452875227
 20
362.8286384484848
 11
-725.0493902875228
 21
364.5572484484848
  0
LINE
  5
247
100
AcDbEntity
  8
Layer 1
  6
ByLayer
 62
  256
370
   -1
100
AcDbLine
 10
-725.0493902875228
 20
364.5572484484848
 11
-724.4143912875227
 21
366.2152984484848
  0
LINE
  5
248
100
AcDbEntity
  8
Layer 1
  6
ByLayer
 62
  256
370
   -1
100
AcDbLine
 10
-724.4143912875227
 20
366.2152984484848
 11
-723.5324482875227
 21
367.732238448485
  0
LINE
  5
249
100
AcDbEntity
  8
Layer 1
  6
ByLayer
 62
  256
370
   -1
100
AcDbLine
 10
-723.5324482875227
 20
367.732238448485
 11
-722.4741182875227
 21
369.1433484484849
  0
LINE
  5
24A
100
AcDbEntity
  8
Layer 1
  6
ByLayer
 62
  256
370
   -1
100
AcDbLine
 10
-722.4741182875227
 20
369.1433484484849
 11
-721.2041182875228
 21
370.378068448485
  0
LINE
  5
24B
100
AcDbEntity
  8
Layer 1
  6
ByLayer
 62
  256
370
   -1
100
AcDbLine
 10
-721.2041182875228
 20
370.378068448485
 11
-719.7577282875227
 21
371.401118448485
  0
LINE
  5
24C
100
AcDbEntity
  8
Layer 1
  6
ByLayer
 62
  256
370
   -1
100
AcDbLine
 10
-719.7577282875227
 20
371.401118448485
 11
-718.1702282875227
 21
372.2125054484848
  0
LINE
  5
24D
100
AcDbEntity
  8
Layer 1
  6
ByLayer
 62
  256
370
   -1
100
AcDbLine
 10
-718.1702282875227
 20
372.2125054484848
 11
-716.5121782875227
 21
372.7769484484849
  0
LINE
  5
24E
100
AcDbEntity
  8
Layer 1
  6
ByLayer
 62
  256
370
   -1
100
AcDbLine
 10
-716.5121782875227
 20
372.7769484484849
 11
-714.7835682875227
 21
373.0944474484849
  0
LINE
  5
24F
100
AcDbEntity
  8
Layer 1
  6
ByLayer
 62
  256
370
   -1
100
AcDbLine
 10
-714.7835682875227
 20
373.0944474484849
 11
-713.0196782875228
 21
373.1650034484848
  0
LINE
  5
250
100
AcDbEntity
  8
Layer 1
  6
ByLayer
 62
  256
370
   -1
100
AcDbLine
 10
-713.0196782875228
 20
373.1650034484848
 11
-711.2557982875228
 21
372.9533374484848
  0
LINE
  5
251
100
AcDbEntity
  8
Layer 1
  6
ByLayer
 62
  256
370
   -1
100
AcDbLine
 10
-711.2557982875228
 20
372.9533374484848
 11
-709.5624682875227
 21
372.5300054484848
  0
LINE
  5
252
100
AcDbEntity
  8
Layer 1
  6
ByLayer
 62
  256
370
   -1
100
AcDbLine
 10
-709.5624682875227
 20
372.5300054484848
 11
-707.9044182875227
 21
371.8244514484849
  0
LINE
  5
253
100
AcDbEntity
  8
Layer 1
  6
ByLayer
 62
  256
370
   -1
100
AcDbLine
 10
-707.9044182875227
 20
371.8244514484849
 11
-706.4227582875227
 21
370.9072314484848
  0
LINE
  5
254
100
AcDbEntity
  8
Layer 1
  6
ByLayer
 62
  256
370
   -1
100
AcDbLine
 10
-706.4227582875227
 20
370.9072314484848
 11
-705.0469282875227
 21
369.7783414484848
  0
LINE
  5
255
100
AcDbEntity
  8
Layer 1
  6
ByLayer
 62
  256
370
   -1
100
AcDbLine
 10
-705.0469282875227
 20
369.7783414484848
 11
-703.8827682875227
 21
368.4730714484849
  0
LINE
  5
256
100
AcDbEntity
  8
Layer 1
  6
ByLayer
 62
  256
370
   -1
100
AcDbLine
 10
-703.8827682875227
 20
368.4730714484849
 11
-702.8949922875228
 21
366.9914114484848
  0
LINE
  5
257
100
AcDbEntity
  8
Layer 1
  6
ByLayer
 62
  256
370
   -1
100
AcDbLine
 10
-702.8949922875228
 20
366.9914114484848
 11
-702.1541602875227
 21
365.403911448485
  0
LINE
  5
258
100
AcDbEntity
  8
Layer 1
  6
ByLayer
 62
  256
370
   -1
100
AcDbLine
 10
-702.1541602875227
 20
365.403911448485
 11
-701.6249942875228
 21
363.710581448485
  0
LINE
  5
259
100
AcDbEntity
  8
Layer 1
  6
ByLayer
 62
  256
370
   -1
100
AcDbLine
 10
-701.6249942875228
 20
363.710581448485
 11
-701.3780502875227
 21
361.9467014484848
  0
LINE
  5
25A
100
AcDbEntity
  8
Layer 1
  6
ByLayer
 62
  256
370
   -1
100
AcDbLine
 10
-701.3780502875227
 20
361.9467014484848
 11
-701.3779902875227
 21
360.1828034484849
  0
LINE
  5
25B
100
AcDbEntity
  8
Layer 1
  6
ByLayer
 62
  256
370
   -1
100
AcDbLine
 10
-701.3779902875227
 20
360.1828034484849
 11
-701.6249342875227
 21
358.4541934484848
  0
LINE
  5
25C
100
AcDbEntity
  8
Layer 1
  6
ByLayer
 62
  256
370
   -1
100
AcDbLine
 10
-701.6249342875227
 20
358.4541934484848
 11
-702.1541002875227
 21
356.7608634484848
  0
LINE
  5
25D
100
AcDbEntity
  8
Layer 1
  6
ByLayer
 62
  256
370
   -1
100
AcDbLine
 10
-702.1541002875227
 20
356.7608634484848
 11
-702.8949322875227
 21
355.1380934484848
  0
LINE
  5
25E
100
AcDbEntity
  8
Layer 1
  6
ByLayer
 62
  256
370
   -1
100
AcDbLine
 10
-702.8949322875227
 20
355.1380934484848
 11
-703.8827082875227
 21
353.656433448485
  0
LINE
  5
25F
100
AcDbEntity
  8
Layer 1
  6
ByLayer
 62
  256
370
   -1
100
AcDbLine
 10
-703.8827082875227
 20
353.656433448485
 11
-705.0468682875228
 21
352.351163448485
  0
LINE
  5
260
100
AcDbEntity
  8
Layer 1
  6
ByLayer
 62
  256
370
   -1
100
AcDbLine
 10
-705.0468682875228
 20
352.351163448485
 11
-706.4226982875227
 21
351.2222734484848
  0
LINE
  5
261
100
AcDbEntity
  8
Layer 1
  6
ByLayer
 62
  256
370
   -1
100
AcDbLine
 10
-706.4226982875227
 20
351.2222734484848
 11
-707.9043582875228
 21
350.305053448485
  0
LINE
  5
262
100
AcDbEntity
  8
Layer 1
  6
ByLayer
 62
  256
370
   -1
100
AcDbLine
 10
-707.9043582875228
 20
350.305053448485
 11
-709.5624082875228
 21
349.5994994484849
  0
LINE
  5
263
100
AcDbEntity
  8
Layer 1
  6
ByLayer
 62
  256
370
   -1
100
AcDbLine
 10
-709.5624082875228
 20
349.5994994484849
 11
-711.2557382875227
 21
349.1761674484848
  0
LINE
  5
264
100
AcDbEntity
  8
Layer 1
  6
ByLayer
 62
  256
370
   -1
100
AcDbLine
 10
-711.2557382875227
 20
349.1761674484848
 11
-713.0196182875227
 21
348.964501448485
  0
LINE
  5
265
100
AcDbEntity
  8
Layer 1
  6
ByLayer
 62
  256
370
   -1
100
AcDbLine
 10
-713.0196182875227
 20
348.964501448485
 11
-714.7835082875227
 21
349.035056448485
  0
LINE
  5
266
100
AcDbEntity
  8
Layer 1
  6
ByLayer
 62
  256
370
   -1
100
AcDbLine
 10
-714.7835082875227
 20
349.035056448485
 11
-716.5121182875228
 21
349.352555448485
  0
LINE
  5
267
100
AcDbEntity
  8
Layer 1
  6
ByLayer
 62
  256
370
   -1
100
AcDbLine
 10
-716.5121182875228
 20
349.352555448485
 11
-718.1701682875228
 21
349.9169984484849
  0
LINE
  5
268
100
AcDbEntity
  8
Layer 1
  6
ByLayer
 62
  256
370
   -1
100
AcDbLine
 10
-718.1701682875228
 20
349.9169984484849
 11
-719.7576682875227
 21
350.7283854484849
  0
LINE
  5
269
100
AcDbEntity
  8
Layer 1
  6
ByLayer
 62
  256
370
   -1
100
AcDbLine
 10
-719.7576682875227
 20
350.7283854484849
 11
-721.2040582875227
 21
351.7514354484848
  0
LINE
  5
26A
100
AcDbEntity
  8
Layer 1
  6
ByLayer
 62
  256
370
   -1
100
AcDbLine
 10
-721.2040582875227
 20
351.7514354484848
 11
-722.4740582875228
 21
352.986155448485
  0
LINE
  5
26B
100
AcDbEntity
  8
Layer 1
  6
ByLayer
 62
  256
370
   -1
100
AcDbLine
 10
-722.4740582875228
 20
352.986155448485
 11
-723.5323882875227
 21
354.3972654484849
  0
LINE
  5
26C
100
AcDbEntity
  8
Layer 1
  6
ByLayer
 62
  256
370
   -1
100
AcDbLine
 10
-723.5323882875227
 20
354.3972654484849
 11
-724.4143312875227
 21
355.9494854484849
  0
LINE
  5
26D
100
AcDbEntity
  8
Layer 1
  6
ByLayer
 62
  256
370
   -1
100
AcDbLine
 10
-724.4143312875227
 20
355.9494854484849
 11
-725.0493302875227
 21
357.572255448485
  0
LINE
  5
26E
100
AcDbEntity
  8
Layer 1
  6
ByLayer
 62
  256
370
   -1
100
AcDbLine
 10
-725.0493302875227
 20
357.572255448485
 11
-725.4373852875227
 21
359.300865448485
  0
LINE
  5
26F
100
AcDbEntity
  8
Layer 1
  6
ByLayer
 62
  256
370
   -1
100
AcDbLine
 10
-725.4373852875227
 20
359.300865448485
 11
-725.5432182875227
 21
361.0647454484848
  0
LINE
  5
270
100
AcDbEntity
  8
Layer 1
  6
ByLayer
 62
  256
370
   -1
100
AcDbLine
 10
-754.5415182875228
 20
361.0647454484848
 11
-754.4356852875228
 21
362.8286354484848
  0
LINE
  5
271
100
AcDbEntity
  8
Layer 1
  6
ByLayer
 62
  256
370
   -1
100
AcDbLine
 10
-754.4356852875228
 20
362.8286354484848
 11
-754.0476302875227
 21
364.5572454484848
  0
LINE
  5
272
100
AcDbEntity
  8
Layer 1
  6
ByLayer
 62
  256
370
   -1
100
AcDbLine
 10
-754.0476302875227
 20
364.5572454484848
 11
-753.4126312875228
 21
366.2152954484848
  0
LINE
  5
273
100
AcDbEntity
  8
Layer 1
  6
ByLayer
 62
  256
370
   -1
100
AcDbLine
 10
-753.4126312875228
 20
366.2152954484848
 11
-752.5306892875227
 21
367.7322354484849
  0
LINE
  5
274
100
AcDbEntity
  8
Layer 1
  6
ByLayer
 62
  256
370
   -1
100
AcDbLine
 10
-752.5306892875227
 20
367.7322354484849
 11
-751.4723592875227
 21
369.1433454484849
  0
LINE
  5
275
100
AcDbEntity
  8
Layer 1
  6
ByLayer
 62
  256
370
   -1
100
AcDbLine
 10
-751.4723592875227
 20
369.1433454484849
 11
-750.2023592875228
 21
370.378065448485
  0
LINE
  5
276
100
AcDbEntity
  8
Layer 1
  6
ByLayer
 62
  256
370
   -1
100
AcDbLine
 10
-750.2023592875228
 20
370.378065448485
 11
-748.7559692875227
 21
371.4011154484849
  0
LINE
  5
277
100
AcDbEntity
  8
Layer 1
  6
ByLayer
 62
  256
370
   -1
100
AcDbLine
 10
-748.7559692875227
 20
371.4011154484849
 11
-747.1684692875227
 21
372.2125024484848
  0
LINE
  5
278
100
AcDbEntity
  8
Layer 1
  6
ByLayer
 62
  256
370
   -1
100
AcDbLine
 10
-747.1684692875227
 20
372.2125024484848
 11
-745.5104192875227
 21
372.7769454484848
  0
LINE
  5
279
100
AcDbEntity
  8
Layer 1
  6
ByLayer
 62
  256
370
   -1
100
AcDbLine
 10
-745.5104192875227
 20
372.7769454484848
 11
-743.7818092875227
 21
373.0944444484849
  0
LINE
  5
27A
100
AcDbEntity
  8
Layer 1
  6
ByLayer
 62
  256
370
   -1
100
AcDbLine
 10
-743.7818092875227
 20
373.0944444484849
 11
-742.0179192875228
 21
373.1650004484848
  0
LINE
  5
27B
100
AcDbEntity
  8
Layer 1
  6
ByLayer
 62
  256
370
   -1
100
AcDbLine
 10
-742.0179192875228
 20
373.1650004484848
 11
-740.2540292875227
 21
372.953334448485
  0
LINE
  5
27C
100
AcDbEntity
  8
Layer 1
  6
ByLayer
 62
  256
370
   -1
100
AcDbLine
 10
-740.2540292875227
 20
372.953334448485
 11
-738.5606992875228
 21
372.5300024484848
  0
LINE
  5
27D
100
AcDbEntity
  8
Layer 1
  6
ByLayer
 62
  256
370
   -1
100
AcDbLine
 10
-738.5606992875228
 20
372.5300024484848
 11
-736.9026492875228
 21
371.8244484484848
  0
LINE
  5
27E
100
AcDbEntity
  8
Layer 1
  6
ByLayer
 62
  256
370
   -1
100
AcDbLine
 10
-736.9026492875228
 20
371.8244484484848
 11
-735.4209892875227
 21
370.9072284484848
  0
LINE
  5
27F
100
AcDbEntity
  8
Layer 1
  6
ByLayer
 62
  256
370
   -1
100
AcDbLine
 10
-735.4209892875227
 20
370.9072284484848
 11
-734.0451592875228
 21
369.7783384484848
  0
LINE
  5
280
100
AcDbEntity
  8
Layer 1
  6
ByLayer
 62
  256
370
   -1
100
AcDbLine
 10
-734.0451592875228
 20
369.7783384484848
 11
-732.8809992875227
 21
368.4730684484848
  0
LINE
  5
281
100
AcDbEntity
  8
Layer 1
  6
ByLayer
 62
  256
370
   -1
100
AcDbLine
 10
-732.8809992875227
 20
368.4730684484848
 11
-731.8932232875227
 21
366.9914084484849
  0
LINE
  5
282
100
AcDbEntity
  8
Layer 1
  6
ByLayer
 62
  256
370
   -1
100
AcDbLine
 10
-731.8932232875227
 20
366.9914084484849
 11
-731.1523912875227
 21
365.4039084484849
  0
LINE
  5
283
100
AcDbEntity
  8
Layer 1
  6
ByLayer
 62
  256
370
   -1
100
AcDbLine
 10
-731.1523912875227
 20
365.4039084484849
 11
-730.6585032875228
 21
363.7105784484849
  0
LINE
  5
284
100
AcDbEntity
  8
Layer 1
  6
ByLayer
 62
  256
370
   -1
100
AcDbLine
 10
-730.6585032875228
 20
363.7105784484849
 11
-730.3762812875227
 21
361.946688448485
  0
LINE
  5
285
100
AcDbEntity
  8
Layer 1
  6
ByLayer
 62
  256
370
   -1
100
AcDbLine
 10
-730.3762812875227
 20
361.946688448485
 11
-730.3759902875228
 21
360.1828034484849
  0
LINE
  5
286
100
AcDbEntity
  8
Layer 1
  6
ByLayer
 62
  256
370
   -1
100
AcDbLine
 10
-730.3759902875228
 20
360.1828034484849
 11
-730.6582122875227
 21
358.4541934484848
  0
LINE
  5
287
100
AcDbEntity
  8
Layer 1
  6
ByLayer
 62
  256
370
   -1
100
AcDbLine
 10
-730.6582122875227
 20
358.4541934484848
 11
-731.1521002875228
 21
356.7608634484848
  0
LINE
  5
288
100
AcDbEntity
  8
Layer 1
  6
ByLayer
 62
  256
370
   -1
100
AcDbLine
 10
-731.1521002875228
 20
356.7608634484848
 11
-731.8929322875227
 21
355.1380934484848
  0
LINE
  5
289
100
AcDbEntity
  8
Layer 1
  6
ByLayer
 62
  256
370
   -1
100
AcDbLine
 10
-731.8929322875227
 20
355.1380934484848
 11
-732.8807082875228
 21
353.656433448485
  0
LINE
  5
28A
100
AcDbEntity
  8
Layer 1
  6
ByLayer
 62
  256
370
   -1
100
AcDbLine
 10
-732.8807082875228
 20
353.656433448485
 11
-734.0448682875227
 21
352.351163448485
  0
LINE
  5
28B
100
AcDbEntity
  8
Layer 1
  6
ByLayer
 62
  256
370
   -1
100
AcDbLine
 10
-734.0448682875227
 20
352.351163448485
 11
-735.4206982875228
 21
351.2222734484848
  0
LINE
  5
28C
100
AcDbEntity
  8
Layer 1
  6
ByLayer
 62
  256
370
   -1
100
AcDbLine
 10
-735.4206982875228
 20
351.2222734484848
 11
-736.9023582875227
 21
350.305053448485
  0
LINE
  5
28D
100
AcDbEntity
  8
Layer 1
  6
ByLayer
 62
  256
370
   -1
100
AcDbLine
 10
-736.9023582875227
 20
350.305053448485
 11
-738.5604082875227
 21
349.5994994484849
  0
LINE
  5
28E
100
AcDbEntity
  8
Layer 1
  6
ByLayer
 62
  256
370
   -1
100
AcDbLine
 10
-738.5604082875227
 20
349.5994994484849
 11
-740.2537382875228
 21
349.1761674484848
  0
LINE
  5
28F
100
AcDbEntity
  8
Layer 1
  6
ByLayer
 62
  256
370
   -1
100
AcDbLine
 10
-740.2537382875228
 20
349.1761674484848
 11
-742.0176282875227
 21
348.964501448485
  0
LINE
  5
290
100
AcDbEntity
  8
Layer 1
  6
ByLayer
 62
  256
370
   -1
100
AcDbLine
 10
-742.0176282875227
 20
348.964501448485
 11
-743.7815182875228
 21
349.035056448485
  0
LINE
  5
291
100
AcDbEntity
  8
Layer 1
  6
ByLayer
 62
  256
370
   -1
100
AcDbLine
 10
-743.7815182875228
 20
349.035056448485
 11
-745.5101282875228
 21
349.352555448485
  0
LINE
  5
292
100
AcDbEntity
  8
Layer 1
  6
ByLayer
 62
  256
370
   -1
100
AcDbLine
 10
-745.5101282875228
 20
349.352555448485
 11
-747.1681782875228
 21
349.9169984484849
  0
LINE
  5
293
100
AcDbEntity
  8
Layer 1
  6
ByLayer
 62
  256
370
   -1
100
AcDbLine
 10
-747.1681782875228
 20
349.9169984484849
 11
-748.7556782875228
 21
350.7283854484849
  0
LINE
  5
294
100
AcDbEntity
  8
Layer 1
  6
ByLayer
 62
  256
370
   -1
100
AcDbLine
 10
-748.7556782875228
 20
350.7283854484849
 11
-750.2020682875227
 21
351.7514354484848
  0
LINE
  5
295
100
AcDbEntity
  8
Layer 1
  6
ByLayer
 62
  256
370
   -1
100
AcDbLine
 10
-750.2020682875227
 20
351.7514354484848
 11
-751.4720682875227
 21
352.986155448485
  0
LINE
  5
296
100
AcDbEntity
  8
Layer 1
  6
ByLayer
 62
  256
370
   -1
100
AcDbLine
 10
-751.4720682875227
 20
352.986155448485
 11
-752.5303982875228
 21
354.3972654484849
  0
LINE
  5
297
100
AcDbEntity
  8
Layer 1
  6
ByLayer
 62
  256
370
   -1
100
AcDbLine
 10
-752.5303982875228
 20
354.3972654484849
 11
-753.4123402875227
 21
355.9494854484849
  0
LINE
  5
298
100
AcDbEntity
  8
Layer 1
  6
ByLayer
 62
  256
370
   -1
100
AcDbLine
 10
-753.4123402875227
 20
355.9494854484849
 11
-754.0473392875227
 21
357.572255448485
  0
LINE
  5
299
100
AcDbEntity
  8
Layer 1
  6
ByLayer
 62
  256
370
   -1
100
AcDbLine
 10
-754.0473392875227
 20
357.572255448485
 11
-754.4353942875227
 21
359.300865448485
  0
LINE
  5
29A
100
AcDbEntity
  8
Layer 1
  6
ByLayer
 62
  256
370
   -1
100
AcDbLine
 10
-754.4353942875227
 20
359.300865448485
 11
-754.5412272875227
 21
361.064755448485
  0
LINE
  5
29B
100
AcDbEntity
  8
Layer 1
  6
ByLayer
 62
  256
370
   -1
100
AcDbLine
 10
-781.0348182875227
 20
349.5645454484849
 11
-780.9289852875228
 21
351.3284254484849
  0
LINE
  5
29C
100
AcDbEntity
  8
Layer 1
  6
ByLayer
 62
  256
370
   -1
100
AcDbLine
 10
-780.9289852875228
 20
351.3284254484849
 11
-780.5409302875228
 21
353.057035448485
  0
LINE
  5
29D
100
AcDbEntity
  8
Layer 1
  6
ByLayer
 62
  256
370
   -1
100
AcDbLine
 10
-780.5409302875228
 20
353.057035448485
 11
-779.9059312875227
 21
354.715085448485
  0
LINE
  5
29E
100
AcDbEntity
  8
Layer 1
  6
ByLayer
 62
  256
370
   -1
100
AcDbLine
 10
-779.9059312875227
 20
354.715085448485
 11
-779.0592662875227
 21
356.2320254484848
  0
LINE
  5
29F
100
AcDbEntity
  8
Layer 1
  6
ByLayer
 62
  256
370
   -1
100
AcDbLine
 10
-779.0592662875227
 20
356.2320254484848
 11
-777.9656562875227
 21
357.6431354484848
  0
LINE
  5
2A0
100
AcDbEntity
  8
Layer 1
  6
ByLayer
 62
  256
370
   -1
100
AcDbLine
 10
-777.9656562875227
 20
357.6431354484848
 11
-776.6956562875228
 21
358.8778554484849
  0
LINE
  5
2A1
100
AcDbEntity
  8
Layer 1
  6
ByLayer
 62
  256
370
   -1
100
AcDbLine
 10
-776.6956562875228
 20
358.8778554484849
 11
-775.2492662875227
 21
359.9009054484848
  0
LINE
  5
2A2
100
AcDbEntity
  8
Layer 1
  6
ByLayer
 62
  256
370
   -1
100
AcDbLine
 10
-775.2492662875227
 20
359.9009054484848
 11
-773.6970462875228
 21
360.712292448485
  0
LINE
  5
2A3
100
AcDbEntity
  8
Layer 1
  6
ByLayer
 62
  256
370
   -1
100
AcDbLine
 10
-773.6970462875228
 20
360.712292448485
 11
-772.0037162875227
 21
361.2767354484848
  0
LINE
  5
2A4
100
AcDbEntity
  8
Layer 1
  6
ByLayer
 62
  256
370
   -1
100
AcDbLine
 10
-772.0037162875227
 20
361.2767354484848
 11
-770.2751062875227
 21
361.5942344484848
  0
LINE
  5
2A5
100
AcDbEntity
  8
Layer 1
  6
ByLayer
 62
  256
370
   -1
100
AcDbLine
 10
-770.2751062875227
 20
361.5942344484848
 11
-768.5112162875228
 21
361.664790448485
  0
LINE
  5
2A6
100
AcDbEntity
  8
Layer 1
  6
ByLayer
 62
  256
370
   -1
100
AcDbLine
 10
-768.5112162875228
 20
361.664790448485
 11
-766.7473362875228
 21
361.4531244484849
  0
LINE
  5
2A7
100
AcDbEntity
  8
Layer 1
  6
ByLayer
 62
  256
370
   -1
100
AcDbLine
 10
-766.7473362875228
 20
361.4531244484849
 11
-765.0540062875227
 21
361.029792448485
  0
LINE
  5
2A8
100
AcDbEntity
  8
Layer 1
  6
ByLayer
 62
  256
370
   -1
100
AcDbLine
 10
-765.0540062875227
 20
361.029792448485
 11
-763.4312362875228
 21
360.3242384484849
  0
LINE
  5
2A9
100
AcDbEntity
  8
Layer 1
  6
ByLayer
 62
  256
370
   -1
100
AcDbLine
 10
-763.4312362875228
 20
360.3242384484849
 11
-761.9142962875227
 21
359.407018448485
  0
LINE
  5
2AA
100
AcDbEntity
  8
Layer 1
  6
ByLayer
 62
  256
370
   -1
100
AcDbLine
 10
-761.9142962875227
 20
359.407018448485
 11
-760.5384662875227
 21
358.2781284484849
  0
LINE
  5
2AB
100
AcDbEntity
  8
Layer 1
  6
ByLayer
 62
  256
370
   -1
100
AcDbLine
 10
-760.5384662875227
 20
358.2781284484849
 11
-759.3743062875227
 21
356.9728584484848
  0
LINE
  5
2AC
100
AcDbEntity
  8
Layer 1
  6
ByLayer
 62
  256
370
   -1
100
AcDbLine
 10
-759.3743062875227
 20
356.9728584484848
 11
-758.3865302875228
 21
355.491198448485
  0
LINE
  5
2AD
100
AcDbEntity
  8
Layer 1
  6
ByLayer
 62
  256
370
   -1
100
AcDbLine
 10
-758.3865302875228
 20
355.491198448485
 11
-757.6456982875227
 21
353.9036984484848
  0
LINE
  5
2AE
100
AcDbEntity
  8
Layer 1
  6
ByLayer
 62
  256
370
   -1
100
AcDbLine
 10
-757.6456982875227
 20
353.9036984484848
 11
-757.1518102875227
 21
352.2103684484848
  0
LINE
  5
2AF
100
AcDbEntity
  8
Layer 1
  6
ByLayer
 62
  256
370
   -1
100
AcDbLine
 10
-757.1518102875227
 20
352.2103684484848
 11
-756.8695882875227
 21
350.446488448485
  0
LINE
  5
2B0
100
AcDbEntity
  8
Layer 1
  6
ByLayer
 62
  256
370
   -1
100
AcDbLine
 10
-756.8695882875227
 20
350.446488448485
 11
-756.8698902875227
 21
348.6828034484849
  0
LINE
  5
2B1
100
AcDbEntity
  8
Layer 1
  6
ByLayer
 62
  256
370
   -1
100
AcDbLine
 10
-756.8698902875227
 20
348.6828034484849
 11
-757.1521122875228
 21
346.9541934484848
  0
LINE
  5
2B2
100
AcDbEntity
  8
Layer 1
  6
ByLayer
 62
  256
370
   -1
100
AcDbLine
 10
-757.1521122875228
 20
346.9541934484848
 11
-757.6460002875227
 21
345.2608634484848
  0
LINE
  5
2B3
100
AcDbEntity
  8
Layer 1
  6
ByLayer
 62
  256
370
   -1
100
AcDbLine
 10
-757.6460002875227
 20
345.2608634484848
 11
-758.3868322875228
 21
343.6380934484848
  0
LINE
  5
2B4
100
AcDbEntity
  8
Layer 1
  6
ByLayer
 62
  256
370
   -1
100
AcDbLine
 10
-758.3868322875228
 20
343.6380934484848
 11
-759.3746082875227
 21
342.156433448485
  0
LINE
  5
2B5
100
AcDbEntity
  8
Layer 1
  6
ByLayer
 62
  256
370
   -1
100
AcDbLine
 10
-759.3746082875227
 20
342.156433448485
 11
-760.5387682875228
 21
340.851163448485
  0
LINE
  5
2B6
100
AcDbEntity
  8
Layer 1
  6
ByLayer
 62
  256
370
   -1
100
AcDbLine
 10
-760.5387682875228
 20
340.851163448485
 11
-761.9145982875227
 21
339.7222734484848
  0
LINE
  5
2B7
100
AcDbEntity
  8
Layer 1
  6
ByLayer
 62
  256
370
   -1
100
AcDbLine
 10
-761.9145982875227
 20
339.7222734484848
 11
-763.4315382875227
 21
338.805053448485
  0
LINE
  5
2B8
100
AcDbEntity
  8
Layer 1
  6
ByLayer
 62
  256
370
   -1
100
AcDbLine
 10
-763.4315382875227
 20
338.805053448485
 11
-765.0543082875228
 21
338.0994994484849
  0
LINE
  5
2B9
100
AcDbEntity
  8
Layer 1
  6
ByLayer
 62
  256
370
   -1
100
AcDbLine
 10
-765.0543082875228
 20
338.0994994484849
 11
-766.7476382875227
 21
337.6761674484848
  0
LINE
  5
2BA
100
AcDbEntity
  8
Layer 1
  6
ByLayer
 62
  256
370
   -1
100
AcDbLine
 10
-766.7476382875227
 20
337.6761674484848
 11
-768.5115182875227
 21
337.464501448485
  0
LINE
  5
2BB
100
AcDbEntity
  8
Layer 1
  6
ByLayer
 62
  256
370
   -1
100
AcDbLine
 10
-768.5115182875227
 20
337.464501448485
 11
-770.2754082875227
 21
337.5350564484849
  0
LINE
  5
2BC
100
AcDbEntity
  8
Layer 1
  6
ByLayer
 62
  256
370
   -1
100
AcDbLine
 10
-770.2754082875227
 20
337.5350564484849
 11
-772.0040182875227
 21
337.8525554484848
  0
LINE
  5
2BD
100
AcDbEntity
  8
Layer 1
  6
ByLayer
 62
  256
370
   -1
100
AcDbLine
 10
-772.0040182875227
 20
337.8525554484848
 11
-773.6973482875228
 21
338.4169984484849
  0
LINE
  5
2BE
100
AcDbEntity
  8
Layer 1
  6
ByLayer
 62
  256
370
   -1
100
AcDbLine
 10
-773.6973482875228
 20
338.4169984484849
 11
-775.2495682875227
 21
339.2283854484849
  0
LINE
  5
2BF
100
AcDbEntity
  8
Layer 1
  6
ByLayer
 62
  256
370
   -1
100
AcDbLine
 10
-775.2495682875227
 20
339.2283854484849
 11
-776.6959582875228
 21
340.2514354484848
  0
LINE
  5
2C0
100
AcDbEntity
  8
Layer 1
  6
ByLayer
 62
  256
370
   -1
100
AcDbLine
 10
-776.6959582875228
 20
340.2514354484848
 11
-777.9659582875228
 21
341.4861554484849
  0
LINE
  5
2C1
100
AcDbEntity
  8
Layer 1
  6
ByLayer
 62
  256
370
   -1
100
AcDbLine
 10
-777.9659582875228
 20
341.4861554484849
 11
-779.0595682875228
 21
342.8972654484849
  0
LINE
  5
2C2
100
AcDbEntity
  8
Layer 1
  6
ByLayer
 62
  256
370
   -1
100
AcDbLine
 10
-779.0595682875228
 20
342.8972654484849
 11
-779.9062332875228
 21
344.4494854484849
  0
LINE
  5
2C3
100
AcDbEntity
  8
Layer 1
  6
ByLayer
 62
  256
370
   -1
100
AcDbLine
 10
-779.9062332875228
 20
344.4494854484849
 11
-780.5412322875227
 21
346.072255448485
  0
LINE
  5
2C4
100
AcDbEntity
  8
Layer 1
  6
ByLayer
 62
  256
370
   -1
100
AcDbLine
 10
-780.5412322875227
 20
346.072255448485
 11
-780.9292872875228
 21
347.800865448485
  0
LINE
  5
2C5
100
AcDbEntity
  8
Layer 1
  6
ByLayer
 62
  256
370
   -1
100
AcDbLine
 10
-780.9292872875228
 20
347.800865448485
 11
-781.0351202875228
 21
349.5647454484848
  0
LINE
  5
2C6
100
AcDbEntity
  8
Layer 1
  6
ByLayer
 62
  256
370
   -1
100
AcDbLine
 10
-699.0497202875227
 20
349.5647454484848
 11
-698.9086092875227
 21
351.3286354484848
  0
LINE
  5
2C7
100
AcDbEntity
  8
Layer 1
  6
ByLayer
 62
  256
370
   -1
100
AcDbLine
 10
-698.9086092875227
 20
351.3286354484848
 11
-698.5558322875228
 21
353.0572454484848
  0
LINE
  5
2C8
100
AcDbEntity
  8
Layer 1
  6
ByLayer
 62
  256
370
   -1
100
AcDbLine
 10
-698.5558322875228
 20
353.0572454484848
 11
-697.9208332875228
 21
354.7152954484848
  0
LINE
  5
2C9
100
AcDbEntity
  8
Layer 1
  6
ByLayer
 62
  256
370
   -1
100
AcDbLine
 10
-697.9208332875228
 20
354.7152954484848
 11
-697.0388902875227
 21
356.2322354484849
  0
LINE
  5
2CA
100
AcDbEntity
  8
Layer 1
  6
ByLayer
 62
  256
370
   -1
100
AcDbLine
 10
-697.0388902875227
 20
356.2322354484849
 11
-695.9805602875227
 21
357.6433454484849
  0
LINE
  5
2CB
100
AcDbEntity
  8
Layer 1
  6
ByLayer
 62
  256
370
   -1
100
AcDbLine
 10
-695.9805602875227
 20
357.6433454484849
 11
-694.6752902875228
 21
358.878065448485
  0
LINE
  5
2CC
100
AcDbEntity
  8
Layer 1
  6
ByLayer
 62
  256
370
   -1
100
AcDbLine
 10
-694.6752902875228
 20
358.878065448485
 11
-693.2641802875228
 21
359.9011154484849
  0
LINE
  5
2CD
100
AcDbEntity
  8
Layer 1
  6
ByLayer
 62
  256
370
   -1
100
AcDbLine
 10
-693.2641802875228
 20
359.9011154484849
 11
-691.6766802875227
 21
360.7125024484848
  0
LINE
  5
2CE
100
AcDbEntity
  8
Layer 1
  6
ByLayer
 62
  256
370
   -1
100
AcDbLine
 10
-691.6766802875227
 20
360.7125024484848
 11
-690.0186302875227
 21
361.2769454484848
  0
LINE
  5
2CF
100
AcDbEntity
  8
Layer 1
  6
ByLayer
 62
  256
370
   -1
100
AcDbLine
 10
-690.0186302875227
 20
361.2769454484848
 11
-688.2900202875228
 21
361.5944444484849
  0
LINE
  5
2D0
100
AcDbEntity
  8
Layer 1
  6
ByLayer
 62
  256
370
   -1
100
AcDbLine
 10
-688.2900202875228
 20
361.5944444484849
 11
-686.5261402875227
 21
361.6650004484848
  0
LINE
  5
2D1
100
AcDbEntity
  8
Layer 1
  6
ByLayer
 62
  256
370
   -1
100
AcDbLine
 10
-686.5261402875227
 20
361.6650004484848
 11
-684.7622502875228
 21
361.453334448485
  0
LINE
  5
2D2
100
AcDbEntity
  8
Layer 1
  6
ByLayer
 62
  256
370
   -1
100
AcDbLine
 10
-684.7622502875228
 20
361.453334448485
 11
-683.0336402875228
 21
361.0300024484848
  0
LINE
  5
2D3
100
AcDbEntity
  8
Layer 1
  6
ByLayer
 62
  256
370
   -1
100
AcDbLine
 10
-683.0336402875228
 20
361.0300024484848
 11
-681.4108702875227
 21
360.3244484484848
  0
LINE
  5
2D4
100
AcDbEntity
  8
Layer 1
  6
ByLayer
 62
  256
370
   -1
100
AcDbLine
 10
-681.4108702875227
 20
360.3244484484848
 11
-679.8939302875227
 21
359.4072284484848
  0
LINE
  5
2D5
100
AcDbEntity
  8
Layer 1
  6
ByLayer
 62
  256
370
   -1
100
AcDbLine
 10
-679.8939302875227
 20
359.4072284484848
 11
-678.5533802875227
 21
358.2783384484848
  0
LINE
  5
2D6
100
AcDbEntity
  8
Layer 1
  6
ByLayer
 62
  256
370
   -1
100
AcDbLine
 10
-678.5533802875227
 20
358.2783384484848
 11
-677.3892202875227
 21
356.9730684484848
  0
LINE
  5
2D7
100
AcDbEntity
  8
Layer 1
  6
ByLayer
 62
  256
370
   -1
100
AcDbLine
 10
-677.3892202875227
 20
356.9730684484848
 11
-676.4014442875227
 21
355.4914084484849
  0
LINE
  5
2D8
100
AcDbEntity
  8
Layer 1
  6
ByLayer
 62
  256
370
   -1
100
AcDbLine
 10
-676.4014442875227
 20
355.4914084484849
 11
-675.6606122875228
 21
353.9039084484849
  0
LINE
  5
2D9
100
AcDbEntity
  8
Layer 1
  6
ByLayer
 62
  256
370
   -1
100
AcDbLine
 10
-675.6606122875228
 20
353.9039084484849
 11
-675.1314462875227
 21
352.2105784484849
  0
LINE
  5
2DA
100
AcDbEntity
  8
Layer 1
  6
ByLayer
 62
  256
370
   -1
100
AcDbLine
 10
-675.1314462875227
 20
352.2105784484849
 11
-674.8845022875228
 21
350.446688448485
  0
LINE
  5
2DB
100
AcDbEntity
  8
Layer 1
  6
ByLayer
 62
  256
370
   -1
100
AcDbLine
 10
-674.8845022875228
 20
350.446688448485
 11
-674.8849902875228
 21
348.6828034484849
  0
LINE
  5
2DC
100
AcDbEntity
  8
Layer 1
  6
ByLayer
 62
  256
370
   -1
100
AcDbLine
 10
-674.8849902875228
 20
348.6828034484849
 11
-675.1319342875228
 21
346.9541934484848
  0
LINE
  5
2DD
100
AcDbEntity
  8
Layer 1
  6
ByLayer
 62
  256
370
   -1
100
AcDbLine
 10
-675.1319342875228
 20
346.9541934484848
 11
-675.6611002875227
 21
345.2608634484848
  0
LINE
  5
2DE
100
AcDbEntity
  8
Layer 1
  6
ByLayer
 62
  256
370
   -1
100
AcDbLine
 10
-675.6611002875227
 20
345.2608634484848
 11
-676.4019322875228
 21
343.6380934484848
  0
LINE
  5
2DF
100
AcDbEntity
  8
Layer 1
  6
ByLayer
 62
  256
370
   -1
100
AcDbLine
 10
-676.4019322875228
 20
343.6380934484848
 11
-677.3897082875228
 21
342.156433448485
  0
LINE
  5
2E0
100
AcDbEntity
  8
Layer 1
  6
ByLayer
 62
  256
370
   -1
100
AcDbLine
 10
-677.3897082875228
 20
342.156433448485
 11
-678.5538682875227
 21
340.851163448485
  0
LINE
  5
2E1
100
AcDbEntity
  8
Layer 1
  6
ByLayer
 62
  256
370
   -1
100
AcDbLine
 10
-678.5538682875227
 20
340.851163448485
 11
-679.8944182875227
 21
339.7222734484848
  0
LINE
  5
2E2
100
AcDbEntity
  8
Layer 1
  6
ByLayer
 62
  256
370
   -1
100
AcDbLine
 10
-679.8944182875227
 20
339.7222734484848
 11
-681.4113582875227
 21
338.805053448485
  0
LINE
  5
2E3
100
AcDbEntity
  8
Layer 1
  6
ByLayer
 62
  256
370
   -1
100
AcDbLine
 10
-681.4113582875227
 20
338.805053448485
 11
-683.0341282875228
 21
338.0994994484849
  0
LINE
  5
2E4
100
AcDbEntity
  8
Layer 1
  6
ByLayer
 62
  256
370
   -1
100
AcDbLine
 10
-683.0341282875228
 20
338.0994994484849
 11
-684.7627382875228
 21
337.6761674484848
  0
LINE
  5
2E5
100
AcDbEntity
  8
Layer 1
  6
ByLayer
 62
  256
370
   -1
100
AcDbLine
 10
-684.7627382875228
 20
337.6761674484848
 11
-686.5266282875227
 21
337.464501448485
  0
LINE
  5
2E6
100
AcDbEntity
  8
Layer 1
  6
ByLayer
 62
  256
370
   -1
100
AcDbLine
 10
-686.5266282875227
 20
337.464501448485
 11
-688.2905082875227
 21
337.5350564484849
  0
LINE
  5
2E7
100
AcDbEntity
  8
Layer 1
  6
ByLayer
 62
  256
370
   -1
100
AcDbLine
 10
-688.2905082875227
 20
337.5350564484849
 11
-690.0191182875227
 21
337.8525554484848
  0
LINE
  5
2E8
100
AcDbEntity
  8
Layer 1
  6
ByLayer
 62
  256
370
   -1
100
AcDbLine
 10
-690.0191182875227
 20
337.8525554484848
 11
-691.6771682875227
 21
338.4169984484849
  0
LINE
  5
2E9
100
AcDbEntity
  8
Layer 1
  6
ByLayer
 62
  256
370
   -1
100
AcDbLine
 10
-691.6771682875227
 20
338.4169984484849
 11
-693.2646682875227
 21
339.2283854484849
  0
LINE
  5
2EA
100
AcDbEntity
  8
Layer 1
  6
ByLayer
 62
  256
370
   -1
100
AcDbLine
 10
-693.2646682875227
 20
339.2283854484849
 11
-694.6757782875227
 21
340.2514354484848
  0
LINE
  5
2EB
100
AcDbEntity
  8
Layer 1
  6
ByLayer
 62
  256
370
   -1
100
AcDbLine
 10
-694.6757782875227
 20
340.2514354484848
 11
-695.9810482875228
 21
341.4861554484849
  0
LINE
  5
2EC
100
AcDbEntity
  8
Layer 1
  6
ByLayer
 62
  256
370
   -1
100
AcDbLine
 10
-695.9810482875228
 20
341.4861554484849
 11
-697.0393782875227
 21
342.8972654484849
  0
LINE
  5
2ED
100
AcDbEntity
  8
Layer 1
  6
ByLayer
 62
  256
370
   -1
100
AcDbLine
 10
-697.0393782875227
 20
342.8972654484849
 11
-697.9213212875227
 21
344.4494854484849
  0
LINE
  5
2EE
100
AcDbEntity
  8
Layer 1
  6
ByLayer
 62
  256
370
   -1
100
AcDbLine
 10
-697.9213212875227
 20
344.4494854484849
 11
-698.5563202875228
 21
346.072255448485
  0
LINE
  5
2EF
100
AcDbEntity
  8
Layer 1
  6
ByLayer
 62
  256
370
   -1
100
AcDbLine
 10
-698.5563202875228
 20
346.072255448485
 11
-698.9090972875227
 21
347.800865448485
  0
LINE
  5
2F0
100
AcDbEntity
  8
Layer 1
  6
ByLayer
 62
  256
370
   -1
100
AcDbLine
 10
-698.9090972875227
 20
347.800865448485
 11
-699.0502082875228
 21
349.564755448485
  0
LINE
  5
2F1
100
AcDbEntity
  8
Layer 1
  6
ByLayer
 62
  256
370
   -1
100
AcDbLine
 10
-716.6082742894672
 20
387.5006968640845
 11
-716.5024412894671
 21
389.2645768640843
  0
LINE
  5
2F2
100
AcDbEntity
  8
Layer 1
  6
ByLayer
 62
  256
370
   -1
100
AcDbLine
 10
-716.5024412894671
 20
389.2645768640843
 11
-716.1143862894672
 21
390.9931868640844
  0
LINE
  5
2F3
100
AcDbEntity
  8
Layer 1
  6
ByLayer
 62
  256
370
   -1
100
AcDbLine
 10
-716.1143862894672
 20
390.9931868640844
 11
-715.4793872894671
 21
392.6512368640844
  0
LINE
  5
2F4
100
AcDbEntity
  8
Layer 1
  6
ByLayer
 62
  256
370
   -1
100
AcDbLine
 10
-715.4793872894671
 20
392.6512368640844
 11
-714.5974442894671
 21
394.1681768640845
  0
LINE
  5
2F5
100
AcDbEntity
  8
Layer 1
  6
ByLayer
 62
  256
370
   -1
100
AcDbLine
 10
-714.5974442894671
 20
394.1681768640845
 11
-713.5391142894672
 21
395.5792868640844
  0
LINE
  5
2F6
100
AcDbEntity
  8
Layer 1
  6
ByLayer
 62
  256
370
   -1
100
AcDbLine
 10
-713.5391142894672
 20
395.5792868640844
 11
-712.2691142894672
 21
396.8140068640845
  0
LINE
  5
2F7
100
AcDbEntity
  8
Layer 1
  6
ByLayer
 62
  256
370
   -1
100
AcDbLine
 10
-712.2691142894672
 20
396.8140068640845
 11
-710.8227242894671
 21
397.8370568640845
  0
LINE
  5
2F8
100
AcDbEntity
  8
Layer 1
  6
ByLayer
 62
  256
370
   -1
100
AcDbLine
 10
-710.8227242894671
 20
397.8370568640845
 11
-709.2352242894672
 21
398.6484438640844
  0
LINE
  5
2F9
100
AcDbEntity
  8
Layer 1
  6
ByLayer
 62
  256
370
   -1
100
AcDbLine
 10
-709.2352242894672
 20
398.6484438640844
 11
-707.5771742894672
 21
399.2128868640844
  0
LINE
  5
2FA
100
AcDbEntity
  8
Layer 1
  6
ByLayer
 62
  256
370
   -1
100
AcDbLine
 10
-707.5771742894672
 20
399.2128868640844
 11
-705.8485642894672
 21
399.5303858640844
  0
LINE
  5
2FB
100
AcDbEntity
  8
Layer 1
  6
ByLayer
 62
  256
370
   -1
100
AcDbLine
 10
-705.8485642894672
 20
399.5303858640844
 11
-704.0846742894672
 21
399.6009418640843
  0
LINE
  5
2FC
100
AcDbEntity
  8
Layer 1
  6
ByLayer
 62
  256
370
   -1
100
AcDbLine
 10
-704.0846742894672
 20
399.6009418640843
 11
-702.3207942894672
 21
399.3892758640844
  0
LINE
  5
2FD
100
AcDbEntity
  8
Layer 1
  6
ByLayer
 62
  256
370
   -1
100
AcDbLine
 10
-702.3207942894672
 20
399.3892758640844
 11
-700.6274642894672
 21
398.9659438640844
  0
LINE
  5
2FE
100
AcDbEntity
  8
Layer 1
  6
ByLayer
 62
  256
370
   -1
100
AcDbLine
 10
-700.6274642894672
 20
398.9659438640844
 11
-698.9694142894672
 21
398.2603898640844
  0
LINE
  5
2FF
100
AcDbEntity
  8
Layer 1
  6
ByLayer
 62
  256
370
   -1
100
AcDbLine
 10
-698.9694142894672
 20
398.2603898640844
 11
-697.4877542894671
 21
397.3431698640844
  0
LINE
  5
300
100
AcDbEntity
  8
Layer 1
  6
ByLayer
 62
  256
370
   -1
100
AcDbLine
 10
-697.4877542894671
 20
397.3431698640844
 11
-696.1119242894672
 21
396.2142798640843
  0
LINE
  5
301
100
AcDbEntity
  8
Layer 1
  6
ByLayer
 62
  256
370
   -1
100
AcDbLine
 10
-696.1119242894672
 20
396.2142798640843
 11
-694.9477642894672
 21
394.9090098640844
  0
LINE
  5
302
100
AcDbEntity
  8
Layer 1
  6
ByLayer
 62
  256
370
   -1
100
AcDbLine
 10
-694.9477642894672
 20
394.9090098640844
 11
-693.9599882894672
 21
393.4273498640844
  0
LINE
  5
303
100
AcDbEntity
  8
Layer 1
  6
ByLayer
 62
  256
370
   -1
100
AcDbLine
 10
-693.9599882894672
 20
393.4273498640844
 11
-693.2191562894672
 21
391.8398498640845
  0
LINE
  5
304
100
AcDbEntity
  8
Layer 1
  6
ByLayer
 62
  256
370
   -1
100
AcDbLine
 10
-693.2191562894672
 20
391.8398498640845
 11
-692.6899902894672
 21
390.1465198640845
  0
LINE
  5
305
100
AcDbEntity
  8
Layer 1
  6
ByLayer
 62
  256
370
   -1
100
AcDbLine
 10
-692.6899902894672
 20
390.1465198640845
 11
-692.4430462894671
 21
388.3826398640844
  0
LINE
  5
306
100
AcDbEntity
  8
Layer 1
  6
ByLayer
 62
  256
370
   -1
100
AcDbLine
 10
-692.4430462894671
 20
388.3826398640844
 11
-692.4429862894672
 21
386.6187418640845
  0
LINE
  5
307
100
AcDbEntity
  8
Layer 1
  6
ByLayer
 62
  256
370
   -1
100
AcDbLine
 10
-692.4429862894672
 20
386.6187418640845
 11
-692.6899302894672
 21
384.8901318640844
  0
LINE
  5
308
100
AcDbEntity
  8
Layer 1
  6
ByLayer
 62
  256
370
   -1
100
AcDbLine
 10
-692.6899302894672
 20
384.8901318640844
 11
-693.2190962894672
 21
383.1968018640844
  0
LINE
  5
309
100
AcDbEntity
  8
Layer 1
  6
ByLayer
 62
  256
370
   -1
100
AcDbLine
 10
-693.2190962894672
 20
383.1968018640844
 11
-693.9599282894671
 21
381.5740318640844
  0
LINE
  5
30A
100
AcDbEntity
  8
Layer 1
  6
ByLayer
 62
  256
370
   -1
100
AcDbLine
 10
-693.9599282894671
 20
381.5740318640844
 11
-694.9477042894672
 21
380.0923718640845
  0
LINE
  5
30B
100
AcDbEntity
  8
Layer 1
  6
ByLayer
 62
  256
370
   -1
100
AcDbLine
 10
-694.9477042894672
 20
380.0923718640845
 11
-696.1118642894672
 21
378.7871018640845
  0
LINE
  5
30C
100
AcDbEntity
  8
Layer 1
  6
ByLayer
 62
  256
370
   -1
100
AcDbLine
 10
-696.1118642894672
 20
378.7871018640845
 11
-697.4876942894672
 21
377.6582118640844
  0
LINE
  5
30D
100
AcDbEntity
  8
Layer 1
  6
ByLayer
 62
  256
370
   -1
100
AcDbLine
 10
-697.4876942894672
 20
377.6582118640844
 11
-698.9693542894672
 21
376.7409918640845
  0
LINE
  5
30E
100
AcDbEntity
  8
Layer 1
  6
ByLayer
 62
  256
370
   -1
100
AcDbLine
 10
-698.9693542894672
 20
376.7409918640845
 11
-700.6274042894672
 21
376.0354378640845
  0
LINE
  5
30F
100
AcDbEntity
  8
Layer 1
  6
ByLayer
 62
  256
370
   -1
100
AcDbLine
 10
-700.6274042894672
 20
376.0354378640845
 11
-702.3207342894672
 21
375.6121058640844
  0
LINE
  5
310
100
AcDbEntity
  8
Layer 1
  6
ByLayer
 62
  256
370
   -1
100
AcDbLine
 10
-702.3207342894672
 20
375.6121058640844
 11
-704.0846142894671
 21
375.4004398640845
  0
LINE
  5
311
100
AcDbEntity
  8
Layer 1
  6
ByLayer
 62
  256
370
   -1
100
AcDbLine
 10
-704.0846142894671
 20
375.4004398640845
 11
-705.8485042894672
 21
375.4709948640845
  0
LINE
  5
312
100
AcDbEntity
  8
Layer 1
  6
ByLayer
 62
  256
370
   -1
100
AcDbLine
 10
-705.8485042894672
 20
375.4709948640845
 11
-707.5771142894672
 21
375.7884938640845
  0
LINE
  5
313
100
AcDbEntity
  8
Layer 1
  6
ByLayer
 62
  256
370
   -1
100
AcDbLine
 10
-707.5771142894672
 20
375.7884938640845
 11
-709.2351642894672
 21
376.3529368640845
  0
LINE
  5
314
100
AcDbEntity
  8
Layer 1
  6
ByLayer
 62
  256
370
   -1
100
AcDbLine
 10
-709.2351642894672
 20
376.3529368640845
 11
-710.8226642894672
 21
377.1643238640844
  0
LINE
  5
315
100
AcDbEntity
  8
Layer 1
  6
ByLayer
 62
  256
370
   -1
100
AcDbLine
 10
-710.8226642894672
 20
377.1643238640844
 11
-712.2690542894671
 21
378.1873738640843
  0
LINE
  5
316
100
AcDbEntity
  8
Layer 1
  6
ByLayer
 62
  256
370
   -1
100
AcDbLine
 10
-712.2690542894671
 20
378.1873738640843
 11
-713.5390542894672
 21
379.4220938640845
  0
LINE
  5
317
100
AcDbEntity
  8
Layer 1
  6
ByLayer
 62
  256
370
   -1
100
AcDbLine
 10
-713.5390542894672
 20
379.4220938640845
 11
-714.5973842894672
 21
380.8332038640844
  0
LINE
  5
318
100
AcDbEntity
  8
Layer 1
  6
ByLayer
 62
  256
370
   -1
100
AcDbLine
 10
-714.5973842894672
 20
380.8332038640844
 11
-715.4793272894672
 21
382.3854238640845
  0
LINE
  5
319
100
AcDbEntity
  8
Layer 1
  6
ByLayer
 62
  256
370
   -1
100
AcDbLine
 10
-715.4793272894672
 20
382.3854238640845
 11
-716.1143262894672
 21
384.0081938640845
  0
LINE
  5
31A
100
AcDbEntity
  8
Layer 1
  6
ByLayer
 62
  256
370
   -1
100
AcDbLine
 10
-716.1143262894672
 20
384.0081938640845
 11
-716.5023812894672
 21
385.7368038640845
  0
LINE
  5
31B
100
AcDbEntity
  8
Layer 1
  6
ByLayer
 62
  256
370
   -1
100
AcDbLine
 10
-716.5023812894672
 20
385.7368038640845
 11
-716.6082142894671
 21
387.5006838640844
  0
ENDSEC
  0
SECTION
  2
OBJECTS
  0
DICTIONARY
  5
C
330
0
100
AcDbDictionary
281
    1
  3
ACAD_GROUP
350
D
  0
DICTIONARY
  5
D
330
C
100
AcDbDictionary
281
    1
  0
PLOTSETTINGS
  5
31C
100
AcDbPlotSettings
  6
1x1
 40
0
 41
0
 42
0
 43
0
  0
ENDSEC
  0
EOF
